<svg xmlns="http://www.w3.org/2000/svg" viewBox="0 0 591 614.81"><defs><style>.cls-1{fill:#fff;}</style></defs><title>intro-video-mask</title><g id="Layer_2" data-name="Layer 2"><g id="Layer_1-2" data-name="Layer 1"><path class="cls-1" d="M552.81,293.37l1.29-.09A5.26,5.26,0,0,0,552.81,293.37Z"/><path class="cls-1" d="M559.52,0H416l-2,2.08c3.69-2.08-2.65,3.78,2.08.76l1-1.32c1.13,1.7,5.2-2.08,7-1.23l-1.7,1.42c-.28,1,4.25-1.8.95,2.08-.28-.28-.66-.47-.95-.76a27.26,27.26,0,0,0-4.06,5.29,2.5,2.5,0,0,0,.47.57c1.7-.85,4.06-3.59,4.73-3.5-2.65,2.74-1.51,1.42-4.44,3.5,1.89.19,4.25.57,8.51-1.8a6.22,6.22,0,0,1-1,.95c.38,1.61,6.33-1.8,4.54.95l-.57.09c-1.61,2.17-.19,1.89.85,1.89s1.61.19-1.89,3.21c-.95,1.51-.47-1.23-3.4,2.36a2.13,2.13,0,0,0-.09.66l.19.19c1,.28,6.43-4.44,5.58-2.08.09-.28-.28.09-.95.57a12,12,0,0,0,4,1.61c-2.46,2.93-1.32,3.5-.38,4.25s1.8,1.51-.85,4.73c1.8-1.89,2.74-1.8,3.69-2.36a5.2,5.2,0,0,0-.85.66c.19.66,2.55-1.13,3.69-1.7-1.8,2.08,3.4-.38,2.17.95,1.61-1.13,1.51-.47,1.8,0-2.46.38-3.5,2.17-6.24,3.69.28,1.89,8-3.78,7.84-1.42l-2.36,3c4.63-3.21,3.78-.47,5.39-1.8a20.29,20.29,0,0,1-4.06,3.88c1.51-.19-.19,2.36,2.65.57l.76-1.42c-.38,3,6.9-.76,4.82,2.84L446,38.28c-2.17,2.84,4.91-1.13,1.32,2.65,2.17-2,1.42-1.51,4.06-2.55.19-.76-2-.09-2.36-.66l4.82-1.7-3.31-.47c3.21-1.13,2.46-.66,5-3,3-.47-2.36,3.59,1,2.74-.66,1-3.4,2.46-4.44,3.88,2.74-.66-2.17,4-.57,3.78a2.88,2.88,0,0,0-1,.57c1,.19,1.13.76,3.31-.47l.38-1c.19.66,3-1.32,2.08.76,2-.66,5.58-2.74,5.2-3.31.57-.09-.95,1.8-3.12,3,.85,1.51,7.84-4.44,5.48-.76a2.29,2.29,0,0,0-1,.57q-.28.71,0,.85c-1.7.19-4.73,4.06-4.54,2-3.59,2.74,0,1.61-1.13,3,2.93-.95,5.29-3.5,7.37-4.44a2.65,2.65,0,0,0-1.23,1.8l2.55-2.27c.28.28.38.57,1.32.47l-1.51.19c0,.95-3.78,5-.38,4.25-1.32.47-4,1.42-4.91,3.12,2.65,0-.95,1.13-2.65,3.21,1.42.85,5.2-3.12,4.63-.19.09.19,1.61-1,2.27-1.8-.47,2,1.61,1.51.85,3.59a3.06,3.06,0,0,1,2.65-1.8c-2.55,1.23-1.51,2.36-2.65,3.78l1.51-.85a3.56,3.56,0,0,1-2.84,1.42c.47-.28.85-.76.57-.85-1.42.19-6,3.4-6.62,4.91.09.09.09.19.19.28,2-.19,5.39-2.65,6.62-3.69-.57,2.27,7.28-3.12,6-.38.19.28-4.91,5-4.82,6.24,3.59-1.7,1.7-2.74,4.82-4.06-7.09,6.8,7-.19,3.5,5l-4.16,2.36c0,.66.09,1.32.85,1.51l1.7-2.08c1.23-.09,1.13,1.51-2.08,3.12,4-1,2.17.47,1.8,2.08-.28-1.23.57-.38-2,.19-1.23,2.27.09,1.51,1.51,1.7-1.51.76-3.4,2.55-3.21,2.84,3-.95,3.21.66,5.2.76l-1.23.76c2.55.66-1.8,6,2.74,5.39.09,0,.09-.09.19-.09l.19-.19c3.4-3,3.5-.47,5.39-.95-.95.76-2.55,1.89-2.36,2.17,3.59-2.27,2.27-.47,4.06-1.32-.85,1.32-4.25,2.65-3.5,3.5.57.09,2.46-.95,3.78-1.89a7.82,7.82,0,0,0-2.74,3.69c-1,.47,0-.57-.28-.57-1.89,1.13-1,1-3.4,2.55,0,.57,3.4-1.89,2.55-.57l-3.12,1.23c-.57.66.76.19,1,.19a7.34,7.34,0,0,0-1.89.85c.09.28.28.47.38.76,2.46-1.51,5-3.78,7-4.91-1.42,2.74,2.93,1.42,3.78,2.36l-3.4,1.8c.76.19,1.7-.09,3.21-.76a5.28,5.28,0,0,1,.47.76c-1.42.28-2.55.76-5.29,2.36,1.34.18,1.25,1.69,5.1-.18h0l.76-.38-.76.39c-.94,2.08-.57,5-2.17,5.76,2.17.38.28,3.31,4.91,1,.76.09-.47,1.32-1.13,2.27s-.76,1.51,2.27.38c-2.65,2.36-1.23.57-4.82,2-1.42,1.13,0,1,.95,1s1.32.28-2,1.89c2.55.09,1.23-.95,4.44-1.89-3.12,1.51-3.12,2.08-2.84,2.65s1.13,1-.57,2.27c2.84-.47,1.51-1,4.54-1.32-1.7.57-1.8,1-1.89,1.32l4.16-1.32c-2.08,1-4.16,2.08-6.24,3,.19.28.28.66.47.95.76-.19,1.32-.38,1.89-.57,1.32-.47,2.36-.76,3.69,0h-.38c-2,.95-1.13,1,0,1.32a3.35,3.35,0,0,1,1,.28,2.5,2.5,0,0,1,.57-.47l1.23-.47-1.51,1.13c.28.28.28.66-.47,1.32.47-.47-.38-.28-1.32,0l-.47.38c-.19.09-.19,0,0-.19a5.84,5.84,0,0,1-1.51.38c.57.09,1,.28,1.61.38.95-.57,0,.47.85-.09a1.3,1.3,0,0,0-.38.28s0,0,0,0l-.12,0a16.46,16.46,0,0,0-1.32,1.13c.28.09.28.28-.66.85h-.09c-.09.09,0,.09.09.09,4.44-3,3-1.8,6.8-4.35a69.4,69.4,0,0,1-6.71,4.91c.19.38.38.85.57,1.23.28-.19.57-.47.95-.76L492,122c1.13-.85,4.44-3.59,1.8-2.17a21.54,21.54,0,0,0-2.93,2.08l.66-.85a12,12,0,0,1,5.67-2.46,36.18,36.18,0,0,0-4.44,2.84c1.32-.38,3.59-1.61,4.91-2-1.42.76-3.4,2.17-4.73,3-1.42,1.61,2.36-1.32,2.84-1.23a20.06,20.06,0,0,1-2.93,2.36c1.51-.57,2.08-.47.66,1.13,0,0-.85.47-2,1.13a4.61,4.61,0,0,0,.28.66,38.76,38.76,0,0,1,6.52-2.93c3-1.42,2.55-.38,1.8.76s-1.61,2.27.57,1.32c1.51-.95,2.17-2.17,3.4-2.36-2.93,1.8-1.7,1.51-2.84,2.27,4.54-2.36-.47,1.32,2.65-.28a12.28,12.28,0,0,0-2.93,2.46c-3.69,2.36-1.13,1.42-6.71,4.16,2.93-1.42,2.84-.95,3-.66s.76.19,5.1-2.17l.95-.85-1.23,1.8.09-.09c-.38.66.57.19-2.93,2.93-1,.38-1.13.19-2.17.57-3,2.36,3.12-.95,3.59-.66-2.65,1.61-1.23.19-4.35,2.27-.28.57,1.8-.38,2.74-.57l-1.51.85c-2.93,2.74,7.37-4.16,2.74-.57.95-.57,1.89-1,2.74-1.61-1.42,1.13-3.78,3.21-6,3.88.19.19,1.61-.28,3.4-1.13a43.57,43.57,0,0,1,3.69-2.65l2.17.09c.09.19-1.51.76-1.61.66-1.8,1.51-2.17,2.08-1.89,2.36s1.23.09,2.17,0c1.8-.19,3.5-.28-.95,3.12a14.47,14.47,0,0,1,4-1.89c-.47.85.57,1.23-.76,2.46l-1.8.76c2.65-.09,5.77-.76,5.1.57a28.89,28.89,0,0,1-2.88,1.38c3-.82-6.28,4.71.42,1.46l.38-.47c-.57,1.61,4.82.38,6.24,1.13-3.88,2.17-.66-.47-5.39,2.08-1.23,1.51,2.55.66,1.61,2.17a8,8,0,0,0-1.32.38c-2.17,2.08,4.06-2,3.78-1a13.6,13.6,0,0,0-3.5,1.89l3.4-1.32c-.47.28-2.65,1.23-3.78,1.7,4-1.42,1.7.66,5.77-.85-1,.47-4.91,2.08-6.43,2.84-1,.95.66.47,2.36,0-2.74,1.61-2,2-2.55,2.08-1,1.23,2.36-.95,5.1-1.51l1.61-1.32,1.32.57-2.17.47c-1.42,1.13,2.36,0,2.46.57l2.27-1.23h1.7c-4.82,2.17-.76,1.23-6.52,3.31-2,2.08,4.35.19,5.39.95a8.76,8.76,0,0,0-1.8.66c-.85,1,1.89.38,4.54-.28-1.51.57-2.08.57-3.4,1.13.19.76,2.93-.66,4.73-.47a10.36,10.36,0,0,0-3.59,1.51,17.06,17.06,0,0,1,3.69-1.13c-10.11,3.31-3.69,2.46-11.63,5.1,2.08-.76,6.9-1.23,10.68-3.12l-.85.09c2.65-1,1.7-.38,2-.19a14.08,14.08,0,0,0-1.7.38c1.89-.09,2.17.47,2.36,1s.19,1.23,1.7,1.42c-1.13.28-3.12.38-3.78,1-1,1.8,4.44.66,7.37,1-6.33,2.27-1.42-1-7.47,1a19.58,19.58,0,0,0,3.5,1,49.64,49.64,0,0,0,4.91.76c-4.63,1.89-3.5,1.89-2.17,1.89s2.93-.09-.57,1.61c3.12-1.13,4.35-1,4.63-.57-2.65.66-2.55,1.23-4.44,1.7,3-.57,4.63.38-1.51,2.27,6-1.7,0,1,4.35.09-2.08,1.23,1.61.85,0,2.08,3.31-1.32,2.27-.19,3.21-.09a4.16,4.16,0,0,0-.95.19c-3.21,1.23,3,0,1.23.95-1.32.57-3.5.95-3.69,1.32,2.65-.76,6-.57,2.93.76,0-.19-1.42.19-2.46.38,2.55.19,2.65,1.23,2.74,2.27s.28,2,3.31,2.17l-4.63.95c-5.48,2.84,7.66-1.23,7.28-.09-1.51,3.21-7.37,7.56-3.78,9.26,1.32-.19,1.61-.57,3.5-1-.47.38-4.25,1.32-1.8,1l2.46-.66c-3.21,1.42-1.89,1.89-1,2.55s1.23,1.32-3.88,3c4.16.19-2.46,2.55,3.78,2.46-2.08.95-4.35.57-4.82,1.23l4.06.38c3.31-.09,1.51,1-.57,2.36s-4.54,2.74-1.7,2.93h-.38c-1.7.38-3.78,1.13-3.12,1.23a17.08,17.08,0,0,0,3.21-.95c3.12.76,3.4.95,4.16,1.89-2.65.09-2.08.95-5.67,1.7,2.46-.19,3.69-.95,5.77-.76.47.76-2.36,2.27-3.5,3.21,3.21-.38,2.46.19,6.33-.57.38.95,2.08,1.13,2.27,2.36l-1.32.28c4.91-.66-2.27,1.61.57,1.23-1.7.38-2.46.38-3.78.66l1.7.19c-1.51.09-6.14.85-6.62,1.42.75,0,1.28-.09,1.69-.14l1.3-.3a9.08,9.08,0,0,1,2.2-.5l-2.2.5a5.92,5.92,0,0,1-1.3.3l-1,.24a24.74,24.74,0,0,0,7-1.42c.19,1.13,2.65,1.89,2.08,3.12l-3,.47c1.13.28,1.32,1.13-1.23,2a23.21,23.21,0,0,0,3.4-.57c3.88-.09-3.5.85-1.13.95a16,16,0,0,0-2.65.19l3.88.66c-2.17.38-7,2.27-4.91,2.46a15.89,15.89,0,0,0,3.12-.95l1.13.19-5.1,1.32,4.63-.28-4.25.85c.95.19,6.43-.66,6.14-.28-2.55,1.8-4.06,1.8-7.94,3.5,8.32-1.42,0,1.51,6,.57-6,2.36-1.89,3.31-3.4,5.2h-.76c-3.69,1.42,6.33-.47,4.82.57l-1.23.09c-4.16,1.7.19,2.55,3.78,2.74-1.32,0-4,.66-3.59.85,1.61-.09,5.67-1.32,4.25-.57a8.62,8.62,0,0,0-2.65.57l4.16-.28c-2.55,1.8-5.29,3.78-2.65,4.63a17.7,17.7,0,0,1-4.35.85c1,.85,4.63,1.23,5.58,2l-4.73,1c.09.47,7.37-1.13,3.21.28-.66.19-.38-.38-2.55-.09-3.4,1.61,4.73-.38,4.35.57l-5.39.85c-3,1.32,2.93.19,6.14-.19,6.52-.28-10.21,2.74-5.2,3,2.65-.28,3.88-.85,6.52-1.13-1.23,1.23,2.65.57,1.42,1.7-7.94,2.08-.09-.38-7.47,1.61l1.7-1c-4.06,1.42-1.13-.28-5.86.76-1.32.76,2.84.57,4.54.85-3.4.66-.95-.47-4.63.47l1.51.28a5.23,5.23,0,0,1-1.7.19,12.38,12.38,0,0,0-1.42.47h.09c1.89-.38,4.54-.95,7.09-1.51-.38.09-.76.28-1.23.38,5.29-.47,1.61,1.32,5.77.95-1,.19-1.32.28-2.17.47-.09.38,4.73-.28,6.14-.09-2.65.76-7.94,1.42-6.33,1.89,2.93-.47,8-1.89,8-1.23a13.54,13.54,0,0,0-4.54.66c2.17.09-.95.38-4.16,1.61,4.25-.57-1.32.85,5.48-.47a47.8,47.8,0,0,0-6,1.8c3.59-.95,3.78-.09,8.22-1-5,1.23-6.24.66-11.44,2.27,3.5-.38,4.82,0,10.3-1.13a19.5,19.5,0,0,0-3.59,1.51,3.54,3.54,0,0,0-1.32.09c3.88-.09.38,1.8,7.09.76-7.84,1.51-.57,1.7-8,2.74.38.28,3.78,0,5.29-.19-6.14,1.32-1.32,1-4.91,2.17,3.5-.57,2.46.19,4.54.09a17.06,17.06,0,0,0-3.5.57c2.55-.19.28.19-2.55,1.13h.09c2-.09,4.54-1.13,7.37-1.51-1.23.76-3.78.95-6.33,1.61l6.33-.76a32.63,32.63,0,0,1-3.4,1c1.8-.19,4.44-.57,1.61.38l-.28-.47-3.12.95,4.06-.28a26.88,26.88,0,0,1-3.31,1.23h-.28a2.22,2.22,0,0,0-.76.19h1.32c-.66.09-1.23.09-1.8.19-.95.28-1.89.47-2.93.76.76,0,1.51,0,3.59-.09-.09,0-.19.09-.28.09,1.8-.19.95.09,1.13.19a10.85,10.85,0,0,0-1.7.09c1.7.09,1.89.38,1.89.76a4.09,4.09,0,0,1,.47-.09l-.09.28L550,278c0,.38-.09.76,1.23.95a23.65,23.65,0,0,0-3.78.28c.47.28.95.47,1.32.76a49.82,49.82,0,0,1,5.39.38c-5.39.66-2.65-.28-4.91-.19h-.09c-.47,0-1.23.09-2.36.19a39.84,39.84,0,0,0,7.56,1.61c-9.73,1.51,4.06.38-3.5,1.89,3.31-.47,4.54-.28,4.63,0a20,20,0,0,0-3.4.57l-.19.19c1.89,0,2.36.47-1.61,1l-.09.09c3.59-.28-1.23.76,2.74.47-2.27.66,1.32.57-.47,1.23,3.59-.47,2.27.09,3.21.19a3.55,3.55,0,0,0-.95.09c-3.31.57,3,.19,1,.66-1.42.28-3.59.38-3.87.57,2.84-.38,6.14-.09,2.74.57a12.19,12.19,0,0,0-2.46.09c4.82.66-.76,2.46,4.91,3l-4.73.28c-2,.47-1.8.57-.66.57.94-.38,1.7-.66,2.45-.19,2.35-.17,5.16-.37,5.39-.16v.07h0c-2.08,1.8-8.7,4.16-5,5.77a35.91,35.91,0,0,0,3.59-.38c-.57.19-4.44.57-2,.57l2.55-.28c-3.31.66-2.17,1-1.42,1.51s.95.95-4.35,1.61c4.06.38-2.84,1.42,3.31,1.8-2.27.38-4.44,0-5,.38l4,.47c3.31.09,1.32.76-.95,1.42s-4.91,1.42-2.17,1.7h-.38a20.39,20.39,0,0,0-2.84.28c-.19.09-.38.09-.57.19,0,.09,0,.09.09.09,1.32-.09,1.89-.19,3.4-.38,3,.66,3.12.85,3.78,1.51a10.52,10.52,0,0,0-4,.38l.09.19a16,16,0,0,1,3.69,0c.38.47-2.74,1.23-4,1.7,3.21.09,2.36.38,6.33.19.24.49,1.46.84,1.8,1.4v.3l-1.32.09c.62,0,1,0,1.32.06V314c-.87.21-2.54.44-.95.5-1.8,0-2.46-.09-3.87,0l1.61.28a54.53,54.53,0,0,0-5.58,0l.28.28c1.8.09,1.42-.19,3.78-.09l-3.78.19.09.09a30.78,30.78,0,0,0,6.14-.28c-.09.76,2.17,1.51,1.42,2.27h-3c1.13.38,1.13.85-1.51,1.13.85,0,2.46.09,3.5,0,3.78.38-3.5.19-1.32.47a17,17,0,0,0-2.65-.19l3.69.95c-1.7,0-5.1.28-5.67.66v.19a1,1,0,0,0,.38.09,22,22,0,0,0,3.21-.19l1.13.28-4.82.19,4.25.38h-4.35c.95.28,6.52.47,6.14.66-2.55.76-4.06.66-7.66,1,.09,0,.09.09.19.09,6.71.19-1,.85,4.73,1.13a11.23,11.23,0,0,0-2.74.47c.95.85,1.32,1.61.76,2.36.66.09-.85,0-2.08-.09a.2.2,0,0,1-.19.19l-.38-.09c.09.19.09.28,0,.38,2,.19,5.29.47,4.25.76l-1.23-.19c-2.27.19-2.36.57-1.51,1a20.52,20.52,0,0,0,4.44,1.42c-1.23-.19-4-.28-3.69-.09,1.61.28,5.86.28,4.25.47a13.66,13.66,0,0,0-2.65-.09l4.16.66c-2.93.66-6,1.42-3.69,2.55a6.19,6.19,0,0,1-1.32,0,5.94,5.94,0,0,1,1.61,2l.19.19-4.82-.47c-.09.28,6.43.95,3.69.95h.28l-.85.19c1,.19,1.8.38,1.61.57l-2.55-.38L552,337l-.19-.19-2.17-.28h-.66c.09.09.09.19.19.28,1.23.28,4.44.76,6.52,1.13,4.63,1-3.12.09-5.77.09,0,.19.09.38.09.57,2.55.47,3.88.47,6.43.95-1.51.47,2.36,1,.85,1.51-7.09-.76-1.89-.47-5.29-.85a.18.18,0,0,1,0,.28,19.9,19.9,0,0,0-2.17-.09h-.09c-.19,0-.38.09-.57.09.18,0,.38.05.58.07l-.29-.07a5.58,5.58,0,0,1,1.32.19c-.35-.06-.7-.09-1-.12,4.74,1.16.92,1.18,4.91,2.2a12.5,12.5,0,0,0-2.27-.38c-.28.19,4.44,1.23,5.77,1.8-2.65-.28-7.94-1.42-6.52-.66,1.43.28,3.39.57,5,.86-.5-.09-1-.16-1.51-.2,1.61.66.09.28-2.27,0-.38,0-1-.09-1.89-.19,3.69.95-1.7.09,5,1.42-4.63-.66-2.93-.38-6.24-.76,3.69.57,3.59,1.23,8,2.08-5-.95-6-1.7-11.44-2.36a87,87,0,0,0,9.92,2.74c-1.32,0-3.21-.38-3.87-.19a5.86,5.86,0,0,0-1.32-.38c3.5,1.32-.28,1.32,6.24,3-3.88-.95-4.25-.66-4.44-.47a.56.56,0,0,1-.47.19l.09.28-.85-.38c-.38-.09-.85-.19-1.61-.38,0,.09-.09.09-.09.19,1.13.38,2.84.95,3.78,1.23-2.36-.47-3.12-.66-3.4-.57.66.57,1.89,1.23,1.89,1.8.09,0,.09.09.19.09l2.46-.19c.47.47.95.85,1.42,1.32-2.08-.19-2.74,0-3.12.19a6.51,6.51,0,0,1-.76.28q.28.14-.57,0a5.82,5.82,0,0,1-1.23-.09l1,.38c-.95-.09-2-.28-3.12-.47-2,1.7,3.88,3.69,4.25,5.58a10.64,10.64,0,0,0-1.89-.38c-1.32.95,1.32,2,4,3a32.81,32.81,0,0,0-3.5-.95c-.19,1.32,2.93,1.23,4.25,2.93-2.08-.76-3.21-.76-3.87-.47a9.28,9.28,0,0,1,3.78,1.13c-10.3-2.65-4.54.95-12.66-.95,2.09.36,6.1,3.17,10.19,3.38l-.08-.07a2.42,2.42,0,0,1,.31.08h.26l-.76-.57c2.84.38,1.7.76,1.8,1.23a4.66,4.66,0,0,0-1.3-.67H553a3.19,3.19,0,0,1,1.15,3.42,3.66,3.66,0,0,0,.47,3.59c-1-.38-2.74-1.7-3.69-1.23-2,2,3.21,4.35,5.29,7.28-6.62-1.23-.47-2.74-6.71-4.06a20.11,20.11,0,0,0,2.08,4.35,24.18,24.18,0,0,0,1.51,2.36c.57.85,1.23,1.7,1.89,2.55-4.91-.57-4.06.28-3,1.32s2.36,2.27-1.61,2.27c3.21.57,4.16,1.7,4.06,2.65-2.55-.95-2.84,0-4.63-.76,2.84,1.51,3.4,4.16-2.84,2.46,6,1.8-.76,1.61,3.31,3.4-2.55.38.66,2.55-1.51,3.31,3.5.47,1.89,1.51,2.55,2.36a3.7,3.7,0,0,0-.85-.38c-3.31-.57,2.46,2.27.28,2.46-1.42-.09-3.4-1.13-3.88-.66,2.65.85,5.2,3.69,1.7,3.4.19-.28-1.23-.76-2.17-1.23.09.19.19.28.28.47s.19.19.09.19c1.23,2,.57,3.59-.09,5.1-.76,1.7-1.42,3.4.66,6l-4.25-2.17c-6.43.09,6.8,3.88,5.58,5.39-.47.47-1,.95-1.61,1.42a13.5,13.5,0,0,1-1.89,1.32c-1.23.85-2.55,1.7-3.78,2.55-2.36,1.8-4.06,3.69-3.59,6.43,1.13.85,1.7.47,3.5,1.13-.66.09-4.35-1.32-2.27.19l2.36.85c-3.59-.28-3.12,1.51-3.12,3.21s-.28,3.12-5.58,1.61c1.42,1.8.38,2.27-.47,2.93s-1.42,1.42.76,3.88c-2.36-.28-3.5-2.65-4.54-2l2.55,3.78c2.55,2.46,0,2.84-2.74,3.12s-6,.57-4.16,3l-.28-.28c-1.51-.85-3.59-1.32-3.31-.66,1,.76,1.8.76,3.21,1.23a13.42,13.42,0,0,1,1.13,3.69,8.16,8.16,0,0,1-.28,2.46c-1.89-2-2.36-.38-5.58-2.08,1.8,1.61,3.4,1.51,4.63,3.5-.57,1.61-4,1.42-5.77,2,2.55,2.08,1.42,2.17,4.82,4.25-.76,1.7.09,3.4-1.13,5.39l-1.23-.66c4,3.12-3.21.38-.95,2.27a35.26,35.26,0,0,0-3.21-2.27l.85,1.7c-.95-1.23-4.91-4-5.77-3.5,2.46,2.55,2.17,1,4.35,2.93l-4.06-2.17c.09.76,4.44,3.78,6,3.78-1.32,1.89-.66,5-2.46,6.33l-2.46-1.8c.28,1.61-.57,2.93-3.12,2a15.64,15.64,0,0,0,2.84,2.08c2.36,3.12-3.12-1.8-1.89.28a7.2,7.2,0,0,0-1.89-2l1.51,4.35c-1.89-1.23-6.9-2.74-6-.66a5.71,5.71,0,0,0,2.93,1.42l.47,1.23-4.63-2.55,3.12,3.5-3.59-2.55c.28,1.13,4.63,4.73,4,5-3.69.28-4.63-.95-9-2.08,3.31,2.55,2.84,3,2.08,3.4s-1.7.57.57,2.55a7.41,7.41,0,0,0-3.59-.38,3.33,3.33,0,0,0-1.89,1.23c-1,1.13-1.61,2.65-3.21,3.21l-.38-.66c-3.78-1.51,4.06,5.1,1.89,5.1l-.76-1c-4.44-1.42-3.31,3.5-1.8,7.09-.76-1-2.93-2.65-3-2.08.95,1.42,4.73,3.5,2.93,3.21a5.43,5.43,0,0,0-2.17-1.61l2.55,3.5a19.4,19.4,0,0,0-5.39.47c-1.51.47-2.55,1.32-2.55,3.12a12.25,12.25,0,0,1-3.21-3c-.76,2,.47,5.86-.28,7.75l-3.59-3.21c-.57.66,4.91,5.58,1,3.4-.57-.28.38-.76-.95-2.46-3.88-1.32,2.65,4.06,1,4.91l-3.59-4.16c-3.21-1.42,1,3,2.93,5.67,1.61,2.93-.47,1.23-2.74-.47s-4.73-3.5-4-.95c1.61,2.27,2.84,2.84,4.44,5-2.27.19.19,3.12-2.08,3.31-6.24-5.29.66-.57-5.29-5.48l2.27.47c-3.78-2.36.09-1.51-3.4-4.91-1.61-.47.28,3.31.57,5.29-2.55-2.65.66-1.13-3.12-4.44l.57,1.51c-.66-.95-1.51-1.89-1.23-2.08-2.46-2.36-.57.28-.95.76,1.23,1.42,3.12,3.4,5,5.2-.38-.28-.66-.57-1-.85,2.74,4.63-1.32,2.93.76,6.71a6.86,6.86,0,0,0-1.51-1.7c-.57.28,2.08,4.44,2.27,6-2.17-1.7-5.1-6.24-5.2-4.16,1.8,2.46,5.77,6,4.73,6.71a7.64,7.64,0,0,0-2.65-3.78c.38,2.36-.95-.47-4.06-2.36,2.36,3.69-1.89-.38,2.55,5a26,26,0,0,0-4.82-4.06c2.65,2.65,1.32,3.88,4.25,7.28-3.5-3.78-3.12-5.67-7.28-9.17,1.7,3.12,1.51,4.91,5,9.26-1.13-.57-2.65-2-3.59-2,.09-.19-.38-.85-.57-1.23,1.23,3.88-2.74,2.27.76,8-4.73-6.52-3.12,1.13-6.8-5.48-.28.57,1,3.88,1.8,5.2-1.89-2.46-2.46-2.55-2.84-2.36s-.66.76-2.08-.57c1.8,2.93.38,2.74.85,4.54a9.49,9.49,0,0,0-1.8-2.84c.95,2.55-.38.47-2.65-1.61.38,2.17,3,3.78,4.25,6.52-1.51-.57-2.46-3.12-4.06-5.1l2.65,5.86a10.5,10.5,0,0,1-2.55-2.55c.76,1.8,2,4.16-.28,2.08l.76-.85-2.17-2.36,1.32,4.06c-2.36-1.51-4.44-4.06-6.52-7-1.13-.47-2.36-1-1.23.95,1,1.42,2.55,1.89,2.74,3.12-2.17-2.65-1.7-1.42-2.65-2.46,2.74,4.25-1.51-.19.38,2.74a12.19,12.19,0,0,0-2.84-2.55c-2.54-3.06-1.84-1.19-4.28-5.11,1,1.7.46,1.75.21,2s-.28.85,2.55,4.91l.95.76-2.08-.95.09.09c-.85-.28-.19.66-3.4-2.46-.47-.95-.19-1.23-.66-2.17-2.74-2.65,1.23,3.12.85,3.69-2-2.55-.28-1.32-2.74-4.16-.66-.09.47,1.89.76,2.84l-1-1.42c-3.21-2.46,4.91,7,.76,2.84.66.76,1.23,1.7,1.89,2.46-1.42-1.32-3.78-3.4-4.63-5.48-.28.19.28,1.61,1.32,3.31,1.89,1.89,1.13.76,3.21,3.31l-.09,2.36c-.09.19-.95-1.32-.76-1.51-3.5-3.12-3-1-2.74.85s.28,3.59-3.69-.28c1.8,2.17,1.32,2.08,2.27,3.78-.95-.38-1.32.76-2.84-.28l-.95-1.7c.19,2.74.95,6-.57,5.48a27.58,27.58,0,0,1-1.7-2.93c.66,1.7-.76.38-1.8-.66s-1.8-1.61.19,1.61l.57.38c-.95-.09-.95,1.23-.95,2.74a11.45,11.45,0,0,1-.19,4.16c-2.65-3.59.57-.85-2.55-5.2-1.89-.95-.76,2.93-2.55,2.17a6.77,6.77,0,0,0-.47-1.32c-2.46-2,2.36,3.78,1.23,3.69a11.29,11.29,0,0,0-2.27-3.21l1.61,3.21a26.22,26.22,0,0,1-2.08-3.59c1.7,3.88-.85,2,1,5.86-.66-.95-2.55-4.63-3.5-6-1.13-.95-.57.85,0,2.46-1.8-2.55-2.36-1.7-2.46-2.27-1.51-.85,1.13,2.27,1.8,5l1.61,1.42-.66,1.51-.57-2.17c-1.42-1.23-.09,2.46-.76,2.74l1.51,2.08v1.8c-2.55-4.73-1.51-.57-4-6.24-1.23-.85-1.23.38-1.13,1.89s.38,3.31-.09,3.88a10.72,10.72,0,0,0-.76-1.8c-1.23-.76-.47,2,.28,4.63-.66-1.51-.76-2.17-1.32-3.4-.85.38.85,3,.57,4.91-.76-2.08-1.32-3.12-1.8-3.5a12.34,12.34,0,0,1,1.32,3.69c-3.78-9.83-2.93-3.4-6-11.15.85,2.08,1.32,6.9,3.5,10.59l-.09-.85c1.23,2.65.38,1.8.19,2.08a4,4,0,0,0-.38-1.7c0,1.89-.66,2.27-1.42,2.55a2.29,2.29,0,0,0-1.89,2c-.28-1-.38-3-1.13-3.69-2.08-.85-.95,4.63-1.61,7.75-2.55-6.24,1.42-1.61-.95-7.56a19.77,19.77,0,0,0-1.51,3.69,40.71,40.71,0,0,0-1.23,5.1c-2.08-4.54-2.17-3.4-2.27-2s-.28,3.12-2.08-.38c1.13,3.12.95,4.44.28,4.73-.57-2.55-1.32-2.46-1.7-4.35.38,3-.95,4.73-2.74-1.42,1.7,6-1.23.09-.47,4.44-1.42-2.08-1.23,1.61-2.65.09,1.32,3.31-.09,2.27-.28,3.31a1.7,1.7,0,0,0-.09-.95c-1.13-3.12-.28,3.21-1.32,1.42-.57-1.23-.85-3.5-1.32-3.69.66,2.74,0,6.24-1.32,3,.28,0-.09-1.32-.19-2.46-.66,2.65-2,2.74-3.31,2.84s-2.65.38-3.31,3.4l-.47-4.73c-2.74-5.58.47,7.75-.95,7.37-1.89-.76-4-2.74-6-4s-3.69-2-5-.19c0,1.42.38,1.7.76,3.59-.38-.57-1-4.44-1-1.89l.47,2.46c-2.46-6.62-3.5,5.2-6-5.29-.85,4.16-2.74-2.55-3.5,3.69-.76-2.17,0-4.35-.76-4.91l-.95,4.06c-.28,3.4-1.51,1.51-2.74-.66s-2.74-4.73-3.21-1.89v-.38c-.19-1.7-.85-3.78-1-3.12a16.38,16.38,0,0,0,.76,3.31c-1.23,3.12-1.51,3.31-2.65,4.06.09-2.65-.85-2.17-1.42-5.77,0,2.36.66,3.69.28,5.77-.95.47-2.36-2.46-3.4-3.59.19,3.31-.38,2.46.19,6.43-1,.38-1.42,2.08-2.74,2.27l-.28-1.32c.47,5-1.61-2.27-1.32.57-.28-1.8-.28-2.55-.57-3.88l-.28,1.7c0-1.51-.66-6.14-1.23-6.62,0,.65,0,1.14.09,1.53l.3,1.46a7.88,7.88,0,0,1,.46,2.21l-.46-2.21a5.64,5.64,0,0,1-.3-1.46l-.18-.86c-.38.57.47,5.67,1.23,7-1.32.19-2.17,2.65-3.5,2.08l-.47-3c-.38,1.23-1.23,1.42-2.17-1.13.19.85.38,2.46.66,3.4.09,3.88-1-3.59-1-1a11.07,11.07,0,0,0-.28-2.74c-.28,1.32-.57,2.65-.76,4-.47-2.17-2.65-6.8-2.84-4.73a12,12,0,0,0,1.13,3L310,601.3l-1.61-5,.57,4.63-1.13-4.25c-.19.95,1,6.43.57,6.14a15.23,15.23,0,0,1-2.17-3.31c-.57-1.13-1.13-2.46-2.17-4.35,2.17,8.13-1.7.19-.38,6-3.12-5.67-4.25-1.42-6.8-2.65v-.76c-1.8-3.59.47,6.43-.95,5v-1.23c-1.13-2-2-1.89-2.74-.85a18.36,18.36,0,0,0-1.61,5c0-1.32-.57-4-.95-3.59-.09,1.61,1.32,5.67.28,4.25a5.21,5.21,0,0,0-.57-2.65c0,1.42-.09,2.84-.09,4.25-2.36-2.55-4.82-5.2-6.33-2.65a18.24,18.24,0,0,1-.47-4.44c-1.32,1-2.36,4.63-3.59,5.48l-.57-4.82c-.57.09.28,7.47-.85,3.21-.19-.66.57-.38.57-2.55-1.51-3.5-.28,4.82-1.51,4.35l-.09-5.48c-1.13-3.21-.76,2.93-.85,6.14-.76,6.52-1.7-10.4-2.93-5.48,0,2.65.47,3.88.38,6.62-1.23-1.32-1,2.55-2.27,1.23-1.23-8,.57,0-.66-7.56l1,1.8c-1-4.25.57-1.13.09-6-.66-1.32-1.23,2.74-1.8,4.44-.28-3.69.85-.47.09-5.39l-.28,1.51c.09-1,0-2.46.19-2.36-.38-3.5-.38-.19-.76-.09.09,1.7.32,4,.58,6.39l-.1-.53c-.38,5.29-1.89,1.42-2.17,5.67a14.58,14.58,0,0,0-.19-2.27c-.47-.09-.57,4.73-1,6.14-.47-2.74-.38-8.13-1.23-6.52.09,2.93.85,8.22.09,8.13a11.31,11.31,0,0,0,0-4.63c-.66,2.17-.38-.95-1.32-4.35-.09,4.25-.95-1.51-.47,5.48a31.26,31.26,0,0,0-1.13-6.14c.47,3.78-.66,3.78-.28,8.32-.57-5.2.38-6.43-.66-11.72-.19,3.4-.95,4.73-.57,10.3-.38-1.13-.66-3.12-1.23-3.69a4.3,4.3,0,0,0,.09-1.32c-.57,3.78-2.27.09-2.27,6.9-.38-8-2-.76-1.89-8.32-.38.38-.76,3.78-.76,5.29-.47-6.24-1.13-1.51-1.8-5.2,0,3.5-.76,2.36-1,4.44a15.61,15.61,0,0,0,0-3c-.28.85-.47,1.61-.76,2.27v2.08a5.12,5.12,0,0,1-.38-1.42c-.09.09-.09.19-.19.28a.72.72,0,0,1-.38-.19l-.09,1.13a11.13,11.13,0,0,1-.38-1.8,3.3,3.3,0,0,1-.28-1.13c-.09,1.8-.19,3.78-.76,1l.66-.28-.47-3.21-.57,4.06a31.9,31.9,0,0,1-1.23-5.86l-.38.66v-2.27c-.28-1.51-.47.95-.57,1.51.09-3.31-1.61-1-2.36-1.61l.28,2.93c-2.17,6.9-3.4-7.28-5.1-3.69l-1.23,4.91-.19-4.25c-.76,2.55-.95,5.86-2.08,4.35-2-3.78-4.06-3.4-6.24-2.65s-4.35,1.8-6.33-.66a3.7,3.7,0,0,0,.19,1.23c-1.61-4.54-3-1.89-4.44.95-1.51,3-2.93,6.33-4.44,2.08l.28-1.61c-1.7.85.28-1.61-.85-4-.47,5.2-2.27,4-3.31,5.86.19-1,.57-.95.85-1.7-.19-1.23-.19-4.35-.66-3.4-1.32,7.47-3.59,6.62-5.39,8.79-.09-3.4-1.42-6.52-2-12.1-.19,1.23-.66,3.88-1,6.43.09.28.09.57.19.95-.09,0-.09.19-.19.28.38-.19.57-.38.47-.66.57,3.31-.19,2.65-.28,6.62-.57-.19-1.8,1.13-1.8-1.89q-.43-.14-.85-1.13c-.28.57-.57.95-.76.57l.09-.38c0-.57-.09-.85-.09-1.23-1-1.7-2.84,4.16-3.88,6.9,1.13-5,0-5.67.19-9.36-.09.28.95.47,2.36.66a12.88,12.88,0,0,1-.09-2.36c-.95-3.88-2.17,3.31-3.78.57a8.93,8.93,0,0,0,.38-2.55c-.57-1.13-1.23,1.8-1.51,4,0-3.59-1.13-6.24-1.89-4.73-.66,2.84-.66,4.25-1.7,3.88l.57-2.46c-1-2.08-1.13,3.31-2,1.7.28.38.47-1.89.19-2.36-1.32,1.32-1.42,2.74-2.65,7.75l.38-4c-1.13,2.17-3.31,6.43-3.31,2.46-.28,7.09-2.55,3.31-3.5,3.12.28-.19.47-2,.57-2.84-2.36,5.29-4.06,0-6-.09l.09-6c-1,.19-2.17,12-3.31,11.63l.57-2.84c-2.08.85-2.84.28-4.44-.85l.28-4c-.66,1.8-1.42,1.8-2.17,3.59-.28-4.91-1.7-3.78-3.31-2.74s-3.31,2-4.06-3.59l-.76,7.47c-.95-.19-2.27,1.23-2.27-4.44l.19.09c.57-5.67-.95-.19-1.42-1.51a12.62,12.62,0,0,0-.95,5.48c-2.17-4-6.24-.38-7.18-7.28-2.74,2.17-5.2,7.94-7.84,6.9l.09-.85c-.76-1.13-2.46-3.31-1.8-9.55-2.08,1.32-4.16,9.73-6.24,6.71l.76-2.36c-.38-1.32-1.7,1.61-2,2.27-.19-.19.09-1.42.19-2.27-.28-2.17-1,1.13-1.51,1.7l.38-2.08c-1.32-4.44-5.2,3.69-7.47,2.36.47-.57.57-2.93.47-4-1.8,6.8-4.25,4.82-5.48,6.33l.95-2.65c-2.46,4.35-.85-7.47-3.31-3.12l.66,4.16c-.57-1.23-1.42,0-1.61,3.12-.66-2.46.57-5.29-.76-6.14.19-2,1.23-1.23,1-3.78L110,593.92c0-.09-.09-.19-.09-.38l.09.38c0-.57-.28-.76-.95-.28-.85,8.6-1.61.28-1.7,8.79-2.84.28-4.35-5.67-7.18-2,.09-8.41-4.63-.85-2.93-11.63-1.32-.28-2.65,1.7-4.06,6,.19.85.66-.47,1-.95-.76,2.74-2.36,2.93-3,2.84,1.13-2.36,2.84-4.25,4.06-8.32-1.32.95-3.5,4.73-4.35,6l.47-5.58c-1.61,4-.19-4.54-2,.76l-.09,1.7c-1.8-.66-2.65,4.82-4.44,5.29l.38-2.17c-.38-1-2.08,4.06-1.89-1H84.5c.47-3.88-.09-5.77-.19-7.75-1.32.85-1.42,6.33-2.08,6.71.38-3.69.28-2,1.23-5.48a12.72,12.72,0,0,0-5.2,6.9,6.9,6.9,0,0,1,.19-1.42c-1.23-.85-3.5,5.48-3.87,2.27l.38-.47c-.19-5.48-3.69,4.54-2.36-4.63-.28-1.8,1.13.57,1-4.06-1.12-3.08-2.42,7.17-3.36,4.73.08.11.18-.41.34-1.14a10.64,10.64,0,0,0-4,1.42c-.09-3.88-1.23-3.59-2.36-3.5s-2.36,0-2.27-4.44c-.09,2.93-.95,3.4-1.32,4.54a3.4,3.4,0,0,0,.19-1c-.57-.38-1.23,2.55-1.7,3.69,0-2.74-2.17,2.46-2.17.66-.47,1.89-.76,1.23-1.32,1.13,1.51-1.89,1.13-4,2.27-6.9-1.42-1.32-3.59,8-4.91,6.14l-.09-3.78c-1.42,5.39-2.46,2.84-2.84,4.91a22,22,0,0,1,.57-5.58c-.95,1.13-1.23-1.89-2.27,1.32l.28,1.61c-1.61-2.55-4.63,5-5.39.95l2-8.13c-.19-3.59-3,4.06-2.65-1.13-.38,2.84-.09,2-1.42,4.54.28.66,1.51-1.23,2.17-1l-2.55,4.44,2.74-1.8c-1.7,3-1.51,2.17-1.89,5.58-2,2.27-.47-4.25-2.55-1.42-.19-1.23,1-4.06.95-5.86-1.7,2.27-.85-4.44-2-3.31a5.18,5.18,0,0,0,.38-1.13c-.85.57-1.32.09-2.17,2.46l.38,1c-.47-.38-1.42,2.93-2,.76-1,1.7-2.55,5.58-1.89,5.86-.47.47-.38-1.89.47-4.25-1.61-.57-3.21,8.41-3.69,4.06a3.15,3.15,0,0,0,.47-1.13c-.19-.47-.38-.66-.57-.66,1.23-1.23,1.13-6.14,2.27-4.44,1-4.35-1-1.23-1-3-1.61,2.65-1.89,6.14-2.93,8.13a2.5,2.5,0,0,0-.19-2.17L27,590.71c-.38-.19-.66-.28-1.32.38l1-1.13c-.57-.85-.09-6.33-2.36-3.59.76-1.23,2.17-3.69,1.89-5.58-2,1.61.09-1.42.09-4.16-1.51.28-2,5.67-3.4,3-.19-.09-.57,1.89-.66,2.84-.85-1.89-2.17-.19-2.84-2.36a3.14,3.14,0,0,1-1,3.12c1.23-2.55-.19-2.84-.19-4.63l-.66,1.51A3.59,3.59,0,0,1,19,577.29c-.28.57-.28,1.13,0,1,1-1.13,2.84-7.28,2.08-8.22-1.61,1.13-2.93,5.39-3.31,7.09-.85-2.17-4,6.9-4.54,3.88-.38-.09.85-6.9.09-7.84-1.89,3.4.19,3.12-1.51,6,.85-4.82-.57-3.69-2.17-2.27S6,580.31,6,577.19l2-4.25c-.38-.47-.76-1-1.51-.76l-.19,2.74c-.85.76-1.8-.66,0-3.78-2.65,3.12-2.08.85-2.65-.66.95.76-.28.57,1.51-1.32-.28-2.65-.95-1.13-2.17-.57.76-1.51,1.32-4.06,1-4.16-1.61,2.08-2.65,1.61-4,2v48.39H592V0ZM558.1,344.79a10.62,10.62,0,0,0-1.4-.35c1.65.3,2.91.58,2.82.82A6.75,6.75,0,0,0,558.1,344.79Z"/></g></g></svg>
