<svg xmlns="http://www.w3.org/2000/svg" viewBox="0 0 796.81 796.65"><defs><style>.cls-1{fill:#fff;}</style></defs><title>intro-video-mask</title><g id="Layer_2" data-name="Layer 2"><g id="Layer_1-2" data-name="Layer 1" transform="rotate(90 398.4 398.4)"><path class="cls-1" d="M168.61,249.24l-1.09-1A5.32,5.32,0,0,0,168.61,249.24Z"/><path class="cls-1" d="M372.67,82.93c.18.24.27.22.3-.12C372.88,82.92,372.78,83,372.67,82.93Z"/><path class="cls-1" d="M181.65,229.94c-1.8-1.55-3.74-3.31-5.64-5.07C180.36,229,181.11,231.29,181.65,229.94Z"/><path class="cls-1" d="M300,135l-1.63-.36C299.11,135.12,299.69,135.22,300,135Z"/><path class="cls-1" d="M219.88,191.38l.48.93C220.57,192.38,220.48,192.14,219.88,191.38Z"/><path class="cls-1" d="M296.42,137.62a48.14,48.14,0,0,0-4-4.33c.36.56.63,1,1.18,1.83Z"/><polygon class="cls-1" points="309.59 112.19 309.59 112.19 309.59 112.2 309.59 112.19"/><path class="cls-1" d="M224.92,191.18c.22.36.52.81.92,1.41C225.5,192.08,225.21,191.62,224.92,191.18Z"/><path class="cls-1" d="M309.68,111.56l.57,1.6c-.23-.31-.44-.64-.66-1a22.48,22.48,0,0,1,1.6,3.32C311.27,115,312.94,116.77,309.68,111.56Z"/><path class="cls-1" d="M169.31,239.9l-.12,0C169.29,239.93,169.31,239.93,169.31,239.9Z"/><path class="cls-1" d="M292.06,140.37a5.32,5.32,0,0,0,.33.68C292.31,140.88,292.19,140.64,292.06,140.37Z"/><polygon class="cls-1" points="220.86 196.13 219.41 194.57 220.53 196.07 220.86 196.13"/><path class="cls-1" d="M350.89,79.48c.23.7.49,1.43.76,2C351.49,81,351.21,80.26,350.89,79.48Z"/><path class="cls-1" d="M360.73,83.15,360,79.61l0-.05Z"/><path class="cls-1" d="M311.19,115.51a.76.76,0,0,0,.08.4C311.84,117.48,311.69,116.81,311.19,115.51Z"/><path class="cls-1" d="M317.38,89.29c.53,1.45,1.05,2.87,1.31,3.81C319.28,93.52,319.58,93.55,317.38,89.29Z"/><polygon class="cls-1" points="300.19 135.05 300.11 134.93 300.01 135 300.19 135.05"/><path class="cls-1" d="M317.85,93.37c1.08,1.34,1.15.89.84-.27C318.18,92.73,317.49,92.11,317.85,93.37Z"/><path class="cls-1" d="M371.75,84.07c-.06-.63-.18-1.61-.38-3Z"/><path class="cls-1" d="M372.06,86.48l-.31-2.42c.46,4.53-2.12-7.07-1.67-1.92C370.53,82.78,371.89,88.45,372.06,86.48Z"/><polygon class="cls-1" points="330.54 96.69 327.77 90.22 328.04 92.6 330.54 96.69"/><path class="cls-1" d="M391.75,88.72c.1.85.2,1.44.31,1.47Z"/><path class="cls-1" d="M428.88,81.94c-.36-2.37-.62-5-.85-7.56C428.42,80.36,426.6,82.54,428.88,81.94Z"/><path class="cls-1" d="M645.69,183.61l0-2.35A2.5,2.5,0,0,0,645.69,183.61Z"/><path class="cls-1" d="M527,88.63l-.66.93C526.53,89.78,526.75,89.56,527,88.63Z"/><path class="cls-1" d="M641.4,176.93a27.65,27.65,0,0,0,4.21-4.17c-.6.3-1.1.52-1.94,1Z"/><path class="cls-1" d="M533.09,94l-.18.41Z"/><path class="cls-1" d="M533.69,92.72c-.17.32-.36.74-.6,1.29C533.29,93.54,533.49,93.13,533.69,92.72Z"/><path class="cls-1" d="M402.51,82.33l-.12-.11C402.44,82.34,402.48,82.37,402.51,82.33Z"/><path class="cls-1" d="M636.56,169.21a3.27,3.27,0,0,0-.79.24C636,169.4,636.25,169.32,636.56,169.21Z"/><polygon class="cls-1" points="521.73 92.12 522.01 90 521.39 91.8 521.73 92.12"/><path class="cls-1" d="M718.13,303.47a11.45,11.45,0,0,0-2.06.72A15,15,0,0,0,718.13,303.47Z"/><path class="cls-1" d="M672.27,211.79a.64.64,0,0,0-.46-.09C670.06,211.79,670.83,211.92,672.27,211.79Z"/><path class="cls-1" d="M699.67,237.23c-.39.82-.38,1.34,4.15-.25A33.47,33.47,0,0,1,699.67,237.23Z"/><path class="cls-1" d="M645.68,183.87l.13-.07-.12-.19Z"/><path class="cls-1" d="M699.24,235.61c-1.36,1.18-.84,1.55.43,1.62C700,236.54,700.63,235.67,699.24,235.61Z"/><path class="cls-1" d="M715.55,344.69c.63,0,1.62-.09,3.05-.26Z"/><polygon class="cls-1" points="701.48 254.25 697.23 256.65 704.09 255.02 701.48 254.25"/><path class="cls-1" d="M711,378a5.4,5.4,0,0,0-1.46.34Z"/><path class="cls-1" d="M724.49,400c-6,.55-8.19-.48-7.53.92C719.31,400.61,721.91,400.31,724.49,400Z"/><path class="cls-1" d="M675.5,564l1.75-.33C676.37,563.53,675.76,563.67,675.5,564Z"/><path class="cls-1" d="M714.44,462.94l-1-.48C713.28,462.56,713.5,462.71,714.44,462.94Z"/><path class="cls-1" d="M678.34,559.92a41.83,41.83,0,0,0,5.25,2.65c-.52-.41-.94-.76-1.73-1.33Z"/><path class="cls-1" d="M681.15,554.91l.6.55A5.1,5.1,0,0,0,681.15,554.91Z"/><path class="cls-1" d="M709.44,466.69l-.55-.19Z"/><path class="cls-1" d="M716.83,384.27l.11-.09C716.81,384.23,716.79,384.26,716.83,384.27Z"/><path class="cls-1" d="M796.81,428.15l-.16,0V0H0V796.65H796.65V428.13ZM345.71,736.81a34.91,34.91,0,0,1,2.42-8.48c-.43,2.45-1.05,5.94-1.64,8.69ZM299.7,723c.05-.08.1-.12.13-.11l0,.14Zm5.7,1.88v0Zm4.59-8c-.06-.34-.16-1,.42-4.66-1.33,6.15-.53,3.95-1.64,9.77.76-8.28-2.07,3.61.15-10.8-1.31,6.83-.38,5.39-1.7,10.06,2.4-15.52-1.08,2.53-.36-4.66,1.51-8,1.2-3.65,2-10.86-2.59,13.44-.33-3.12-1.12-.61-2,10.72-1.62,4.32-2.92,7.77.72-3.59,0-6.11.2-10.08l.38-1.78c-2.31,10.77-2.51,8.62-3.42,10.77,1.4-6.45,2-9,2.85-11.82l-.39,0a40.66,40.66,0,0,1-1.87,6.41l1.85-8c-.58.34-3.15,9.3-2.6,3.75-1.3,5.4-2.91,14-4.46,20.1l-.39-.13c.7-3,1.4-5.81,1.75-6.76-.19.51-1,3.3-.75,1.54l1.89-6.72c.38-3.07-1.49,5.64-1.61,4.94,1.36-5.77.78-4.17,1.89-8.73.19-.54-.34,2.44.29.2a53.48,53.48,0,0,1,1.37-9,80.07,80.07,0,0,1-2.24,8.45c-.63.28,1.49-7,1.92-10-1.1,4-.4-.26-2.54,8.33-.14-.08.83-4.1,1.35-6.44-1.21,3.72-1.5.76-3.55,10l-.08.62-.14.36c-1.56,4.14-1.75,2.8-1.75.85s.2-4.48-.76-2.77l.8-2.86c-1.45,3.12-1.73,1.62-3.9,7.64a16.64,16.64,0,0,1,.63-3.09c.43-1.74,1-3.89,1.55-5.58-1,2-2,5.21-1.22.33,1.88-4.82,1.18-4.44,1.49-3.49.21-2.62,1.49-7.2-1.41.37,2.39-7.2,2.42-9.26,1.52-7.17l-1.25,5.3c-.6,1-.64.24-.69-.45l3.1-9.49c1.33-6-.63-1.16-2.33,2.64s-3.09,6.63-.28-3.14c-2.46,6.54-1,4.85-3.78,12.52a66,66,0,0,1,1.94-8.15l1.36-4.9.43-1.59a3.11,3.11,0,0,0,.13-.62c1.18-5.43-5.27,13.62-4.74,9.82-1.08,3.38-4.08,12.4-5.75,15.39-.1-1.42,4.33-14.29,5.58-16.89.21-.25-.11.84-.51,2a32.2,32.2,0,0,0,2.37-6.25l-1.23,3.34c1-3.51.21-3.35,2.31-8.8a30.13,30.13,0,0,0-2.27,6.42c.7-3.61-1,.16-.49-3.1-.29.94-.77,2.4-1.18,3.62a15.43,15.43,0,0,1-.82,2.15c.61-4.5-2.72,6.19-3.91,7.4,1.53-5.23,4.64-12.1,2.43-8.08a92.07,92.07,0,0,1,4.39-11.54c-2.95,6.22.6-4.61.78-5.89l1.29-2.58c-.77,1.53-.88,1.43-1,1.37l-2.39,6.71a17.66,17.66,0,0,1,1.22-4.07c-1.85,4.29-4.12,11.11-6.77,16.92,1.08-3.46-2.13,3.34,1.23-5.49-.41,2.94,2.66-6.58,4.1-9.4-.13.1-.11-.22.07-1a23.61,23.61,0,0,1,1-2.3c2.45-8.1-4.19,9.84-4.82,9.36,2.05-4.92,3.58-9.44,3.05-8.43.23.2-3.15,8.3-4.94,12,1.09-4-1.65,2.67-1.72,2.13l-.45,1.92c-2.09,4.89-2.07,4.16-3,5.58.52-1.3.84-2,1.07-2.44-1.76,3.29,3.44-10.52.84-5.47,1.16-3.43,3.82-9.25,4.57-11.59-3.21,6.13,2.26-7-.51-2a80.85,80.85,0,0,1-5.05,11.3l2.91-4.21L275,692.33c.26.23,2.37-3.87,2.08-2.67a68.33,68.33,0,0,0-4,9.16c3.76-10.08-3.27,5.39-.93-1.5l7-16.29c2.47-7.55-4.8,7.81-3.93,3.32l-1,3c-3,6.4-1,.65-2.41,3.13,2.43-5.4,3.12-7.45,4.5-10.87-1.78,4-.47-.65-5.41,10.1l2.81-7.29c.62-3.22-7.83,15-7.74,12.83,2.92-5.75,4.36-9.7,6.75-13.68-.21-.16,0-1.23-1.68,2.5,1.43-3.43-4,7-1.86,1.74-1.2,2.31-3.87,7.91-3.93,7.33.29-.66.68-1.47.94-2a78.85,78.85,0,0,0-4.37,8.82c3.55-8.55,2.91-8.49,2.11-8.14s-1.73,1,1.41-6.31c-1.38,1.54-2.85,2.94-3.52,3.1.81-1.58,1.31-2.65,1.12-2.05,1.8-5.25-7.95,15-6,9.15,3.89-8.76,2.71-4.44,4.09-7.8,8.6-17.49-2.09,1.94,2.53-8.47l.63-1c2.63-6.09-4.24,6.15-4.24,4.59,0,0,.82-1.52,1.35-2.62-5,8.62-7.29,11.1-9.18,13.22,3.71-6.66,2.14-3.43,5.6-10.37-.78.83-5.66,11.08-7.22,12.71,1.75-3.8,3-7.24,6.84-14.59l.71-.13c4.71-9.62-.81,0-.21-1.81l2.21-4.12c-1.46.94-7,11.35-7.44,10.16L251,688.63c-6,10,2.71-6-1.85,1.41l5.47-10.51c-1.64,2.36-6.49,9.52-8.11,11.17,4.52-7.54,7.28-11.16,10.13-15.55-.25-.23-1.4.25-4.35,5.3.67-.94,2.2-3.41,1.45-1.75-4.8,8-7.49,11.74-8,11.24,11.15-20,1.23-5.94,9.45-21.77-5.16,6.83-.24-4.31-2.07-3.78-8.4,15.77-.6.25-9.59,16.23-.86.85-.83.54-.27-.49l-.32.7.36-.78,0,0,4.58-10c2.46-4.74,2.27-3.36,4.29-6.95.1-1.56,3.62-6.89,5.66-11.33-3.19,5.73-4.89,8-4,5.67l-3.75,7.6c-5.73,8,7-13.74,1.3-5.84l3.16-4.84c-2.13,2.72-1.51-1-9.39,11.44a75.33,75.33,0,0,1,4.29-7.29c.1-2.51-10.3,12.12-6.5,3.82l2.37-3.8c-.86,1-4.65,7-2.59,3,1-1.58,2.37-3.8,2.42-4.08-.89,1.27-4.55,6.44-3.47,4l2.81-4.2c2-5.64-7.89,9.61-10.36,11.72,6.83-11.3,8.25-15.45,9-17.53l1-1.59c-.34-2.12-7.72,8.1-11.55,11.83,6.8-12.65.79-6.55,3.91-14.08a98,98,0,0,1-6.34,9.74c1.15-2.43-5.56,7.34.87-2.92l0,.25c6.07-10.21,3.87-7.86,3.61-8.4l-8.44,13.41c11.07-20.26-7.4,5.35,2.92-12.53-2.37,3.19-2.68,2.95-5,6.13l4.52-7.19c.41-2.3.61-3.43-1.38-2.29l3.41-5c-.22-.79-13.68,20.33-14.42,20.45l6.6-10.82c-1-.4,4-10.42-3.05-1.25a56.75,56.75,0,0,1,3.4-5c-.24-.54,2.67-7.78-5.3,5,4.38-7.2-1.45.17-4.43,3.86l4.53-7c-6.11,8.78-7.68,11.25-9.83,13.38.4-.92,3-5,2.63-4.14,1.33-3-4.67,6.68-2.91,2.68l3.05-4.39c-.13-.85-1.62,1.6-5.19,6.71-2.08,2.65.22-2.35,4.17-8.8-2.52,3.86-6.05,8.91-5.18,6.89,1.48-2.44,2.53-3.88,3-4.58,2.22-5.32-6.37,7.48-2.55.18,1.46-2.35,2.16-3.55,2.56-4.29.53.58.81,1.28.44,1.77,4.1-6.53,4.3-8,10.37-16.75-3.51,4.65-10.93,14.91-9.51,11.52l1.35-2.3.51-.7c.29-.72-.2-.18-1,.85a7,7,0,0,0,.81-2.23c3.32-5.44,1.23-3.29,1.13-3.72-4.45,7.17-4.07,5.81-7.45,11.91a2.21,2.21,0,0,1,.94-1,4.78,4.78,0,0,0,.57-.67l-.41.62a2.06,2.06,0,0,1,.94-.08c-2.48,3.5-4.6,6.43-2.4,2.28l-7.57,11.32c5.88-10.19,8.57-16,12.31-22.23-3.29,3.51-3.52,1.49-12.34,14.57l1.06-2.25c.8-1.36,1.74-2.95,2.27-3.88a29.64,29.64,0,0,0,2.27-2.86,11.34,11.34,0,0,1-2.23,2.12c1.37-3.14.79-1.94-.25.21-.84.71-1.93,1.9-4.3,5.48l.91-2c1.33-2.09,2.44-3.51,2.12-3.53.29-.54.6-1.15.91-1.77l.59-.87c3.77-7.78-.26-2.68-4.18,2.29.43-.71.84-1.37,1.26-2l-.21-.06c-.79,1.34-1.42,2.38-1.94,3.23l-.7.87,3.26-5.57c-.44.27-5.39,8.08-2.93,3.14-1,1.74-2.28,3.87-3.58,6.12-.32.26-.53.34-.58.15.32-.57.75-1.3,1.53-2.58.33-.47-1.15,2.17.1.2a90.34,90.34,0,0,1,4.3-8c-1.73,2.89-4.11,6.83-4.62,7.43-.49.21,3.6-6.15,5-8.84-2.09,3.31-.33.09-4.14,6.28l.25-.52-.27.56-.59,1a20.84,20.84,0,0,1,1.18-2.1l2.14-3.58c-1.73,2.58-1.47,1.42-3.72,4.92-.09-1.49-1.65-.6-3,0l-.35.14.69-1c-.29.35-.59.73-.88,1.1a2.73,2.73,0,0,1-.59.14l.57-1c3.07-4.17,2.46-3.87,2.31-3,1.14-2.31,3.73-6.29-1.05.26,4.32-6.24,5.13-8.07,3.74-6.27l-2.84,4.63c-.76.82-.51.18-.27-.44l5.65-8.23c3.15-5.2,0-1.07-2.53,2.2s-4.56,5.68,1-2.82c-3.78,5.2-2.73,4.44-6.25,9.47.12-.32.26-.67.41-1,.82-1.33,1.9-3,3-4.67l2.76-4.27.89-1.39.24-.39a.69.69,0,0,0,.08-.15c2.84-4.76-8.64,11.75-6.85,8.39l-1.29,1.89.24-.42-3.5,5.09c-1.11,1.56-2.23,3.12-3.21,4.41-.25.18-.22-.09,0-.68,2.54-3.85,6.93-10.06,8.22-11.66.23-.2-.38.74-1.08,1.73a50.62,50.62,0,0,0,3.93-5.4l-2.08,2.89c2-3.06,1.4-3,4.84-7.71a46.66,46.66,0,0,0-3.93,5.58c1.85-3.23-.75.07.82-2.8l-2.14,3.15-.94,1.34a3.59,3.59,0,0,1-.41.52c1.45-2.79-1.21,1-3.34,3.86.23-.51.44-1,.6-1.39,2.29-3.24,4.1-5.63,1.95-3.14,1.93-3.14,5.45-7.71,7.22-10-4.3,5.36,2.06-4.07,2.62-5.22l1.83-2.22c-1.09,1.32-1.14,1.22-1.21,1.15l-4.06,5.85a25.57,25.57,0,0,1,2.29-3.57c-2.83,3.71-6.84,9.67-10.77,14.7,2-3-2.68,2.86,2.8-4.84-1.31,2.61,4.19-5.73,6.21-8.15-.14.09,0-.2.39-.88.6-.87,1.16-1.58,1.5-2,4.55-7.13-6.43,8.54-6.71,8.06,3.17-4.28,5.82-8.25,5.09-7.38a39.27,39.27,0,0,1-2.84,4.1c-1.61,2.19-3.55,4.75-4.83,6.35,2.16-3.56-2.1,2.28-2,1.79l-1,1.7c-2.76,3.71-2.92,3.7-3.68,4.43l.42-.72c.29-.39.51-.67.68-.89-.29.33-.37.39-.31.24l.55-1c1.39-2.23,4.64-7.08,2.52-4.54l.13-.26c2.05-3.05,5.6-7.72,6.85-9.68-4.38,5.35,3.93-6.16.23-1.8a119.61,119.61,0,0,1-7.4,9.92l3.53-3.66-2.16,2.72a.9.9,0,0,0,0-.49,66.84,66.84,0,0,0-4.15,5.7l-.18.23h0c-.66,1-1.33,2-2,3-1.12,1.23-4.29,5.26-1.77,1.42L187,625c4.24-6.69-6.07,6.83-4,2.83l-1.64,2.62c-4.21,5.64-.91.55-2.76,2.74,3.5-4.78,4.66-6.59,6.76-9.63-2.58,3.56-.15-.61-7.16,8.92l4.36-6.48c1.46-2.89-10.42,13.28-9.65,11.35,3.92-5.11,6.21-8.63,9.2-12.15-.1-.15.42-1.11-2,2.2,2.11-3.05-5.08,6.17-1.89,1.53-1.59,2.06-5.28,7.05-5.14,6.54.42-.59,1-1.33,1.32-1.82-1.48,2-2.49,2.93-5.93,7.88,10.5-15.21-2,.22,7.06-12.85a17.28,17.28,0,0,1-3.48,2.81c1.07-1.41,1.75-2.37,1.44-1.84,2.91-4.7-10.33,13.51-7.1,8.25,5.48-7.85,3.3-4,5.33-7,11.55-15.7-2.08,1.76,4.42-7.58l.75-.87c3.74-5.47-4.92,5.54-4.44,4.17,0,0,1.05-1.37,1.76-2.36a113.72,113.72,0,0,1-9.65,11.1c.37-.58.74-1.16,1.11-1.71,1.25-1.58,1.5-1.87,2.35-3a1.29,1.29,0,0,1,.41-.26l.44-.89,1.89-2.57c-.21.2-.83,1-1.65,2.07,2.2-4.58-2.43,3.34-4.47,5.22,1.56-2.26,3.46-4.95,6.41-8.91l.54-.15c6.29-8.66-.57,0,.4-1.57l2.83-3.72c-1.33.9-8.44,10.29-8.4,9.27L164.38,632c-7.31,9.1,3.76-5.39-1.74,1.33l7.09-9.48c-1.64,1.87-6.1,7-8.33,9.35l.53-.86c4.66-5.71,7.49-8.8,10.57-12.44-.11-.19-1.07.28-4.71,4.86.76-.86,2.6-3.1,1.56-1.6q-4.51,5.58-6.79,8.13l.47-.79c-.92,1.12-1.63,2-2.18,2.58-.35.31-.55.43-.6.33,14.05-18.15,2.68-5.24,13.38-19.51-5.75,6.28,1.15-3.69-.29-3.09-10.84,14.21-.49.26-11.82,14.69-.87.79-.75.52,0-.41l-.44.63.5-.7,0,0,6.35-8.93c3.22-4.26,2.65-3.06,5.2-6.29.57-1.34,4.71-6.19,7.55-10.16-4,5.16-6,7.27-4.57,5.17l-5,6.81c-6.53,7.28,9.25-12.32,2.78-5.11l3.75-4.39c-2.35,2.48-.7-.71-10.21,10.56,1.3-1.68,4.41-5.61,5.34-6.56.91-2.11-11.08,11.18-5.72,3.84l2.9-3.42c-.92.92-5.55,6.35-2.78,2.77,1.19-1.42,2.9-3.41,3-3.65-1,1.15-5.29,5.83-3.74,3.71l3.34-3.78c3.3-4.9-8.67,8.79-11.1,10.75,8.55-10.07,11-13.65,12.19-15.42l1.22-1.41c.56-1.68-8,7.51-12,10.93,9.14-11,2.91-5.44,7.82-11.85-1.54,1.85-6.91,7.62-7.9,8.52,1.69-2.08-6.5,6.48,1.68-2.45l-.11.21c7.92-8.86,5.57-6.71,5.62-7.12l-10.76,11.63c7.56-8.7,5.82-7.4,3.9-5.91s-4.06,3.21,2.93-4.38c-2.84,2.77-2.94,2.61-5.79,5.36l5.89-6.12c1.21-1.84,1.82-2.73.05-1.62l4.32-4.27c.2-.56-17.4,17.25-18,17.39l8.85-9.08c-.51-.24,7.08-8.4-1.44-.67,1.33-1.3,4-3.85,4.37-4.16.07-.39,5.21-6.17-5.71,4.45,6.14-6-.93.2-4.55,3.25l6.08-5.74c-7.89,7.21-10,9.22-12.41,11a43.16,43.16,0,0,1,3.57-3.35c2.25-2.45-6.06,5.42-3.13,2.22l4-3.56c.29-.64-1.79,1.33-6.46,5.45-2.59,2.14,1.16-1.85,6.71-7-3.41,3.09-8.06,7.14-6.58,5.54,2.09-1.94,3.45-3.09,4.1-3.65,2.31-2.46-.8.09-2.51,1.4l2.34-2.33c-.78.29-1.49,1.18-2.9,2.75-.72.51-.72.38,1.26-1.54s3.08-2.8,3.68-3.37a1.35,1.35,0,0,1-.52,1.3c5.7-5.18,6.54-6.27,14.57-13.27-4.42,3.77-14.09,11.92-11.57,9.3l2-1.8.66-.55c.53-.55,0-.12-1,.7a16.28,16.28,0,0,0,1.6-1.69c4.77-4.24,2.41-2.48,2.56-2.79-6.35,5.55-5.45,4.52-10.59,9.23a4.45,4.45,0,0,1,1.1-.8c.2-.15.31-.21.7-.53l-.56.48a1.51,1.51,0,0,1,.65-.11c-3.28,2.75-6.08,5-2.66,1.82l-3.45,2.91a2.44,2.44,0,0,0,.32-.78c4.48-4.12,7.79-7.2,11.52-10.43-3.26,2.34-3.12,1.69-10.48,7.42a2.24,2.24,0,0,0,.33-.71l.11-.09c1.28-1,1.14-.74,2.91-2.17a31.33,31.33,0,0,1-3.12,2c-.15-.05-.45,0-.87.33l-.44.56c-.88.62-2.09,1.54-3.9,3,0-.06,0-.12,0-.19,3-2.57,5.73-4.41,4.35-3.75l2.66-2.09c4.5-4,3.33-3.33.45-1.33,3.49-4.74-.76-1.81-4.32.41s-6.46,3.79.47-3.7a29.6,29.6,0,0,0-2.26,2c-.55.34-1.4.89-2.41,1.56l.61-.7,1.41-1-1.24.8,3.32-3.75a11.92,11.92,0,0,0,1.46-1.78c2.83-4-7.9,5.63-9.61,6l1.63-1.06-1.83,1c-.05-.08,0-.25.14-.54l-1.11,1.08L128.16,600c2.67-2.19,15.89-10.08,16.4-11-1,.51-5.21,2.93-9,5.13a28.5,28.5,0,0,0,2.09-2.06l-2.74,2.28c2.4-2.77,1.27-3.45,5.85-7.09a15.8,15.8,0,0,0-5.12,4.51c2.07-3.23-1.53-.94.2-4-1.36,1.43-4.41,4.3-4.51,4.12,2.18-4.27-5.64,3.78-7.65,3.81,3.68-4.06,10.05-8.17,5.78-6.2,2.33-2.94,7.14-6.19,9.54-7.84-6,3.57,2.17-4.43,2.78-5.67l2.57-1.41c-1.53.84-1.66.6-1.82.38l-5.3,4.76a9.63,9.63,0,0,1,2.89-3.14c-3.84,2.69-9,7.71-14.39,11.19,2.51-2.63-3.94,1.33,3.33-4.72-1.44,2.83,5.6-4.33,8.44-5.84-.22,0-.09-.37.39-1a12.34,12.34,0,0,1,2-1.46c5.79-6.31-8.7,6.22-9.4,5,4.28-3.17,7.72-6.52,6.7-6,.25.5-6.8,5.72-10.34,7.82,2.7-3.28-3,1.11-3,.42l-1.2,1.64c-4.31,3.12-4.06,2.31-5.8,2.81a16.34,16.34,0,0,1,2.11-1.49c-3.11,1.52,7.88-8,2.87-5.24,2.59-2.54,8-6.07,9.66-7.85-6.19,3.28,5.16-5.3-.07-2.79-5.57,4.51-4.11,3.54-10.21,7l5.16-1.44-9.08,5.2c.27.55,4.34-1.67,3.57-.66-5,3-3.57,2-8.15,5.79,8.13-7.08-6,2.38-.74-2.73l14.31-10.45c2.79-2.88.62-2-2-1s-5.55,2.28-4.26.26L118,573.42c-5.89,3.87-1.46-.35-4.15.82a116.26,116.26,0,0,0,9.33-7.19c-3.23,2.27-1-.57-7.6,3.57l.33-.38.07-.08-.06.07.08-.1-.07.08,0,0-.35.39-.42.26.27-.28,1.3-1.28-1.59,1.57-.28.18,2.28-2.17-2.37,2.22-.16.11,3.75-3.49-3.08,2.77c-1.26,1.11-2,1.69,0-.15l-1.72,1.52-.58.39.19-.17,5.75-4.88.05-.1.31-.26-.31.26,0-.06.66-.55-.65.52c.13-.31-.06-.38-.49-.27l2.32-1.58c-.5.32-1.21.8-2.35,1.59a7.51,7.51,0,0,0-1,.37c3.19-2.09,3.79-2.53,2.32-1.61l-2.71,1.79-.82.39,7.53-4.77c5.11-3.27.73-.55-2.84,1.56s-6.31,3.61,2.39-1.65c-6,3.53-4.17,2.61-11.19,6.77.54-.4,3.87-2.46,7.09-4.4l6.31-3.78c4.74-2.84-12.67,7.22-9.48,5.18-2.31,1.33-7.53,4.34-11.26,6.39a.39.39,0,0,1,0-.08c1.5-.86,2.83-1.69,4-2.49,3.43-1.94,7.06-4,8.33-4.63a16.86,16.86,0,0,1-1.76,1c1.14-.6,2.49-1.32,5.84-3.25l-3.11,1.74c3.14-1.84,2.74-1.75,7.86-4.57-2.45,1.31-4.32,2.35-5.78,3.21,2.82-1.69-.64.16,2.09-1.49L119,564.34l-1.13.61a.83.83,0,0,0-.08-.33c.43-.23.48-.27,0,0l-.07,0c3.21-1.76,7.74-4.06,10.11-5.29-6.13,3.08,3.91-2.26,5-2.86l1.68-.84c-.62.3-.6.27-.6.24l-6.32,3.28c1.08-.6,1.09-.64,3.74-2-4.17,2.08-10.53,5.43-16.25,8.23,3.19-1.7-3.57,1.54,4.86-2.73-2.49,1.46,6.34-3.17,9.18-4.53-.11,0,.16-.12.82-.48l2.24-1.11c7.48-3.92-9.57,4.75-9.47,4.47,4.78-2.35,9-4.53,8-4,0,0-.52.29-1.33.69l-3.13,1.55c-2.44,1.2-5.33,2.6-7.18,3.47,3.66-1.95-2.83,1.23-2.44.94l-1.71.94-1.65.79c.1-.12.13-.18,0-.18l.09,0-.11,0a1.56,1.56,0,0,0-.41.12l-.26.19c-6.57,3,9.17-4.75,3.62-2.25,3.22-1.63,9-4.33,11.2-5.44-6.31,2.82,6.52-3.29,1.29-1-6.45,3.09-4.86,2.37-11.23,5.2l4.69-1.86-9.5,4.27c0,.14,4.16-1.73,3.09-1.15-5.32,2.42-3.71,1.66-9,4.26,9.64-4.74-5.79,2.4.69-.88l16-7.52c7.06-3.56-8.42,3.45-4.52,1.26l-2.76,1.39c-6.42,2.91-1,.22-3.62,1.31,5.39-2.46,7.31-3.42,10.65-5-4,1.83.26-.4-10.52,4.47l7-3.38c2.79-1.58-15.51,6.66-13.8,5.55,5.91-2.57,9.68-4.41,14-6.13,0-.11,1-.63-2.78,1.05,3.36-1.57-7.39,3-2.3.61-2.39,1-8.05,3.56-7.65,3.25l2.66-1.2c-2.23,1-3.33,1.36-7.11,3.08l0,0c11.41-5.48-1.53-.2,8.06-4.83l-2.94,1.9a48.1,48.1,0,0,0,5.34-3l.18-.06,1.1-.58-1,.49c2.13-1.34,3.72-2.49,2.35-2l-3.93,2.54a17.6,17.6,0,0,1-3.17.78c1.62-.72,2.69-1.21,2.15-.92,1.81-.93.15-.25-2.37.85l.33-.36-.75.54-1.11.48-.86,0a19.23,19.23,0,0,0,2.7-1.11c17.75-8-2.59.72,7.7-4.15l1.06-.42c6-2.87-6.9,2.65-5.75,1.82l2.68-1.21c-6,2.58-9.47,3.9-11.85,4.76l-.34-.13c3.47-1.5,2.18-.9,8.06-3.59-.63.2-4.58,2-8.09,3.57a2,2,0,0,1-.24-.12l.83-.47,1.3-.62,0,0,.05-.05c2-.93,4.3-2,7.33-3.4l.5,0c9.71-4.5-.45-.12,1.19-1l4.27-1.91c-1.53.31-12.27,5.14-11.66,4.45l-3.22,1.49c-10.72,4.6,5.92-2.85-2.08.52l10.77-4.92c-1.77.7-5.9,2.36-9.08,3.59l1.06-.65c5.17-2.17,8.59-3.48,12.36-5,0-.16-1-.06-6.34,2.28,1.06-.42,3.74-1.55,2.1-.75q-4.73,2-7.7,3.25c1.19-.74,2.1-1.32,2.79-1.79,8.59-4-.08-.72,13.34-6.94-7.93,3.05,2.92-2.34,1.45-2.29-15.48,7.18-1.89.71-15.2,6.7l.63-.47c4-1.75,10.56-4.55,14.08-6.33-5.25,2.52-7.74,3.36-12.07,5.32l.39-.29,5-2.46c4.83-2.28,3.74-1.55,7.49-3.25,1.17-.83,7-3.3,11.41-5.47-6,2.73-8.61,3.77-6.39,2.59l-7.62,3.68c-9.06,3.65,13.9-6.63,4.92-3l5.31-2.26c-3.19,1.21-.2-.73-13.72,5.14,1.92-.9,6.47-3,7.72-3.47,1.82-1.35-14.74,5.45-6.62,1.39l4.1-1.81c-1.22.45-7.75,3.32-3.68,1.36,1.69-.76,4.1-1.8,4.32-2-1.43.59-7.27,3-4.93,1.82l4.64-2c5.16-2.84-11.51,4.38-14.47,5.29,12-5.42,15.8-7.52,17.68-8.57l1.71-.76c1.26-1.17-10.36,3.64-15.3,5.3,12.94-6.17,5-3.44,12.15-7.21-2.16,1.06-9.39,4.21-10.63,4.68,2.39-1.21-8.49,3.46,2.56-1.49l-.19.13c10.8-5,7.81-3.88,8-4.19l-14.46,6.48c20.81-9.92-8.26,2.28,10.45-6.44-3.66,1.52-3.68,1.36-7.34,2.88l7.75-3.48c1.84-1.2,2.74-1.78.73-1.33l5.57-2.42c.4-.44-22.45,9.79-23,9.8l11.53-5.26c-.35-.29,9.63-5.24-1-.88,1.7-.76,5-2.25,5.54-2.4.22-.3,7-3.93-6.74,2.29,7.68-3.51-1,0-5.38,1.73l7.64-3.4c-9.38,4-12.23,5.3-14.91,6.25l-.15,0c1.24-.61,5-2.28,4.25-1.89,2.91-1.51-7.48,3.21-3.65,1.21l4.91-2.11c.5-.46-2.1.73-7.83,3.18-3.11,1.26,1.76-1.23,8.64-4.36-4.21,1.87-9.88,4.29-7.94,3.28,2.6-1.19,4.23-1.87,5-2.21,5-2.66-9.08,3.51-1.69-.08,2.52-1.14,3.79-1.73,4.53-2.09a1.5,1.5,0,0,1-1,1c7-3.16,8.17-3.93,17.95-8.13-5.37,2.22-17,7.12-13.8,5.43l2.42-1.12.8-.33c.68-.36,0-.11-1.19.38a17.65,17.65,0,0,0,2-1.12c5.8-2.64,3-1.65,3.27-1.88-7.69,3.47-6.52,2.78-12.81,5.77a5.55,5.55,0,0,1,1.28-.47c.23-.09.36-.12.82-.31l-.68.3a1.63,1.63,0,0,1,.63,0c-3.94,1.68-7.27,3.07-3.05,1l-9.44,4.12.46-.31c8.48-4,13.61-6.56,19.44-9.23-4.43,1.62-3.2.56-17.48,6.75l0-.09c1.35-.65,4.57-2.12,6.1-2.83s1.28-.44,3.37-1.35c-3.42,1.35-2,.36-9.17,3.47l.11-.17c3.44-1.59,6.24-2.65,4.82-2.3l3.1-1.35c8.13-4,1-1.14-5.07,1.29,1.1-.7,2.59-1.54,4.61-2.59-4.26.85-3.86-.47-2.64-2.14,1.06-1.47,2.73-3.2,2.43-4.14a10.31,10.31,0,0,0,1.91-1.06c-.35.12-1.1.42-2.07.81a.79.79,0,0,0-.12-.11L99.84,524c-1.92.79-4.15,1.73-6.17,2.6-.4-.12.18-.85-9.16,3.22-1.29-.08-1.11-.4,0-.9l-.66.41.74-.45,0,0L89.21,526l4.74-2.89c4.79-2.41,3.93-1.06,7.71-2.69.86-1.63,7-3.43,11.23-6-6,2.64-8.85,3.19-6.77,1.64l-7.48,4.06c-9.68,2.1,13.75-7.07,4.16-5l5.56-1.65c-1.74.25-2-.47-3.58-.67s-4.44.07-11.48,2.27c1.93-.9,6.56-2.85,7.92-3,.69-1.33-3.36-1-6.62-1s-5.7-.25-1.7-2.5l4.28-1.33c-1.35.08-8.2,2.14-4.07.21a33.87,33.87,0,0,0,4.47-1.57c-1.52.32-7.75,1.58-5.43.25L97.06,505c2.48-1.88-.66-1.6-4.88-1S82.7,505.56,81,505.19c12.59-4,16.17-6.76,18-8.11l1.79-.52c1-2.59-11.54-.53-17.16-1.3,6.71-2.58,7.83-4,8.24-5.41s0-2.63,3.65-4.61a59.29,59.29,0,0,1-11.38,2.37c2.47-1.12-9.25.77,2.54-2l-.18.23c11.46-3.16,8.12-3.36,8.28-4.21l-15.46,3.44c11-3.65,8.66-4.46,6-5.21s-5.55-1.36,4.45-4c-4,.29-4.08-.34-8-.09l8.35-1.59c1.89-1.78,2.82-2.62.53-3.93l6-.72c.38-1-24.34,3-25,2.15l12.45-2.38c-.25-.83,2.28-2.12,3.49-3.16s1-1.84-4.82-1.85c1.84-.24,5.48-.71,6-.52.21-.83,7.54-3.92-7.46-1.81,8.41-1.31-1.12-1.64-5.9-2l8.32-.87c-10.69.51-13.59.81-16.65,0,1-.37,5.75-.89,4.87-.51,3.19-1.17-8.15.24-4-1.3l5.35-.16c.55-1-2.3-.6-8.54-.49-3.4-.26,1.91-2,9.42-2.85-4.6.32-10.79.36-8.68-.4a36.78,36.78,0,0,1,5.5-.26c2.74-1,.29-1.37-1.85-1.72s-4-.68.09-1.53c2.76-.23,4.14-.4,5-.55-.12,1.23-.51,2.24-1.12,2.2,7.68-.66,9-1.69,19.62-1.83-5.83-.21-18.51-.59-15-1.81.74-.1,1.47-.19,2.65-.31l.87,0c.75-.27,0-.41-1.28-.5,1.24-.38,2.17-.63,2.26-.92,6.36-.51,3.36-1.28,3.64-1.76-8.42.52-7.11-.2-14,.79a1.57,1.57,0,0,1,1.39.34,3.16,3.16,0,0,0,.89.16h-.74a3.68,3.68,0,0,1,.65,1.18c-4.3-.11-7.93-.32-3.29-1.14-5.43.06-11,.09-13.63.06,11.68-1.38,18-3,25.22-3.46-4.77-1.24-3.22-3.23-19.09-3.78-2.05-.39,4.52-.62,7-.84,1.6.21,1.36.51,3.64.58-4.09-.75-1.66-2.47-12.73-2.53,5-1.18,10.19.47,8.36-1l3.38.16c8.86-1.52,1.8-2.56-4.62-3.86-6.16-1.2-11.74-2.65-2.16-4a21.75,21.75,0,0,1-2.59.13c5-1.78,2.81-3.73,1.27-5.76s-2.35-4.09,5.76-5.35c3.28-.79-3.76-1.43-9.06-2.52l9,.51-10.32-2c-3.74-1.14,1.85-1.36,6.59-1.62s8.62-.61,1.57-2.34l-6.1-.4c1.23-.59-3.29-2.69,3.66-1.76-1.1-.2-6.28-1-3.08-.88l4.71.54-3.93-1.36L59.73,403c3.57-.93,18.64,2.57,19.79.83-1.54-.81-11-3.28-15.26-3.95H65l.77.09c-2.91-1-6.2-.74-11.51-.95l-1.39-.62-.28,0h.19l.09,0,4.67.7-4.18-.74H68.46l-9.15-.41c.34-.12,1-.36,4.69-.19-6.25-.71-4,0-9.89-.54,8.36-.33-3.82-2,10.76-1.48-6.94-.55-5.39.38-10.2-.54,15.69.54-2.65-.93,4.56-1.17,8.08.61,3.78.91,11,.73-13.66-1.08,3.06-.92.47-1.51-10.88-.7-4.47-1.31-8-2.37,3.65.31,6.08-1.07,10.07-1.44l1.82.18c-11-1.07-8.81-1.67-11-2.44,6.57.64,9.15,1,12.06,1.54v-.5A32.34,32.34,0,0,1,69,386.9l8.18.93c-.39-.67-9.51-2.33-4-2.61-6.46-.79-17.26-1.38-23.46-2.53l0-.37c3.94.43,8.62,1,9.94,1.33-.53-.14-3.4-.69-1.62-.66l6.9,1.18c3.09-.06-5.78-.87-5.09-1.14,5.89.69,4.23.24,8.89.83.56.15-2.47,0-.17.39a43.16,43.16,0,0,1,9.12.14c-3.35-.37-7.92-.95-8.65-1.31-.34-.73,7.1.64,10.17.64-4.06-.67.22-.54-8.56-1.69.07-.19,4.17.31,6.55.55-3.83-.85-.9-1.73-10.28-2.64h-.63c-.18,0-.19-.06-.38-.11-4.29-1.2-3-1.67-1-2s4.53-.53,2.75-1.41l2.93.48c-3.23-1.23-1.73-1.83-7.93-3.44,0-.21,5.41.46,8.87,1.17-2.09-.9-5.35-1.58-.4-1.43,5,1.46,4.54.67,3.62,1.21,2.64-.2,7.33.59-.49-1.65,7.4,1.67,9.47,1.37,7.3.63l-5.41-.62c-1-.56-.3-.73.39-.91L86.45,374c6.06.61,1.1-1-2.82-2.36s-6.85-2.63,3.17-.83c-6.73-1.89-4.95-.41-12.85-2.5.73-.16,4.62.4,8.33,1l5,.83,1.63.26a2.61,2.61,0,0,0,.63.06c5.55.56-14-4.13-10.14-4.09-3.47-.76-12.74-2.91-15.8-4.43,1.45-.35,14.67,2.93,17.34,4,.25.21-.86,0-2-.3a26.53,26.53,0,0,0,6.42,1.84l-3.43-.94c3.6.6,3.43-.25,9,1.39a25.16,25.16,0,0,0-6.58-1.71c3.7.28-.21-1.18,3.09-1a56.68,56.68,0,0,1-5.92-1.5c4.55.06-6.39-2.3-7.66-3.52,5.35,1,12.41,3.71,8.27,1.7,3.67.57,9.1,2.55,11.84,3.51-6.4-2.56,4.68.1,6,.16l2.66,1.14c-1.58-.67-1.49-.81-1.43-1l-6.86-1.89a15.39,15.39,0,0,1,4.15.89c-4.4-1.57-11.37-3.31-17.34-5.62,3.54.8-3.44-2,5.59.71-3-.1,6.74,2.23,9.63,3.53-.11-.14.22-.15,1,0a21,21,0,0,1,2.36.83c8.26,1.83-10.08-3.58-9.59-4.35,5,1.76,9.66,3,8.62,2.49-.21.27-8.49-2.62-12.26-4.22,4.12.78-2.72-1.57-2.16-1.71l-2-.29c-5-1.82-4.24-1.89-5.69-2.84,1.18.4,1.88.67,2.33.87-1.19-.61.69-.19,2.78.31,2.74.65,5.83,1.45,3,.09,3.48.94,9.42,3.35,11.81,4-6.25-3,7.1,1.88,2-.7a71.8,71.8,0,0,1-11.49-4.6l2.14,1.44L91.38,356l-4.75-2.15-4.74-2.18c-.23.33,3.94,2.3,2.72,2.08a58.91,58.91,0,0,0-9.33-3.58c5.14,1.59,3.76.82,2-.14s-3.94-2.1-.44-1.11l16.55,6.32c3.84,1,1.83-.1-.54-1.46s-5.14-3-2.85-2.62l-3-.83c-6.47-2.78-.63-1-3.13-2.44,5.46,2.29,7.54,2.91,11,4.2-4.06-1.68.67-.54-10.17-5.28L92,349.44c3.26.5-15.07-7.73-12.81-7.8C85,344.53,89,345.9,92.94,348.3c.17-.23,1.27,0-2.47-1.7,3.44,1.4-6.91-4-1.68-1.94-2.31-1.21-7.91-3.87-7.32-4,.65.28,1.45.66,2,.93a67.77,67.77,0,0,0-8.78-4.4c8.57,3.48,8.53,2.78,8.22,1.88s-.87-1.91,6.38,1.33c-1.48-1.47-2.8-3.06-2.9-3.8,1.55.87,2.61,1.39,2,1.2,5.23,1.89-14.76-8.49-8.86-6.48,8.64,4.15,4.3,2.94,7.63,4.4,8.59,4.6,8.13,4.06,6.82,3s-3.45-2.77,1.66-.24l.93.69c6,2.88-5.88-4.61-4.27-4.63,0,0,1.47.9,2.54,1.49-8.31-5.46-10.56-8.11-12.49-10.26,6.39,4.17,3.26,2.4,10,6.28-.76-.87-10.71-6.33-12.17-8.11,3.69,2,7.08,3.41,14.15,7.7v.4l0,.39c9.28,5.31.13-.9,1.9-.23l3.95,2.5c-.77-1.62-10.74-7.92-9.42-8.43l-3.05-1.81c-9.49-6.83,5.81,3.1-1.15-2.12l10.05,6.27c-2.18-1.88-8.81-7.44-10.24-9.32,7.09,5.21,10.38,8.39,14.47,11.65.29-.28,0-1.58-4.77-5,.86.77,3.18,2.53,1.57,1.66-7.51-5.51-11-8.63-10.31-9.22,19,12.89,6,1.41,21.1,11-3.12-3-1.94-3.07,0-2.65s4.53,1.33,4.47.23c-15-9.73-.12-.7-15.22-11.14-.72-1-.39-1,.59-.33l-.68-.37.75.42,0,0,9.66,5.28c4.53,2.84,3.09,2.64,6.47,5,1.65.09,6.57,4.17,10.88,6.51-5.43-3.68-7.51-5.66-5.16-4.64l-7.33-4.29c-7.25-6.66,13.21,8,6,1.37l4.48,3.66c-2.4-2.5,1.49-1.9-10.14-11a56.45,56.45,0,0,1,6.89,4.9c2.75-.05-10.72-12-2.55-7.84l3.6,2.68c-.88-1-6.59-5.29-2.67-3a40.92,40.92,0,0,0,3.89,2.7c-1.17-1-6-5.18-3.58-4l3.93,3.18c5.78,2-8.62-9.14-10.39-12,10.88,7.49,15.19,8.79,17.35,9.4l1.53,1.07c2.52-.81-7.12-9-10.44-13.42,12.66,6.86,7.23-.15,15.12,2.4a66.08,66.08,0,0,1-9.68-6.43c2.53,1-7.17-5.85,3.14.49l-.28,0c10.34,5.86,8.17,3.33,8.85,2.83l-13.57-8.18c10.41,5.06,9.29,2.75,7.78.51s-3.38-4.46,6,0c-3.24-2.33-2.91-2.84-6.19-5.11l7.48,4c2.53-.14,3.78-.23,2.65-2.43l5.25,3.07c.87-.47-21.25-12.21-21.37-13.07l11.33,5.69c.21-.62,2.91.12,4.34.25s1.58-.34-3.23-3.54c1.62.91,4.82,2.69,5.2,3.07.26-.13,2.34.55,2.43.24s-1.57-1.48-8.07-5.14c7.7,4.28-.15-1-4-3.91l7.13,4.37c-9-5.81-11.43-7.4-13.6-9.49.92.42,5,3,4.12,2.63,3,1.45-6.66-4.67-2.7-2.83l4.35,3.1c.79,0-1.62-1.57-6.63-5.28-2.59-2.17,2.36.28,8.6,4.55-3.76-2.67-8.62-6.46-6.65-5.49,2.36,1.61,3.74,2.73,4.41,3.28,2.57,1.29.79-.39-.74-1.88s-2.8-2.81.7-.63c2.23,1.64,3.38,2.43,4.07,2.88-.6.46-1.3.65-1.76.25,6.27,4.49,7.63,4.91,16,11.45-2.26-1.84-5.82-4.77-8.4-7s-4.17-3.91-2.55-3.05l2.18,1.55.65.57c.69.36.19-.16-.78-1a7.29,7.29,0,0,0,2.13,1c5.11,3.82,3.13,1.58,3.57,1.52-6.69-5.15-5.36-4.65-11.1-8.61a2.1,2.1,0,0,1,.91,1.05,4.42,4.42,0,0,0,.61.64l-.57-.47a2.13,2.13,0,0,1,0,1c-3.26-2.79-5.94-5.22-2-2.64-4.19-3.45-8.47-7-10.46-8.71,9.58,6.83,15.12,10.08,20.88,14.48-3.1-3.71-.92-3.86-12.85-14.31-1.39-1.52,3.78,2.55,5.79,4a24.65,24.65,0,0,0,2.52,2.66c-2.78-3,0-2.48-8.59-9.51,4.41,2.49,7.67,6.72,7,4.72l2.55,2.23c14.85,9.13-18.29-19.14-1.76-8.9-.57-.37-1.13-.77-2-1.46,9.55,4.09-3.76-10.34,10.35-2.56,3,1.39-2.48-3.09-6.38-6.82L150,248.5l-7.65-7.17c-2.44-2.64,1.39-.17,5.16,2.21a100.39,100.39,0,0,0,11.84,9.39L154,246.2l5.22,4.34-.39,1c5.06,3.93,1.19-.19-1.35-3.14a59.88,59.88,0,0,0,5.8,4.73l-8.9-10c4.08,3.64,7.53,7.81,10.28,9.3-4.13-4.65-9.3-8-11.62-11.46,4.43,3.45,7.78,6.71,6.13,4.54.37.25.72.47,1,.64a30.74,30.74,0,0,1,3.26,3.54c-2.72-3.4-.22-2.43-5.4-7.76,6.11,4.94-.06-2.91,9.5,6.24-2.17-2.32-6.79-7.92-6.79-8.71,10.76,11.65,2.13-.88,14.22,11-9.77-10.37-2.69-6.34-7.46-12.77a20.25,20.25,0,0,1,1.83,2.14c1.44.4,4.56,3.1,6.77,4.57-8.4-8.22-9.51-10.93-14.28-16.44,8.8,7.22,9.53,10,17.57,17.36-6.89-6.58-5.72-7.76-11.64-13.05a102.54,102.54,0,0,1,10.13,8.45c-10.46-10.32-1.33-2.21-7.4-8.92,5.91,4.31,10.05,9.41,7.64,5.49a37.48,37.48,0,0,1,6.63,7.1c1-.65-7.4-8-11.78-12.56-1.3-3.18,6.28,5.24,10.66,8.87-1.51-2.66-8.32-10.24-7.56-10.4a38.75,38.75,0,0,1,3.43,3.33c-5.65-6.82,1.57-2.21-5.57-10.73.75.63,1.44,1.26,2.06,1.84-4.08-3.78-8.11-7.73-10.94-10.57.23-.5-4.3-5.61,1-.66-.38.08,1.68,2.15,3.19,3.85l-1.85-2.6c7.74,7,2,3.06,7.52,8.48-1.67-3.13-6.92-10.09-4.25-8.6,7.35,7.06,1.1,3.77,8.29,9.38l-3.65-1.85c12.1,10.63-1.32-.24,11.51,11.23,3.24.92-2.41-5,.85-4-3.75-4.25-6-5.83-9.77-10.08-5.53-8.85,19.42,16.81,11,6-4.48-5.12-13.46-14.37-7.78-10.41l7.83,8.46c1.93-.31-11-12.39-4.39-8.07,3,3.43,1.8,3.59,2.94,4.4,7.17,5.7-4.06-5.18-3.47-5.77l7.3,7.13c.07-2.32-3.77-8.88-3.72-11.53a53.74,53.74,0,0,0,6.55,6.67c-1.88-5.3,4.47-2.65,10.31.15l-5.5-6.93a22.27,22.27,0,0,1,4.06,4c3,1.79-3.84-4-5.94-6.84-.06-.79,4,3.18,5.6,5.3-4.06-6.45-7.92-14.72-.2-9L204,205c3.39,1.71-11.39-14.07-4.86-9l.91,1.29c4.65.85,1.38-7.18,12,1.07-8.37-9.54,5.88,2.25-6.06-10.81,7.15,5.32,9,7.95,14.61,10.74,1,.19-6.85-8.71-7.56-10.57l6.29,6.78-5.84-7.81,7.89,7.77-1.1-2.21a30.51,30.51,0,0,1-5-4.64c-2-3.82,6.31,2.95,9.53,6.42l-3.39-7.5a31.47,31.47,0,0,1,3.44,4.59c-2.68-4.33,7.3,7.89,2.76,1.21-1.54-1.44-3.64-4.13-4.88-5.53,4.22,3.7,5.31,2.8,4.51.35l4.13,4.86c2.49-.06.9-4.94,2.56-6.28-2.55-1.7-9.8-10-10-11.25l6.71,7.11c-3.73-4.77-2.95-2.3-7.27-8.37,1.35.3,7.81,7.92,9.6,10.6l-1.54-3.17c2,2.14,2.84,3.43,5.28,6.24-3.75-4.79,7.77,6.21,1.18-2l2,2.13c1.63-1.34.12-4.5,1.09-6-5.56-6.35-3.81-5.39-7.94-10.85,2.75,1.17,8.19,5.22,8.87,3.67-1.95-3.87-4.47-5.59-7.39-9.68,5.11,5.73,5.8,4.17,8.83,8.86.57-2.16.76-2.71-1.55-9a45.59,45.59,0,0,1-5-5.14c-.5-1.23,2.85,1.8,5.22,4.64l.44.68c-2.77-5.22,2.05-2,6.43.9,4.22,2.77,8,5.19,4.33-.71l-3.75-7.75c1.62.37,3.28,4.79,6.92,7.94-6.51-11.29,4-1,0-8.73,15.69,16.4,3-4.61,13.83,5.23l-3.5-4c-2.94-4.36,2.43,2,3.5,2.65-2.69-3.16-3.49-3.34-5.1-5.77-.69-7.8,11.9.32,18.26,1.38,2.12.16-16.51-22.15-7-13.43l5.71,8.12c-2.44-5.65-1.07-6.6.41-7.36s3.09-1.26,1.27-6.22c1.24,1.93,3,4.29,2.78,4.45,4.89,5.32,2.13-1.19-1.4-5.88.79.23,3.3,4.16,5.34,6.36,3.07,3-4.22-8.34.36-2.83a9.9,9.9,0,0,1,1.16,1.82c-.8-2,2-.35-2.85-6.2,3.29,2.5-.4-4.28,3.26-.87-5-7.85,4.23,2.44-3.34-8.3,7.92,11,8,7.67,4.93,2,2.19,3.47,3,3.1,6.06,7.88.55-.61-.29-3.1-4.44-8.71,5.31,6.19,4,3.1,3.06.49s-1.69-4.7,4.58,3.61c-2.17-7.41-3-12.75-2.88-16.64,7.39,11.33-1.32,2.48,6.67,14.23-1.43-5.73-6.75-16.13-3.2-14.56,1.46,1.26,2.93,5.1,4,7.14-1.28-5.87,4-1.08,1.65-8.3-4.84-7.12-8-15.86-10.23-19.77,8.64,15.38,3.94,2.78,14.63,22.36a45.6,45.6,0,0,0-3.83-7.26c.93.83,2.26,2.83,4.37,7-.63-3.54-4.38-8.92-3.28-9.43,1.52,2.56,1.9,3.68,3.59,6.75-2.47-5.29-4.87-10.6-2.71-8.93.85,1.58,2.13,3.54,1.85,3.65,1-1.6-5.11-14.89-.63-11,5.81,11.58,2.65,3.39,8.16,13.14l-.75-3.42-3-4.56c.85-.29-2.31-7.8.12-4.94l1.6,4.37.48-2.64-2.85-3.31C315.24,88.72,310.36,81.8,313,84c.3,1.13.92-.33,4.41,5.3v0c-1.24-3.37-2.52-6.94-.63-4.79,1.79,3.11,5.52,11.09,6.71,13.16-3.75-8.27.4-3.6-2.92-11.65,1.08,2.47,3.2,6.74,3.73,7.67l-3.05-7c1.47,2,2,3,4.05,7.26,1.75.72-6.64-12.58-2.56-7.73.16.6.71,1.61,1,2.74,2.74,2.24.59-5.61,3.46-2.82,5.09,10.06.08,3,4.5,11.44.42-1.33-.09-4.82-.31-7.8s-.15-5.38,1.26-4.54l-.82-1c-3-7.36-1.89-5.7-.29-3.09s3.66,6.16,2.67,2.51c.23,1.18,3.11,8.27,2.48,6.61,2.15,1.88.89-4.6,1-10.05l1.25,3.91c2,3.1,2.63,1.29,4,2.75-1.19-3.91-.5-3.45-2.82-8.93,5.21,10.5,5.17,7.2,5.15,3.38,0-1.91-.07-3.93.4-4.38s1.48.74,3.47,5.2a9.29,9.29,0,0,0,.69,3.54l.32-2.06.35-2.06c-2.17-6.59-1.46-3.94-3.46-9-1-4-1.33-7.21-.83-7.36.43,4.66,3.24,10.65,4.68,14.26-.67-2-1.21-4.3-1.86-6.36,4.48,11.54-3.76-13.43,0-5.88l.93,3.52c0-1.94-.8-6.72.06-5.89,2.36,7.66.43,3.77,2.18,10.14.6-.66-2.44-15.13.36-7.61.23,2.24-.24,2.43,0,4.67,3.21,8.87,2.65,6.52,3.58,7.84l-.11-.19.2.34-.1-.15,1.42,2.76c-.47-1.06-.81-1.73-1.07-2.19l1.84,3.09-.94-2.4c-2.11-10.24-1.81-11.29-1.28-11.47s1.3.51.45-6.32c1.61,12.94,1.48,7.36,3.42,16.23a43.84,43.84,0,0,1,2.41,7.56c-1-7.29,2.14,5.43.67-5.24.64,2.85.67.13,2,7.36.24-2.42-1.2-4.95-1.9-8.55-.44-5,.9-2.24,2.12.18s2.35,4.34,2-2.55c.35-4-.14-9.89-.2-14.85,1,3.44,2,6.81,3.08,10,.84,2.49,1.71,4.87,2.63,7.12a14.74,14.74,0,0,1,.12,2.15,1.82,1.82,0,0,0,.15-.47c-.06-.5-.12-1-.18-1.43l.3.71a7,7,0,0,1-.12.72l.18,1.55a15.64,15.64,0,0,0,0-2.1,54.27,54.27,0,0,0,4,7.85l-.28-4.36-.19-3.48c0-.19,0-.44,0-.79l2.44,6.23-1.45.86c2.68,5.87,1.63.3,1.24-3.61a40.11,40.11,0,0,0,2.78,7l-.85-6.7L380.25,78c1.6,5.22,2,10.72,3.92,13.29-.69-6.24-4-11.62-3.47-16,2.54,5.92,3.49,11,3.29,5.5a25.05,25.05,0,0,1,1.29,7.37c-.08-4.4,2.07-2.34.91-9.7,2.7,7.42,2.92-2.77,5.56,10.19a54.48,54.48,0,0,1-.25-6.55c.06-2.31.28-4.32.69-4.68,1.37,15.83,3.61.3,6.19,17.08-.68-7.11.14-8.86,1.22-9.86s2.43-1.15,3-5.22a14,14,0,0,1-.05,2.84c1.34,1.16,2.27,5.18,3.36,7.66-1.43-11.67.18-14.6.43-21.95a45.18,45.18,0,0,1,1.65,12.41,68.62,68.62,0,0,0,.85,12.17c-1.25-9.45,1.47-9.79.09-17.6,2,6.87,1.41,3.29,3,12.93-1.3-14.64.82-2.58.93-11.66,2.4,7.05,1.69,13.67,3.15,9a19.61,19.61,0,0,1,.5,6.52,27,27,0,0,1-.41,3.22c1.81.07-.06-10.89-.19-17.26,2.07-3.36,1.7,8,2.87,13.61,1.14-3,1.6-13.21,2.73-12.85a22.91,22.91,0,0,1,.33,4.77c.5-4.44,1.65-4.61,2.8-5.07s2.32-1.22,3.06-6.75c.17,1,.27,1.91.34,2.75-.49-5.55-.74-11.19-.81-15.2.93-.21,1.56-7,2.12.2-.59-.2-.55,2.72-.75,5l.89-3.16c1.16,10.39-1.23,3.62-1,11.33,1.72-3.42,3.78-12.09,5.31-9.18.43,10.18-3.3,3.5-1.24,12.52l-2.27-3.85c2.05,16-1.33-1.09.61,16.07,2.78,2.9,3-5.26,5.79-2.34.61-5.65-.25-8.38.38-14C439.14,66.57,440,73,440.57,79s1.05,11.55,2.61,4.78c.86-6.78,1.44-19.68,3.48-12.82l-1,11.5c2.72,1.23,2.06-16.5,4.8-8.65-.69,4.5-2.34,3.73-2,5.12,1.6,9.16,1.56-6.48,3.06-6.42l-.09,10.21c1.51-.74,3.16-2.95,4.9-5.13s3.57-4.37,5.32-5.2c-.38,3-1.14,6.17-.55,9.33,4.52-4.88,9,1.91,12.45,8.24l2.35-8.63c.36.14.32,4-.23,5.69,1.29,3.48.59-5.55,1.69-8.92,1-.52.74,5.16-.09,7.73,3.5-7.15,9.76-15.22,11.8-5.48l-.88,2.53c1.95,3.81,4.68-17.64,6-9.23l-.6,1.5c4.7,4.37,11.46-2.91,13.76,10.79,2.38-12.48,4.42,6.28,7.05-11.22,1.85,9.08.56,12.1,4,18.51,1,1,3.15-10.72,4.79-12.36L522,90l3.19-9.36-.47,11.09,1.63-2.18c-.45-.61-.55-4.26-.11-6.89,1.3-1.94,2.34-.17,3,2.66a31.49,31.49,0,0,1,.51,9.09l5.71-7.09a18.17,18.17,0,0,1-1.74,5.38c2.25-4.33-1.45,10.71,1.7,3.16,0-2.12,1-5.43,1.29-7.27.29,5.69,2.65,6.11,4.78,4.07l-1.38,6.24c2.78,2.1,6.85-1.91,9.94-1.1-.47-3.14,2.06-13.9,3.33-14.71l-1.75,9.62c2-5.75-.22-3.83,2.72-10.74,1,1.4-1.71,11-3.06,14l2.18-3c-.6,2.85-1.29,4.27-2.23,7.87,1-2.89,1-.37,1.1,1.62s.34,3.41,2.07-1.57l-.69,2.83c2.6.79,4.69-2.06,6.87-1.82,2.86-7.93,3-5.9,6.13-12a46.31,46.31,0,0,1,.52,6.22c.15,2.14.42,3.85,1.5,4,3.13-3.17,3.44-6.29,6.25-10.49-3.19,7-.94,7.29-4.41,11.74a9.82,9.82,0,0,0,3.62-.4,42.16,42.16,0,0,0,6.12-3.17c1.24-2.92,1.52-4.35,3-6.5,1.24-.73-.26,3.58-2.23,6.71l-.56.6c2.34-2,3.36-1.39,3.65.32s-.14,4.61-.58,7.33c-.82,5.3-1.71,10,3.68,5.22.27-.17,2-1.26,3.81-2.33,2-1.18,3.92-2.29,3.92-2.29.55,2.09-4.21,4-6.06,8.62,5.33-4,6.32-2.66,6.86-1s.66,3.66,4.56,1.38c-6.14,9.62-4.33,10.6-1.68,10.94s6,.16,2.4,6.6l3.43-4.1c4.14-3.32-1.28,2.95-1.65,4.25,2.73-3.12,2.54-4.16,4.89-6a5.44,5.44,0,0,1,5,2.76,14,14,0,0,1,1.6,6.44c.23,5.1-.6,11-.06,15.26.64,2.86,21.65-17.24,14.42-6.19l-8.12,5.77c6.25-1.86,8,.46,9.57,2.8s2.75,4.94,8.47,4c-2,1.12-4.39,2.92-4.69,2.48-5,5.23,2.23,3.57,7,.13,0,1.09-4.15,3.32-6.25,5.51-2.78,3.4,9.14-3.06,3.69,1.62a5.85,5.85,0,0,1-1.87,1c1-.16,1.31.42,1.89.69s1.79.21,5-2.48c-2.1,4,5.29,1.21,2.16,5.34,4.16-2.14,3.74-.77,3.66.24s.15,1.71,5.75-1.72c-11.44,7.3-7.26,9-1.12,6.74-3.71,1.81-3,3.22-8.09,5.79,1,1.12,3.79,1,9.62-2.86-6.22,5.43-2.74,4.89.23,4.61s5.38-.38-3.23,5.48a65.68,65.68,0,0,1,11.24,1.17,41.4,41.4,0,0,1,4.57,1.16,33.34,33.34,0,0,1,3.86,1.54c-12,6.15-3.31-3.47-15.76,3.44,6.68.67,18-2.57,17,2.42-1.21,1.74-5.5,2.11-7.73,2.86,3.37.47,3.9,2.35,4.63,4s1.66,3.2,5.71,3.27a12.22,12.22,0,0,1-3.63.87c.68.45-1.15,2.29,4.41-.35l-1.79.08a40.36,40.36,0,0,1,12.45-4.65c4.12-.93,7.84-1.46,10-2.37-16.56,6.17-2.55,5.12-23.67,12.47a24.35,24.35,0,0,0,7.86-2.49c-.81,1.11-2.92,2.27-7.48,3.55,4.08.89,9.73-2.53,10.49-.36-2.74,1.17-4,1.2-7.28,2.38,5.76-1.26,11.58-2.44,10,.34-1.7.59-3.77,1.7-3.95,1.15,1.06,1.35,5.18,1.17,8.58,1.39s6,.85,4.09,3.62c-12.44,3.71-3.5,2.73-13.87,7l3.83.6,4.79-2.68c.46,1.65,8.62.25,5.7,3l-4.77.39,3.11,2.32,3.35-3.21c6-.31,13.23-5.09,11.12-1.76-1.24-.07.5,1.76-5.4,4.85h0c3.66-.38,7.53-.75,5.32,1.43-3.27,1.5-11.79,3.81-14,4.81,8.85-2.19,4.07,2.71,12.74,1.05a70.29,70.29,0,0,0-8.19,2.57l7.45-1.73c-2,1.55-3.13,2-7.62,3.38-.54,2.75,13.25-5.19,8.36-.5a21.83,21.83,0,0,1-3,.33c-2.15,3.76,6.31,4,3.55,7.68-10.54,4.05-3.34-1.42-12.15,2.24,1.56,1.5,5.36,2.41,8.58,3.54s5.9,2.43,5.15,4.61l1-1c7.73-1.91,6-.68,3.37,1S708.15,270.1,712,270a38.44,38.44,0,0,0-6.93,1.38c-1.83,3.14,5.16,4,11,6.61l-4.08.53c-3.18,2.37-1.09,4.39-2.51,6.42,4.08-.48,3.67.59,9.31-1.35-10.7,5.17-7.2,6.75-3.14,8.26s8.56,2.94-.5,7.14c-.15-.52-3.76-.52-3.68-.1l4.45,3c6.73-1.68,4-1.33,9.14-3.21a20.18,20.18,0,0,1,6.49.29l.16.67c-4.66-.3-10.14,2.43-13.54,3.81,2.06-.54,4.41-.74,6.51-1.22-11.7,4.37,13.77-2.36,6.14,2l-3.6.54c1.61.54,5.08.68,6,1.4l.14.63v0c-7.8,1.93-3.88-.41-10.38.75.73,1.43,15.51.3,7.91,3.16-2.32-.27-2.53-1.21-4.84-1.46-9,3.22-6.6,3-7.86,4.34l.19-.15-.46.41.27-.26-2.7,1.9a14.91,14.91,0,0,0,2.3-1.53l-3.15,2.79,2.4-1.1c10.46-.85,11.57,0,11.8,1.06a3,3,0,0,0,.32,1.2l-.23,0,.23,0a1.34,1.34,0,0,0,.16.19c-2-.22-3.54-.39-2.52-.33-7.19-.49,9.26,1.4-.15.51l-.76-.1c1.6.3,3.33.52,5.46.74a24,24,0,0,0,3.35.34h.12l-3-.07-8.66-.79,7.73.78h-.93l-2.36-.22,2,.23a13.82,13.82,0,0,0-4,.48c-.74-.06-1.87-.14-4.13-.28l3.85.37-.45.16c-2.13-.1-5-.25-3.82-.08l3.29.28-.11,0c-1.75-.16-2.72-.26-3.18-.32l-6-.46c-.3,0,5.08.45,9.11.78A19.07,19.07,0,0,1,721,321h-1.94l-1.82-.13,3.13.23-1.54.24-.07,0h-.1l.17,0,.05,0-.31,0-2.28-.21,0,.17,1.58.12-.81.1-2.36-.15a8.81,8.81,0,0,0,1.52.26l-1,.13,1.1-.12,1.42.17c-.6.28-1.2.56-1.82.83l-1.5,0,1.47.07-.54.23c-.9,0-1.73-.05-2.36-.05,1.33.08,1.78.12,2.08.17a12.15,12.15,0,0,1-3.84,1c4.12,0,2,.91,1.19,1.71l-1.26,0a11.7,11.7,0,0,0,1.2.07c-.28.29-.37.56.07.77-1.44.06-1.46.16-.24.23l1,0a22.58,22.58,0,0,0,3.54.21h0l-9.25-.09c-6.07.23-.9.49,3.24.68s7.26.34-2.9.6c4,0,5-.06,6.76-.15a3.61,3.61,0,0,1-.49.23l-1.53.05-5.08.18-1.65.07-.63,0c-3.16.23,2.05.23,6.39.26-.62.1-1.35.2-2.24.3a3.38,3.38,0,0,0,1.3.33,52.63,52.63,0,0,1-6.19.31,61.91,61.91,0,0,0,7-.16c-4,.35.35.41-2.93.78l3.8-.16,1.64-.05a5.23,5.23,0,0,1,.66,0c-3.12.39,1.62.22,5.18.16l-.22.2c-4.57.18-8.68.23-5,.34-3.67.31-9.44.38-12.34.4,6.87,0-4.49.71-5.74.95l-2.88,0c1.71,0,1.66.11,1.65.19l7.11-.38a34.5,34.5,0,0,1-4.22.34c4.66-.11,11.83-.56,18.21-.67-3.61.27,3.89.14-5.54.62,2.87-.45-7.12.3-10.25.27.17,0-.13.1-.92.2-1.05.06-2,.08-2.5.08-8.42.78,10.68-.33,10.48,0a85,85,0,0,0-8.95.61,8.56,8.56,0,0,1,1.49-.15l3.49-.18c2.71-.12,5.93-.24,8-.28-4.13.45,3.09.07,2.61.21l1.94-.24.8,0a7,7,0,0,0-.51.54c-2.54.24-4.87.48-2,.42-3.59.34-10,.64-12.42.9,6.91-.17-7.26.8-1.54.73,7.13-.59,5.39-.47,12.36-.76l-5.06-.12,8.19-.32a1.16,1.16,0,0,0-.05.34l-9.68.69c-7.85.94,9.11-.07,4.7.69l3.06-.39,2.36-.16a2.71,2.71,0,0,0,.49.31c-5.16.43-7.25.69-10.71,1,4.38-.38-.37.37,11.41-.64l-7.75.88c-1.93.4,4.84-.13,9.91-.49l1,.14c-4.33.41-7.66.78-11.25,1,0,.12-1.12.33,3-.07-3.69.44,8-.49,2.38.17,1.81-.15,5.36-.5,7.18-.64l.21.06-2,.21c.78-.08,1.43-.14,2.09-.19l.81.22c-1.16.23-.9.32-.54.39.68.14,1.69.21-6.18,1.28a28.29,28.29,0,0,1,4.38.19c-1.76.21-2.93.36-2.32.25-4.12.74,7.76-.77,11.05-1.07l.47.05-.69.13c-9.48,1.38-5.16.5-8.74,1.06-19.32,2.54,2.68,0-8.57,1.76l-1.14.1c-6.54,1.07,7.37-.56,6-.11l-2.91.41c9.86-1.19,13.17-1.35,15.94-1.53-7.4,1-4.15.51-11.24,1.6-.06-.17-.45-.28-1.36-.28a6.17,6.17,0,0,1-1.68,1c-7.17,1.18-2.59.61-1,.47l-.24.12-4.08.62a27.44,27.44,0,0,0,3.47-.29,3.78,3.78,0,0,0-1,.74c-.74.16-.86.22-.08.13a.3.3,0,0,0,.06.38l-.79.1c0,.11.48.23,3-.06l.58,0h-.18c.88-.11,2-.27,3.35-.49-1.13.14-4,.57-2.22.21q9.76-1.49,12.5-1.76a1.87,1.87,0,0,0-.17.23c-20.72,3.68-4.68,1.49-21.83,4.88,8.44-1.08-3.36,1.68-1.9,2.05,14.35-3.07,5.5-1.05,11.83-2.28l.12.12c-4,.76-8.62,1.66-11.48,2.4,5.12-1.18,7.74-1.52,11.62-2.28l.17.12L717,348l-1.17.1a2.86,2.86,0,0,0,.33.1l-3.52.86c-5.21,1.19-4,.7-8,1.55-1.31.6-7.58,1.72-12.31,3,6.41-1.4,9.22-1.83,6.8-1.13l8.22-2c9.63-1.63-15,3.61-5.43,2l-5.67,1.09c3.37-.5.08.94,14.5-2.12-2.06.51-6.93,1.68-8.25,1.87-1,.52,2.88-.05,5.93-.49s5.25-.71.89.56l-4.37,1c1.28-.2,8.23-1.83,3.87-.63-1.8.44-4.36,1-4.6,1.14,1.51-.31,7.69-1.62,5.19-.87l-4.92,1.11c-5.56,2,12.11-2.21,15.18-2.63-12.78,3.31-16.83,4.81-18.84,5.58l-1.81.47c-1.39,1.08,10.87-1.78,16-2.7-13.7,4.23-5.45,2.76-13,5.6,2.28-.77,9.87-2.92,11.16-3.22-2.52.9,8.87-2.32-2.73,1.17l.21-.11c-11.34,3.53-8.23,2.91-8.48,3.22l15.15-4.63c-10.93,3.65-8.78,3.4-6.38,3s5.07-1-4.69,2.34c3.81-1.1,3.82-.93,7.62-2l-8.07,2.66c-1.94,1-2.88,1.58-.81,1.39L699.25,367c-.42.46,23.29-7.58,23.82-7.56l-12,4.2c.31.34-10,4.53,1,1.08-1.75.62-5.2,1.85-5.71,1.95-.24.3-7.2,3.51,6.84-1.67-7.76,2.9,1.13.11,5.59-1.35L711,366.57l10.41-3.67.39.14c-.42.2-.29.18.12,0l.32.12-1.47.53c-.27.22.31.05,1.71-.45l.62.23h.2l-.54.22a98.89,98.89,0,0,0-11.45,4.88l1.58-.25c-2.45,1-5.23,2.14-10.27,4,3.29-1.15,8.86-3.19,12.09-4.31l.85-.13.56-.08-1.9.8-.81.3c-.69.34,0,.12,1.21-.33l-1.44.69-.44-.55c-3.69,1.5-3,1.57-1,1.24-4.83,2-2.3,1.27-2.53,1.49,2-.84,3.45-1.42,4.55-1.86l2.34-.44a63.84,63.84,0,0,0-7,2.59l6.58-1.27,4.56-.84-.87.45c-4.22,1.11-8.19,1.89-10.37,3.16a77.77,77.77,0,0,0,9.29-2.54c-.51.37.67,0,2.57-.74a18.25,18.25,0,0,1,4-.67c-5.94,2.29-11,3.42-5.55,2.72a40.14,40.14,0,0,1-7.31,1.61,8.93,8.93,0,0,1,3.65.16c.9.16,2.17.19,5.81-.55C714,375.8,723.89,375,711,378c3.12-.55,10.36-1.27,11-.78-15.7,2.38-.41,2.35-17.09,5.53,7.06-1.1,8.77-.72,9.65-.1s1,1.45,5,1.47a21.77,21.77,0,0,1-2.82.2c-1.19,1-5.19,1.87-7.69,2.75,11.61-1.85,14.48-1,21.77-1.43-11,2.69-13.75,1.48-24.46,3.47,9.4-1.52,9.69.17,17.48-1.28-6.86,1.76-3.29,1.15-12.91,2.87,14.58-1.87,2.55.33,11.57-.23-7.06,2-13.63,2-9.06,2.62a31.35,31.35,0,0,1-6.5.75c-1.87,0-3.19,0-3.19,0-.11,1.12,10.83-.77,17.18-1.27,3.31,1.11-8,1.6-13.6,2.7,3,.5,13.23.15,12.88.89a36.51,36.51,0,0,1-4.75.48c4.42.06,4.58.79,5,1.5s1.17,1.42,6.73,1.61c-1,.16-1.9.27-2.74.35,5.53-.59,11.15-1,15.16-1.29.23.59,7.07.68-.14,1.4.18-.39-2.73-.23-5-.25l3.18.43c-10.34,1.24-3.65-.62-11.34-.09,3.47.92,12.18,1.87,9.31,3-10.16.71-3.59-2-12.54-.25l3.79-1.62c-16,2,1.05-.88-16,1.14-2.82,1.84,5.35,1.6,2.42,3.5,5.67.16,8.37-.49,14-.31,5.12,1.14-1.26,1.92-7.23,2.5s-11.51,1-4.7,1.8c6.8.32,19.7.32,12.92,1.83l-11.53-.32c-1.1,1.72,16.56.88,8.81,2.82-4.52-.34-3.8-1.41-5.18-1.13-9.11,1.23,6.53.83,6.52,1.8l-10.2.16c1.57,1.85,9,4.06,10.75,6.33-3-.22-6.2-.67-9.34-.26,2.49,1.41,2.11,2.86.35,4.2s-4.88,2.54-8,3.64l8.71,1.55c-.12.23-4,.17-5.69-.19-3.41.78,5.57.42,9,1.15.57.63-5.11.42-7.72-.13,7.3,2.26,15.7,6.47,6.07,7.58l-2.57-.62c-3.71,1.15,17.79,3.42,9.48,4.06L726.3,442c-2.07,1.47-1.17,3.32-1.48,5s-1.82,3.08-8.57,3.51c12.52,2.07-6,2.53,11.5,5-8.95.77-12-.2-18.23,1.64-.91.59,10.79,2.61,12.48,3.77l-9.16-1.3,9.43,2.6-11-1,2.23,1.17c.58-.25,4.21-.09,6.83.35,4,1.93-6.86,2.24-11.54,1.54l7.24,4.3a26.13,26.13,0,0,1-5.55-1.57c4.85,1.94-10.62-1.59-2.93,1.05,2.1.13,5.42,1,7.26,1.31-5.64-.12-5.95,1.55-3.84,3.22l-6.25-1.29c-2,2,2.19,5.36,1.63,7.94,3.08-.42,13.94,1.68,14.85,2.64l-9.68-1.37c5.87,1.54,3.77-.17,10.88,2.13-1.28.79-11.06-1.26-14.1-2.37l3.13,1.78c-2.88-.44-4.35-1-8-1.7,5.89,1.55-10,.34.23,2.89l-2.87-.44c-.55,2.6,2.55,4.38,2.64,6.61,8.29,1.56,6.29,2.07,12.88,3.95-2.95,1.12-9.79,1.69-9.44,3.74,3.88,2.12,7,1.7,11.76,3.22-7.57-1.3-7.22.75-12.46-1.25.8,2.55,1,3.24,6.55,7.27,3.15.27,4.57.17,7.11.84,1.14.76-3.39.59-7-.17l-.76-.28c5.36,2.68-.5,3.48-5.78,4.21-5.12.7-9.68,1.32-3.07,3.92l7.57,4.18c-1.54.85-5.49-1.9-10.32-2.09,6,2.68,5.29,3.61,4.1,4.34s-2.9,1.22,1,3.28c-11.21-1.94-11.13-.55-10.13,1.17s2.94,3.85-4.26,2.72l5.15,1.42c4.86,2-3.11-.29-4.38-.31,4,1.17,4.75.87,7.43,2,2.44,3.08-.18,4.71-4.05,5.52-1,.2-2,.36-3.09.49s-2.19.22-3.27.32a41.32,41.32,0,0,0-5.64.73c-.94.33,5.27,3.37,10.14,5.92s8.43,4.63,2.21,2.82l-8.7-4.76c4.68,3.91,3.89,5.41,2.8,6.7s-2.32,2.44,1.22,6.41c-1.88-1.32-4.46-2.8-4.27-3.06-3.29-1.49-3.65-1-2.6.23a27.91,27.91,0,0,0,6,4.81c-.85.11-4.62-2.62-7.34-3.9-4-1.65,6.94,6.29.65,2.85a9.43,9.43,0,0,1-1.7-1.24c1.37,1.54-1.8,1.14,4.77,4.83-4-1.07,1.78,4.1-2.94,2.28,3.68,2.85,2.42,2.72,1.61,2.78s-1.19.34,4.17,4.15c-11.14-7.72-10.33-4.33-5.62.07-3.19-2.6-3.89-1.86-8.33-5.42-.37.87,1.14,3.05,6.89,7-7.11-4-5-1.41-3.3.86s2.92,4.14-5.69-1.71c4.08,6.71,6.18,12,6.9,16.22-10.49-8.52.88-3.27-10.37-12,2.84,5.42,10.87,13.94,6.65,14-1.88-.64-4.3-4-5.94-5.65,2.62,5.6-4.21,3.18-.13,9.76a17.18,17.18,0,0,1-2.48-2.76c0,.65-2.23-.43,2.5,3.49l-1-1.43c7.33,5.15,13,13.5,16.53,16.63-12.9-12-5-1-21.09-16.43a34.06,34.06,0,0,0,5.81,5.8c-1.22-.41-3.14-1.86-6.39-5.26,1.43,3.49,6.8,7.27,5.65,8.39-2.26-1.95-2.92-2.94-5.47-5.34,3.88,4.38,7.75,8.79,5,8.17-1.3-1.23-3.17-2.64-2.88-2.92-.81,2.32,9.1,13.13,3.17,11.37-9.23-9.09-3.77-2.15-12.27-9.44l1.61,3.22,4.44,3.18c-.93.77,4.48,7,1,5.31l-2.86-3.72.1,3.08,4,1.87c3.51,4.74,10.69,9.31,7.28,8.45-.63-1-.91.83-6.26-3.1l0,0c2.26,2.82,4.64,5.79,2,4.61-2.82-2.22-9.09-8.41-11-9.89,6.39,6.5.41,4,6.4,10.48-1.86-1.93-5.47-5.2-6.32-5.87l5.31,5.47c-2.18-1.22-3.11-2-6.52-5.16-2.15.31,10.88,9.15,5,6.52-.35-.53-1.25-1.24-1.88-2.26-3.7-.67.95,6.11-3.06,4.95-8.66-7.24-.95-3-8.37-9-.25,3.31,6.21,13.17,2.52,13.26l1.24.5c11.37,11.13-7-4-2.47,2.09a56.45,56.45,0,0,0-4.91-5.07c-3.06-.49.41,5.28,2.18,10.66l-2.73-3.06c-3.35-1.77-3.4.51-5.52,0,2.71,3.07,1.79,3.07,6.34,6.91-9.57-6.82-8.46-3.51-7,.16s3.3,7.65-4.69,1.94c.22-.29-1.94-3.12-2.15-2.93l.86,4.49,1,.88-2.87-1.33-2-.91.14.06,1.69.79,3.07,1.42.76.7-.76-.39.81.43.43.39c-1.34-.71-2.39-1.27-1.66-.84l2,1.1.07.06-2-1.16-5.21-2.91,7.31,4.14a20.86,20.86,0,0,0,2.27,1.75c-2-1.08-3.74-2-6.13-3.48l-1.53-1c9.22,6,7.37,5.06,9.18,6.46l-10-6.91,0,.06c2.9,2,4.42,3.09,5.41,3.87l-2.47-1.74c-.24-.2-.49-.39-.72-.55l.21.19-3.75-2.65,3.45,2.6c1.33,1,2,1.66-.2.05l3.26,2.44.55.57-.17-.13c-.89-.58-3.71-2.67-7.24-5.45,2.65,2.08,6.27,4.94,6.83,5.46.25.38-5.59-4.41-8-6.3l6.69,5.57s-.23-.16-.56-.43l-1.31-1.07L627.41,649c3,2.5.77.93,7.67,6.81l0,0c-.48-.4-.76-.62-.89-.72l.89.72c.62.69,1.57,1.69,2.56,2.73-.27-.17-.62-.43-1-.72-1.51-1.12-3.43-2.74-2.17-1.33l-2.15-2c2.24,2.37,1.29,1.72,5.14,5.79l.09.17-.31-.29-1.61-1.56c-1.28-1.26-2.85-2.84-4.09-4.1,1.48,1.66,3.75,4.09.23.7-3.49-3.81-3.2-3.29-2.54-2.81-1.89-1.73-5.11-5.21.32.8-5.16-5.57-6.54-7-5-5.26l3.73,3.95c.7.86.19.41-.29,0l-6.67-7.42c-4.1-4.48-.64-.65,2,2.55s4.54,5.67-2-2.1c4.42,5.4,3.24,3.7,8.45,10-.5-.46-3.06-3.43-5.48-6.3l-3.06-3.67,1.11,1.52a0,0,0,0,0,0,0l-1.26-1.71-1.5-1.81c-1.71-2.1.43.61,2.77,3.57,0,.23.07.58-1.07-.7l2.27,3,1,1.33a4,4,0,0,1,.37.55c-2.37-2.57,1.3,2.38,3.27,5.33a3.38,3.38,0,0,0-.43-.21c-1.38-1.86-2.71-3.75-3.52-4.87l.14-.1h0v0l0,0-.1-.14-.21-.29-.44-.61-.93-1.31-1.93-2.79L618.85,643l-.41-.61-.1-.15,0-.07v0h0l.09.15c.18.29.24.39.19.35s-.17-.21-.35-.45l-.19.13c2.17,3.25,4.64,7,6.87,10.45-2-3,1.91,3.39-3.26-4.52,1.3,1.74-1.52-2.5-3.72-5.85l-.08.06,0,0-.19-.28-.2-.29.09-.06c-.56-.85-1-1.61-1.38-2.14a6.78,6.78,0,0,1-.57-.78l-1.35-2.1c-4.68-7,5.77,9,5.47,8.92-2.84-4.5-5.44-8.51-4.85-7.54,0,0,.1.13.24.35l.58.9,1.87,3c1.45,2.3,3.14,5,4.19,6.78-2.32-3.44,1.51,2.7,1.17,2.34l1.12,1.61,1.16,1.91-.28-.14-.19-.3.17.28-.38-.2-.28-.42c-1.53-2.35-3.24-5-1.7-2.29-1.92-3.05-5.14-8.58-6.44-10.65,3.39,6-3.84-6.21-1.09-1.21,3.63,6.16,2.79,4.63,6.15,10.74l-2.23-4.52,4.51,8.12-.41-.17-5.25-9.13c-2.07-3.37-1-1.36.22,1.06s2.61,5.22,1.37,3.36l1.6,2.64c3.38,6.18.26,1,1.53,3.54-2.84-5.2-3.94-7-5.74-10.26,2.11,3.86-.41-.24,5.17,10.19L618,648.85c-1.3-2,3.44,7.13,5.51,11.43l-.48-.48c-2.25-4.36-4-7.53-5.65-11.05-.11,0-.7-.92,1.2,2.72-1.77-3.26,3.41,7.22.72,2.27.55,1.11,1.47,2.93,2.26,4.5l-1.79-1.92c.7.78,1.29,1.41,1.82,2l.17.35c-.89-.62-1.83-1.26-2.73-1.94l-.53-1,.27.8a18,18,0,0,1-2.52-2.28c-3.22-6.24,2.76,6.72-1.67-1.8l-.44-1.06c-2.21-4.19.16,1.11,1.35,4.07-.15,0-.25,0-.27.12l-.52-1.08.53,1.17a2.42,2.42,0,0,0,.36.79l.85,1.92a5.49,5.49,0,0,1-1.94-1.31c-4.1-8.14-1.27-1.86-1-1l-.15-.16-2-4.13a23.91,23.91,0,0,0,1.3,3.42l-.82-.87a5,5,0,0,0,1.25,1.87c.92,2.11,2,4.46,2.52,5.89-.39-.17-.78-.33-1.14-.46l-1.76-3.53,1.42,3.42-.5-.13c-1.17-2.75-2.12-5.07-3.19-7.54-.2,0-.21,1.08,2.29,6.36-.44-1.06-1.63-3.71-.75-2.1l1.48,3.24c-.45-.07-.78,0-.89.3-3.24-5.93-.67.84-7.1-11.4,3.2,7.89-3-2.54-3.23-.88,8.59,15.67,0,.58,8.59,16.78.37,1.12.18.9-.39-.12l.39.66-.44-.74,0,0-5.68-9.37c-2.66-4.63-1.73-3.66-3.68-7.28-1.1-1-3.85-6.76-6.47-10.88,3.17,5.74,4.3,8.35,2.86,6.29l4.38,7.25c4.08,8.89-7.88-13.24-3.87-4.42l-2.58-5.17c1.32,3.15-1.29.59,5.65,13.59-1.09-1.82-3.63-6.14-4.15-7.37-.92-.75.59,2.9,1.75,5.77s1.92,5-.65,1.22l-2.21-3.9c.52,1.2,4,7.4,1.58,3.61-.94-1.6-2.22-3.89-2.42-4.08.71,1.38,3.65,7,2.14,4.83l-2.43-4.42c-3.75-4.6,5.24,11.18,6.35,14.11-6.9-11.26-9.71-14.56-11.13-16.2l-1-1.59c-1.74-.83,4.39,10.16,6.53,15-4.11-5.87-5.33-6.87-6.15-7.18s-1.24.05-3.87-3c1.46,1.92,5.74,8.54,6.36,9.72-1.67-2.09,4.71,7.88-2.09-2.14l.19.15c-6.82-9.73-5.41-6.85-5.88-6.93l9,13.06c-6.89-9.24-6.19-7.15-5.2-4.9s2.22,4.73-4-3.5c2.15,3.34,1.91,3.45,4.08,6.77l-5-6.88c-1.75-1.4-2.64-2.08-2,0l-3.5-5c-.53-.13,8.37,12,12.37,17.69l-.95-.86-4.87-6.35c-.41.56-7.8-7.81-1.32,1.71-1.13-1.48-3.36-4.38-3.58-4.86-.45-.07-5.92-5.49,3.4,6.26-5.22-6.48,0,1.24,2.72,5.11l-5.18-6.56c3.2,4.25,5.26,6.94,6.72,8.9-.36-.25-.43-.09-.59-.07s-1-.52-4.8-5.92a89.9,89.9,0,0,1,5.08,8.69l-.87-1c-3.08-4.84-3.45-4.85-3.94-4.94s-1.21-.27-5.75-7.44a49.24,49.24,0,0,1,3.68,6.77c-2.28-2.57-4.28-4.78-8.65-10.29,2.78,3.74,8.32,10.86,9.07,12.25,0,.07,0,.14,0,.2a3.19,3.19,0,0,1-.42-.36l-1.77-2-.53-.68c-.57-.53-.16.07.63,1.1a10.33,10.33,0,0,0-1.75-1.55c-4.2-4.8-2.6-2.3-3-2.41l2.07,2.38c.7,1.25,1.33,2.39,1.88,3.43-.8-.86-1.59-1.72-2.39-2.61,1.85,2.7,1.64,3.23,4.72,7.21.25.53.48,1,.7,1.53-.23-.31-.55-.7-1.16-1.4a17.5,17.5,0,0,1,1.6,2.41c.26.61.52,1.2.76,1.78-.55-.6-.76-.76-.46-.15l-2-2.23c-1.94-3.83-3.29-7.09-6.67-12.8,3.45,6.07,3.72,8.05,5.2,11.36-.69-.64-1.19-1.07-1.52-1.31-.61-1-1.51-2.53-3.2-5.42,1.34,2.52,2.18,4.14,2.7,5.2a1.35,1.35,0,0,0,.27.55c1.58,3.35-1.39-1.39,1.52,4.92-4.23-6-6.65-12.06-5.47-7.63a42.25,42.25,0,0,1-4.15-8.78c-1,.25,4.61,9.83,7.36,15.57.31,3.4-4.29-7-7.28-11.8.65,3,4.73,12.31,3.94,12.23a38.55,38.55,0,0,1-2.19-4.24c3,7.66-1.49,2.52,1,10l-.81-.71c-2.67-5.13-2.6-7.48-3.62-6.36,1.18,2,2.4,4.16,3.6,6.35a11.7,11.7,0,0,0-2.83-2.1c.44.55,2,2.12,3.85,4,2.36,4.38,4.58,8.75,6.16,12-.41.42,2.23,6.71-1.21.34.4,0-.89-2.58-1.77-4.68l.9,3.07c-5.14-9.06-.91-3.57-4.38-10.45.52,3.53,3.22,11.82,1.13,9.58-4.73-9,.26-4-4.83-11.55l2.94,2.88c-8.13-13.91,1.22.63-7.33-14.31-2.88-1.86.58,5.52-2.3,3.64,2.19,5.23,3.87,7.43,6.06,12.67,2.35,10.2-13.19-22-8.73-9.1,2.62,6.28,8.2,17.9,4,12.37l-4.74-10.51c-2-.29,6.51,15.25,1.51,9.09-1.73-4.2-.52-4-1.36-5.12-5-7.65,2.19,6.21,1.41,6.6l-4.68-9.07c-.85,2.21.67,9.67-.28,12.2a52.62,52.62,0,0,0-4.09-8.4c.05,5.63-5.19,1.12-9.79-3.41l2.95,8.34a22.11,22.11,0,0,1-2.55-5.08c-2.21-2.65,2.32,5.08,3.39,8.4-.21.78-2.74-4.31-3.57-6.84,1.77,7.39,2.61,16.51-2.75,8.56l-.78-2.52c-2.59-2.76,6,17.08,1.59,10.06L537,705c-2-1.17-3,.36-4.27.79s-3-.27-6.49-6c2.23,5.94,1.07,4.89.18,4.4s-1.51-.41,1.69,7.84c-4.69-7.58-5.45-10.68-9.51-15.42-.8-.56,3.18,10.62,3.15,12.6l-3.28-8.65,2.52,9.41-4.32-10.19.22,2.45a33,33,0,0,1,2.84,6.21c.45,4.3-4.56-5.18-6.15-9.64l.21,4.06.17,4.08a35.66,35.66,0,0,1-1.41-5.71c1,5.5-3.55-10.07-1.91-2.09.82,1.94,1.7,5.24,2.27,7-2.35-5.09-3.54-4.75-3.71-2.23l-1.8-6.12c-2-1-2.39,4-4.22,4.38,1.46,2.66,4.46,13.3,4.18,14.49l-2.94-9.32c1.32,5.91,1.61,3.37,2.92,10.69-1-.87-3.52-10.55-4-13.72l.11,3.51c-.84-2.79-1.07-4.33-2-7.92.66,3-.35.72-1.21-1s-1.56-2.93-.42,2.22l-.8-2.79c-1.71.37-1.65,3.86-3,4.63,1.95,8.21.93,6.51,2,13.26-1.78-2.37-4.42-8.57-5.57-7.57-.08,4.32,1.18,7.06,1.75,12.06-1.62-7.5-2.8-6.5-3.19-12.07-1.37,1.54-1.72,1.85-2.75,8.37a49.86,49.86,0,0,1,1.59,7c-.19,1.31-1.46-3-2-6.67l0-.8c-.23,5.89-2.59.61-4.59-4.15s-3.66-8.85-3.67-1.79l-.44,4.19-.49,4.26c-1.07-1.2-.14-5.8-1.36-10.44-.28,6.5-1.21,6.15-2.09,5.25s-1.78-2.4-2.27,1.93c-1.71-11.23-2.78-10.75-3.9-9.23s-2.28,4.09-3.59-3.1l.41,5.33c-.18,5.24-.74-3-1.15-4.24.27,4.14.77,4.77.63,7.68-1.86,3.29-4.12,1.42-6.29-1.85-1.08-1.62-2.17-3.65-3.24-5.56a33.89,33.89,0,0,0-3.09-4.9c-1.44-1.43-1,27.61-2.87,14.88l.66-9.91c-1.57,6-3.24,5.76-4.81,5.4s-3.13-1-4.91,4c.29-2.28.42-5.25.72-5.2-.31-7.19-2.38-.47-2.71,5.4-.46-.7.16-5.31,0-8.31-.41-4.28-2.16,9.08-2.11,1.9a9.76,9.76,0,0,1,.27-2.08c-.67,1.92-1.74-1-1.84,6.52-.91-4-2.52,3.54-3.11-1.41-1.31,9.24-1.69-4.63-2.92,8.45,1.15-13.52-1.19-11.09-2.51-4.8.61-4.06-.28-4.3.51-9.92-.86.11-1.87,2.56-2.37,9.51,0-8.15-1.12-5-2.11-2.35s-1.85,4.65-1.23-5.75c-3.31,7-6.31,11.6-9.07,14.49,1.7-13.42,2.78-1,4.3-15.17-1.41,2.65-2.78,6.82-4,9.89s-2.43,5-3.35,3.24c-.35-1.92,1.07-5.78,1.55-8-3,5.23-4.14-1.78-7.14,5.26a20.43,20.43,0,0,1,.93-3.58c-.45.38-.64-2.09-1.44,4l.61-1.6c-.57,8.94-4.17,18.25-4.92,22.9,3.16-17.35-1.42-4.69,2.83-26.58a40.68,40.68,0,0,0-1.69,8c-.22-1.24,0-3.64,1.06-8.21-1.9,3.1-2.34,9.65-3.62,9.32.44-2.95.87-4,1.51-7.49-1.49,5.64-3,11.3-3.75,8.64a23.31,23.31,0,0,1,.78-4c-2,1-5.52,14.68-6.75,8.87,2.64-12.68,0-4.32,1.6-15.4L389,713.92l-.41,5.44c-.95-.35-3.13,7.57-3.39,3.81l1.48-4.44-2.19,1.8.36,4.36c-1.94,5.53-2.18,14-3,10.71.46-1.08-1-.29-.42-6.89v0c-1.08,3.44-2.21,7-2.5,4.18.4-3.57,2.21-12.19,2.48-14.56-2,8.89-2.71,2.54-4.86,11.12.6-2.6,1.43-7.42,1.55-8.5l-1.69,7.43c-.05-2.48.08-3.65.95-8.26-1.15-1.61-2,14.08-2.58,7.76.23-.58.37-1.72.83-2.81-1.11-3.43-4,4.21-4.91.25,1.51-11.18,1.81-2.48,2.95-11.93-2.54,1.62-6.9,12.48-8.57,9.49l.18,1.3c-3.07,15.35-.29-7.27-2.49-1.16.55-1.79,1.78-8.18,1.42-6.57-1-2.77-3.69,3.3-6.8,7.82l1-4c-.21-3.75-1.89-2.49-2.49-4.49-1,4-1.43,3.22-2.18,9.12.33-5.86,0-8.08-.63-8.42s-1.59,1.19-2.57,2.84c-1.94,3.3-4,7.07-3.31-2.68.29,0,1.36-3.37,1.14-3.43l-2.72,3.29c-1.26,6.82-.6,4.16-1.26,9.54-1.09,4-2.35,7-2.89,6.85,1.91-4.29,2.28-10.89,2.75-14.76-.38,2.09-1,4.35-1.44,6.47,1.59-12.28-3.17,13.58-2.88,5.14l.89-3.53c-1,1.7-2.57,6.25-3,5.09,1.64-7.85,1.46-3.49,3-9.91-.44.13-1.72,3.73-2.78,6.3s-1.89,4.1-1.27.12c.9-2.07,1.41-2,2.29-4.06,1.48-9.33.86-7,.69-8.61v-.2q0,.11,0,.2l.13-3.07a24.14,24.14,0,0,0-.15,2.54l0-1.46,0-2.21-.37,2.54c-3.2,10-4,10.74-4.55,10.63s-.85-1.08-3.6,5.24c2.62-6,3.18-7.77,3.5-9.12a48.89,48.89,0,0,1,1.76-6.61,46.14,46.14,0,0,1,1.84-7.72c-1.35,3.41-1.12,2-1,.93s.1-1.67-2,3.27c.95-2.77-.38-.45,2.23-7.32-1.3,2-1.63,4.82-2.9,8.27-2.17,4.51-1.79,1.44-1.37-1.16s.8-4.71-2.64,1.24c-1.7,2.31-3.77,5.62-5.87,8.81a44.29,44.29,0,0,1-6.16,8,38.15,38.15,0,0,1,3.46-6.18c1.15-1.74,2-3,2-3,1.44-4.13.72-3.59-1.58-1.11,1.45-2.1,2.44-4,4-6.9-.73.44-6,8.82-4.2,4.85l6.79-9.62a98.36,98.36,0,0,1-7.25,8.11c2.9-4.19,4.8-6.08,6.79-8.74a97.05,97.05,0,0,0-8.86,9.21l-.73,1.27-.33.6c1.09-1.51,4-5.08,4.83-5.92,2.12-2.36,1.8-1.74.79-.18s-2.74,4-3.59,5.23l-1.49,1.24c-5,7-4,6.85-2,5s5.14-5.53,5.23-4.87l-3.51,5.17-2.58,3.71,0-.2,0,.21-1,1.4.93-1.13q-.15,1-.32,2.2l-1.45-.45c.22-3.75-.11-2.92-.62-.86l-.15.62-.84-.26.82-6-1.07,5.88-.37-.12c.28-2.57.62-5.29.93-6.8,1.75-1.63,4-3.89,6.44-6.63s5.39-6.25,8.26-9.8c-3.14,3.59-4.13,4.58-5.26,5.74l-6.38,6.59c-1.06.58,1.7-2.79,4.23-5.42-1.83,1.77,1.21-1.87-3.27,2.47-5.06,5.78-4.59,6.72.08,2.33-1.24,1.62-2.87,3.34-4.09,4.66.05-.27.11-.51.16-.69.32-6.17-.92,4.36-.45-2.51a18.62,18.62,0,0,1,.28-2.14l-.88,3.64c.41-2.59,1.05-8.75,1.07-6.93.24-7.22-2.39,9.14-1.39-.26l.16-.75c-1.36,3.5-1.37,7.72-2.84,15.56l-.32-.1,2.23-18.27Zm419.77-296a7,7,0,0,0,.62.67h-.17C730,421.28,729.87,421,729.76,420.89Zm1,2.2c2.91,0,5.91.22,5.74.49-1.94-.22-3.65.36-6.12.66A1.29,1.29,0,0,0,730.77,423.09Zm-17.47-53.56.27-.08,1-.38-1.21.48Zm-.8.35-1.9.76c-1,.32,0-.11,1.29-.66Zm5.37-22.26c1.52-.31,3.25-.68,5.39-1.19-1.24.27-3.43.68-5.94,1.16a2.15,2.15,0,0,1-.38-.07c1.38-.27,3.46-.68,6.65-1.34,1.16-.12.89,0-.25.23l.74-.18-.84.2h0l-4.92,1.2Zm-3.42-3.14c0-.14.26-.34.69-.58,1.2-.28,3.35-.71,2.38-.6l-1.86.33,1.18-.57c3.23-.41,6.35-.82,5.93-.57l3.49-.6c11.54-1.7-6.46,1.22,2.14,0l-11.67,2c2.5-.29,9.42-1.2,12.55-1.53l-.09.08C722.6,343.47,718.5,344,714.46,344.48Zm4.24-2.67c2.36-.28,12-1.82,14-1.93-3.88.65-7.3,1.31-14.52,2.46C718.53,342.14,718.73,342,718.7,341.82Zm-6.13-12.63c.34-.1.68-.22,1-.35,2.26,0,3.7.07,2.43.19l4.85-.11a1.21,1.21,0,0,1-.14.37c-2.69.05-5.07.08-6.08,0a8.82,8.82,0,0,1,2-.11C715.73,329.19,714.64,329.14,712.57,329.18Zm1,0-1.55.1.35-.09Zm4.7-7.58-1-.06.78-.1.48,0Zm11.08-31.56.31,1.23a12.77,12.77,0,0,1-4.67-.19C726.24,290.81,727.77,290.44,729.35,290.09Zm-9.45,37.82.22.07c-1,.06-2.76.13-4.72.2l.78-.24C717.09,327.92,718.26,327.9,719.9,327.91ZM716.07,334c-.94,0-1.71,0-1.13-.08l1.2-.05Zm6.64,28.42c1.61-.55,2.76-.92,3.91-1.25-.48.21-2,.78-3.12,1.22Zm3-.52-1.29.47-.61,0C725.78,361.71,727.87,361,725.75,361.91Zm3-.92c2.08-.72.63,0-2.58,1.33l-1.16,0Zm-.4.8-.8.26-.74.25h0A14.87,14.87,0,0,1,728.32,361.79Zm-8.54,5.53-2.33.85,1.88-.79ZM466,69.65a2.75,2.75,0,0,0-1.76-.44c0-2.91.41-5.9.82-5.72C464.68,65.43,465.55,67.16,466,69.65Zm-4.12-.12v.17l-1,.41A10.28,10.28,0,0,0,461.87,69.53Zm-97.43-2.84-2.19-9.64,1.09-.29A77,77,0,0,1,364.44,66.69Zm-3.67-9.22c.06.43.12.91.19,1.48-.18-.56-.34-1-.5-1.39Zm-2.92.82c0,.25,0,.53,0,.83l-.18-.78Zm-17,5.49a36.72,36.72,0,0,1,2,8.5C342.09,70,341,66.7,340.13,64ZM182.35,202.07c1.27,1.48,2.83,2.3,4.79,3.83a1,1,0,0,0-.93.45C184.12,204.32,182.08,202.12,182.35,202.07Zm3.38,5.63c0,.3-.06.56-.06.73a6.61,6.61,0,0,0-.05-.85ZM109.15,567.06c2.73-1.33,2.86-1.33,3.38-1.56l-.48.37a4,4,0,0,1,1-.47l-1,.49,0,0-.08,0C110.3,566.68,110.27,566.61,109.15,567.06Zm6.38,3.57.33-.37-.31.35Zm17.8,24.89c-1.12.66-2.1,1.26-2.82,1.71a28.74,28.74,0,0,1,3.26-2.49C134,594.72,133.78,595.06,133.34,595.52Zm-2,3.16.26-.17-.4.38C130.4,599.36,130.09,599.52,131.31,598.68ZM49,389.24c1.65.34,2.27.59-.06.62C49,389.66,49,389.45,49,389.24Zm-.38,3.92,2.24.31-2.24-.29Zm.44-4.46c0-.23.05-.46.08-.7,1.53.34,2.77.66,2.17.84Zm.34-1.13-.21,0,.07-.58C51.25,387.24,52.08,387.47,49.43,387.57ZM197.85,646.38l.58-.86-.36.74Zm-36.09-8c.63-.9,1.24-1.78,1.87-2.7l-.08.6A24,24,0,0,1,161.76,638.42ZM139,605.59l-.09,0c.48-.43,1.35-1.17,2.28-2l-.58.74ZM136,601c-.93.14-.88-.47,3-3.7A31.58,31.58,0,0,1,136,601ZM107.19,552.3l.68-.34.56-.18-1.44.66ZM49.41,385.83l0-.39c1.75.36,2.86.7,2.84.91A28.78,28.78,0,0,0,49.41,385.83ZM209.17,641.48c.87-1.36,1.69-2.62,2.31-3.55.81-.9,0,.54-.91,2a3.69,3.69,0,0,0-.84.67Zm-42.78-8.85c.3-.43.6-.82.86-1.15Zm-13.5-36,3.21-2.76c1-.72-.28.39-1.57,1.54a7.71,7.71,0,0,0-.86.55Zm-42.65-66.25,3.87-1.71c1.12-.42-.38.28-2,1a8.47,8.47,0,0,0-1,.3ZM80.11,445.65c1.61-.07,3.12-.12,4.23-.13,1.21.24-.43.44-2.15.59a3.08,3.08,0,0,0-1-.49Zm63-172.6,3.31,2.64c.83.88-.52-.08-1.91-1.11a3.83,3.83,0,0,0-.59-.89ZM571,688.66c-.16-.27-.31-.52-.46-.78l.27.26Zm12.93-1c-.82-1.25-1.52-2.37-2.16-3.42L583.2,686C583.43,686.55,583.67,687.11,583.94,687.7Zm-4.33-5.89-.62-.93.29.36Zm.52-6.15a9.13,9.13,0,0,1-.56-1.2,28.85,28.85,0,0,1-3.52-4.45c1.69,2,2.3,2.79,3.88,4.54.1.38.25.83.46,1.38Zm-5.75-8.22c-.68-1,.43.23,1.58,1.53a5.14,5.14,0,0,0,.49.91l.66.79Zm40.12-10c.75.59,1.57,1.2,2.39,1.93.65,1.5,1.18,2.77,1.62,3.86a5,5,0,0,1-.69-.2c-.39-.81-1-2-2.13-4.33.13.41,1,2.16,2,4.28l-.7-.28c-.74-1.45-1.56-3.1-2.52-5.05Zm9.28-2.44.38.27c1.05,1.87,1.15,2,3.43,5.78-5.59-9.17,2.82,5.59-1-.56l-3.41-5.93.51.36.27.49S623.89,655.23,623.78,655Zm-.87-7.75h0l0,0v0h0l0,0h0l-.07-.09.08.11c2.27,2.87,4.46,5.66,3.32,4.29,1.2,1.55,3.52,4.51,5.68,7.32l-.76-.59c-2.41-3.19-4.94-6.61-5.81-7.79-.17-.25.51.65,1.24,1.61C625.83,651.06,625,649.9,622.91,647.23Zm.12.16,1.64,2.16Zm.78,1.05-.88-1.18,0,.05Zm20.37,5.12.78.74-.44-.13C644.4,654,644.27,653.76,644.17,653.56Zm-3.3,5.5c.25.2.38.32.28.27l-.07-.06Zm5.64-2.15-.11-.13,1.47.68Zm1.16,0-1.75-.72-.32-.4,1.59.66Zm-3.08-2.6.62.24.11.11-.66-.21Zm.25.41h0ZM642,659.55l.68.51.22.36-1.17-.93c.38.31.95.77,1.23,1l.07.12-.37-.25-2-1.56c-.41-.41-.83-.8-1.26-1.19Zm-7.16-5.07-.73-.57c-.21-.17.22.14.53.37Zm.52,9.17c-.11-.23-.21-.44-.29-.64.43.6.81,1.13,1.08,1.55A10.42,10.42,0,0,1,635.31,663.65Zm-8.26-5.07-.19-.32.09.11Zm-1.8-3.39-.24-.1-.07-.12.27.15Zm-.28-.11-.33-.14-.13-.2.39.22Zm-1.21-.5-.25-.1c-.56-1.12-1.44-2.77-1-2.08Zm-6.55,1.52-.88-1.72C617.32,655.65,617.46,656.06,617.23,656.09Zm0,14.69-.05-.1.06.09Zm-30.65,6.93-.78-1.25.68.85A1.28,1.28,0,0,1,586.59,677.71Zm37.5-26.51-.05-.07h0Zm-8,6s0,0-.09-.06l-.12-.25Zm-60.58,49c-.73-1.81-2-3.08-3.34-5.15a1,1,0,0,0,1.06-.14C554.57,703.52,555.8,706.27,555.52,706.23Zm-1.37-6.43c.13-.28.24-.52.31-.68a6.64,6.64,0,0,0-.24.83ZM316.4,728.36l-.18-.06c.09-.8.17-1.57.25-2.26.63-.77,1.48-1.82,2.32-2.89,1.61-2,3.16-4.13,3.16-4.13A80.9,80.9,0,0,1,316.4,728.36Zm-4.1-6.18c-.09,1.53-.3,3.19-.53,4.73l-.61-.2C311.55,725,311.93,723.41,312.3,722.18Zm14,.15s-1.49,3.74-3.14,8.1l-1.07-.32A84.84,84.84,0,0,1,326.32,722.33Zm-1.45,8.6.12-.24-.06.26Z"/><path class="cls-1" d="M710.46,467.07l-1-.38Z"/><polygon class="cls-1" points="710.75 459.35 712.86 459.65 711.05 459.15 710.75 459.35"/><path class="cls-1" d="M667.95,589.89a.68.68,0,0,0-.17-.39C666.82,588.1,667.11,588.75,667.95,589.89Z"/><path class="cls-1" d="M666.87,621.17c-1-1.22-1.92-2.41-2.45-3.24C663.65,617.82,663.3,618,666.87,621.17Z"/><polygon class="cls-1" points="675.3 564.07 675.42 564.15 675.5 564.04 675.3 564.07"/><path class="cls-1" d="M665.29,617.17c-1.55-.79-1.52-.28-.87.76C665.08,618,666,618.29,665.29,617.17Z"/><polygon class="cls-1" points="653.99 623.91 650 621.2 654.96 626.2 653.99 623.91"/><path class="cls-1" d="M319.13,711l3.59-3.43,3.56-3.46-1,.84-1.06.82C322.2,707.41,318.09,711.6,319.13,711Z"/><path class="cls-1" d="M330.71,703.88c-.31.37-.86,1.12-1.56,2.11.28-.33.53-.6.72-.79Z"/><path class="cls-1" d="M581.2,668.14a9.53,9.53,0,0,0-.87-1.22Z"/><path class="cls-1" d="M330.41,704.89c.08-.28,0-.28-.19,0C330.31,704.82,330.4,704.79,330.41,704.89Z"/><path class="cls-1" d="M330.22,704.87a2.89,2.89,0,0,0-.34.32c-.68,1.05-1.32,2.05-1.68,2.7C329.34,706.1,329.93,705.22,330.22,704.87Z"/><path class="cls-1" d="M427.12,704.78l1,1.34C427.91,705.28,427.53,704.82,427.12,704.78Z"/><path class="cls-1" d="M517,703.24l-.11-1C516.69,702.05,516.69,702.31,517,703.24Z"/><path class="cls-1" d="M431.69,705.19a47.37,47.37,0,0,0,.22,5.86c.1-.66.19-1.19.29-2.16Z"/><path class="cls-1" d="M512.5,701.2l-.11-.59Z"/><path class="cls-1" d="M395.83,717.33l.09,0S395.86,717.29,395.83,717.33Z"/><path class="cls-1" d="M512.39,700.61v0Z"/><path class="cls-1" d="M436.86,705.94a5.35,5.35,0,0,0,.2-.79C437,705.34,436.93,705.62,436.86,705.94Z"/><path class="cls-1" d="M512.38,700.53l-.16-.83C512.28,700,512.33,700.27,512.38,700.53Z"/><path class="cls-1" d="M579.58,674.46l.11.08C579.6,674.44,579.57,674.42,579.58,674.46Z"/><path class="cls-1" d="M318.39,717.11l.38-.68C318.45,716.86,318.29,717.14,318.39,717.11Z"/><polygon class="cls-1" points="517.68 698.54 518.44 700.54 517.95 698.73 517.68 698.54"/><path class="cls-1" d="M344.28,718.12c.13-.73.25-1.49.31-2.14C344.48,716.52,344.38,717.28,344.28,718.12Z"/><path class="cls-1" d="M337.63,710.16l-1.14,3.43v.06Z"/><path class="cls-1" d="M404.47,712.27a.73.73,0,0,0,.21-.36C405.28,710.34,404.94,710.95,404.47,712.27Z"/><path class="cls-1" d="M381.47,728.68c.47-1.47.93-2.92,1.31-3.82C382.52,724.16,382.27,723.95,381.47,728.68Z"/><path class="cls-1" d="M427,704.63l0,.15h.13Z"/><path class="cls-1" d="M383.69,725.15c-.09-1.72-.45-1.41-.92-.3C383,725.46,383.18,726.36,383.69,725.15Z"/><path class="cls-1" d="M329.93,702.4l.16-.32-.84,1.06Z"/><path class="cls-1" d="M329.26,703.15l-.68.73S328.67,703.88,329.26,703.15Z"/><path class="cls-1" d="M327.1,705.41l1.48-1.53C328.54,703.82,328.66,703.57,327.1,705.41Z"/><path class="cls-1" d="M331.41,704.37,329.87,707Z"/><path class="cls-1" d="M331.12,705.71c-.7,1.62-1.3,3.21,0,1,.1-.74,2.67-6,1.53-4.42l-1.23,2.1C332.6,702.43,331.81,704.08,331.12,705.71Z"/><polygon class="cls-1" points="373.94 719.56 374.19 714.76 372.69 721.64 373.94 719.56"/><path class="cls-1" d="M136.24,587.27a7,7,0,0,0-.36.62C136.51,587.22,136.84,586.82,136.24,587.27Z"/><path class="cls-1" d="M139.94,574.86l-.11.13C140.7,574.53,140.5,574.55,139.94,574.86Z"/><path class="cls-1" d="M84.55,528.89c3-1.37,12.51-4.14,16.67-6.93C94.57,525.61,91.82,524.54,84.55,528.89Z"/><path class="cls-1" d="M123.16,567.05c.71-.5,1.56-1.14,2.93-2.25C124.89,565.68,124,566.38,123.16,567.05Z"/><path class="cls-1" d="M123.93,582.07l.7-.94C124.1,581.69,124,581.94,123.93,582.07Z"/><path class="cls-1" d="M119.32,584.89a3.23,3.23,0,0,0,1.55-.95C120.19,584.39,119.69,584.69,119.32,584.89Z"/><path class="cls-1" d="M66.14,427.14l1.3-.17Z"/><path class="cls-1" d="M138.31,577.06a2,2,0,0,0-.78.27A1.66,1.66,0,0,0,138.31,577.06Z"/><path class="cls-1" d="M119.05,585l.27-.14Z"/><path class="cls-1" d="M72,458.62l-.34.12Z"/><path class="cls-1" d="M70.76,445.81l2.65,0-.14-.17a3.4,3.4,0,0,1-.62-.1C71.9,445.61,71.27,445.71,70.76,445.81Z"/><polygon class="cls-1" points="146.17 592.39 147.12 591.8 144.5 593.1 146.17 592.39"/><polygon class="cls-1" points="90.71 481.43 93.88 481.11 91.15 480.97 90.71 481.43"/><path class="cls-1" d="M296.74,707.58a6,6,0,0,0,.16-1.18Z"/><path class="cls-1" d="M286.64,695.42a11.93,11.93,0,0,0-.84,2A10.26,10.26,0,0,0,286.64,695.42Z"/><path class="cls-1" d="M287.44,686.34c-.07.31-.08.46-.11.68C287.6,686.14,287.73,685.64,287.44,686.34Z"/><path class="cls-1" d="M296.9,706.41l.44-3.11C296.5,706.42,296.91,705.67,296.9,706.41Z"/><path class="cls-1" d="M304.31,699.93h.1l.93-3.93Z"/><path class="cls-1" d="M306.47,710.75c.68-3.4,1-5,1.25-5.64l1-5.88C308.71,698.84,307.17,707.13,306.47,710.75Z"/><path class="cls-1" d="M313.58,714.17l.09-.39Z"/><path class="cls-1" d="M313.4,714.93l.18-.75Z"/><path class="cls-1" d="M301.77,697.48l.66-2.94C302.18,695.57,302,696.55,301.77,697.48Z"/><path class="cls-1" d="M287.74,674.86l0,.16C288.13,674.16,288,674.29,287.74,674.86Z"/><path class="cls-1" d="M243.34,680.06c1.59-2.9,7-11.13,9-15.66C249,671.17,246.9,672.45,243.34,680.06Z"/><path class="cls-1" d="M276.31,679.57c.35-.79.76-1.77,1.42-3.41C277.14,677.53,276.72,678.57,276.31,679.57Z"/><path class="cls-1" d="M279.31,689.9l.27-1.11A4.25,4.25,0,0,0,279.31,689.9Z"/><path class="cls-1" d="M269.74,684.9c.15-.44.24-.73-.17-.07l-.4,1C269.56,685,269.82,684.59,269.74,684.9Z"/><path class="cls-1" d="M269.74,684.9c-.07.21-.16.46-.22.66A6.8,6.8,0,0,0,269.74,684.9Z"/><path class="cls-1" d="M266,683.89l-.67,1.55.31-.35Z"/><path class="cls-1" d="M287.1,677.47a3.22,3.22,0,0,0-.42.67A2.62,2.62,0,0,0,287.1,677.47Z"/><path class="cls-1" d="M276.88,695l.08-.16Z"/><path class="cls-1" d="M277,694.8a6,6,0,0,0,.8-1.66C277.42,693.89,277.16,694.42,277,694.8Z"/><path class="cls-1" d="M210.71,653.36l-.15.33C210.64,653.53,210.68,653.43,210.71,653.36Z"/><path class="cls-1" d="M266.19,691.08l.3-.62Z"/><path class="cls-1" d="M204.91,647.6l-.9,1.67,1.46-2.2-.16.05A5.24,5.24,0,0,1,204.91,647.6Z"/><path class="cls-1" d="M296.49,708.76l.22-1,0-.19C296.67,707.91,296.61,708.23,296.49,708.76Z"/><path class="cls-1" d="M309.95,708.6l.32,2.51c.37-3.23.89-7.57,1.31-8.31C312.23,693.09,310.64,710,309.95,708.6Z"/><path class="cls-1" d="M309.77,697.06a29.48,29.48,0,0,0-1.15,6.47C309.24,702.1,309.43,698.87,309.77,697.06Z"/><path class="cls-1" d="M295.94,692.7c-.57,1-.84,2.85-2.19,7.35Z"/><polygon class="cls-1" points="293.89 684.32 294.33 683.32 293.06 685.83 293.89 684.32"/><path class="cls-1" d="M269.87,677.48l-4,8.56C266.77,684.59,271.4,675,269.87,677.48Z"/><path class="cls-1" d="M256.11,677.75c-.08.7-1.58,4.07-.88,3.06C257.33,676.59,258.48,673.75,256.11,677.75Z"/><polygon class="cls-1" points="231.92 649.33 233.81 646.77 232.02 648.76 231.92 649.33"/><path class="cls-1" d="M68.45,379.93H67.26A4.83,4.83,0,0,0,68.45,379.93Z"/><path class="cls-1" d="M78.94,365.68a9.81,9.81,0,0,0-2-.69A8.41,8.41,0,0,0,78.94,365.68Z"/><path class="cls-1" d="M88.17,365.27c-.32,0-.46,0-.69,0C88.38,365.42,88.88,365.5,88.17,365.27Z"/><path class="cls-1" d="M68.45,379.93h3.15C68.39,379.44,69.19,379.82,68.45,379.93Z"/><path class="cls-1" d="M75.6,388v.13l4,.48Z"/><path class="cls-1" d="M65,392.54a57.12,57.12,0,0,1,5.75.64c1.6.1,3.52.2,6,.31C77.07,393.4,68.66,392.83,65,392.54Z"/><path class="cls-1" d="M77.82,384.4l3,.31C79.77,384.59,78.77,384.49,77.82,384.4Z"/><path class="cls-1" d="M99.76,364.17l-.16,0C100.48,364.53,100.34,364.42,99.76,364.17Z"/><path class="cls-1" d="M98.33,315.48c2.75,1.83,10.33,8.18,14.74,10.42C106.57,322,105.68,319.59,98.33,315.48Z"/><path class="cls-1" d="M94.86,352.1c.8.33,1.79.72,3.44,1.33C96.92,352.88,95.87,352.48,94.86,352.1Z"/><path class="cls-1" d="M84.37,356.38l1.13.17A3.71,3.71,0,0,0,84.37,356.38Z"/><path class="cls-1" d="M89.66,345.23c.45.15.73.22.08-.19l-1-.39C89.53,345,90,345.3,89.66,345.23Z"/><path class="cls-1" d="M89.66,345.23,89,345A6.15,6.15,0,0,0,89.66,345.23Z"/><path class="cls-1" d="M90.84,341.12l-1.54-.7.33.32Z"/><path class="cls-1" d="M140.92,253.81l1.19.75Z"/><path class="cls-1" d="M97.09,363.76a2.89,2.89,0,0,0-.69-.39A2.32,2.32,0,0,0,97.09,363.76Z"/><path class="cls-1" d="M79.46,354.31a4.59,4.59,0,0,0,1.61.68C80.35,354.7,79.84,354.48,79.46,354.31Z"/><path class="cls-1" d="M83.47,341.6l.64.31Z"/><path class="cls-1" d="M131.59,273.28l-.3-.15Z"/><path class="cls-1" d="M79,354.11l.41.2Z"/><path class="cls-1" d="M137.46,268.2l-1.58-1.06,2,1.68,0-.17A4.88,4.88,0,0,1,137.46,268.2Z"/><path class="cls-1" d="M66.06,379.84l1,.11h.19C66.92,379.92,66.6,379.9,66.06,379.84Z"/><path class="cls-1" d="M67.56,396.55l-2.47.8c3.26,0,7.64-.07,8.41.35C83.25,397,66.2,397.66,67.56,396.55Z"/><path class="cls-1" d="M72.4,394.07c1.48.55,4.72.26,6.56.39A23.06,23.06,0,0,0,72.4,394.07Z"/><path class="cls-1" d="M82.21,376.37c-1-.52-2.92-.53-7.54-1.4Z"/><polygon class="cls-1" points="90.46 372.53 91.5 372.9 88.9 371.78 90.46 372.53"/><path class="cls-1" d="M97.15,345.13,88.65,341C90.06,341.95,99.56,346.71,97.15,345.13Z"/><path class="cls-1" d="M98.24,330.23c-.72-.09-4-1.81-3-1C99.26,331.62,102,332.95,98.24,330.23Z"/><polygon class="cls-1" points="135.12 297.38 137.65 299.32 135.75 297.35 135.12 297.38"/><path class="cls-1" d="M718.81,329.24c-.23,0-1.22,0-2.12,0C717.34,329.24,717.95,329.26,718.81,329.24Z"/><path class="cls-1" d="M707.89,330.46l.67-.08C707.65,330.43,707.14,330.47,707.89,330.46Z"/><path class="cls-1" d="M716.37,321.4v0l-4-.28Z"/><path class="cls-1" d="M713.45,322.6l-2-.08Z"/><path class="cls-1" d="M714.48,322.64l-1,0Z"/><path class="cls-1" d="M697.18,332.81l.16,0C696.38,332.79,696.55,332.81,697.18,332.81Z"/><path class="cls-1" d="M704.82,336.83l-.16,0Z"/><path class="cls-1" d="M706.21,336.69l-1.39.14Z"/><path class="cls-1" d="M704.67,336.84l-.81.08Z"/><path class="cls-1" d="M703.85,336.92l-1.31.13Z"/><path class="cls-1" d="M714.28,333l-1.12.14A9.74,9.74,0,0,0,714.28,333Z"/><path class="cls-1" d="M713.85,337.68l.68-.1Z"/><path class="cls-1" d="M713.85,337.68c-.46.07-.75.12,0,.08l1-.12C714.05,337.71,713.54,337.74,713.85,337.68Z"/><path class="cls-1" d="M714.77,339.18l1.68-.23H716Z"/><path class="cls-1" d="M700.6,332.53a5.21,5.21,0,0,0-.76,0A5.92,5.92,0,0,0,700.6,332.53Z"/><path class="cls-1" d="M724,319l2.45,0c-3.24-.26-7.61-.6-8.38-.81C708.38,317.65,725.35,318.81,724,319Z"/><path class="cls-1" d="M712.7,318.94c2.95.35,3.7.43,6.55.55C717.74,319.21,714.53,319.1,712.7,318.94Z"/><polygon class="cls-1" points="703.89 327.81 702.8 327.76 705.58 327.97 703.89 327.81"/><path class="cls-1" d="M707.32,339.74l9.39-1.11C715,338.75,704.46,339.92,707.32,339.74Z"/><polygon class="cls-1" points="706.05 361.61 703 362.44 705.58 361.86 706.05 361.61"/><path class="cls-1" d="M626.55,652l1.26,1.71C627.68,653.55,627.09,652.75,626.55,652Z"/><path class="cls-1" d="M620.82,645.31l.45.51C620.72,645.09,620.4,644.69,620.82,645.31Z"/><path class="cls-1" d="M634.23,655.17l-2.41-2A13.8,13.8,0,0,0,634.23,655.17Z"/><path class="cls-1" d="M628.63,649.29v0L625.3,647Z"/><path class="cls-1" d="M625.13,647l-.52-.41Z"/><path class="cls-1" d="M627,648.46,625.13,647Z"/><path class="cls-1" d="M614.19,636.76l.09.13C613.77,636.08,613.86,636.23,614.19,636.76Z"/><path class="cls-1" d="M610.41,665.95c-1.59-2.89-5.79-11.82-8.42-16C605.77,656.5,606.11,658.75,610.41,665.95Z"/><path class="cls-1" d="M616.44,645l-.08-.15Z"/><path class="cls-1" d="M616,644.1l-.3-.55Z"/><path class="cls-1" d="M616.08,644.32l-.12-.22Z"/><path class="cls-1" d="M615.66,643.56l-.75-1.35Z"/><path class="cls-1" d="M616.36,644.81l-.27-.49Z"/><path class="cls-1" d="M616.71,645.44l-.27-.48Z"/><path class="cls-1" d="M622.86,651.47l-.64-.93C622.64,651.18,622.8,651.4,622.86,651.47Z"/><path class="cls-1" d="M618.91,652.78c-.23-.4-.38-.65-.07,0l.49.91C619,653,618.74,652.52,618.91,652.78Z"/><path class="cls-1" d="M618.91,652.78l.35.6Z"/><path class="cls-1" d="M617.75,654.2l.79,1.5-.15-.43Z"/><path class="cls-1" d="M641.58,659.4l-.2-.17Z"/><path class="cls-1" d="M622.86,647.18h0l0,0h0l0,0Z"/><path class="cls-1" d="M621.07,644.74l.15.18c-.59-.8-1.24-1.68-2-2.66Z"/><path class="cls-1" d="M641.68,659.49l-.1-.08Z"/><path class="cls-1" d="M617.35,641,614,636.16l-1.58-2.4.8,1.23c.1.17.09.16.08.16l4,5.9c-.71-1-.75-1-2.39-3.49.79,1.21,1.74,2.63,2.75,4.16l.16-.11Z"/><path class="cls-1" d="M617.91,641.62l0,0,0,0h0l-.09.06.43.6.06,0-.28-.44Z"/><path class="cls-1" d="M617.49,641.79l.4.62.11-.08-.41-.61Z"/><path class="cls-1" d="M616.11,639.65a7.22,7.22,0,0,0-.41-.68C615.77,639.1,615.92,639.34,616.11,639.65Z"/><path class="cls-1" d="M628.2,648.58h0Z"/><path class="cls-1" d="M628.45,648.75l-1.38-.74,4.17,2.25C630.57,649.88,629.52,649.33,628.45,648.75Z"/><path class="cls-1" d="M624.07,647c.74.81,2.08,2.12,5.37,5.47Z"/><polygon class="cls-1" points="618.82 641.84 618.12 641.01 619.89 643.15 618.82 641.84"/><path class="cls-1" d="M619,655.83c-.68-1.56-5.45-11-4.28-8.43Z"/><path class="cls-1" d="M613.66,658.62c-2.13-4.22-3.64-6.86-1.7-2.64C612.38,656.49,614.12,659.74,613.66,658.62Z"/><polygon class="cls-1" points="585.81 657.01 584.14 654.32 585.39 656.66 585.81 657.01"/><path class="cls-1" d="M115.47,566.87c-.58.3-1.12.58-1.87,1C113.82,567.78,114.68,567.31,115.47,566.87Z"/><path class="cls-1" d="M122.95,562.16l-.58.35C123.17,562.06,123.61,561.81,122.95,562.16Z"/><path class="cls-1" d="M117.94,568.12l.12-.11h0l-.3.28-.46.43h0l-.2.19.21-.2Z"/><path class="cls-1" d="M118.1,568,118,568l0,0Z"/><polygon class="cls-1" points="118.03 568.03 118.04 568.02 118.05 568.02 118.03 568.03"/><path class="cls-1" d="M116.17,569.92l0,0-.19.22Z"/><path class="cls-1" d="M119.28,566.88l.87-.74Z"/><path class="cls-1" d="M132.17,556.49l-.14.08C132.9,556.15,132.74,556.22,132.17,556.49Z"/><path class="cls-1" d="M123.85,557.73l1.46-.68Z"/><path class="cls-1" d="M123.21,558l.65-.3Z"/><path class="cls-1" d="M125.32,557l.18-.09Z"/><path class="cls-1" d="M125.5,557l1-.49Z"/><path class="cls-1" d="M116.63,563.57l1-.54C116.94,563.38,116.71,563.51,116.63,563.57Z"/><path class="cls-1" d="M115.76,559.83c.42-.21.67-.34,0-.06l-.93.44C115.56,559.88,116,559.68,115.76,559.83Z"/><path class="cls-1" d="M115.76,559.83l-.61.31Z"/><path class="cls-1" d="M129.12,558.09c.07,0,.3-.13.71-.32Z"/><path class="cls-1" d="M134.52,555.58l.89-.44Z"/><path class="cls-1" d="M103,536.81l-.32.16Z"/><path class="cls-1" d="M101.69,534.18l2.42-1.06-.14,0c-.18.07-.5.21-.57.22Z"/><polygon class="cls-1" points="126.79 560.9 127.73 560.34 125.33 561.75 126.79 560.9"/><path class="cls-1" d="M121.36,555.91l-8.6,3.91C114.34,559.2,124,554.86,121.36,555.91Z"/><path class="cls-1" d="M113.37,554c-.55.36-3.87,2-2.74,1.52C114.93,553.55,117.64,552.18,113.37,554Z"/><polygon class="cls-1" points="118.83 536.24 121.76 535.03 119.28 535.95 118.83 536.24"/><path class="cls-1" d="M187.37,638.35a18.68,18.68,0,0,0-1.3,1.68A16.14,16.14,0,0,0,187.37,638.35Z"/><path class="cls-1" d="M191.27,630.31l-.32.6C191.45,630.14,191.72,629.71,191.27,630.31Z"/><path class="cls-1" d="M196.56,643.74h.05l2-3.48Z"/><path class="cls-1" d="M196.82,640.05l0,0Z"/><path class="cls-1" d="M196.06,641.33l.76-1.28Z"/><path class="cls-1" d="M197.17,639.47l.43-.72Z"/><path class="cls-1" d="M196.84,640l.33-.56Z"/><path class="cls-1" d="M195.5,620.05l-.09.14C196,619.45,195.9,619.56,195.5,620.05Z"/><path class="cls-1" d="M161.53,625c2-2.61,8.43-10.1,11.22-14.14C168.28,616.94,166.41,618.2,161.53,625Z"/><path class="cls-1" d="M185.39,623.54c.51-.7,1.12-1.57,2.12-3Z"/><path class="cls-1" d="M184.24,633l.57-1A6.23,6.23,0,0,0,184.24,633Z"/><path class="cls-1" d="M178.93,628.14c.25-.39.4-.65-.1-.06l-.59.85C178.75,628.26,179.07,627.86,178.93,628.14Z"/><path class="cls-1" d="M178.93,628.14l-.37.59C178.76,628.42,178.87,628.24,178.93,628.14Z"/><path class="cls-1" d="M176.52,627.29l-1,1.39.33-.31Z"/><path class="cls-1" d="M148.43,605.53l-.24.25Z"/><path class="cls-1" d="M174.42,633.65l.4-.54Z"/><path class="cls-1" d="M194.14,622.36a4.53,4.53,0,0,0-.53.57A3.77,3.77,0,0,0,194.14,622.36Z"/><path class="cls-1" d="M180.67,637.5l.28-.34Z"/><path class="cls-1" d="M181,637.16a8.24,8.24,0,0,0,1.08-1.37C181.56,636.39,181.22,636.83,181,637.16Z"/><path class="cls-1" d="M145.79,602.74l2-1.71-.13,0c-.15.11-.42.34-.49.37Z"/><path class="cls-1" d="M194.45,636.58c-.74.83-1.64,2.48-4.23,6.39Z"/><polygon class="cls-1" points="196.36 629.03 197.04 628.17 195.24 630.31 196.36 629.03"/><path class="cls-1" d="M181.29,621.54l-5.55,7.65C176.85,627.9,183.16,619.36,181.29,621.54Z"/><path class="cls-1" d="M171.3,622.2c-.27.62-2.36,3.65-1.56,2.73C172.52,621.12,174.2,618.58,171.3,622.2Z"/><polygon class="cls-1" points="164.2 600.44 166.43 598.19 164.48 599.98 164.2 600.44"/></g></g></svg>
