<svg xmlns="http://www.w3.org/2000/svg" viewBox="0 0 645.83 283.58"><defs><style>.cls-1{fill:#fff;}</style></defs><title>mrc-reverse-logo</title><g id="Layer_2" data-name="Layer 2"><g id="Layer_1-2" data-name="Layer 1"><path class="cls-1" d="M479.87,136.85c-1.16-1.32-2.93-2-5.32-2a7.62,7.62,0,0,0-5.71,2.16,8.55,8.55,0,0,0-2.42,5.4h15.23A8.31,8.31,0,0,0,479.87,136.85Z"/><path class="cls-1" d="M537.36,79.46A20.21,20.21,0,0,0,541,77.21V69.67c-1.38.08-3,.2-4.84.36a25.66,25.66,0,0,0-4.38.71,7.34,7.34,0,0,0-3.13,1.73,5.08,5.08,0,0,0,.2,6.75A6.39,6.39,0,0,0,533,80.4,10,10,0,0,0,537.36,79.46Z"/><path class="cls-1" d="M459.09,61.87a16.38,16.38,0,0,0-3.28-1.12,15.52,15.52,0,0,0-3.16-.31,7.25,7.25,0,0,0-6,2.62q-2.12,2.63-2.12,7.44c0,3.16.44,5.26,1.54,6.91a6.24,6.24,0,0,0,5.36,2.77,10.12,10.12,0,0,0,3.92-.85,16.9,16.9,0,0,0,3.68-2.19Z"/><path class="cls-1" d="M413.55,136.85a6.75,6.75,0,0,0-5.31-2,7.7,7.7,0,0,0-5.75,2.16,8.7,8.7,0,0,0-2.42,5.4h15.24A8.33,8.33,0,0,0,413.55,136.85Z"/><path class="cls-1" d="M510.9,154.41a18.73,18.73,0,0,0,3.62-2.24v-7.55q-2,.12-4.81.37a24.24,24.24,0,0,0-4.4.7,7.23,7.23,0,0,0-3.11,1.73,4.34,4.34,0,0,0-1.19,3.24,4.39,4.39,0,0,0,1.38,3.51,6.41,6.41,0,0,0,4.21,1.17A9.85,9.85,0,0,0,510.9,154.41Z"/><path class="cls-1" d="M418.17,59.9a7.62,7.62,0,0,0-5.72,2.18,8.61,8.61,0,0,0-2.43,5.4h15.24a8.24,8.24,0,0,0-1.77-5.59A6.79,6.79,0,0,0,418.17,59.9Z"/><path class="cls-1" d="M409.19,210.22a6.89,6.89,0,0,0-5.69,2.51q-2,2.51-2,7.65,0,5,2,7.56a7.55,7.55,0,0,0,11.33,0q2-2.56,2-7.59t-2-7.65A6.91,6.91,0,0,0,409.19,210.22Z"/><path class="cls-1" d="M188.71,185.37a17.89,17.89,0,0,0,1.25-7.26,16.83,16.83,0,0,0-1.57-6.93A10.52,10.52,0,0,0,184,166.6a17.24,17.24,0,0,0-6-2.08,52.67,52.67,0,0,0-8.08-.57H155.09v30.91h13.08a43.53,43.53,0,0,0,9.72-.87,16.62,16.62,0,0,0,6.94-3.33A14.55,14.55,0,0,0,188.71,185.37Z"/><path class="cls-1" d="M609.88,0h-574C10.89,0,0,11.38,0,36.09v211.4c0,24.71,10.89,36.09,35.93,36.09h574c25.05,0,35.94-11.37,35.94-36.09V36.09C645.83,11.38,634.94,0,609.88,0Zm-52,46.51h4.52V83.82h-4.52Zm-82.13,1.31h5v4.68h-5ZM480.53,57V83.79H476V57ZM116.68,238.87l-2.28-36.48c-.76-12.88-1.39-27-1.65-37.61h-.25c-2.4,10.09-5.7,21-9.76,33.07l-14,40.53H79.12L65.17,197.84c-4.06-12.11-7.35-23-9.77-33.07h-.25c-.25,10.6-.88,24.74-1.64,37.61l-2.28,36.48H39.89l6-85.09H61.34l14.59,41.15c3.19,9.44,5.76,18.33,7.92,26.39h.24c2.16-8.05,4.72-16.95,7.93-26.39l14.58-41.15H122l6,85.09Zm83.36,0-27-33.15H155.09v33.15H144.15V153.79h24.66a75.71,75.71,0,0,1,12.83.81,24.1,24.1,0,0,1,9.83,3.77,19,19,0,0,1,6.7,7.25,28,28,0,0,1-1,27.29,23.15,23.15,0,0,1-12.3,9.73L215,238.86Zm52.11-9.9a35.81,35.81,0,0,0,9.42.6,44,44,0,0,0,20.82-7.16l.23,11.31c-5,2.92-12.61,6.36-24.66,6.36-24.62,0-43-18.9-43-43.85s18.42-43.84,43-43.84c12.05,0,19.65,3.43,24.66,6.35L282.4,170a44,44,0,0,0-20.82-7.43,35.8,35.8,0,0,0-9.42.59c-15.07,2.92-25.89,16.37-25.89,32.89S237.08,226,252.15,229Zm75.79,29v.26H321.4V25.39h6.55Zm46.26-28a15.07,15.07,0,0,0,3.95.25,18.46,18.46,0,0,0,8.74-3l.09,4.73a19.51,19.51,0,0,1-10.35,2.67c-10.33,0-18-7.93-18-18.39s7.72-18.38,18-18.38A19.67,19.67,0,0,1,387,200.42l-.09,4.74a18.54,18.54,0,0,0-8.74-3.12,14.7,14.7,0,0,0-3.95.25c-6.33,1.22-10.86,6.86-10.86,13.79S367.88,228.67,374.21,229.89Zm9.71-71.13-11.33-13.9h-7.51v13.9h-4.59V123.08h10.35a31.86,31.86,0,0,1,5.38.34,9.89,9.89,0,0,1,4.11,1.59,7.82,7.82,0,0,1,2.82,3,11.78,11.78,0,0,1-.44,11.45,9.69,9.69,0,0,1-5.15,4.08l12.66,15.19Zm6.42-90.27c-.32-5.4-.59-11.33-.69-15.77h-.11c-1,4.24-2.4,8.79-4.09,13.88l-5.84,17h-4.06l-5.85-17c-1.71-5.08-3.08-9.64-4.09-13.88h-.11c-.1,4.44-.38,10.38-.7,15.77l-.94,15.31h-4.76l2.52-35.68h6.48l6.12,17.25c1.35,4,2.42,7.69,3.31,11.06h.12c.89-3.38,2-7.1,3.33-11.06L387,48.11h6.49l2.52,35.68h-4.76ZM399,135.14a12.31,12.31,0,0,1,9.45-3.86c3.61,0,6.39,1.06,8.36,3.17s2.94,5.11,2.94,9v2.44H400.08a11.23,11.23,0,0,0,.75,4.29,8,8,0,0,0,2,3,8.09,8.09,0,0,0,3,1.72,11.64,11.64,0,0,0,3.75.58,15.08,15.08,0,0,0,5.48-1.1,13.9,13.9,0,0,0,3.92-2.15h.23v4.94a37,37,0,0,1-4.66,1.62,18.74,18.74,0,0,1-5,.65c-4.45,0-7.92-1.19-10.42-3.61s-3.74-5.81-3.74-10.24S396.59,137.71,399,135.14Zm19.22,95.54a12.67,12.67,0,0,1-18.07,0q-3.35-3.78-3.34-10.31T400.14,210a12.67,12.67,0,0,1,18.07,0c2.23,2.55,3.36,6,3.36,10.34S420.44,228.17,418.2,230.68ZM429.68,70.9H410a11.53,11.53,0,0,0,.75,4.28,8.11,8.11,0,0,0,2,3,7.94,7.94,0,0,0,2.94,1.71,11.72,11.72,0,0,0,3.76.58,14.64,14.64,0,0,0,5.47-1.1,13.43,13.43,0,0,0,3.93-2.15h.23v4.93a34.26,34.26,0,0,1-4.64,1.62,18.4,18.4,0,0,1-5,.65c-4.45,0-7.91-1.19-10.41-3.59s-3.74-5.82-3.74-10.24,1.2-7.85,3.58-10.43a12.32,12.32,0,0,1,9.44-3.85q5.43,0,8.36,3.16c2,2.11,2.95,5.11,2.95,9Zm1,81.2h.23a18.45,18.45,0,0,0,4.75,2.57,14.8,14.8,0,0,0,5,.95,9.3,9.3,0,0,0,4.64-1,3.24,3.24,0,0,0,1.69-3,3.09,3.09,0,0,0-.91-2.41,8.32,8.32,0,0,0-3.51-1.39c-.64-.14-1.47-.32-2.52-.5s-2-.4-2.81-.63a9.29,9.29,0,0,1-5-2.74,6.76,6.76,0,0,1-1.48-4.45,7.17,7.17,0,0,1,.69-3.13,7.38,7.38,0,0,1,2.07-2.61,10,10,0,0,1,3.43-1.79,15.46,15.46,0,0,1,4.66-.66,20.85,20.85,0,0,1,4.87.59,18.57,18.57,0,0,1,4.09,1.42v4.83h-.24a16.38,16.38,0,0,0-4.19-2.17,14.33,14.33,0,0,0-4.85-.89,8.37,8.37,0,0,0-4.16,1,3.35,3.35,0,0,0-.67,5.34,8,8,0,0,0,3.27,1.37c.83.19,1.75.38,2.78.58s1.89.36,2.6.52a9.69,9.69,0,0,1,4.84,2.47,6.49,6.49,0,0,1,1.7,4.72,7.25,7.25,0,0,1-3,6c-2,1.59-4.81,2.36-8.31,2.36a20.16,20.16,0,0,1-5.47-.7,24.4,24.4,0,0,1-4.17-1.56Zm23.6,81.65h-4.51v-3a23.24,23.24,0,0,1-4.37,2.76,11.09,11.09,0,0,1-4.62.95,8.41,8.41,0,0,1-6.59-2.58c-1.59-1.71-2.35-4.22-2.35-7.54V207h4.5v15.21a28.1,28.1,0,0,0,.2,3.47,6.09,6.09,0,0,0,.82,2.47,3.76,3.76,0,0,0,1.69,1.53,7.38,7.38,0,0,0,3,.48,9.8,9.8,0,0,0,3.85-.91,18.05,18.05,0,0,0,3.87-2.31V207h4.51Zm.92-150.23a12.19,12.19,0,0,1-4.74,1,9.13,9.13,0,0,1-7.67-3.68c-1.9-2.46-2.84-5.87-2.84-10.22a17.53,17.53,0,0,1,1-6.06,13.57,13.57,0,0,1,2.65-4.5,10.73,10.73,0,0,1,3.83-2.79,11,11,0,0,1,4.51-1,14.12,14.12,0,0,1,3.77.45,16.87,16.87,0,0,1,3.45,1.37V46.47h4.52V83.79h-4.52V81A15.21,15.21,0,0,1,455.15,83.52Zm6.58,62q0-6.56,3.59-10.41a12.26,12.26,0,0,1,9.45-3.86q5.43,0,8.37,3.17c2,2.1,2.93,5.11,2.93,9v2.44H466.42a11.2,11.2,0,0,0,.75,4.29,7.69,7.69,0,0,0,2,3,8,8,0,0,0,2.94,1.72,11.66,11.66,0,0,0,3.77.58,15,15,0,0,0,5.47-1.1,13.61,13.61,0,0,0,3.91-2.15h.25v4.94a37.53,37.53,0,0,1-4.66,1.62,18.74,18.74,0,0,1-5,.65c-4.45,0-7.93-1.19-10.42-3.61S461.73,150,461.73,145.55Zm27.36,88.2h-4.5v-15.2a26.39,26.39,0,0,0-.22-3.46,5.9,5.9,0,0,0-.79-2.51,3.57,3.57,0,0,0-1.72-1.49,7.36,7.36,0,0,0-2.94-.49,9.31,9.31,0,0,0-3.88.89,21.3,21.3,0,0,0-3.89,2.32v19.94h-4.5V207h4.5v3a18.1,18.1,0,0,1,4.38-2.74,11.5,11.5,0,0,1,4.64-1,8.33,8.33,0,0,1,6.64,2.62c1.52,1.73,2.27,4.24,2.27,7.52ZM492,76.59a18.23,18.23,0,0,1-1-6.19c0-4.4,1.22-7.84,3.62-10.34a12.6,12.6,0,0,1,9.52-3.76,16.07,16.07,0,0,1,4.53.64,23.92,23.92,0,0,1,4.07,1.57v5h-.25a16.88,16.88,0,0,0-4.24-2.41,12,12,0,0,0-4.29-.85,7.55,7.55,0,0,0-6,2.58c-1.48,1.72-2.21,4.24-2.21,7.56s.72,5.72,2.17,7.45a7.47,7.47,0,0,0,6.08,2.6,11.7,11.7,0,0,0,2.79-.36,12,12,0,0,0,2.54-.9c.65-.33,1.27-.68,1.84-1a15,15,0,0,0,1.36-.94h.25v4.93a29.19,29.19,0,0,1-4.29,1.69,15.59,15.59,0,0,1-4.3.59,16,16,0,0,1-5.32-.85A10.9,10.9,0,0,1,494.71,81,11.64,11.64,0,0,1,492,76.59ZM496.32,151a8.53,8.53,0,0,1,1.3-4.93,8.71,8.71,0,0,1,3.72-3,20.23,20.23,0,0,1,5.85-1.46c2.27-.26,4.73-.45,7.33-.57v-.7a5.34,5.34,0,0,0-.53-2.54,3.84,3.84,0,0,0-1.55-1.59,6,6,0,0,0-2.3-.74,18.45,18.45,0,0,0-2.79-.19,19.72,19.72,0,0,0-3.95.45,31.72,31.72,0,0,0-4.51,1.35h-.23V132.5c.89-.24,2.15-.51,3.81-.79a29.11,29.11,0,0,1,4.91-.43,22.67,22.67,0,0,1,4.92.48,9.24,9.24,0,0,1,3.62,1.59,7.24,7.24,0,0,1,2.31,2.86,10.67,10.67,0,0,1,.79,4.35v18.22h-4.52v-2.88c-.39.28-.92.64-1.59,1.15a11,11,0,0,1-2,1.17,14.17,14.17,0,0,1-2.58.92,13.85,13.85,0,0,1-3.42.37,8.45,8.45,0,0,1-6.11-2.41A8.08,8.08,0,0,1,496.32,151Zm25.08,62.51h-.24a17,17,0,0,0-4.25-2.4,11.77,11.77,0,0,0-4.27-.86,7.61,7.61,0,0,0-6,2.58q-2.22,2.6-2.22,7.57c0,3.23.72,5.71,2.17,7.44a7.49,7.49,0,0,0,6.1,2.61,11.86,11.86,0,0,0,2.78-.35,12.46,12.46,0,0,0,2.54-.92,16.75,16.75,0,0,0,1.84-1,15.85,15.85,0,0,0,1.36-.95h.24v4.93a28.71,28.71,0,0,1-4.28,1.68,15.25,15.25,0,0,1-4.31.61,16.39,16.39,0,0,1-5.33-.86,10.88,10.88,0,0,1-4.14-2.59,11.43,11.43,0,0,1-2.7-4.39,18,18,0,0,1-1-6.19q0-6.59,3.61-10.35a12.63,12.63,0,0,1,9.53-3.76,16.43,16.43,0,0,1,4.52.65,23.32,23.32,0,0,1,4.06,1.58ZM522.76,76a7.87,7.87,0,0,1,5-7.89,19.86,19.86,0,0,1,5.85-1.48c2.28-.25,4.72-.45,7.35-.57v-.7a5.22,5.22,0,0,0-.56-2.55,3.89,3.89,0,0,0-1.53-1.58,6.4,6.4,0,0,0-2.31-.74,18.28,18.28,0,0,0-6.74.26,32.11,32.11,0,0,0-4.49,1.34h-.24V57.55c.88-.24,2.14-.51,3.8-.8a29.45,29.45,0,0,1,4.92-.42,23.61,23.61,0,0,1,4.93.46,9.64,9.64,0,0,1,3.63,1.6,7.13,7.13,0,0,1,2.3,2.85,10.88,10.88,0,0,1,.79,4.36V83.82H541V80.93c-.41.27-1,.65-1.63,1.15a10.22,10.22,0,0,1-2,1.16,13.88,13.88,0,0,1-2.57.93,14.34,14.34,0,0,1-3.42.36,8.39,8.39,0,0,1-6.1-2.41A8,8,0,0,1,522.76,76Zm14.88,157.74h-4.5V207h4.5Zm.28-31.27h-5v-4.69h5Zm9.8-65.62h-.23c-.69-.14-1.34-.25-2-.33a18.74,18.74,0,0,0-2.24-.11,9.42,9.42,0,0,0-4,.92,17.87,17.87,0,0,0-3.76,2.4v19H531V132h4.51V136a22.32,22.32,0,0,1,4.75-3.05,10.36,10.36,0,0,1,4.2-.89,16.69,16.69,0,0,1,1.7,0l1.59.22Zm6.85,96.89h-4.5v-37.3h4.5ZM576,138.49h-.24a17.23,17.23,0,0,0-4.25-2.4,11.82,11.82,0,0,0-4.27-.84,7.59,7.59,0,0,0-6.05,2.58c-1.47,1.71-2.21,4.24-2.21,7.56s.72,5.71,2.18,7.44a7.44,7.44,0,0,0,6.09,2.62,11.48,11.48,0,0,0,2.78-.35,13,13,0,0,0,2.54-.91c.65-.35,1.27-.69,1.84-1s1-.68,1.36-.94H576v4.94a28.37,28.37,0,0,1-4.27,1.67,15.19,15.19,0,0,1-4.3.59,15.65,15.65,0,0,1-5.33-.86,10.65,10.65,0,0,1-4.15-2.58,11.43,11.43,0,0,1-2.71-4.38,18.25,18.25,0,0,1-1-6.19q0-6.59,3.61-10.35a12.55,12.55,0,0,1,9.53-3.76,16,16,0,0,1,4.51.65,24.87,24.87,0,0,1,4.06,1.57Zm33.72,20.28h-4.51v-15.2a25.32,25.32,0,0,0-.22-3.45,6.4,6.4,0,0,0-.79-2.53,3.68,3.68,0,0,0-1.73-1.48,7.28,7.28,0,0,0-2.94-.49,9.64,9.64,0,0,0-3.88.9,20.18,20.18,0,0,0-3.87,2.32v19.94h-4.5V121.45h4.5V135a18.08,18.08,0,0,1,4.38-2.73,11.59,11.59,0,0,1,4.64-1,8.34,8.34,0,0,1,6.64,2.61c1.52,1.74,2.29,4.24,2.29,7.51Z"/><path class="cls-1" d="M379.16,136.32a7.42,7.42,0,0,0,.53-3.05,6.89,6.89,0,0,0-.66-2.9,4.31,4.31,0,0,0-1.82-1.92,7,7,0,0,0-2.51-.87,21,21,0,0,0-3.39-.24h-6.24v13h5.47a18.18,18.18,0,0,0,4.08-.36,6.8,6.8,0,0,0,2.91-1.4A5.9,5.9,0,0,0,379.16,136.32Z"/></g></g></svg>