<svg enable-background="new 0 0 44.4 44.4" viewBox="0 0 44.4 44.4" xmlns="http://www.w3.org/2000/svg"><path d="m14.3 44.1c-.7 0-1.3-.1-2-.2l-.5-.1-.5-.2.5-.2c.1-.1.3-.2.3-.3 0-.1 0-.1.1-.2l0 0c .9 0 1.8-.2 2.6-.6l.7-.2c1.1-.4 2.3-.8 3.5-1 .5-.1.9-.2 1.3-.4-.1.4-.2.7-.4 1-.9 1.2-2.2 2-3.7 2.2-.8.2-1.3.2-1.9.2zm-4.8-1.6c-.3 0-.6 0-1 0-.4-.2-.8-.4-1.1-.6-.2-.1-.5-.3-.7-.4-1-.4-1.7-1.2-1.8-2.2-.1-.4-.1-.9 0-1.3 0-.5.2-1 .5-1.5.2-.2.2-.5.1-.7-.1-.2-.3-.3-.5-.3-.2 0-.5.1-.7.3-.2-.4-.4-.7-.6-1.1h.1c.5 0 1.1 0 1.2-.5 0-.1 0-.5-.5-.6l-.5-.2c-.4-.1-.8-.2-1.2-.4-.4-.2-.7-.4-1-.6-.3-.6-.4-1.3-.3-2v-.4c.1-.5.2-1.1.4-1.6.2-.4.2-.8 0-1.2 0-.1-.2-.2-.4-.2-.1 0-.1 0-.2 0 0-.1.1-.3.1-.4.6-1.3.5-2.8-.2-4-.3-.5-.3-1.2 0-1.7l.1-.3.3-.5c.3-.5 1.5-.8 2-.9h.1c.5-.1 1-.5 1-.9 0-.3-.4-.6-.7-.6-.2 0-.3 0-.5.1l-.4.1h-.2l.3-.3c.7-.7 1-1.6 1.1-2.5 0-.9.1-3.9 1.2-5 .6-.6 1.3-1 2.2-1.2.6-.2 1.1-.4 1.6-.6.2.3.7.3.9.3h.7l1.4-.1c.6 0 1.3-.1 2.2-.2.8-.1 1.5-.2 2.3-.5.6-.2 1.3-.3 1.9-.4h.3c1 .1 1.9.5 2.6 1.1l.2.1c.4.9.5 1.8.3 2.7 0 1.2-.4 2.3-1.1 3.3-.5.5-1.3.8-2 .9-.7.1-1.9.1-3.8.1h-.4c-.6 0-1.3.1-1.9.2-.3 0-.6.1-.9.1-.2 0-.3 0-.5-.1-1.4-.7-1.7-.7-1.8-.7-.2 0-.4.1-.5.4-.1.3 0 .6.3.7l.1.1-.4-.1c-.5-.3-1.1-.5-1.7-.6-.2 0-.4.1-.5.4-.1.4.2.7.7 1.1l.2.1c-.3.3-.6.5-.5.9.1.2.3.4.6.4.5-.1 1.1-.2 1.6-.4.6-.3 1.3-.4 2-.4h.5c.3 0 .6-.1 1-.1 1-.1 1.9-.2 2.9-.2h1.1c1.5 0 3.4 0 3.8.4.8.7.5 3.7 0 5-.5.9-1.5 1.4-2.5 1.3h-.8c-1.5 0-3.1.2-4.6.5h-.2c-.7.1-1.3.2-2 .2-.4 0-.7 0-1.1-.2-.4-.2-.9-.3-1.4-.3-.3 0-.5.2-.6.4-.1.3.1.7.4.8l-.3.2c-.3.2-.6.4-.6.7 0 .2.1.4.3.5 0 .1.1.1.3.1.4-.1.8-.2 1.1-.4l.3-.2c.1-.1.3-.1.4-.1.2 0 .4 0 .6 0h .4c.8 0 1.6-.2 2.4-.4l1-.3c1.2-.2 2.4-.4 3.6-.4.5 0 1 0 1.5.1.3 0 .5.2.7.4.6.8.8 2.8.5 5.4-.1.6-.5 1.1-1.1 1.4-1 .3-2.1.6-3.1.7l-.8.1c-1.3.2-2.6.4-3.9.4-.3 0-.5 0-.8-.1-.4-.1-.7-.1-1.1-.1-.5 0-1.1-.1-1.6-.3-.1 0-.2-.1-.4-.1-.3 0-.5.2-.6.4-.1.5.4.9.7 1 .3.4.6.5.9.5-.1.1-.2.3-.1.5 0 .3.2.5.5.5l0 0c .3 0 .5-.1.7-.2.5-.2.9-.4 1.4-.5h.8c1.5-.1 3.7-.2 4.5-.3 1-.2 2.6-.5 3.2-.6.1 0 .2 0 .3 0 .2 0 .4.1.5.2.6.4.4 3.5 0 4.3-.4.5-1 .9-1.7 1-.6.2-4.4 1.4-5.6 1.8-.5.2-1 .3-1.5.3h-.5-.8c-.2 0-.7 0-.8.5 0-.2 0-.1.1 0zm .8-35.4c2.7-4.8 4.1-6.9 6.2-7.1h.5c1 0 3.2.2 4 2.2.4 1.4.6 2.8.5 4.3v.2c-.6-.3-1.2-.6-1.8-.7h-.4c-1.3.1-2.7.3-4 .6l-.5.1-.9.2c-.1-.5-.1-1.1 0-1.6.1-.7.1-1.1-.1-1.4-.1-.1-.3-.2-.4-.2-.4 0-.6.4-.7.6-.3.7-.4 1.5-.4 2.3 0 .1 0 .3 0 .4 0 0-.1-.1-.3-.1h-.2c-.5.1-1 .2-1.5.2z" fill="#009ee2"/><path d="m27.4 44.4c-.5 0-1 0-1.5-.1-.8-.1-1.7-.3-2.4-.8-.4-.2-.7-.5-1-.9-.1-.6-.1-1.3 0-2 .2.1.5.3.7.3 1 .3 1.9.8 2.8 1.3.7.4 1.4.6 2.2.7l.7.1c.2 0 .4 0 .6 0 .9-.1 1.8-.3 2.6-.6l.7-.2c.6-.2 1.1-.4 1.6-.6.6-.3 1-.5 1-1-.1-.3-.3-.5-.6-.5h-.1c-1.4.3-2.8.8-4.1 1.4-.2.1-.5.1-.8.1-.9 0-1.7-.1-2.6-.5-.6-.3-1.2-.6-1.9-.8s-1-.4-1.4-.6c-.5-.2-.9-.5-1.2-.9-.2-.8-.1-1.7.2-2.5.5-1 .8-1.7 1.6-1.7.1 0 .3 0 .4 0l .6.1c.7.2 1.4.3 2.1.3.2 0 .5 0 .7 0 .6 0 .9-.1 1.2-.1.3 0 .5 0 .8.1h.2c.6.1 1.3.2 1.9.2.4 0 .7-.2.8-.5 0-.2 0-.4-.2-.5l.8-.2.6-.2c.3-.1 1-.3.9-.9-.1-.3-.4-.5-.7-.5-.2 0-.5 0-.7.1-.4.1-.7.2-1.1.3s-.9.3-1.5.4h-.3-.2-.3c-.3 0-.7 0-1 .1-.4.1-.9.1-1.3.1-.7 0-1.4-.1-2.1-.2-1-.1-2-.4-2.9-.8-.4-.2-.6-1.7-.5-2.7 0-.2 0-.4.1-.6.1-1 .3-2.8 1-3 .8-.3 1.6-.4 2.4-.4h.4c1.8.2 3.5.5 5.2 1 .7.2 1.4.3 2.1.3.7 0 1.5-.1 2.2-.4.8-.4 1.2-.8 1.1-1.2-.1-.3-.4-.5-.7-.5v.1l.1-.1c.2-.2.2-.5.2-.7 0-.3-.3-.4-.5-.4-.3 0-.5.2-.8.6-.4.5-.9 1-1.5 1.3-.3 0-.6 0-.9-.1-.7-.1-1.5-.3-2.3-.5-1.3-.4-2.6-.6-4-.7h-.8c-.7 0-1.3-.1-2-.4-.4-.2-.8-1.2-.8-3.1 0-1.2.4-3.6 1.8-3.9.2 0 .4 0 .7 0 1.9.1 3.8.4 5.6.8l.5.1c.4.1.8.2 1.2.3.5.2 1 .3 1.5.3.7.1 1.4.1 2.1.1.6 0 1.3 0 1.4-.6 0-.4-.3-.6-.8-.8.2-.2.3-.4.2-.7-.1-.2-.3-.4-.5-.4-.5.1-1 .3-1.5.5l-.4.3c0-.1 0-.1 0-.2-.1-.2-.3-.4-.6-.4-.3 0-.6.1-.8.2-.1.1-.3.1-.4.1-.4 0-.8-.1-1.2-.3-.5-.1-1-.3-1.8-.5-.9-.2-1.8-.3-2.7-.3-.9-.1-1.8-.2-2.7-.3-.5-.1-.9-.8-1-1.9-.3-1.9.2-4.3 1-4.7 1-.5 2.1-.7 3.2-.8.7-.1 1.3-.1 2-.1h.7c.7 0 1.4.1 2.1.2l.7.1c.3.1.6.1.9.1.3 0 .6-.1.8-.3.1-.2.1-.4 0-.6-.2-.4-.5-.9-.8-1.2l-.4-.5c-.2-.3-.4-.5-.8-.6-.2 0-.3.1-.4.2-.2.3-.2.7-.1 1.4-.4-.1-.9-.1-1.3-.2h-.3c-.3 0-.7-.1-1.1-.1h-.5c-1.6.1-3.2.3-4.7.8l-.2.1v-.2c.2-1 .6-2.1 1.1-3 .2-.4.3-.7.5-1.1.4-1 1-1.3 2.3-1.7.1-.1.5-.2.8-.2.8 0 1.6.3 2.3.7 1.2.6 1.7 1.6 2.6 3.1l.3.5c.4.8.7 1.5 1 2.3.1.3.2.6.5.9.9.7 1.9 1.3 2.9 1.8.5.2 1 .5 1.4.7.7.6 1.1 1.5 1.3 2.4 0 .2 0 .3 0 .5 0 .1 0 .2 0 .3 0 .2-.1.3-.1.4-.4.4-1 1.3-.8 1.7.1.2.3.3.5.3.1 0 .2 0 .3-.1 0 .4 0 .8 0 1.2l-.1-.1c-.2-.2-.4-.3-.6-.3-.2 0-.4.1-.5.3-.2.4.2.9.4 1.1.1.1.3.2.4.3.4.3.8.6 1.1 1.1.1.1.2.3.4.6s.3.5.4.6c.9 2 1 3.4.2 4.3-.7.9-1.2 2-1.2 3.2-.1-.1-.3-.2-.5-.2-.2 0-.4.1-.5.3-.2.3 0 .6.5 1.4.3.7.5 1.5.5 2.3 0 .4-.1.7-.2 1.1v.1c-.4.9-.9 1.7-1.7 2.2-.2.2-.3.2-.4.4-.8.6-1.4 1.5-1.8 2.4l-.2.4c0-.2-.1-.3-.2-.5-.1-.1-.3-.2-.4-.2-.5 0-.6.5-.7.7-.1.7-.3 1.3-.7 1.9l-.2.2c-1.1 1-2.3 1.8-3.7 2.2-.3.1-.6.1-1 .1h-.7c-.4 0-.8-.1-1.2-.2-.2-.1-.3-.1-.5-.1-.1 0-.3 0-.4-.1-.1 0-.2 0-.3 0-.2 0-.4.1-.5.4-.1.3.1.5.4.8z" fill="#dd0159"/></svg>