<?xml version="1.0" encoding="utf-8"?>
<!-- Generator: Adobe Illustrator 20.1.0, SVG Export Plug-In . SVG Version: 6.00 Build 0)  -->
<svg version="1.1" id="Layer_1" xmlns="http://www.w3.org/2000/svg" xmlns:xlink="http://www.w3.org/1999/xlink" x="0px" y="0px"
	 viewBox="0 0 44.4 44.4" style="enable-background:new 0 0 44.4 44.4;" xml:space="preserve">
<style type="text/css">
	.st0{fill:#009EE2;}
	.st1{fill:#DD0159;}
</style>
<title>favicon</title>
<g id="Layer_2">
	<g id="Layer_1-2">
		<path class="st0" d="M14.3,44.1c-0.7,0-1.3-0.1-2-0.2l-0.5-0.1l-0.5-0.2l0.5-0.2c0.1-0.1,0.3-0.2,0.3-0.3c0-0.1,0-0.1,0.1-0.2l0,0
			c0.9,0,1.8-0.2,2.6-0.6l0.7-0.2c1.1-0.4,2.3-0.8,3.5-1c0.5-0.1,0.9-0.2,1.3-0.4c-0.1,0.4-0.2,0.7-0.4,1c-0.9,1.2-2.2,2-3.7,2.2
			C15.4,44.1,14.9,44.1,14.3,44.1z M9.5,42.5c-0.3,0-0.6,0-1,0c-0.4-0.2-0.8-0.4-1.1-0.6c-0.2-0.1-0.5-0.3-0.7-0.4
			c-1-0.4-1.7-1.2-1.8-2.2c-0.1-0.4-0.1-0.9,0-1.3c0-0.5,0.2-1,0.5-1.5c0.2-0.2,0.2-0.5,0.1-0.7c-0.1-0.2-0.3-0.3-0.5-0.3
			c-0.2,0-0.5,0.1-0.7,0.3c-0.2-0.4-0.4-0.7-0.6-1.1h0.1c0.5,0,1.1,0,1.2-0.5c0-0.1,0-0.5-0.5-0.6L4,33.4c-0.4-0.1-0.8-0.2-1.2-0.4
			c-0.4-0.2-0.7-0.4-1-0.6c-0.3-0.6-0.4-1.3-0.3-2V30c0.1-0.5,0.2-1.1,0.4-1.6c0.2-0.4,0.2-0.8,0-1.2C1.9,27.1,1.7,27,1.5,27
			c-0.1,0-0.1,0-0.2,0c0-0.1,0.1-0.3,0.1-0.4c0.6-1.3,0.5-2.8-0.2-4c-0.3-0.5-0.3-1.2,0-1.7l0.1-0.3l0.3-0.5c0.3-0.5,1.5-0.8,2-0.9
			h0.1c0.5-0.1,1-0.5,1-0.9c0-0.3-0.4-0.6-0.7-0.6c-0.2,0-0.3,0-0.5,0.1l-0.4,0.1H2.9l0.3-0.3c0.7-0.7,1-1.6,1.1-2.5
			c0-0.9,0.1-3.9,1.2-5c0.6-0.6,1.3-1,2.2-1.2c0.6-0.2,1.1-0.4,1.6-0.6c0.2,0.3,0.7,0.3,0.9,0.3h0.7l1.4-0.1c0.6,0,1.3-0.1,2.2-0.2
			c0.8-0.1,1.5-0.2,2.3-0.5c0.6-0.2,1.3-0.3,1.9-0.4h0.3c1,0.1,1.9,0.5,2.6,1.1l0.2,0.1c0.4,0.9,0.5,1.8,0.3,2.7
			c0,1.2-0.4,2.3-1.1,3.3c-0.5,0.5-1.3,0.8-2,0.9c-0.7,0.1-1.9,0.1-3.8,0.1h-0.4c-0.6,0-1.3,0.1-1.9,0.2c-0.3,0-0.6,0.1-0.9,0.1
			c-0.2,0-0.3,0-0.5-0.1c-1.4-0.7-1.7-0.7-1.8-0.7c-0.2,0-0.4,0.1-0.5,0.4c-0.1,0.3,0,0.6,0.3,0.7l0.1,0.1l-0.4-0.1
			c-0.5-0.3-1.1-0.5-1.7-0.6c-0.2,0-0.4,0.1-0.5,0.4c-0.1,0.4,0.2,0.7,0.7,1.1l0.2,0.1c-0.3,0.3-0.6,0.5-0.5,0.9
			c0.1,0.2,0.3,0.4,0.6,0.4c0.5-0.1,1.1-0.2,1.6-0.4c0.6-0.3,1.3-0.4,2-0.4h0.5c0.3,0,0.6-0.1,1-0.1c1-0.1,1.9-0.2,2.9-0.2h1.1
			c1.5,0,3.4,0,3.8,0.4c0.8,0.7,0.5,3.7,0,5c-0.5,0.9-1.5,1.4-2.5,1.3h-0.8c-1.5,0-3.1,0.2-4.6,0.5h-0.2c-0.7,0.1-1.3,0.2-2,0.2
			c-0.4,0-0.7,0-1.1-0.2c-0.4-0.2-0.9-0.3-1.4-0.3c-0.3,0-0.5,0.2-0.6,0.4c-0.1,0.3,0.1,0.7,0.4,0.8l-0.3,0.2
			c-0.3,0.2-0.6,0.4-0.6,0.7c0,0.2,0.1,0.4,0.3,0.5C7.5,27,7.6,27,7.8,27c0.4-0.1,0.8-0.2,1.1-0.4l0.3-0.2c0.1-0.1,0.3-0.1,0.4-0.1
			c0.2,0,0.4,0,0.6,0h0.4c0.8,0,1.6-0.2,2.4-0.4l1-0.3c1.2-0.2,2.4-0.4,3.6-0.4c0.5,0,1,0,1.5,0.1c0.3,0,0.5,0.2,0.7,0.4
			c0.6,0.8,0.8,2.8,0.5,5.4c-0.1,0.6-0.5,1.1-1.1,1.4c-1,0.3-2.1,0.6-3.1,0.7l-0.8,0.1c-1.3,0.2-2.6,0.4-3.9,0.4
			c-0.3,0-0.5,0-0.8-0.1c-0.4-0.1-0.7-0.1-1.1-0.1c-0.5,0-1.1-0.1-1.6-0.3c-0.1,0-0.2-0.1-0.4-0.1c-0.3,0-0.5,0.2-0.6,0.4
			c-0.1,0.5,0.4,0.9,0.7,1C7.9,34.9,8.2,35,8.5,35c-0.1,0.1-0.2,0.3-0.1,0.5C8.4,35.8,8.6,36,8.9,36l0,0c0.3,0,0.5-0.1,0.7-0.2
			c0.5-0.2,0.9-0.4,1.4-0.5h0.8c1.5-0.1,3.7-0.2,4.5-0.3c1-0.2,2.6-0.5,3.2-0.6c0.1,0,0.2,0,0.3,0c0.2,0,0.4,0.1,0.5,0.2
			c0.6,0.4,0.4,3.5,0,4.3c-0.4,0.5-1,0.9-1.7,1c-0.6,0.2-4.4,1.4-5.6,1.8c-0.5,0.2-1,0.3-1.5,0.3H11h-0.8c-0.2,0-0.7,0-0.8,0.5
			C9.4,42.3,9.4,42.4,9.5,42.5z M10.3,7.1c2.7-4.8,4.1-6.9,6.2-7.1H17c1,0,3.2,0.2,4,2.2c0.4,1.4,0.6,2.8,0.5,4.3v0.2
			c-0.6-0.3-1.2-0.6-1.8-0.7h-0.4c-1.3,0.1-2.7,0.3-4,0.6l-0.5,0.1l-0.9,0.2c-0.1-0.5-0.1-1.1,0-1.6C14,4.6,14,4.2,13.8,3.9
			c-0.1-0.1-0.3-0.2-0.4-0.2c-0.4,0-0.6,0.4-0.7,0.6c-0.3,0.7-0.4,1.5-0.4,2.3c0,0.1,0,0.3,0,0.4c0,0-0.1-0.1-0.3-0.1h-0.2
			C11.3,7,10.8,7.1,10.3,7.1L10.3,7.1L10.3,7.1z"/>
		<path class="st1" d="M27.4,44.4c-0.5,0-1,0-1.5-0.1c-0.8-0.1-1.7-0.3-2.4-0.8c-0.4-0.2-0.7-0.5-1-0.9c-0.1-0.6-0.1-1.3,0-2
			c0.2,0.1,0.5,0.3,0.7,0.3c1,0.3,1.9,0.8,2.8,1.3c0.7,0.4,1.4,0.6,2.2,0.7l0.7,0.1c0.2,0,0.4,0,0.6,0c0.9-0.1,1.8-0.3,2.6-0.6
			l0.7-0.2c0.6-0.2,1.1-0.4,1.6-0.6c0.6-0.3,1-0.5,1-1c-0.1-0.3-0.3-0.5-0.6-0.5h-0.1c-1.4,0.3-2.8,0.8-4.1,1.4
			c-0.2,0.1-0.5,0.1-0.8,0.1c-0.9,0-1.7-0.1-2.6-0.5c-0.6-0.3-1.2-0.6-1.9-0.8s-1-0.4-1.4-0.6c-0.5-0.2-0.9-0.5-1.2-0.9
			c-0.2-0.8-0.1-1.7,0.2-2.5c0.5-1,0.8-1.7,1.6-1.7c0.1,0,0.3,0,0.4,0l0.6,0.1c0.7,0.2,1.4,0.3,2.1,0.3c0.2,0,0.5,0,0.7,0
			c0.6,0,0.9-0.1,1.2-0.1c0.3,0,0.5,0,0.8,0.1h0.2c0.6,0.1,1.3,0.2,1.9,0.2c0.4,0,0.7-0.2,0.8-0.5c0-0.2,0-0.4-0.2-0.5l0.8-0.2
			l0.6-0.2c0.3-0.1,1-0.3,0.9-0.9c-0.1-0.3-0.4-0.5-0.7-0.5c-0.2,0-0.5,0-0.7,0.1c-0.4,0.1-0.7,0.2-1.1,0.3s-0.9,0.3-1.5,0.4H31
			h-0.2h-0.3c-0.3,0-0.7,0-1,0.1c-0.4,0.1-0.9,0.1-1.3,0.1c-0.7,0-1.4-0.1-2.1-0.2c-1-0.1-2-0.4-2.9-0.8c-0.4-0.2-0.6-1.7-0.5-2.7
			c0-0.2,0-0.4,0.1-0.6c0.1-1,0.3-2.8,1-3c0.8-0.3,1.6-0.4,2.4-0.4h0.4c1.8,0.2,3.5,0.5,5.2,1c0.7,0.2,1.4,0.3,2.1,0.3
			c0.7,0,1.5-0.1,2.2-0.4c0.8-0.4,1.2-0.8,1.1-1.2c-0.1-0.3-0.4-0.5-0.7-0.5V25l0.1-0.1c0.2-0.2,0.2-0.5,0.2-0.7
			c0-0.3-0.3-0.4-0.5-0.4c-0.3,0-0.5,0.2-0.8,0.6c-0.4,0.5-0.9,1-1.5,1.3c-0.3,0-0.6,0-0.9-0.1c-0.7-0.1-1.5-0.3-2.3-0.5
			c-1.3-0.4-2.6-0.6-4-0.7H26c-0.7,0-1.3-0.1-2-0.4c-0.4-0.2-0.8-1.2-0.8-3.1c0-1.2,0.4-3.6,1.8-3.9c0.2,0,0.4,0,0.7,0
			c1.9,0.1,3.8,0.4,5.6,0.8l0.5,0.1c0.4,0.1,0.8,0.2,1.2,0.3c0.5,0.2,1,0.3,1.5,0.3c0.7,0.1,1.4,0.1,2.1,0.1c0.6,0,1.3,0,1.4-0.6
			c0-0.4-0.3-0.6-0.8-0.8c0.2-0.2,0.3-0.4,0.2-0.7c-0.1-0.2-0.3-0.4-0.5-0.4c-0.5,0.1-1,0.3-1.5,0.5L35,16.9c0-0.1,0-0.1,0-0.2
			c-0.1-0.2-0.3-0.4-0.6-0.4c-0.3,0-0.6,0.1-0.8,0.2c-0.1,0.1-0.3,0.1-0.4,0.1c-0.4,0-0.8-0.1-1.2-0.3c-0.5-0.1-1-0.3-1.8-0.5
			c-0.9-0.2-1.8-0.3-2.7-0.3c-0.9-0.1-1.8-0.2-2.7-0.3c-0.5-0.1-0.9-0.8-1-1.9c-0.3-1.9,0.2-4.3,1-4.7c1-0.5,2.1-0.7,3.2-0.8
			c0.7-0.1,1.3-0.1,2-0.1h0.7c0.7,0,1.4,0.1,2.1,0.2L33.5,8c0.3,0.1,0.6,0.1,0.9,0.1c0.3,0,0.6-0.1,0.8-0.3c0.1-0.2,0.1-0.4,0-0.6
			c-0.2-0.4-0.5-0.9-0.8-1.2l-0.4-0.5c-0.2-0.3-0.4-0.5-0.8-0.6c-0.2,0-0.3,0.1-0.4,0.2c-0.2,0.3-0.2,0.7-0.1,1.4
			c-0.4-0.1-0.9-0.1-1.3-0.2h-0.3c-0.3,0-0.7-0.1-1.1-0.1h-0.5c-1.6,0.1-3.2,0.3-4.7,0.8l-0.2,0.1V6.9c0.2-1,0.6-2.1,1.1-3
			c0.2-0.4,0.3-0.7,0.5-1.1c0.4-1,1-1.3,2.3-1.7C28.6,1,29,0.9,29.3,0.9c0.8,0,1.6,0.3,2.3,0.7c1.2,0.6,1.7,1.6,2.6,3.1l0.3,0.5
			c0.4,0.8,0.7,1.5,1,2.3c0.1,0.3,0.2,0.6,0.5,0.9c0.9,0.7,1.9,1.3,2.9,1.8c0.5,0.2,1,0.5,1.4,0.7c0.7,0.6,1.1,1.5,1.3,2.4
			c0,0.2,0,0.3,0,0.5c0,0.1,0,0.2,0,0.3c0,0.2-0.1,0.3-0.1,0.4c-0.4,0.4-1,1.3-0.8,1.7c0.1,0.2,0.3,0.3,0.5,0.3c0.1,0,0.2,0,0.3-0.1
			c0,0.4,0,0.8,0,1.2l-0.1-0.1c-0.2-0.2-0.4-0.3-0.6-0.3c-0.2,0-0.4,0.1-0.5,0.3c-0.2,0.4,0.2,0.9,0.4,1.1c0.1,0.1,0.3,0.2,0.4,0.3
			c0.4,0.3,0.8,0.6,1.1,1.1c0.1,0.1,0.2,0.3,0.4,0.6s0.3,0.5,0.4,0.6c0.9,2,1,3.4,0.2,4.3c-0.7,0.9-1.2,2-1.2,3.2
			c-0.1-0.1-0.3-0.2-0.5-0.2c-0.2,0-0.4,0.1-0.5,0.3c-0.2,0.3,0,0.6,0.5,1.4c0.3,0.7,0.5,1.5,0.5,2.3c0,0.4-0.1,0.7-0.2,1.1v0.1
			c-0.4,0.9-0.9,1.7-1.7,2.2c-0.2,0.2-0.3,0.2-0.4,0.4c-0.8,0.6-1.4,1.5-1.8,2.4l-0.2,0.4c0-0.2-0.1-0.3-0.2-0.5
			c-0.1-0.1-0.3-0.2-0.4-0.2c-0.5,0-0.6,0.5-0.7,0.7c-0.1,0.7-0.3,1.3-0.7,1.9l-0.2,0.2c-1.1,1-2.3,1.8-3.7,2.2
			c-0.3,0.1-0.6,0.1-1,0.1h-0.7c-0.4,0-0.8-0.1-1.2-0.2c-0.2-0.1-0.3-0.1-0.5-0.1c-0.1,0-0.3,0-0.4-0.1c-0.1,0-0.2,0-0.3,0
			c-0.2,0-0.4,0.1-0.5,0.4c-0.1,0.3,0.1,0.5,0.4,0.8L27.4,44.4z"/>
	</g>
</g>
</svg>
