<svg version="1" xmlns="http://www.w3.org/2000/svg" width="346.667" height="346.667" viewBox="0 0 260.000000 260.000000"><path d="M90.2 1.7C82.5 6 74.1 17 62 38.5l-1.8 3.2 5.9-.1 5.9-.1V38c.1-7.6 3.3-16 6.1-16 .4 0 1.4.6 2.2 1.4 1 1.1 1.3 3.3.9 8.6-.3 4.8 0 7.5.7 7.9.6.4 4.2 0 7.9-1 3.7-.9 8.8-2 11.5-2.3 2.6-.3 6.6-.9 9-1.2 3.1-.4 5.9.1 9.6 1.5 2.8 1.2 5.4 2.1 5.8 2.1.6 0-.3-17.1-1.1-21.2-2.5-11.7-9.2-16.7-23.1-17.5C95-.1 92.9.2 90.2 1.7zM166.5 6.5c-2.7.8-5.3 1.4-5.7 1.5-.3 0-2.1 1.2-3.8 2.7-5.4 4.5-17.6 33.6-12.9 30.8 1.4-.9 11.3-3.2 17.5-4.1 6-.9 24.6-.8 27.5.1 1.6.6 2 .3 1.8-1.7-.4-4.7.1-6.6 2.2-7.1 1.4-.4 2.8.3 4.7 2.4 4 4.5 8.2 11.2 8.2 13.1 0 2.6-4.8 3.7-10.3 2.3-12.8-3.2-43-.7-49.5 4.2-7.3 5.5-9.1 29.8-2.7 36.7 2.2 2.4 4.3 2.9 18 4.1 11.2 1 13.7 1.4 25.2 4.5 7 1.8 8.8 1.9 12.4 1 3.7-1 4.5-1 5.5.5 1.1 1.5 1.5 1.5 4.9.1 2.1-.9 5.1-1.6 6.7-1.6 2.7 0 3 .3 2.5 2.6-.3 2 .2 3.2 2 4.8 2.2 1.9 2.3 2.3 1 4.1-2.2 2.9-15 2.5-28.7-1-15.5-3.9-34.4-6.8-44.4-6.7-8 .1-12.1 8-12.1 23.3 0 16.3 2.8 19.6 17 19.9 7.2.2 14.5 1.3 26 4 2.8.6 5.9 1.4 7 1.6 1.1.3 4.3.7 7.1 1.1 5 .5 5.1.5 11-5.1 3.2-3.1 6.4-5.6 7.1-5.6 1.9 0 3.3 3.3 2.1 5.3-.7 1.4-.4 2.2 1.4 3.7 2.2 1.8 2.2 2 .8 4.7-3.6 6.4-17.2 8-34.4 3.9-18.2-4.4-28.5-5.6-36-4.2-7.5 1.5-8.5 2-10.1 6-2.9 6.9-3.6 27.2-1.2 31 1.6 2.3 8.7 5.2 15.7 6.4 8.8 1.4 32.4.5 39.7-1.7 11.1-3.2 12.9-3.4 14.7-1.6 2.5 2.5.1 5-6.5 7-4 1.3-5.6 2.2-5.2 3.1.3.8-.1 2.1-.8 3-1.1 1.3-2.5 1.5-7.9.9-3.6-.4-12.1-.9-19-1.1-6.9-.1-14.7-.7-17.4-1.3-5-1.2-8.1-.8-10.3 1.5-2.6 2.6-5.5 10.7-5.8 16.2-.3 5-.1 5.7 2.4 7.9 1.5 1.4 8.3 4.9 15 7.8 17.5 7.6 23.4 8.3 33.8 4.1 9.7-4 19.7-6.5 21.6-5.4 5.1 2.8-.7 7.1-16.9 12.7-15.9 5.4-23.7 4.9-38.2-2.4-9.3-4.7-17.2-7.8-18-7.1-1.1 1.2-.2 11 1.3 12.6 3.1 3.4 12.9 7 21.1 7.7 7.3.6 7.8.5 6.5-1-.7-.9-1.1-2.4-.7-3.2.7-1.8 4.5-1.9 11.1-.2 8.4 2.2 15.4 1.4 23.9-2.8 10.4-5.1 16-10.7 17.6-17.6.7-3 1.7-6 2.3-6.7 1.3-1.7 4.6-1.5 5.4.4.4 1.1 1.3.4 3.2-3 3.1-5.2 4.6-7 12.4-14.4 7.5-7.2 10.1-12.6 9.9-21.1-.1-5.1-.7-7.7-3.1-12.2-2.5-4.8-2.8-6-1.7-7.5.8-1 2-1.5 3-1.1.9.4 1.6.1 1.7-.6.3-5.6 2.3-10.9 6.2-16.4 4-5.7 4.6-11.8 1.7-20.2-2.7-8-7.8-16.1-12.1-19.2-4.4-3.1-5.8-4.9-5.9-7.7 0-2.8 2.1-3.7 4.9-2.2 2 1 2.1.8 2.1-2.6 0-2.1-.3-3.4-.6-3.1-.4.3-1.5.2-2.6-.4-2.3-1.2-1.8-3.5 2-9.1 2.1-3.2 2.4-4.6 2-9.3-.7-8.5-4.3-13-15-18.5-14.8-7.7-18.6-10.8-20.4-16.5-2.4-7.3-11.1-23.8-15-28.3-3.5-4.2-11.9-8.7-17.5-9.5-1.9-.3-5.6.1-8.4.8zM98.5 45.1C89.7 47.5 88 47.8 80 48.5c-11.9 1.1-22.5 1.3-24.1.4-2.1-1.1-16.9 4.1-21.5 7.6-1.9 1.4-4 3.8-4.8 5.3-2.3 4.5-4.2 13.3-4.5 20.5-.3 9.6-.8 11.6-4.1 17-1.7 2.7-3 5-3 5.2 0 .2 1.7.1 3.9-.2 4.3-.6 5.6.5 4.7 4.2-.5 1.8-1.7 2.7-4.9 3.5-8.9 2.3-11.1 3.5-13.4 7.5-2.8 5-2.9 9.3-.2 15.3 2.6 5.6 2.9 14 .6 19.4-1.4 3.4-1.4 3.6.4 4.1 3.2.9 3.8 4.5 1.7 10.6-2 5.7-2.3 15.8-.5 19.7 1 2.3 7.1 5.8 12.2 7 6.5 1.5 8.1 5.2 3 6.8-1.6.6-3.1 1.1-3.3 1.2-.1.1.2 1.3.9 2.7 1 2.2 1.6 2.5 4.5 2 4.3-.7 5.3 1.5 3 6.4-.9 1.9-1.9 6.2-2.2 9.5-.4 4.8-.1 6.8 1.7 10.4 1.2 2.5 3.1 5.1 4.3 5.8 1.1.7 4.9 2.9 8.4 5 4.5 2.7 7.1 3.6 9.5 3.4 1.7-.2 3.2-.8 3.2-1.5 0-2.2 1.5-2.6 9.7-2.8 7.1-.2 11.2-1.2 27.8-6.4 10.7-3.4 20.6-6.8 21.9-7.4 4.4-2.2 6.2-5.8 6.8-13.9 1.1-14.2-.9-17.5-9.2-15.6-13.1 3.1-22.3 4.1-44 5.2-3.3.2-8.4 1.3-11.4 2.5-5.7 2.3-8.7 1.6-7.8-1.9.3-1.2-.7-2.2-3.4-3.4-4.1-1.8-5.8-4.8-3.9-7.1 1.1-1.3 3.9-1.3 5.9-.1 1.2.8 12.2 1.9 20.1 2 5.8.1 9.4-.2 21-2 1.9-.3 5.3-.7 7.5-1 7.2-1 15.9-3.5 18.6-5.5 3.4-2.4 4.6-7.1 4.7-19.1.1-11.2-1.1-16.8-4.2-19.7-4.1-3.8-21.7-3.4-38.9 1-4.3 1.1-11.1 2.2-15 2.4-4 .2-8.9 1.1-10.9 1.9-4.8 2-7.4 2-8.2 0-.7-1.9.1-3.4 2.7-5.3 1.3-.9 1.6-1.6.8-2.4-1.7-1.7-1.3-5.5.7-5.9.9-.2 4.4.3 7.7 1.2 6.9 1.9 9.4 1.8 26-1 6.6-1.1 16.3-2.1 21.5-2.2 14.8-.3 19.3-3.4 21.6-14.7 1.3-6.7 1.1-18-.5-20.9-1.8-3.4-6.4-4.1-26.6-3.7-23.7.5-35.3 1.7-42.8 4.4-8.8 3.1-12.5 1.8-9.7-3.5 1.2-2.1 1.1-2.6-1.2-4.4-1.7-1.3-2.4-2.6-2.1-3.9.7-2.8 2.3-3.1 6.8-1.4 7.6 2.8 8.2 2.9 6.6 1-1.8-2.3-.7-4.7 2.3-4.7 1.3 0 4.7 1.1 7.5 2.3 4.1 2 5.9 2.3 9.8 1.7 2.6-.4 9.7-.8 15.7-.9 18.6-.3 23.5-.9 28.2-3.1 7.4-3.6 11.5-13 11.6-26.5 0-9.2-1.6-12.3-8.3-15.9-6.5-3.6-12.9-4-22.4-1.5zM106 242c-5.8 1.5-14.4 4.2-19.1 5.8-4.8 1.7-10.3 3.2-12.3 3.4-2 .1-3.6.6-3.6 1s-1.2 1.4-2.7 2.2l-2.8 1.4 2.5.6c8.5 2 11.7 2.4 17.7 2.1 3.8-.1 8.4-.6 10.3-1 6.7-1.4 14.9-6.6 19-11.8 2-2.6 3.5-6.8 2.3-6.6-.4.1-5.5 1.4-11.3 2.9z"/></svg>