<svg viewBox="0 0 712 489" xmlns="http://www.w3.org/2000/svg"><path d="m0 0v489h712v-489zm677.51 264.74c-4.2 60-56.4 105.1-116.6 100.9a98 98 0 0 1 -15.5-2.1 109.65 109.65 0 0 1 -128.1 34.2 109 109 0 0 1 -59.8 19.8 108.9 108.9 0 0 1 -70.9 36.4c-18.5 16.5-52.9 26.7-84.1-2.4a111.81 111.81 0 0 1 -89.6-87 111.1 111.1 0 0 1 -45.3-97.54 107.66 107.66 0 0 1  5.1-26.2 109.93 109.93 0 0 1 -10.2-54.8c3.8-55.3 49.7-100.4 105.3-103.4a111.91 111.91 0 0 1 121.6-33.3 112 112 0 0 1  161.1 25.7 107.82 107.82 0 0 1  35.1-3.2 109.14 109.14 0 0 1  97 77.4c56.9 7.44 98.9 57.8 94.9 115.54z" fill="#fff"/></svg>