<svg xmlns="http://www.w3.org/2000/svg" viewBox="0 0 712 489"><defs><style>.cls-1{fill:#fff;}</style></defs><title>cloud</title><g id="Layer_2" data-name="Layer 2"><g id="Layer_1-2" data-name="Layer 1"><path class="cls-1" d="M0,0V489H712V0ZM677.51,264.74c-4.2,60-56.4,105.1-116.6,100.9a98,98,0,0,1-15.5-2.1,109.65,109.65,0,0,1-128.1,34.2,109,109,0,0,1-59.8,19.8,108.9,108.9,0,0,1-70.9,36.4c-18.5,16.5-52.9,26.7-84.1-2.4a111.81,111.81,0,0,1-89.6-87A111.1,111.1,0,0,1,67.61,267a107.66,107.66,0,0,1,5.1-26.2A109.93,109.93,0,0,1,62.51,186c3.8-55.3,49.7-100.4,105.3-103.4a111.91,111.91,0,0,1,121.6-33.3A112,112,0,0,1,450.51,75a107.82,107.82,0,0,1,35.1-3.2,109.14,109.14,0,0,1,97,77.4C639.51,156.64,681.51,207,677.51,264.74Z"/></g></g></svg>