<svg viewBox="0 0 493 533" xmlns="http://www.w3.org/2000/svg"><path d="m0 0v533h493v-533zm112 460.38s6.3 1.2 7.2 1.4c11.7 1.5 22.1-1.8 31-3.6s35.5-7.3 41-6.9c4.9.3 14.1-2.1 21.9-4.4-.9 7.2-5.2 15.8-9.5 20.8-7.3 8.5-24.6 19.6-46.4 20.5-25.2 1.1-37.6-5.5-45.2-7.5-2.2-.6-14.4-6.9-23.8-12.5 12.1.9 16.3.2 23.9-1.4.2 0 .2-.1.3-.2.7-1.1.2-2.2-5.3-2.1-5.4.3-12.3.7-28.3-2.6-7-4.3-8.4-5.6-12.4-9.3-8.3-7.2-21.5-9.5-24.3-33.7.3-9.2 1.2-12.3 2.2-16 1.8-6.7 2.9-10.3 7.7-16.4 3.7-4.8-4.4-2.2-7.1 3.2a54.09 54.09 0 0 0 -3.2 8.3c2.1-17.7-7.7-30.7-14.6-39.7a45.66 45.66 0 0 0 11.2 5c4.6 1.1 14.6 1.6 10.1-.1s-11.1-3.2-17.4-7.3a54.23 54.23 0 0 1 -11.3-9.4c-4.2-10-1.9-19-.4-28.6a3.55 3.55 0 0 1  .2-1 63.28 63.28 0 0 1  7.2-18.2c2.3-4.3.5-9.7-1.6-5.1-1.6 3.5-3.3 6.9-5.5 11.8a19.68 19.68 0 0 0 -.6-3.5c-7.5-18.5 18.6-28.4 6.2-59.3-4.1-10.2.2-17.1 3.6-25 1.2-1.9 2.6-3.9 4.1-6 5.7-7.9 20.9-8.4 26.8-8.8 6.2-.5 10.1-5.7.7-4.4-4.1.6-16.4.4-20.2 3.4 9.1-15.4 25.6-22.2 26.3-37.6.1-2.3 4-40.8 20.8-54.8s41.2-5.9 53.7-22.5c36.1-48.1 54.5-68.8 78.1-67.8 18.4.8 43.4 8.8 49.2 32.7 4.7 19 .2 39.8-1.8 56.5a1.39 1.39 0 0 1 -2.2.9c-6.2-4.1-17.2-12.1-21.9-13.2-9.2-2.3-27.5-.5-49.5 1.4-3.9.3-7.5.5-10.9.5-2.1 0-3.9 0-4.1-3.5-.4-5.9-.4-13.3 1.7-20.4 2.7-9 2-13-1.9-7-2.5 3.9-5.2 13.6-6.3 21.3-1.1 7.9-1 9.4-11.2 8.5a114.34 114.34 0 0 0 -14.2-.5c-12.8.6-11.4 2.9 2.5 3.5s21.6 1.6 37.6 2 30.1-3.8 44.9-3.5c13.2.3 20.6 7.3 34.9 19.4 4.9 9.2 3.8 22.3 1.3 33.5-2.6 13.1-7.1 26.3-17.8 35.5-6.2 5.2-16.7 8.5-25.8 8.4s-26.4-2-44.5-4.3-29.4 1.6-36.8-3.5c-8.7-6-19.8-12.7-15-7.1 4.9 5.8 8.9 11.6 4.4 11.6s-6.2.5-13.4-3.8c-32.2-19.1-3.3 3.1-5.3 5.1s-21.7 11.3 7.5 4.1c12.6-3.1 17.4-1.8 27.8-1.3s22.9-1.2 44.1 1.7 45.4 5 51.9 11.7c10.9 11.3 1.2 46.5-5.1 59-4.2 8.2-18.1 16.1-35.3 13.3-22.8-3.7-40.7-2.1-56.1-1s-26.1.7-34.8-3.6c-15.2-7.6-16.3-5.1-9.7 0 8 6.2-12.5 10.1-10.2 12 1.7 1.4 10.4-2.5 14.2-3.5 6.4-1.7 14.4 1.8 17.7 2 10.4.6 19.5-1.8 33.1-3.8s43.3.3 56 4c23.1 5.3 12.8 52.6 8.6 69-3.3 8.1-7.8 13.8-17.2 16.7s-25.5 2.9-43.2 3.6c-14.1.5-42.8.7-51.6-2.9s-14.9-1.5-27.7-8c-4.7-2.5-3.4 1.4 1.6 5s11.5 5.9 16.6 5.1 7 1.3 3.9 2.2c-2.1.6-17.3 5.4-11.6 6.4 1.8.4 15.3-5.3 23.2-4.9s45 3.1 55.8 2.9 27.8-1.7 33.3-2.5a14.56 14.56 0 0 1 13.1 3.9c8.6 8.5.4 43.9-4.4 51.3s-16.1 9.8-22.7 10.7-46.6 8.5-60.5 11.4-21.9-.2-32.8-1.6c-10.5-1.3 13.5 4.4 13.5 4.4zm351.7-126.5c-12.5 12.3-15.2 23.2-17 44.8-1.1-2.4-2.7-6.3-4.3-8.6-5.8-8.3-6.2-5.6-.6 4.6 1.7 3.1 4 15.4 2.6 27.7a49.46 49.46 0 0 1 -4.3 13.6c-4.8 10.9-15.9 18.9-22.4 23.7s-16.3 9-24.9 23.8c-10.7 18.3-13.4 16.2-19.4 18.9 3.1-3.7 4.4-7.1 6-12 2.1-6.4.9-12.2-1.6-5.3s-6.4 17.5-11.4 21.6c-.7.6-1.4 1.1-2 1.7a106.07 106.07 0 0 1 -44.3 19.4c-5.4.5-11.4-.2-18.9-1.5-9.5-1.7-14.3-5.4-17.6-6.1-5.9-1.3-11.3-5.2-4.1 1.3 4 3.6 6.4 5.8 14.1 8.6.4.1.9.3 1.3.4a155.62 155.62 0 0 1 -40-4.3c-22.8-5.9-34.3-17.6-37.1-24.4-2.3-5.4 1.5-23.8 4.1-33.7a29.18 29.18 0 0 0 12.4 10.9 187.29 187.29 0 0 1  28.9 17.8c9.5 7.3 14.7 7.4 26.6 11s24.1-.7 38.7-3.8 29.8-8.1 21.8-8.6-34.1 6.2-43.1 8.8-27.7-2.9-37-9.4-23-13.2-32.1-19.1c-5.8-3.7-9.5-7-13-12.1-3.7-6.4 1.7-26.6 5.2-32.1 6.5-10.9 12.8-21.7 28.8-16.6 11.2 3.7 18.7 7.4 34 8s16.1 1.3 23.6 3.5c33.1 9.6 21 2.5 12.9-2 5.1-2.3 19.2-3.9 26.8-5.2 8.4-1.4 8.8-4.2-1.1-3-8.4 1-15.3 2.6-27.4 4.1a26.06 26.06 0 0 1 -6.6-.5c-2.2-.6-5.8-1-12.1-.8-11.6.3-18.5.1-37.5-6s-23.3-7.5-30.6-13.2-5.6-25.1-3.2-34c3.1-11.7 6.8-37.9 19.7-40.6s17-1.9 30.2-.5 44.8 13.2 55.6 17.5 29.6 7.8 41.1 4.1 11.9-8.4 1.2-7.2c-3 .4-5.4.9-7.7 1.4a13.59 13.59 0 0 0 4.3-3.3 47.14 47.14 0 0 0  5.5-7c .9-1.6 3.3-3.7 3.2-5.3-.2-3.2-14.1 14.1-26.6 16.4a77 77 0 0 1 -10.5-2.1c-18.4-4.8-45.3-18.1-64.5-19.9-13.1-1.3-21.2-3.5-27.8-7.8-7.1-4.6-9.3-19.7-6.9-38.6 1.9-14.7 9.7-41.7 28.3-42.7 17.2-.9 62.5 14.9 72.2 17.9 11.3 3.5 16.1 7.1 27.4 10 23.1 5.8 44.3 6.8 17.1-2.1-2.4-.8 1.9-2.9 5.2-5 4.6-2.9 7.5-5.4-11.1.1-9.1 2.7-13.5 2.5-17.9.7s-2.4-.4 3.2-2.9 6-4.7-3.3-2-14.2-2.7-37.5-11.3c-14.8-5.5-41.2-8.6-55.8-14.2-20.8-8-10.6-70.9 8.4-79.3 6.7-3 21-4.9 37.1-4.9 10.5 0 20.7 1.7 29.6 2.6s19.8 4.4 22.8 5.4c1.7.6 3.4 1.3 4.6 1.7 4.7 1.7 13 3.9 11.8.2s-5.6-10.9-10.3-19.3-5.3-2.7-5.1 7.5c.1.9-.1 2.7 0 4.6a1.78 1.78 0 0 1 -2.6 1.6 76.17 76.17 0 0 0 -17.5-5.1c-4.8-.9-10.7-2.5-19.4-3.1-21.7-.7-38-.6-48.8 2a48.94 48.94 0 0 0 -9.2 3.9 1 1 0 0 1 -1.5-1.1c.6-2.7 1.7-7.5 2.6-10.5 4.6-15.1 15.7-29.6 22.6-41.6s15.3-14.7 29.4-17.7c12.7-2.7 23.4.2 38.2 10.4s18.8 23.4 26.8 43.6 8.3 31.7 10.4 33.9c13.1 13.7 28 20.9 41.3 31 4.9 3.8 12.7 19.5 12.1 31.2-.2 3.4-1.4 6.6-2.1 9.7-1 3-1.9 5.8-3.7 7.4-6.4 5.6-12.5 14-7.3 10.6 3.9-2.5 6.1-4 8.5-6.7-2.9 14.7-4.7 24.8-2.3 39.1-3.9-6.2-8.9-8.6-11.9-12-4-4.5-3.9-.1-.5 4.4 2.1 2.9 11.6 8.9 15.1 18 1.1 2.8 5.6 11.6 6.4 14 4.06 13.4 9.66 36.9-4.34 51z" fill="#fff"/></svg>