<svg enable-background="new 0 0 445 555" viewBox="0 0 445 555" xmlns="http://www.w3.org/2000/svg"><path d="m281.4 255l-57.5-50.1 14.6-74.8 72.1-24.8 57.5 50.1-14.6 74.8zm-54.3-51.2l54.9 47.8 68.8-23.6 13.9-71.4-54.9-47.8-68.8 23.6z" fill="#bed500"/><path d="m154.7 230.3l-57.5-50.1 14.6-74.8 72.1-24.7 56.9 49.4-2 2.3-55.5-48.4-68.9 23.7-13.9 71.4 54.9 47.8 69.6-23.9 1 2.8z" fill="#bed500"/><path d="m238.5 474.3l-57.5-50.1 14.6-74.8 72.1-24.8.6.6 56.8 49.5-14.6 74.8zm-54.2-51.1l54.9 47.8 68.8-23.6 13.9-71.4-54.9-47.8-68.8 23.6z" fill="#bed500"/><path d="m70 327.6l-57.5-50.1 14.6-74.8 72.1-24.7 57.5 50.1-14.6 74.8zm-54.2-51.2l54.9 47.8 68.8-23.6 13.9-71.4-54.9-47.8-68.8 23.6z" fill="#bed500"/><path d="m153.5 44.3h74.5v3h-74.5z" fill="#bed500" transform="matrix(.1914 -.9815 .9815 .1914 109.2874 224.2324)"/><path d="m194.5 507.7h74.5v3h-74.5z" fill="#bed500" transform="matrix(.1914 -.9815 .9815 .1914 -312.425 639.1868)"/><path d="m237.3 288.4h74.5v3h-74.5z" fill="#bed500" transform="matrix(.1914 -.9815 .9815 .1914 -62.5022 503.8555)"/><path d="m364 142.3h74.5v3h-74.5z" fill="#bed500" transform="matrix(.9457 -.3251 .3251 .9457 -24.9583 138.2922)"/><path d="m335.6 435.6h3v74.5h-3z" fill="#bed500" transform="matrix(.6567 -.7542 .7542 .6567 -240.8915 416.5266)"/><path d="m83.6 44.8h3v74.5h-3z" fill="#bed500" transform="matrix(.6567 -.7542 .7542 .6567 -32.7032 92.3213)"/></svg>