<?xml version="1.0" encoding="utf-8"?>
<!-- Generator: Adobe Illustrator 21.1.0, SVG Export Plug-In . SVG Version: 6.00 Build 0)  -->
<svg version="1.1" id="Layer_1" xmlns="http://www.w3.org/2000/svg" xmlns:xlink="http://www.w3.org/1999/xlink" x="0px" y="0px"
	 viewBox="0 0 445 555" style="enable-background:new 0 0 445 555;" xml:space="preserve">
<style type="text/css">
	.st0{fill:#BED500;}
</style>
<g>
	<g>
		<path class="st0" d="M281.4,255l-57.5-50.1l14.6-74.8l72.1-24.8l57.5,50.1l-14.6,74.8L281.4,255z M227.1,203.8l54.9,47.8
			l68.8-23.6l13.9-71.4l-54.9-47.8l-68.8,23.6L227.1,203.8z"/>
	</g>
	<g>
		<polygon class="st0" points="154.7,230.3 97.2,180.2 111.8,105.4 183.9,80.7 240.8,130.1 238.8,132.4 183.3,84 114.4,107.7 
			100.5,179.1 155.4,226.9 225,203 226,205.8 		"/>
	</g>
	<g>
		<path class="st0" d="M238.5,474.3l-57.5-50.1l14.6-74.8l72.1-24.8l0.6,0.6l56.8,49.5l-14.6,74.8L238.5,474.3z M184.3,423.2
			l54.9,47.8l68.8-23.6l13.9-71.4l-54.9-47.8l-68.8,23.6L184.3,423.2z"/>
	</g>
	<g>
		<path class="st0" d="M70,327.6l-57.5-50.1l14.6-74.8L99.2,178l57.5,50.1l-14.6,74.8L70,327.6z M15.8,276.4l54.9,47.8l68.8-23.6
			l13.9-71.4l-54.9-47.8L29.7,205L15.8,276.4z"/>
	</g>
	<g>
		
			<rect x="153.5" y="44.3" transform="matrix(0.1914 -0.9815 0.9815 0.1914 109.2874 224.2324)" class="st0" width="74.5" height="3"/>
	</g>
	<g>
		
			<rect x="194.5" y="507.7" transform="matrix(0.1914 -0.9815 0.9815 0.1914 -312.425 639.1868)" class="st0" width="74.5" height="3"/>
	</g>
	<g>
		
			<rect x="237.3" y="288.4" transform="matrix(0.1914 -0.9815 0.9815 0.1914 -62.5022 503.8555)" class="st0" width="74.5" height="3"/>
	</g>
	<g>
		
			<rect x="364" y="142.3" transform="matrix(0.9457 -0.3251 0.3251 0.9457 -24.9583 138.2922)" class="st0" width="74.5" height="3"/>
	</g>
	<g>
		
			<rect x="335.6" y="435.6" transform="matrix(0.6567 -0.7542 0.7542 0.6567 -240.8915 416.5266)" class="st0" width="3" height="74.5"/>
	</g>
	<g>
		
			<rect x="83.6" y="44.8" transform="matrix(0.6567 -0.7542 0.7542 0.6567 -32.7032 92.3213)" class="st0" width="3" height="74.5"/>
	</g>
</g>
</svg>
