<svg xmlns="http://www.w3.org/2000/svg" viewBox="0 0 586.2 742.98"><defs><style>.cls-1{fill:#028fff}</style></defs><title>neurons</title><g id="Layer_2" data-name="Layer 2"><g id="Layer_1-2" data-name="Layer 1"><path class="cls-1" transform="rotate(-57.47 84.89 682.58)" d="M27.42 681.96h115v1.3h-115z"/><path class="cls-1" transform="rotate(-77.03 70.083 623.531)" d="M69.42 576.51h1.3v94h-1.3z"/><path class="cls-1" d="M0 588.1l115.6 46.6.5-1.2L.7 586.9a7.46 7.46 0 0 1-.7 1.2z"/><path class="cls-1" transform="rotate(-84.58 110.614 688.514)" d="M55.96 687.86h109.3v1.3H55.96z"/><path class="cls-1" transform="rotate(-12.05 158.278 678.358)" d="M109.6 677.63h97.3v1.3h-97.3z"/><path class="cls-1" transform="rotate(-69.24 160.809 651.018)" d="M160.19 602.95h1.3v96.19h-1.3z"/><path class="cls-1" transform="rotate(-34.65 144.984 613.995)" d="M109.6 613.29h70.7v1.3h-70.7z"/><path class="cls-1" transform="rotate(-15.2 126.92 606.661)" d="M78.01 606h97.8v1.3h-97.8z"/><path class="cls-1" transform="rotate(-5.47 183.605 627.604)" d="M115.5 626.87h136.29v1.3H115.5z"/><path class="cls-1" transform="rotate(-70.65 212.79 607.437)" d="M212.17 566.41h1.3v82.1h-1.3z"/><path class="cls-1" transform="rotate(-45.88 228.482 644.48)" d="M195.74 643.88h65.6v1.3h-65.6z"/><path class="cls-1" transform="rotate(-10.1 258.62 661.858)" d="M258.1 620.4h1.3v83.4h-1.3z"/><path class="cls-1" transform="rotate(-59.89 235.923 685.602)" d="M235.3 650.78h1.3v69.7h-1.3z"/><path class="cls-1" transform="rotate(-50.12 145.161 569.745)" d="M144.51 532.24h1.3v75h-1.3z"/><path class="cls-1" transform="rotate(-63.51 98.033 582.569)" d="M56.82 581.9h82.4v1.3h-82.4z"/><path class="cls-1" transform="rotate(-26.84 157.407 524.933)" d="M111.5 524.3h91.8v1.3h-91.8z"/><path class="cls-1" transform="rotate(-74.82 186.22 548.993)" d="M139.83 548.36h92.8v1.3h-92.8z"/><path class="cls-1" transform="matrix(.82 -.58 .58 .82 -286.08 157.14)" d="M103 505.59h1.3v44.2H103z"/><path class="cls-1" transform="rotate(-2.88 144.865 507.778)" d="M90.8 506.28h107.6v1.3H90.8z"/><path class="cls-1" transform="rotate(-16.03 236.867 575.866)" d="M171.5 575.1h130.6v1.3H171.5z"/><path class="cls-1" transform="rotate(-52.79 275.517 589.31)" d="M235.81 588.69h79.5v1.3h-79.5z"/><path class="cls-1" transform="rotate(-62.15 248.941 530.932)" d="M248.27 473.66h1.3v114.5h-1.3z"/><path class="cls-1" transform="rotate(-82.37 300.246 627.567)" d="M299.61 578.37h1.3v98.4h-1.3z"/><path class="cls-1" transform="rotate(-32.91 324.219 595.889)" d="M323.62 550.44h1.3v91h-1.3z"/><path class="cls-1" transform="rotate(-68.33 277.41 675.138)" d="M247.17 674.46h60.4v1.3h-60.4z"/><path class="cls-1" transform="rotate(-54.91 269.959 633.974)" d="M269.27 611.39h1.3v45.1h-1.3z"/><path class="cls-1" transform="rotate(-11.98 318.51 640.348)" d="M287.68 639.87h61.9v1.3h-61.9z"/><path class="cls-1" transform="rotate(-53.8 381.595 593.289)" d="M328.19 592.71h100.6v1.3h-100.6z"/><path class="cls-1" transform="rotate(-2.74 354.249 555.918)" d="M299.51 554.53h108.5v1.3h-108.5z"/><path class="cls-1" transform="rotate(-6.26 261.49 497.606)" d="M197.89 496.69h126.9v1.3h-126.9z"/><path class="cls-1" transform="matrix(.35 -.94 .94 .35 -287.75 635)" d="M276.07 523.42h71.8v1.3h-71.8z"/><path class="cls-1" transform="rotate(-53.37 366.187 521.484)" d="M365.52 469.42h1.3v104.1h-1.3z"/><path class="cls-1" transform="rotate(-15.37 388.197 473.018)" d="M322.09 472.29h132v1.3h-132z"/><path class="cls-1" transform="rotate(-65.73 429.798 503.933)" d="M376.58 503.29h106.5v1.3h-106.5z"/><path class="cls-1" transform="rotate(-16.36 471.995 533.78)" d="M405.3 533.1h133.3v1.3H405.3z"/><path class="cls-1" transform="rotate(-54.7 493.918 485.204)" d="M493.21 433.63h1.3v103.1h-1.3z"/><path class="cls-1" transform="rotate(-54.74 430.37 568.365)" d="M429.74 540.87h1.3v55h-1.3z"/><path class="cls-1" transform="rotate(-39.89 494.318 549.65)" d="M440.29 549.01h108.1v1.3h-108.1z"/><path class="cls-1" transform="rotate(-41.78 174.302 477.317)" d="M173.64 441.1h1.3v72.4h-1.3z"/><path class="cls-1" transform="rotate(-45.08 120.562 479.924)" d="M78.63 479.3h83.91v1.3H78.63z"/><path class="cls-1" transform="rotate(-12.23 186.16 442.581)" d="M149.3 441.8h73.6v1.3h-73.6z"/><path class="cls-1" transform="rotate(-71.17 210.13 469.474)" d="M173.36 468.81h73.5v1.3h-73.5z"/><path class="cls-1" transform="rotate(-61.43 273.399 462.566)" d="M272.72 404.25h1.3v116.6h-1.3z"/><path class="cls-1" transform="rotate(-74.04 237.488 380.598)" d="M181.25 379.95h112.5v1.3h-112.5z"/><path class="cls-1" transform="rotate(-8.49 263.062 394.432)" d="M262.49 325.79h1.3v137.49h-1.3z"/><path class="cls-1" transform="rotate(-48.42 280.55 350.96)" d="M279.92 314.17h1.3v73.6h-1.3z"/><path class="cls-1" transform="rotate(-68.23 290.64 419.011)" d="M243.75 418.36h93.8v1.3h-93.8z"/><path class="cls-1" transform="rotate(-8.13 316.213 432.953)" d="M315.62 374.92h1.3v116.21h-1.3z"/><path class="cls-1" transform="rotate(-26.48 299.832 303.206)" d="M247.5 302.6h104.8v1.3H247.5z"/><path class="cls-1" transform="rotate(-67.93 327.39 327.666)" d="M275.78 327.02h103.2v1.3h-103.2z"/><path class="cls-1" transform="rotate(-16.57 351.257 362.56)" d="M306.21 361.9h90.1v1.3h-90.1z"/><path class="cls-1" transform="rotate(-34.21 370.5 314.735)" d="M369.87 272.5h1.3V357h-1.3z"/><path class="cls-1" transform="rotate(-60.9 379.937 415.372)" d="M379.27 333.12h1.3v164.5h-1.3z"/><path class="cls-1" transform="rotate(-28.51 423.04 402.651)" d="M422.38 342.5h1.3v120.3h-1.3z"/><path class="cls-1" transform="rotate(-49.68 435.79 300.94)" d="M371.79 300.28h127.9v1.3h-127.9z"/><path class="cls-1" transform="rotate(-11.96 412.169 266.117)" d="M345.41 265.41h133.2v1.3h-133.2z"/><path class="cls-1" transform="rotate(-16.64 335.021 240.328)" d="M334.3 199h1.3v82.6h-1.3z"/><path class="cls-1" transform="rotate(-71.48 400.203 226.525)" d="M399.54 145.32h1.3v162.4h-1.3z"/><path class="cls-1" transform="rotate(-54.39 487.719 405.102)" d="M425.78 404.44h123.8v1.3h-123.8z"/><path class="cls-1" transform="rotate(-87.7 459.54 351.938)" d="M458.43 287.53h1.3v129.59h-1.3z"/><path class="cls-1" transform="rotate(-24.51 500.503 303.46)" d="M499.81 247.1h1.3v112.7h-1.3z"/><path class="cls-1" d="M571.2 187l15-10.2v1.5l-15 10.3-88.6 60.7-4.7 3.2-.4.2v.1l-.4-.6-.4-.5.2-.1.1-.1.1-.1.6-.4.9-.6 3.2-2.2 89.4-61.2zM585.7 181.6l.5-1.3v3.9l-9.7 26.8-50.4 139.4-1.2 3.3-.2.7-.1.3-.1.3-.6-.2-.7-.3h.1l.1-.4.4-1.1 1.1-3 50.2-139 10.6-29.4z"/><path class="cls-1" d="M529.7 356.8l56.5 25.9v1.4L529.4 358l-4-1.8-1.3-.6-.4-.2h-.1l.2-.6h.1l.2-.6.2.1.4.1.9.4 4.1 2z"/><path class="cls-1" d="M528.6 352.4l57.6-20.6v1.4l-57 20.3-3.6 1.3-.8.3-.5.2-.2.1-.2-.6-.3-.7h.1l.5-.1.7-.3 3.7-1.3z"/><path class="cls-1" transform="rotate(-20.64 505.137 435.163)" d="M448.08 434.58h114.39v1.3H448.08z"/><path class="cls-1" transform="rotate(-30.13 541.48 384.988)" d="M540.8 350.08h1.3v69.8h-1.3z"/><path class="cls-1" d="M565.2 413.5l21-3v1.3l-20.8 3-6 .9h-.4l-.1-.6-.1-.7h.4l6-.9z"/><path class="cls-1" transform="rotate(-77.03 547.377 465.12)" d="M496.11 464.47h102.5v1.3h-102.5z"/><path class="cls-1" transform="rotate(-17.76 354.815 190.537)" d="M321.62 189.91h66.5v1.3h-66.5z"/><path class="cls-1" transform="rotate(-51.62 431.734 216.391)" d="M431.1 158.54h1.3v115.7h-1.3z"/><path class="cls-1" transform="rotate(-55.03 426.41 123.222)" d="M356.68 122.57h139.4v1.3h-139.4z"/><path class="cls-1" transform="rotate(-3.31 472.031 159.296)" d="M471.09 66h1.3v186.39h-1.3z"/><path class="cls-1" transform="rotate(-28.79 359.848 132.165)" d="M359.21 77.01h1.3v110.3h-1.3z"/><path class="cls-1" transform="rotate(-7.55 399.498 74.917)" d="M332.69 74.3h134.19v1.3H332.69z"/><path class="cls-1" transform="rotate(-88.97 510.588 67.04)" d="M509.95 22.83h1.3v88.4h-1.3z"/><path class="cls-1" transform="rotate(-67.18 515.847 159.974)" d="M415.83 159.32h200.1v1.3h-200.1z"/><path class="cls-1" d="M583.2 157l3 9.6v4.4l-.2-.7-4.1-13.3L556 73.8l-1.3-4.2-.4-1.2-.2-.4.6-.2.7-.2v.1l.1.3.1.4 1.6 5.1 26 83.5z"/><path class="cls-1" d="M554.7 67.1h31.5v1.3h-31.5zM533.3 0h1.9l-64.1 62.5-3.2 3-.9.9-.1.2h-.1l-.4-.4-.5-.5.1-.2 4.2-4L533.3 0z"/><path class="cls-1" d="M560 0h1.3l-5.4 61.7-.4 4.6v.8l-.1.6v.1h-.7l-.6-.1v-.1l.1-.5.4-5.6L560 0z"/><path class="cls-1" d="M559.1 63.4l27.1-21.9v1.6L560 64.4l-3.4 2.7-1.1.9-.2.2-.1.1-.5-.5-.4-.6.2-.1 1-.8 3.6-2.9z"/><path class="cls-1" transform="rotate(-86.34 61.768 673.148)" d="M10.84 672.52h101.9v1.3H10.84z"/><path class="cls-1" transform="rotate(-33.52 75.429 572.833)" d="M26.4 572.22h98.1v1.3H26.4z"/><circle class="cls-1" cx="115.91" cy="547.94" r="6.2" transform="rotate(-77.03 115.93 547.95)"/><circle class="cls-1" cx="90.91" cy="509.69" r="6.2" transform="rotate(-77.03 90.926 509.702)"/><circle class="cls-1" cx="34.57" cy="599.91" r="6.2" transform="rotate(-77.03 34.583 599.927)"/><circle class="cls-1" cx="198.32" cy="504.36" r="6.2" transform="rotate(-77.03 198.34 504.372)"/><circle class="cls-1" cx="222.08" cy="434.81" r="6.2" transform="rotate(-77.03 222.101 434.816)"/><circle class="cls-1" cx="324.42" cy="490.51" r="6.2" transform="rotate(-77.03 324.442 490.518)"/><circle class="cls-1" cx="407.94" cy="552.47" r="6.2" transform="rotate(-77.03 407.968 552.479)"/><circle class="cls-1" cx="452.95" cy="584.36" r="6.2" transform="rotate(-77.03 452.975 584.367)"/><circle class="cls-1" cx="531.61" cy="514" r="6.2" transform="rotate(-77.03 531.632 514.005)"/><circle class="cls-1" cx="451.77" cy="455.37" r="6.2" transform="rotate(-77.03 451.797 455.373)"/><circle class="cls-1" cx="559.26" cy="415.23" r="6.2" transform="rotate(-77.03 559.277 415.225)"/><circle class="cls-1" cx="523.53" cy="356.05" r="6.2" transform="rotate(-77.03 523.55 356.048)"/><circle class="cls-1" cx="394.08" cy="350.96" r="6.2" transform="rotate(-77.03 394.102 350.963)"/><circle class="cls-1" cx="308.02" cy="375.5" r="6.2" transform="rotate(-77.03 308.042 375.505)"/><circle class="cls-1" cx="273.25" cy="462.61" r="6.2" transform="rotate(-77.03 273.27 462.61)"/><circle class="cls-1" cx="253.21" cy="326.67" r="6.2" transform="rotate(-77.03 253.225 326.675)"/><circle class="cls-1" cx="346.75" cy="280.46" r="6.2" transform="rotate(-77.03 346.77 280.465)"/><circle class="cls-1" cx="324.91" cy="201.12" r="6.2" transform="rotate(-77.03 324.922 201.117)"/><circle class="cls-1" cx="477.07" cy="252.23" r="6.2" transform="rotate(-77.03 477.088 252.235)"/><circle class="cls-1" cx="466.01" cy="66.17" r="6.2" transform="rotate(-77.03 466.028 66.16)"/><circle class="cls-1" cx="554.8" cy="67.74" r="6.2" transform="rotate(-77.03 554.81 67.737)"/><circle class="cls-1" cx="334.66" cy="84.11" r="6.2" transform="rotate(-77.03 334.666 84.11)"/><circle class="cls-1" cx="386.45" cy="180.49" r="6.2" transform="rotate(-77.03 386.46 180.488)"/><circle class="cls-1" cx="150.09" cy="450.34" r="6.2" transform="rotate(-77.03 150.109 450.347)"/><circle class="cls-1" cx="82.43" cy="620.1" r="6.2" transform="rotate(-77.03 82.443 620.12)"/><circle class="cls-1" cx="115.84" cy="634.04" r="6.2" transform="rotate(-77.03 115.854 634.048)"/><circle class="cls-1" cx="64.12" cy="622.28" r="6.2" transform="rotate(-77.03 64.13 622.293)"/><circle class="cls-1" cx="110.71" cy="688.42" r="6.2" transform="rotate(-77.03 110.722 688.435)"/><circle class="cls-1" cx="205.82" cy="668.16" r="6.2" transform="rotate(-77.03 205.84 668.178)"/><circle class="cls-1" cx="266.05" cy="703.13" r="6.2" transform="rotate(-77.03 266.07 703.142)"/><circle class="cls-1" cx="250.91" cy="620.88" r="6.2" transform="rotate(-77.03 250.937 620.887)"/><circle class="cls-1" cx="288.47" cy="646.97" r="6.2" transform="rotate(-77.03 288.497 646.983)"/><circle class="cls-1" cx="348.99" cy="634.12" r="6.2" transform="rotate(-77.03 349.011 634.127)"/><circle class="cls-1" cx="299.55" cy="557.68" r="6.2" transform="rotate(-77.03 299.563 557.687)"/><circle class="cls-1" cx="177.54" cy="594.66" r="6.2" transform="rotate(-77.03 177.56 594.68)"/></g></g></svg>