<svg xmlns="http://www.w3.org/2000/svg" viewBox="0 0 586.2 742.98"><defs><style>.cls-1{fill:#028fff;}</style></defs><title>neurons</title><g id="Layer_2" data-name="Layer 2"><g id="Layer_1-2" data-name="Layer 1"><rect class="cls-1" x="27.42" y="681.96" width="115" height="1.3" transform="translate(-536.25 387.1) rotate(-57.47)"/><rect class="cls-1" x="69.42" y="576.51" width="1.3" height="94" transform="translate(-553.27 551.88) rotate(-77.03)"/><path class="cls-1" d="M0,588.1l115.6,46.6.5-1.2L.7,586.9A7.46,7.46,0,0,1,0,588.1Z"/><rect class="cls-1" x="55.96" y="687.86" width="109.3" height="1.3" transform="translate(-585.27 733.6) rotate(-84.58)"/><rect class="cls-1" x="109.6" y="677.63" width="97.3" height="1.3" transform="translate(-138.13 47.99) rotate(-12.05)"/><rect class="cls-1" x="160.19" y="602.95" width="1.3" height="96.19" transform="translate(-504.94 570.63) rotate(-69.24)"/><rect class="cls-1" x="109.6" y="613.29" width="70.7" height="1.3" transform="translate(-323.38 191.33) rotate(-34.65)"/><rect class="cls-1" x="78.01" y="606" width="97.8" height="1.3" transform="translate(-154.62 54.5) rotate(-15.2)"/><rect class="cls-1" x="115.5" y="626.87" width="136.29" height="1.3" transform="translate(-58.99 20.36) rotate(-5.47)"/><rect class="cls-1" x="212.17" y="566.41" width="1.3" height="82.1" transform="translate(-430.84 606.94) rotate(-70.65)"/><rect class="cls-1" x="195.74" y="643.88" width="65.6" height="1.3" transform="translate(-393.24 359.84) rotate(-45.88)"/><rect class="cls-1" x="258.1" y="620.4" width="1.3" height="83.4" transform="translate(-112.06 55.61) rotate(-10.1)"/><rect class="cls-1" x="235.3" y="650.78" width="1.3" height="69.7" transform="translate(-475.52 545.75) rotate(-59.89)"/><rect class="cls-1" x="144.51" y="532.24" width="1.3" height="75" transform="translate(-385.13 315.83) rotate(-50.12)"/><rect class="cls-1" x="56.82" y="581.9" width="82.4" height="1.3" transform="translate(-467.1 410.46) rotate(-63.51)"/><rect class="cls-1" x="111.5" y="524.3" width="91.8" height="1.3" transform="translate(-220.05 127.62) rotate(-26.84)"/><rect class="cls-1" x="139.83" y="548.36" width="92.8" height="1.3" transform="translate(-392.38 584.96) rotate(-74.82)"/><rect class="cls-1" x="103" y="505.59" width="1.3" height="44.2" transform="matrix(0.82, -0.58, 0.58, 0.82, -286.08, 157.14)"/><rect class="cls-1" x="90.8" y="506.28" width="107.6" height="1.3" transform="translate(-25.33 7.92) rotate(-2.88)"/><rect class="cls-1" x="171.5" y="575.1" width="130.6" height="1.3" transform="translate(-149.81 87.8) rotate(-16.03)"/><rect class="cls-1" x="235.81" y="588.69" width="79.5" height="1.3" transform="translate(-360.44 452.36) rotate(-52.79)"/><rect class="cls-1" x="248.27" y="473.66" width="1.3" height="114.5" transform="translate(-336.79 503.01) rotate(-62.15)"/><rect class="cls-1" x="299.61" y="578.37" width="1.3" height="98.4" transform="translate(-361.63 841.83) rotate(-82.37)"/><rect class="cls-1" x="323.62" y="550.44" width="1.3" height="91" transform="translate(-271.73 271.78) rotate(-32.91)"/><rect class="cls-1" x="247.17" y="674.46" width="60.4" height="1.3" transform="translate(-452.45 683.64) rotate(-68.33)"/><rect class="cls-1" x="269.27" y="611.39" width="1.3" height="45.1" transform="translate(-403.98 490.42) rotate(-54.91)"/><rect class="cls-1" x="287.68" y="639.87" width="61.9" height="1.3" transform="translate(-125.98 80.06) rotate(-11.98)"/><rect class="cls-1" x="328.19" y="592.71" width="100.6" height="1.3" transform="matrix(0.59, -0.81, 0.81, 0.59, -324.11, 552.34)"/><rect class="cls-1" x="299.51" y="554.53" width="108.5" height="1.3" transform="translate(-26.17 17.57) rotate(-2.74)"/><rect class="cls-1" x="197.89" y="496.69" width="126.9" height="1.3" transform="translate(-52.7 31.48) rotate(-6.26)"/><rect class="cls-1" x="276.07" y="523.42" width="71.8" height="1.3" transform="matrix(0.35, -0.94, 0.94, 0.35, -287.75, 635)"/><rect class="cls-1" x="365.52" y="469.42" width="1.3" height="104.1" transform="translate(-270.79 504.21) rotate(-53.37)"/><rect class="cls-1" x="322.09" y="472.29" width="132" height="1.3" transform="translate(-111.49 119.81) rotate(-15.37)"/><rect class="cls-1" x="376.58" y="503.29" width="106.5" height="1.3" transform="translate(-206.26 688.61) rotate(-65.73)"/><rect class="cls-1" x="405.3" y="533.1" width="133.3" height="1.3" transform="translate(-131.24 154.56) rotate(-16.36)"/><rect class="cls-1" x="493.21" y="433.63" width="1.3" height="103.1" transform="translate(-187.49 607.93) rotate(-54.7)"/><rect class="cls-1" x="429.74" y="540.87" width="1.3" height="55" transform="translate(-282.17 591.67) rotate(-54.74)"/><rect class="cls-1" x="440.29" y="549.01" width="108.1" height="1.3" transform="translate(-237.46 444.93) rotate(-39.89)"/><rect class="cls-1" x="173.64" y="441.1" width="1.3" height="72.4" transform="translate(-273.7 237.51) rotate(-41.78)"/><rect class="cls-1" x="78.63" y="479.3" width="83.91" height="1.3" transform="translate(-304.4 226.41) rotate(-45.08)"/><rect class="cls-1" x="149.3" y="441.8" width="73.6" height="1.3" transform="translate(-89.53 49.48) rotate(-12.23)"/><rect class="cls-1" x="173.36" y="468.81" width="73.5" height="1.3" transform="translate(-302.04 516.83) rotate(-71.17)"/><rect class="cls-1" x="272.72" y="404.25" width="1.3" height="116.6" transform="translate(-263.59 481.46) rotate(-61.43)"/><rect class="cls-1" x="181.25" y="379.95" width="112.5" height="1.3" transform="translate(-193.74 504.28) rotate(-74.04)"/><rect class="cls-1" x="262.49" y="325.79" width="1.3" height="137.49" transform="translate(-55.35 43.16) rotate(-8.49)"/><rect class="cls-1" x="279.92" y="314.17" width="1.3" height="73.6" transform="translate(-168.17 327.9) rotate(-48.42)"/><rect class="cls-1" x="243.75" y="418.36" width="93.8" height="1.3" transform="translate(-206.28 533.52) rotate(-68.23)"/><rect class="cls-1" x="315.62" y="374.92" width="1.3" height="116.21" transform="translate(-58.05 49.07) rotate(-8.13)"/><rect class="cls-1" x="247.5" y="302.6" width="104.8" height="1.3" transform="translate(-103.74 165.5) rotate(-26.48)"/><rect class="cls-1" x="275.78" y="327.02" width="103.2" height="1.3" transform="translate(-99.28 507.95) rotate(-67.93)"/><rect class="cls-1" x="306.21" y="361.9" width="90.1" height="1.3" transform="translate(-88.81 115.23) rotate(-16.57)"/><rect class="cls-1" x="369.87" y="272.5" width="1.3" height="84.5" transform="translate(-112.85 262.76) rotate(-34.21)"/><rect class="cls-1" x="379.27" y="333.12" width="1.3" height="164.5" transform="translate(-167.78 545.34) rotate(-60.9)"/><rect class="cls-1" x="422.38" y="342.5" width="1.3" height="120.3" transform="translate(-140.89 250.75) rotate(-28.51)"/><rect class="cls-1" x="371.79" y="300.28" width="127.9" height="1.3" transform="translate(-75.64 438.48) rotate(-49.68)"/><rect class="cls-1" x="345.41" y="265.41" width="133.2" height="1.3" transform="translate(-46.2 91.19) rotate(-11.96)"/><rect class="cls-1" x="334.3" y="199" width="1.3" height="82.6" transform="translate(-54.79 106) rotate(-16.64)"/><rect class="cls-1" x="399.54" y="145.32" width="1.3" height="162.4" transform="translate(58.29 534.05) rotate(-71.48)"/><rect class="cls-1" x="425.78" y="404.44" width="123.8" height="1.3" transform="translate(-125.61 565.74) rotate(-54.39)"/><rect class="cls-1" x="458.43" y="287.53" width="1.3" height="129.59" transform="matrix(0.04, -1, 1, 0.04, 89.22, 797.4)"/><rect class="cls-1" x="499.81" y="247.1" width="1.3" height="112.7" transform="translate(-80.79 234.98) rotate(-24.51)"/><polygon class="cls-1" points="571.2 187 586.2 176.8 586.2 178.3 571.2 188.6 482.6 249.3 477.9 252.5 477.5 252.7 477.5 252.8 477.1 252.2 477.1 252.2 477.1 252.2 476.7 251.7 476.9 251.6 477 251.5 477.1 251.4 477.7 251 478.6 250.4 481.8 248.2 571.2 187"/><polygon class="cls-1" points="585.7 181.6 586.2 180.3 586.2 184.2 576.5 211 526.1 350.4 524.9 353.7 524.7 354.4 524.6 354.7 524.5 355 523.9 354.8 523.2 354.5 523.3 354.5 523.3 354.5 523.4 354.1 523.8 353 523.8 353 524.9 350 575.1 211 585.7 181.6"/><polygon class="cls-1" points="529.7 356.8 586.2 382.7 586.2 384.1 529.4 358 525.4 356.2 524.1 355.6 523.7 355.4 523.6 355.4 523.8 354.8 523.9 354.8 524.1 354.2 524.3 354.3 524.7 354.4 525.6 354.8 529.7 356.8"/><polygon class="cls-1" points="528.6 352.4 586.2 331.8 586.2 333.2 529.2 353.5 525.6 354.8 524.8 355.1 524.3 355.3 524.1 355.4 523.9 354.8 523.9 354.8 523.6 354.1 523.7 354.1 524.2 354 524.9 353.7 528.6 352.4"/><rect class="cls-1" x="448.08" y="434.58" width="114.39" height="1.3" transform="translate(-120.97 205.99) rotate(-20.64)"/><rect class="cls-1" x="540.8" y="350.08" width="1.3" height="69.8" transform="translate(-120.09 323.82) rotate(-30.13)"/><polygon class="cls-1" points="565.2 413.5 586.2 410.5 586.2 411.8 565.4 414.8 559.4 415.7 559 415.7 559 415.7 558.9 415.1 558.8 414.4 559.2 414.4 565.2 413.5"/><rect class="cls-1" x="496.11" y="464.47" width="102.5" height="1.3" transform="translate(-28.73 894.14) rotate(-77.03)"/><rect class="cls-1" x="321.62" y="189.91" width="66.5" height="1.3" transform="translate(-41.21 117.31) rotate(-17.76)"/><rect class="cls-1" x="431.1" y="158.54" width="1.3" height="115.7" transform="translate(-5.95 420.48) rotate(-51.62)"/><rect class="cls-1" x="356.68" y="122.57" width="139.4" height="1.3" transform="translate(81.04 402.02) rotate(-55.03)"/><rect class="cls-1" x="471.09" y="66" width="1.3" height="186.39" transform="translate(-8.41 27.52) rotate(-3.31)"/><rect class="cls-1" x="359.21" y="77.01" width="1.3" height="110.3" transform="translate(-19.17 189.64) rotate(-28.79)"/><rect class="cls-1" x="332.69" y="74.3" width="134.19" height="1.3" transform="translate(-6.38 53.14) rotate(-7.55)"/><rect class="cls-1" x="509.95" y="22.83" width="1.3" height="88.4" transform="translate(434.38 576.34) rotate(-88.97)"/><rect class="cls-1" x="415.83" y="159.32" width="200.1" height="1.3" transform="translate(168.33 573.4) rotate(-67.18)"/><polygon class="cls-1" points="583.2 157 586.2 166.6 586.2 171 586 170.3 581.9 157 556 73.8 554.7 69.6 554.3 68.4 554.1 68 554.7 67.8 554.7 67.8 555.4 67.6 555.4 67.7 555.5 68 555.6 68.4 557.2 73.5 583.2 157"/><rect class="cls-1" x="554.7" y="67.1" width="31.5" height="1.3"/><polygon class="cls-1" points="533.3 0 535.2 0 471.1 62.5 467.9 65.5 467 66.4 466.9 66.6 466.8 66.6 466.4 66.2 465.9 65.7 466 65.5 470.2 61.5 533.3 0"/><polygon class="cls-1" points="560 0 561.3 0 555.9 61.7 555.5 66.3 555.5 67.1 555.4 67.7 555.4 67.8 554.8 67.8 554.7 67.8 554.7 67.8 554.7 67.8 554.1 67.7 554.1 67.6 554.1 67.6 554.2 67.1 554.6 61.5 560 0"/><polygon class="cls-1" points="559.1 63.4 586.2 41.5 586.2 43.1 560 64.4 556.6 67.1 555.5 68 555.3 68.2 555.2 68.3 554.7 67.8 554.7 67.8 554.7 67.8 554.3 67.2 554.5 67.1 555.5 66.3 559.1 63.4"/><rect class="cls-1" x="10.84" y="672.52" width="101.9" height="1.3" transform="translate(-613.95 691.82) rotate(-86.34)"/><rect class="cls-1" x="26.4" y="572.22" width="98.1" height="1.3" transform="translate(-303.79 136.92) rotate(-33.52)"/><circle class="cls-1" cx="115.91" cy="547.94" r="6.2" transform="translate(-444.06 537.94) rotate(-77.03)"/><circle class="cls-1" cx="90.91" cy="509.69" r="6.2" transform="translate(-426.18 483.91) rotate(-77.03)"/><circle class="cls-1" cx="34.57" cy="599.91" r="6.2" transform="translate(-557.8 498.98) rotate(-77.03)"/><circle class="cls-1" cx="198.32" cy="504.36" r="6.2" transform="translate(-337.68 584.45) rotate(-77.03)"/><circle class="cls-1" cx="222.08" cy="434.81" r="6.2" transform="translate(-251.47 553.66) rotate(-77.03)"/><circle class="cls-1" cx="324.42" cy="490.51" r="6.2" transform="translate(-226.38 696.59) rotate(-77.03)"/><circle class="cls-1" cx="407.94" cy="552.47" r="6.2" transform="translate(-221.98 826.04) rotate(-77.03)"/><circle class="cls-1" cx="452.95" cy="584.36" r="6.2" transform="translate(-218.15 894.63) rotate(-77.03)"/><circle class="cls-1" cx="531.61" cy="514" r="6.2" transform="translate(-88.58 916.71) rotate(-77.03)"/><circle class="cls-1" cx="451.77" cy="455.37" r="6.2" transform="translate(-93.36 793.44) rotate(-77.03)"/><circle class="cls-1" cx="559.26" cy="415.23" r="6.2" transform="translate(29.12 867.04) rotate(-77.03)"/><circle class="cls-1" cx="523.53" cy="356.05" r="6.2" transform="translate(59.08 786.33) rotate(-77.03)"/><circle class="cls-1" cx="394.08" cy="350.96" r="6.2" transform="translate(-36.36 656.24) rotate(-77.03)"/><circle class="cls-1" cx="308.02" cy="375.5" r="6.2" transform="translate(-127.02 591.41) rotate(-77.03)"/><circle class="cls-1" cx="273.25" cy="462.61" r="6.2" transform="translate(-238.87 625.08) rotate(-77.03)"/><circle class="cls-1" cx="253.21" cy="326.67" r="6.2" transform="translate(-121.95 500.12) rotate(-77.03)"/><circle class="cls-1" cx="346.75" cy="280.46" r="6.2" transform="translate(-4.37 555.44) rotate(-77.03)"/><circle class="cls-1" cx="324.91" cy="201.12" r="6.2" transform="translate(56.01 472.61) rotate(-77.03)"/><circle class="cls-1" cx="477.07" cy="252.23" r="6.2" transform="translate(124.21 660.54) rotate(-77.03)"/><circle class="cls-1" cx="466.01" cy="66.17" r="6.2" transform="translate(296.96 505.45) rotate(-77.03)"/><circle class="cls-1" cx="554.8" cy="67.74" r="6.2" transform="translate(364.28 593.19) rotate(-77.03)"/><circle class="cls-1" cx="334.66" cy="84.11" r="6.2" transform="translate(177.59 391.36) rotate(-77.03)"/><circle class="cls-1" cx="386.45" cy="180.49" r="6.2" transform="translate(123.84 516.58) rotate(-77.03)"/><circle class="cls-1" cx="150.09" cy="450.34" r="6.2" transform="translate(-322.44 495.55) rotate(-77.03)"/><circle class="cls-1" cx="82.43" cy="620.1" r="6.2" transform="translate(-540.36 561.28) rotate(-77.03)"/><circle class="cls-1" cx="115.84" cy="634.04" r="6.2" transform="translate(-528.02 604.64) rotate(-77.03)"/><circle class="cls-1" cx="64.12" cy="622.28" r="6.2" transform="translate(-556.68 545.12) rotate(-77.03)"/><circle class="cls-1" cx="110.71" cy="688.42" r="6.2" transform="translate(-585 641.82) rotate(-77.03)"/><circle class="cls-1" cx="205.82" cy="668.16" r="6.2" transform="translate(-491.49 718.8) rotate(-77.03)"/><circle class="cls-1" cx="266.05" cy="703.13" r="6.2" transform="translate(-478.85 804.61) rotate(-77.03)"/><circle class="cls-1" cx="250.91" cy="620.88" r="6.2" transform="translate(-410.43 726.07) rotate(-77.03)"/><circle class="cls-1" cx="288.47" cy="646.97" r="6.2" transform="translate(-406.73 782.91) rotate(-77.03)"/><circle class="cls-1" cx="348.99" cy="634.12" r="6.2" transform="translate(-347.27 831.91) rotate(-77.03)"/><circle class="cls-1" cx="299.55" cy="557.68" r="6.2" transform="translate(-311.13 724.44) rotate(-77.03)"/><circle class="cls-1" cx="177.54" cy="594.66" r="6.2" transform="translate(-441.8 634.24) rotate(-77.03)"/></g></g></svg>