<svg enable-background="new 0 0 702 415" viewBox="0 0 702 415" xmlns="http://www.w3.org/2000/svg"><path d="m641.8 324.9c-.9 1.8-5.7 9.5-6.4 10.2-.7.8-.5-1.5.2-2.9.9-1.7 4.3-6.8 5.6-8.4 1.2-1.4 1.6-.8.6 1.1z"/><path d="m230.2 215.8c-.7.9-1.4 2.3-3 2-1-.2-4.6-4.2-4.9-5.3-.3-1.3 2.1-4.3 3.2-4 1 .4 4.4 5.5 4.7 7.3z"/><path d="m85.4 37.2c-.7-2.4 1-3.4 2.6-4.3 1.2-.7 5.6 2.2 5.7 3.6.1 2-1 3.4-2.5 4.2-1.2.8-5-1.6-5.8-3.5z"/><path d="m156.7 82.5c-2.1-.4-4-2.1-4.4-4-.4-1.9-.3-4.9 1.5-4.9 1.9 0 3.6 2.8 4.4 5.1.7 2 .1 3.4-1.5 3.8z"/><path d="m148.6 205c-.2-1.1-1.1-2.6-.4-3.3.9-.9 1.9.7 2.8 1.4.6.4 1.1 1 1.7 1.5 1.4 1.2 3.1 2.8 2.1 4.5-.9 1.6-2.7.8-4.4-.8-.9-.9-1.4-2.1-1.8-3.3z"/><path d="m133.2 68.7c.2 1.9.2 3.9-1.7 3.7-1.9-.1-3.6-1.7-4.5-3.7-.6-1.3.9-4.9 2-4.7 2.2.6 3 2.9 4.2 4.7z"/><path d="m30.6 91.1c.5 1.8-.1 3.8-1.9 5-1.9 1.3-4.1 1.3-4.9-1.1-.6-1.8-.6-4.2 1.2-6 1.4-1.3 4.8 0 5.6 2.1z"/><path d="m235.9 349.4c.3 1.6.1 3-1 2.6-1.3-.5-2.9-2.4-3.6-4.3-.6-1.6.2-2.9 1.3-2.9.9-.1 2.8 2.7 3.3 4.6z"/><path d="m89.2 163.2c-1.7.9-5.2-.2-5.5-1.8-.4-2.5 1.6-3.6 2.9-4.5 1-.7 3.4-.8 4.2 1.2.8 2.3-.7 3.8-1.6 5.1z"/><path d="m351.2 91.2c2.3 1.3 4.1 4.1 4.1 6.2 0 1.5-.9 2-2.4 1.3-1.4-.6-4.7-5.7-4.8-7.2-.1-1.4 1-1.5 3.1-.3z"/><path d="m203.6 238.3c-1.4-.6-3-1.3-3.5-3.6-.5-2.3.7-3.3 2.1-3.3 1.3-.1 2.5 1.6 2.9 3.4.6 2.1-.1 3.3-1.5 3.5z"/><path d="m98.1 81.4c1 2.9-.7 3.8-2.1 4.4-1.7.7-3.6.1-4.5-2.1-.9-2.1.2-3.6 1.8-4.1 1.8-.6 3.6.3 4.8 1.8z"/><path d="m253.9 98.1c.9-1.3 2.5-1.4 4.2-.8 1.6.5 3.2 2.6 3.4 4.2.3 2.2-1.3 2.4-3.1 1.7-1.9-.8-3.2-2.9-4.5-5.1z"/><path d="m228.6 236.6c-1.4-.9-3.3-1.3-3.9-4.3-.5-2.4 1.3-1.7 2.3-1.5 1.4.3 2.9 1.4 3.5 4 .6 2.4-.7 2-1.9 1.8z"/><path d="m312.8 129.1c-1.6-.9-4.6-4.7-4.5-5.9.1-1.7 1.1-2 2.6-1.4 1.6.6 3.5 3.8 3.6 5.8.1 1.6-.6 2.2-1.7 1.5z"/><path d="m262.3 281.3c-.1 1.6-.4 3.3-1.7 2.9-1.3-.4-2.2-2.7-2.6-4.4-.5-2.2.3-3.2 1.6-2.7 1.1.3 2.1 2.1 2.7 4.2z"/><path d="m69.5 136.3c1.7-.8 3.5-1.5 4.3.7.6 1.6.7 4-1.1 4.9-2 1-4.2.5-5.4-1.6-1.3-2.5 1.5-2.8 2.2-4z"/><path d="m343.1 116.1c-1.5-1.6-3.1-3.4-3.5-5.4-.3-1.5 2.6-1.9 4.1-.8 1.7 1.3 2.4 2.9 2.4 4.4 0 1.8-.9 2.7-3 1.8z"/><path d="m476.5 310.1c2.1.8 2.5 2.2 2.3 3.7-.3 1.8-1.6 2.3-3.2 1.9-1.2-.3-2.8-3.4-2.5-4.6.2-.9 2.4-1.4 3.4-1z"/><path d="m46.8 189.8c-1.3 1.2-2.3 1-3.2-.3-.9-1.4-.3-6.9 1-7.8 1.1-.9 2.2-.9 3 .3.8 1.2.2 6.7-.8 7.8z"/><path d="m34.7 41.2c-1.1.3-2.9 2.4-3.6 0-.8-2.5.8-4.9 2.7-6.4 1.6-1.3 3.4-.4 3.9 1.1.9 2.2-.4 4-3 5.3z"/><path d="m138.9 61.4c.3 2.1-.2 3.8-1.9 3.7-1.7-.1-3.6-1.8-4.1-3.7-.5-1.9.6-3.3 2.2-3.3 1.7-.1 2.9 1.8 3.8 3.3z"/><path d="m217 287.7c.3 2.1-.1 3.5-1.2 3.2-1.6-.5-2.6-3.1-3.2-5.1-.5-1.7.4-2.2 1.3-2 1.5.2 2.3 2.2 3.1 3.9z"/><path d="m142.2 213c-1.8-.6-3.3-1.6-4.2-3.7-.9-2.3.5-3 1.5-3.3 1.1-.4 2.7 0 3.3 2.2.5 1.9.1 3.5-.6 4.8z"/><path d="m62.6 160.5c1.5-.3 3.5-2.1 4.6-.1 1.1 2.1-.3 4.3-1.9 5.5-1.5 1.2-3.2.5-4.2-1.1-1.1-1.9.4-3 1.5-4.3z"/><path d="m471.9 190.3c-.5 1.7-1.8 2.9-3.9 2.3-1.7-.5-1.9-2.1-1.6-3.4.4-1.9 1.5-3 3.6-2.4 1.7.5 2 1.9 1.9 3.5z"/><path d="m261.6 297.4c-.5-1.8-1.1-3.7.4-3.2 1.3.4 2.3 1.8 2.6 4 .2 1.7 1.1 4.1-.7 3.5-1.9-.7-2-2.6-2.3-4.3z"/><path d="m96.5 55.9c.1 1.3 1.4 3.2-.6 3.8-1.3.4-4.3-2.4-4.8-4.3-.5-1.8.2-3 1.7-3.2 2.5-.5 2.9 1.8 3.7 3.7z"/><path d="m83.5 175.3c-.9 0-2.1 1.8-3.1-.2-.7-1.5.8-5.5 2.4-6.2 1.2-.5 2.5-.1 2.9 1.4.6 2.3-.1 4-2.2 5z"/><path d="m137.6 12.5c0-1.7.6-3.2 1.6-4.4.1-.1.3-.2.5-.2 1.5.2 2.5 1.4 3.1 2.8.6 1.4-.7 5.1-1.6 5.1-1.1 0-3.2-1.8-3.6-3.3z"/><path d="m466.5 231.8c-1.4-1.3-2.3-2.9-1.9-4.3.4-1.4 1.7-2.6 3.2-1.9 1.4.7 2.4 2.5 2 4.2-.5 1.8-1.9 2-3.3 2z"/><path d="m67.2 48.2c1.1-.3 2.3-.4 2.8 1.2.7 1.8-.3 6.2-1.5 6.5-1.5.3-2.5-.5-3-2-.8-2.3-.1-5 1.7-5.7z"/><path d="m11.6 73.3c0 1.6 1 3.9-1 5.1-2.1 1.2-4.1 0-5.1-2-.8-1.6.3-3.5 1.7-4.5 1.9-1.4 3.4-.7 4.4 1.4z"/><path d="m245.5 112.1c-1.7-.9-2.9-2.3-3.2-4-.5-2.7 1.8-1.6 3.2-1.6 1 0 2.2 1.5 2.4 2.8.3 2.3-1 2.7-2.4 2.8z"/><path d="m15.8 140.3c-2.3 1-4 .1-5.2-1.4-1-1.3-.5-3.2.9-4.6 1.8-1.7 3.5-1.4 4.5.1 1 1.6.7 3.7-.2 5.9z"/><path d="m416.5 264.3c-.4 1.2-.6 2.9-2.5 1.9-1.5-.8-2.2-2.4-1.9-3.8.3-1.4.4-3.7 2.4-2.6 1.6.9 2.1 2.6 2 4.5z"/><path d="m316.9 269.2c0 1.4.1 3-1.1 2.1-1.8-1.4-2.4-3.9-2.9-6.1-.3-1.6.2-2.1 1.4-1.4 2.2 1.4 2 3.6 2.6 5.4z"/><path d="m291.9 339c-.9-.8-2.3-1.4-2.4-3.1-.1-2.1 1.1-2.5 2.5-2 .8.3 1.7 1.2 1.9 2.9.2 2.5-.8 2.4-2 2.2z"/><path d="m14.7 62.8c-2 .4-4.2 1.1-5.1-.8-.7-1.4-.3-3.8 1.7-5.1 2.1-1.3 4-.6 4.9 1 .8 1.3-.3 3.3-1.5 4.9z"/><path d="m77.4 30.8c-.2-1.5-.7-3.6 1.2-4.1 2-.6 3.7 1.1 4.3 2.9.5 1.6.2 3.5-1.7 3.9-1.8.5-3-.7-3.8-2.7z"/><path d="m448.6 179.2c.8-1.3 2.3-1.5 3.8-.7 1.8 1 2.8 2.8 2.4 4.4-.3 1.2-1.5 2.2-3.1 1.1-1.7-1.1-2.7-2.9-3.1-4.8z"/><path d="m351.2 278.8c-.9-1.1-2.6-2-2.4-4.1.1-1.7 1.2-2.2 2.6-1 1.2 1 2.4 2.3 2.1 4.2-.2 1.4-.6 2.3-2.3.9z"/><path d="m159.3 146c-.3 1.7-1.5 2.4-2.8 2.4-1.2 0-3.3-.6-3.6-2.4-.4-2 1.1-3.1 2.7-3.2 1.5 0 2.5 1.8 3.7 3.2z"/><path d="m625.7 252.1c-1.6.4-2.3-.1-1.6-1.8.6-1.6 2.2-3.5 3.9-4.2 1.8-.8 1.3 1.1 1 2.2-.3 1.4-1.8 2.8-3.3 3.8z"/><path d="m11.9 107.6c-1.8 1.3-3.2 2-3.9.4-1.2-3 1.7-4.9 3.1-7 1-1.4 2.5-1.4 3.1-.1 1.4 2.8-2.2 4.5-2.3 6.7z"/><path d="m76.9 88.9c-.5-2.4-.1-4.5 1.5-5.4 1-.6 3 .1 3.3 1.8.3 1.8.4 4.2-1.2 5.2-1.3.8-2.7-.4-3.6-1.6z"/><path d="m50.6 133.4c-1.4.8-2.9 2.1-3.7.2-.9-2.4.6-4.2 2.3-5.5 1.2-.9 2.7-1.8 3.5.1 1.2 2.6-1.2 3.6-2.1 5.2z"/><path d="m135.1 227.4c.2 1.5 1 3.4-.7 3.9-1.7.5-2.6-1.2-3.3-3-.6-1.5-.9-3 .4-3.6 1.6-.6 2.7.8 3.6 2.7z"/><path d="m180.5 353.8c-.7-2-.1-3.2.6-3.4 1.4-.4 2.4 2 3.2 3.7.7 1.3.4 2.4-.4 2.5-1.2.3-2.3-1.1-3.4-2.8z"/><path d="m423.6 369.6c-1.1-1.1-2.4-2.3-2.3-4.2.1-2 1.6-1.6 2.6-1.2 1.1.4 2 2 1.9 3.6-.2 1.4-1 2.2-2.2 1.8z"/><path d="m151.1 24.3c-1.9-.6-3.6-1.3-4.1-3.1-.7-2.2.8-2.9 2.4-3 1.5 0 3.3.9 3.9 2.7.7 2.2-1.4 2.5-2.2 3.4z"/><path d="m149.4 115.3c-1.4-.2-3.3-.9-3.9-3.3-.5-1.8 1.1-2.4 2.2-2.4 1.5.1 3.1 1.5 3.7 3.5.4 1.6-.2 2.3-2 2.2z"/><path d="m130.2 18.2c.9-1.3 1.7-2.7 3.5-2.7 1.4.1 3.1 1.4 3.2 2.9.1 1.7-.9 3-2.7 2.9-1.6-.1-2.8-1.5-4-3.1z"/><path d="m252.7 192.2c-.2-2.2.2-3.4 1.8-2.7 1.1.5 2.3 1.4 2.4 3.3.1 1.9-.5 3.3-1.9 3-1.6-.3-1.8-2.4-2.3-3.6z"/><path d="m129.4 124.2c-1.5 0-2.7-.6-3.4-2.4-1-2.4.2-3.5 1.6-4.1 1.2-.5 2.2 1 2.7 2.3.6 1.7.7 3.5-.9 4.2z"/><path d="m480.9 188.7c-.6 1-1.2 2.5-3.1 1.7-1.6-.7-2.8-2.1-2.4-3.8.3-1.4 1.1-2.6 3.1-1.8 1.8.7 2.6 2.1 2.4 3.9z"/><path d="m47.6 171.5c1.5-1.1 2.9-1.8 3.5 0 .8 2.2-.4 4-2 5.4-1.2 1-2.6 2.1-3.4.3-1-2.3.8-4.1 1.9-5.7z"/><path d="m58 149.6c-1.7 1-3.4 1.3-4.2-.8-.8-2.1.8-3.5 2-4.5 1.5-1.1 2.8-.5 3.6 1.2.8 1.8.1 3.1-1.4 4.1z"/><path d="m9.3 185.9c-.4-2.3 1.1-4.3 2.2-5.7 1.2-1.5 3-2.3 3.9-.5.8 1.6.4 3.9-1 5.3-1.6 1.7-3.5 1.9-5.1.9z"/><path d="m202.8 212.5c-.2-1.8-.6-3.7 1.1-3.4.9.2 2.2 1 2.1 2.4 0 1.7.9 4.6-.8 4.6-1.4 0-1.9-2.1-2.4-3.6z"/><path d="m222.4 318c .8.3 1.8.6 2.2 2.3.5 2.2-.1 3.2-1.2 3.1-.9-.1-2.1-1-2.5-2.9-.7-2.4.5-2.5 1.5-2.5z"/><path d="m55.3 157.6c.2 1.9.4 3.7-1.4 4.9-1.4.9-2.7.7-3.3-1-.6-1.8-.7-4.1.8-5.4 1.7-1.4 2.8.6 3.9 1.5z"/><path d="m119.4 58.6c1.7 0 3.3.6 4.1 2.8.5 1.6.2 2.6-1.4 2.6-1.9 0-3.9-.7-4.9-2.9-.8-2 1-2.1 2.2-2.5z"/><path d="m41.1 212.6c.2 2.1 0 4.3-1.6 6.1-1.1 1.3-2.5 2.1-3.4.5-1.2-2.1 0-4.2 1.4-6.1 1.1-1.5 2.4-1.5 3.6-.5z"/><path d="m330.2 253.7c.1-1.4.7-2.1 1.9-1.4 1.3.8 2.4 2.3 2.6 4.2.1 1.7-.5 2.4-1.9 1.6-1.4-.9-2-2.7-2.6-4.4z"/><path d="m3.3 123c-.9-2 .2-3.7 1.5-5.2 1.7-2 3.4-1.8 4.3-.3.8 1.4.2 3.8-1.1 5.2-1.7 1.5-3.4 1.6-4.7.3z"/><path d="m109.7 347.7c-1 .6-2.3 1.7-3.4-.3-.8-1.4-.9-3.2.3-4.3 1.4-1.3 2.9-.5 3.9 1 .8 1.2.4 2.6-.8 3.6z"/><path d="m16.4 94.1c-1.7 1.2-3 1.1-3.6-.5-.7-1.9 0-4.1 1.7-5.6 1.4-1.2 3.4-1.5 3.9.3.6 1.9-.5 4.1-2 5.8z"/><path d="m159.6 14c .3 1.8-.5 3.1-2 2.9-1.5-.2-2.9-2-3.3-3.6-.4-1.7.1-3.4 1.7-3.2 1.6.1 2.7 2.2 3.6 3.9z"/><path d="m231 86.3c0 1.6-.5 2.5-2.1 1.9-1.7-.7-3.2-2.4-3.7-4.2-.4-1.8.9-2.1 2.2-1.7 1.8.4 2.8 2.1 3.6 4z"/><path d="m118 150.1c.5 1.7 0 2.9-1.2 3.1-1.6.3-3.4-.2-4.3-2.3-.8-2 .9-2.7 1.9-3.1 1.6-.6 2.8.8 3.6 2.3z"/><path d="m56.3 245.2c.6 1.6.6 3.2-.7 4.2-1.8 1.3-3.8 1.9-5.1 0-.9-1.4.4-2.9 1.4-3.9 1.6-1.6 3.1-1.8 4.4-.3z"/><path d="m289.4 307c-.9-.9-2.3-.8-2.6-3.2-.2-1.7.8-2.1 1.9-1.6 1.2.7 2.3 2.5 2.5 4.4.3 1.9-.9.8-1.8.4z"/><path d="m35.2 107.9c.1 1.7.5 3.6-1.2 5.1-1.4 1.2-2.9.8-3.5-.8-.7-2-.4-4.5 1.2-5.9 1.4-1.3 2.5.3 3.5 1.6z"/><path d="m98.1 27.2c.1 1.9.2 3.5-1.7 3.7-1.9.2-3.7-.9-4.4-2.5-.9-2 1-2.9 2.4-3.2 1.6-.5 2.8.9 3.7 2z"/><path d="m106.6 38.9c-1.8-.4-3.6-1.1-4.2-3-.7-2.1 1.2-2.8 2.5-2.9 1.4-.2 3.1.8 3.6 2.6.3 1.5-.5 2.7-1.9 3.3z"/><path d="m104.5 22.1c-2.6.2-6.1-1.9-6.6-3.5-.4-1.1 0-1.9 1.1-2.1 2.2-.3 5.4 1.5 5.9 3.3.4 1.2.3 2.2-.4 2.3z"/><path d="m190.2 294.4c-1-.2-1.8-.8-2.3-2.2-.6-1.7 0-4.7.9-4.5 1 .2 2 1.4 2.3 2.6.6 2 .1 3.5-.9 4.1z"/><path d="m125.7 81.1c-2-.2-3.4-1.3-3.9-3.1-.4-1.8.9-2.6 2.3-2.7 1.5-.2 3.1.7 3.4 2.5.3 1.7-.5 2.9-1.8 3.3z"/><path d="m48.3 31.1c-.2-2 1.2-3.5 2.6-4.5 1.3-.9 3 0 3.5 1.5.7 2-.2 3.8-2 4.6-1.5.6-3.1.1-4.1-1.6z"/><path d="m626.1 197.9c-1 1.5-2.1 2.9-4 3.5-1.9.6-1.7-.7-1.4-1.9.4-1.3 1.5-2.9 3.2-3.4 1.7-.5 2.2.5 2.2 1.8z"/><path d="m248.3 144.7c-1.5-.8-2.6-2.2-2.7-3.9-.2-2 1.2-2.2 2.6-1.6 1.4.5 2 2.4 2.1 3.5.1 1.6-.2 2.8-2 2z"/><path d="m177.4 140.3c.3 1.3.8 3.1-.6 2.9-1.8-.3-2.8-2.5-3.5-4.4-.6-1.6-.2-3 1.1-2.8 1.9.4 2.3 2.6 3 4.3z"/><path d="m585 370.3c-.8 1.6-1.7 2.7-2.8 3.2-1.4.6-1.9 0-1.1-1.8.7-1.5 1.9-2.4 3-2.9 1.2-.6 1.3.2.9 1.5z"/><path d="m29.5 217.1c-1.5 1-3.1 2.4-4.1.5-1-1.9.2-4 1.5-5.4 1.3-1.5 2.7-1.6 3.5.3.7 1.6.1 3.1-.9 4.6z"/><path d="m22.1 232.9c-.5-2.2.5-4.2 1.8-5.7 1-1.2 2.6-2.1 3.2-.5.6 1.5 1 3.6-.8 5.5-1.6 1.7-3 2-4.2.7z"/><path d="m205.6 312.5c-1-.4-2.1-.1-2.6-2-.5-1.8-.3-3.4 1-3.4 1.2 0 2.2 1.4 2.8 3.1.4 1.9-.6 1.9-1.2 2.3z"/><path d="m260.1 306.6c-1.3-1.4-2.8-2.3-3.6-4.8-.4-1.4 0-2.3.9-1.8 1.3.8 2.8 2.2 3.5 4.7.2 1.3-.2 1.7-.8 1.9z"/><path d="m192.2 82.4c-1.8-.7-2.8-2.2-3-3.6-.3-1.6-.1-3.3 1.5-3 1.6.3 2.6 2.3 3 3.8.5 1.6-.3 2.6-1.5 2.8z"/><path d="m216.3 313.9c-1.4-.6-2.3-2.3-2.8-3.8-.5-1.6 0-2.9.9-2.8 1.1.1 2 2 2.3 3.5.4 1.4.7 3.1-.4 3.1z"/><path d="m217 238.4c0 1.5-.1 3-1.4 2.8-1.1-.2-2.3-1.4-2.7-3.2-.4-1.8.2-2.7 1.3-2.5 1.1.2 2.1 1.1 2.8 2.9z"/><path d="m297.5 318.2c0 .9 0 2.3-.9 1.4-1.2-1.3-2.8-2.4-3.4-4.9-.3-1.3.1-2 1-1.6 1 .4 3.1 3.7 3.3 5.1z"/><path d="m76.7 129.4c-1.6.5-3 .3-3.8-1.3-1.1-2.2.3-3.6 1.6-4.6 1.2-.9 2.4 0 3 1.3.8 1.8.4 3.4-.8 4.6z"/><path d="m263.2 152.4c-1.5-1-2.3-2.4-2.6-3.9-.4-2.3 1.2-1.7 2.4-1.3 1.2.4 2.6 1.7 2.6 3.4.1 1.8-1.2 1.8-2.4 1.8z"/><path d="m488.5 167.9c.8-1.6 2.4-1.5 4.1-1.1 1.4.3 2 1.5 1.8 2.6-.3 1.7-1.6 2.5-3.5 2.1-1.6-.5-2-2.1-2.4-3.6z"/><path d="m90.1 61.7c1-.2 2.1.3 2.4 1.6.6 2.3-.4 4.1-2 5.3-.8.7-2 .1-2.6-1.2-.6-1.5.7-5.2 2.2-5.7z"/><path d="m355.4 246.7c-.7 1.2-2 1.2-3.4.7-1.1-.4-1.5-2.1-1.4-3.1.2-1.9 1.7-1.6 2.9-1.2 1.3.4 1.6 2.1 1.9 3.6z"/><path d="m190.6 167.4c.1 1.8.1 3.4-1.3 3.3-1.6-.1-2.4-2.1-3-3.8-.6-1.7-.1-2.7 1.2-2.5 1.3.3 2.4 1.3 3.1 3z"/><path d="m482.5 299c-.5 1.5-1.3 2.7-3 2.3-1.1-.3-1.6-1.5-1.2-2.5.6-1.3 1.1-3.3 2.9-2.8 1.5.3 1.6 1.7 1.3 3z"/><path d="m183.9 31.9c-1.9-.8-3.1-2.5-3.5-4.2-.4-1.5.1-2.9 1.6-2.3 1.7.6 3.3 2.4 3.7 4.4.4 1.7-.4 2.3-1.8 2.1z"/><path d="m236.7 319.2c-.8-.3-1.7-.9-2.1-2.8-.4-2.1.4-2.7 1.5-2.4.8.2 1.7 1 2.1 2.7.4 2.2-.2 2.9-1.5 2.5z"/><path d="m168.2 343.8c-1.3-.2-2.4-1.1-3-2.8-.6-1.6-.6-3.3.5-3.9.9-.4 1.9.6 2.3 1.9.5 1.7.9 3.5.2 4.8z"/><path d="m319.6 93.4c-1.7-1.4-2.4-3.1-2.4-4.7 0-1.2.6-2.1 2.1-1.1 1.6 1.1 3 2.8 2.9 4.6 0 1.6-.7 2.3-2.6 1.2z"/><path d="m180.5 328.9c.1.7 1.4 3 0 3-1.1.1-2.5-1.8-3.2-3.7-.6-1.5-.5-2.9.6-3 1.3-.1 2 1.3 2.6 3.7z"/><path d="m117.3 122.2c-.2 1.7.2 3.9-1.4 4.6-1.2.5-2.4-.8-3-2.3-.6-1.7-.4-3.2.9-3.8 1.1-.6 2.4 0 3.5 1.5z"/><path d="m86.7 203.7c-1.2.5-2.6 1.7-3.7-.4-.9-1.8 0-3.1 1.3-3.9 1.2-.8 2.5-1.3 3.4.7.7 1.4.6 2.9-1 3.6z"/><path d="m26.5 61.4c.1 1.5 1.5 3.4-.8 5.1-1.6 1.2-2.9.7-3.5-.9-.6-1.9-.7-4.2 1.4-5.8 1.5-1 2.2.2 2.9 1.6z"/><path d="m40.4 21.6c1.5-.9 2.7-1 3.1.7.9 3.1-2.2 3.6-3.6 5-1.1 1.1-2.1.1-2.5-1.1-1.1-3 1.6-3.5 3-4.6z"/><path d="m267.1 97.5c0 1.7.6 4.2-1.3 3.4-2.1-.8-2.1-3-2.3-4.4-.2-1.6-.6-4 1.3-3.1 1.9.7 1.8 2.8 2.3 4.1z"/><path d="m416.3 139.6c-1.6-1.2-2.4-2.6-2.2-3.9.2-1.4 1.2-2.4 3-1.5 1.4.7 2.3 2.6 2.2 3.9-.1 1.6-1.5 1.7-3 1.5z"/><path d="m86.3 93.5c-.3-2 .9-3 2.2-3.7 1.4-.7 2.8.2 3.2 1.8.5 2-.9 3.1-2.3 3.6-1 .4-2.3-.1-3.1-1.7z"/><path d="m134.8 216.6c1.3-.2 2.7-.8 3.6 1.6.5 1.3.8 2.7-.6 3-1.6.4-3.3-.7-4.3-2.4-.8-1.5.6-1.8 1.3-2.2z"/><path d="m68.6 107.4c1.2-.2 2.8-1.3 3.5.7.6 1.9 0 3.7-1.8 4.7-1.4.8-2.6.7-3.4-1-1.1-2.2.4-3.3 1.7-4.4z"/><path d="m54.5 48.4c-.5-1.9.1-3.4 1.6-4.2 1.5-.9 3 0 3.5 1.4.6 1.6.6 3.6-1.2 4.5-1.6.7-2.9-.5-3.9-1.7z"/><path d="m613.8 251.3c1.3-.4 2.4-.4 1.6 1.1-1.2 2.4-3.3 2.6-4.9 3.6-1.1.7-1.3-.3-.8-1.3.9-2 2.6-2.8 4.1-3.4z"/><path d="m32.5 139.7c1.7-1.3 3.4-2.4 4.5-.2.7 1.4.6 3.2-1.1 4.3-1.8 1.2-3.7 1.1-4.9-.3-1.1-1.5.6-2.8 1.5-3.8z"/><path d="m152.6 65.9c-2-1-3.8-2.2-4.5-4.7-.3-1.2-.1-2.2 1.3-1.8 2.2.7 3.6 2.6 4.4 4.8.4 1.3-.2 1.7-1.2 1.7z"/><path d="m61.6 176.4c.3 1.3 1.4 2.9-.2 3.8-1.9 1.1-3.4-.3-4.4-2.2-.8-1.5 0-2.8 1.2-3.6 2.1-1.3 2.7.6 3.4 2z"/><path d="m235.2 301.6c.3 1.5 0 2.1-.8 1.4-1.2-1.1-2.8-1.1-3.5-4.1-.3-1.3-.1-2.1.8-1.6 1.5.8 2.9 1.9 3.5 4.3z"/><path d="m179.5 36.3c.2 1.6.1 2.7-1.7 2.2-1.7-.5-2.9-1.6-3.1-3.4-.2-1.4-.4-3 1.4-2.5 1.8.4 3 1.9 3.4 3.7z"/><path d="m26.3 140.6c-1.9 1.1-3.8 1.8-5.1-.2-.7-1-.4-2.5.8-3.4 1.9-1.4 3.6-1.5 4.9.2.7.9.7 2.1-.6 3.4z"/><path d="m44.2 141.9c.6-.3 1.3-.8 2-1.1 1.1-.4 2.7-1.8 2.8.7 0 1.7-.1 3.9-2.4 4.3-.7.1-1.5.2-2.1.1-.9-.1-2 0-2.1-1.4-.2-1.3.9-1.8 1.8-2.6z"/><path d="m201.1 198.9c-1.6-1.1-2.4-3.1-3-4.9-.6-1.5-.1-2.5 1-2.3 1.6.3 2.2 2.1 2.6 3.6.4 1.5.7 3.1-.6 3.6z"/><path d="m75 40.6c.5 2.1-.4 3.5-2 4.3-1.2.6-2.4.3-3-1.2-.7-2-.1-3.5 1.7-4.4 1.4-.5 2.5-.2 3.3 1.3z"/><path d="m278.1 171.6c1.6 1 2.5 2.5 2.6 4.3.1 1.4-.4 2.4-1.9 1.2-1.7-1.3-2.4-3.1-2.5-4.9-.2-1.5.7-1.3 1.8-.6z"/><path d="m471.3 177.9c-1.6-.9-2.5-2.2-2.2-3.4.4-1.7 2.1-1.7 3.9-1.1 1.4.5 1.9 1.6 1.7 2.8-.4 1.9-2.1 1.6-3.4 1.7z"/><path d="m190.3 255.6c1.2.1 2.2.8 2.6 2.6.3 1.4.4 2.8-1 2.6-1.4-.3-2.7-1.5-3.2-3.4-.6-2 1-1.3 1.6-1.8z"/><path d="m125.9 9.2c0 1.2 1.3 3.5-.8 3.7-1.8.1-2.8-1.7-3.3-3.3-.5-1.8-.1-3.4 1.7-3.6 1.7-.1 2.1 1.6 2.4 3.2z"/><path d="m99.8 286.6c.2 1.1 1.5 2.4.1 3.3-1.6 1-2.9-.2-4-1.7-.8-1.3-.2-2.5.7-3.3 1.6-1.5 2.3.3 3.2 1.7z"/><path d="m6.3 154.6c-.6-2.1.4-4.2 1.8-5.9 1.2-1.4 2.4-.9 2.9.3.8 1.7.6 3.7-1 5.5-1.5 1.6-2.7 1.5-3.7.1z"/><path d="m47.3 233.8c-1.4 1.4-2.4 2-3 .4-.8-1.9-1.1-4.1.5-6 1.1-1.4 2.6-.8 3.1.4.6 1.6.6 3.7-.6 5.2z"/><path d="m352.8 227.9c1.4.9 2.6 2.2 2.7 4.1 0 1.3-.6 2.1-1.9 1.1-1.5-1.1-2.9-2.7-3-4.8 0-1.5 1.1-1.2 2.2-.4z"/><path d="m525.6 383.2c-1.1-.3-1.6-.9-1-2.2.8-1.7 2.1-2.6 3.4-2.6.8 0 1.6.6 1 1.8-.7 1.6-2.1 2.7-3.4 3z"/><path d="m62.3 136.5c-1.6 1.2-2.8.6-3.6-1-.9-1.8.1-3 1.4-3.8 1.2-.8 2.7-1.1 3.4.7.7 1.6.6 3.3-1.2 4.1z"/><path d="m87.1 134.8c-1.7.7-2.8 0-3.5-1.5-.8-1.9 0-3.5 1.4-4.2 1-.5 2.7-.4 3.1 1.1.5 1.6.2 3.5-1 4.6z"/><path d="m70.4 79.7c.2 1.3.9 3.3-1 4.4-1.2.7-2.7.4-3.1-1.3-.5-2-.4-4.1 1.6-5.1 1.1-.6 1.9.3 2.5 2z"/><path d="m99.1 70.3c1.4 0 2.8-.3 3.5 1.9.5 1.8.1 2.7-1.6 2.9-1.5.2-3 0-3.7-1.8-.6-1.7.3-2.7 1.8-3z"/><path d="m630.7 235.6c1.2-1.8 2.9-3 4.5-4 1.4-.9 1.5.2 1.1 1.1-.6 1.5-2 3.2-3.7 4-1.6.8-1.9 0-1.9-1.1z"/><path d="m192.3 212.3c-1.5-.8-2.5-2.4-3-4.2-.4-1.5.1-2.2 1.1-2 1.6.3 2.6 2.1 3.1 3.9.5 1.6-.2 2.2-1.2 2.3z"/><path d="m144.8 1.9c1.9.4 3.4.2 3.6 2 .2 1.6.4 3.6-1.9 3.3-1.5-.2-2.8-1.2-3.2-3-.4-1.9.3-2.7 1.5-2.3z"/><path d="m181.9 135.4c-1.3-.4-2.9.2-3.4-2.6-.4-2.1 1-1.9 2.3-1.8 1.3.1 2.5.8 2.9 2.7.5 2-.3 2.4-1.8 1.7z"/><path d="m347.3 351.8c.4-1 .3-2.9 1.8-1.7 1.1.9 1.5 2.3 1.4 3.7-.1 1.6-.6 2.4-1.9 1.5-1.1-.9-1.3-2.1-1.3-3.5z"/><path d="m336.4 88.5c-2-1.4-2.6-3.1-2.6-4.8 0-1.3.7-2.1 2.3-.9 1.5 1.1 3 2.7 2.9 4.4-.1 1.4-.7 2.4-2.6 1.3z"/><path d="m328 275.4c.1 1.5-.2 2.4-1.3 1.8-1.5-1-2-2.9-2.1-4.4-.1-1.3.1-3.1 1.5-2 1.6 1.1 1.4 3.2 1.9 4.6z"/><path d="m317.5 214.3c-.1-1.5.2-2.3 1.4-1.6 1.5.9 2.2 2.4 2.2 4 0 1.5-.3 3.3-1.7 2.4-1.6-1-1.3-3.2-1.9-4.8z"/><path d="m111.6 131.8c.2 1.6.8 3.7-1.2 4.4-1.1.4-2-.2-2.2-1.6-.3-1.9-.7-4.2 1.2-5 1.2-.4 1.8.9 2.2 2.2z"/><path d="m250.7 340.1c-.9-.6-2-2.1-2.6-4.3-.3-1.3.2-1.8.9-1.3 1.3.9 2.4 2.6 3 4.8.4 1.5-.3 1.4-1.3.8z"/><path d="m77.8 194.8c.1 1.4 1.4 3.1-.4 4.3-1.3.8-2.6.4-3.2-1.2-.7-1.7-.4-3.8.9-4.8 1.2-1.1 1.9.6 2.7 1.7z"/><path d="m30.2 122.1c.2 1.5 1.6 3-.4 4.6-1.4 1.1-2.8.7-3.5-.8-.9-1.7-.5-3.8 1-5.3 1.5-1.4 2.1.3 2.9 1.5z"/><path d="m262.4 164.8c.1-1.3.4-2.4 1.8-1.6 1.2.7 2.6 2.1 2.5 3.6-.1 1.3-.5 2.8-2.1 2-1.5-.7-1.8-2.4-2.2-4z"/><path d="m208.7 357.6c.6.2 1.4-.2 1.8 1.5.5 1.9 0 3-1 3.2-.7.1-1.4-.1-1.9-1.8-.4-1.9 0-2.8 1.1-2.9z"/><path d="m247.1 197.1c-.1-1.3-.2-2.7 1.1-2.3 1.5.6 2.4 2.5 2.7 4.2.3 1.4 0 2.9-1.1 2.4-1.6-.7-2.1-2.7-2.7-4.3z"/><path d="m144 93.2c1.3 0 2.9 0 3.5 2.1.4 1.7-.6 2.4-2 2.2-1.3-.2-3-.1-3.7-2.1-.7-2 .8-2.2 2.2-2.2z"/><path d="m192.9 309.2c-.4-1.7-.3-3 .8-3 .8 0 1.9.3 2.3 2 .3 1.6.6 3.7-.7 3.8-.9.1-1.8-1.2-2.4-2.8z"/><path d="m185.5 347c-1 0-1.9.1-2.4-1.8-.5-1.7-.7-3.6.4-4.1.9-.3 1.7.9 2.2 2.3.6 1.8.6 3.1-.2 3.6z"/><path d="m305.2 131c-1.7-1.1-2.9-2.4-3.2-4.3-.3-2 1.2-1.5 2.4-.8 1.2.6 2.4 1.9 2.5 3.5.2 1.5-.3 2.3-1.7 1.6z"/><path d="m67.1 281.4c-1.1-1.7-1.2-2.8-.1-4.1 1.6-1.8 2.8-.8 3.8.6.7 1 .9 2.6-.2 3.6-1.4 1.4-2.7.8-3.5-.1z"/><path d="m192.2 232.6c.1 1.2 1.1 3.3-.4 3.3-1.1 0-2.1-1.1-2.5-2.8-.4-1.7-.2-3.2 1-3.3 1.1 0 1.5 1.5 1.9 2.8z"/><path d="m165.4 203.9c.9.1 2.1-.1 2.6 1.8.4 1.9-.1 3.1-1.6 3.3-1.1.1-2.1-.4-2.5-2.1-.7-2.2.1-3 1.5-3z"/><path d="m312.6 236.8c-1.1-.9-2.1-2.1-2.2-3.7-.1-1.6.9-1.7 2-1 1.1.7 2.2 1.9 2.2 3.6 0 1.4-.6 1.9-2 1.1z"/><path d="m652.9 238.3c-1.2.7-2.3.8-1.6-.8.8-1.7 2.6-2.9 3.9-3.9 1.2-.9 2-.9 1.2.6-.6 1.5-1.8 2.9-3.5 4.1z"/><path d="m5.6 87.2c.6 2 .4 3.6-1.6 5-1.7 1.1-2.6.7-3.1-.8-.7-2.1.5-4 2.1-5.3 1.5-1.2 2.2.1 2.6 1.1z"/><path d="m171.3 41.5c0 1.4.1 3.1-1.9 2.7-1.2-.2-2.4-1-2.6-2.5-.3-1.9.4-3.1 2.3-2.9 1.3.2 2 1.2 2.2 2.7z"/><path d="m183 44.6c.2-1.4.1-3 1.7-2.7 1.7.4 2.6 2.2 2.9 3.5.3 1.5.1 3.1-1.6 2.7-1.6-.4-2.1-2.3-3-3.5z"/><path d="m31 203.6c-.8.7-1.9 1.8-2.7.3-.9-1.7-.6-3.6 1.1-5.2 1.1-1.1 2.3-2.2 3.1-.5 1 1.9.1 3.6-1.5 5.4z"/><path d="m193.4 352.3c.6 1.5.6 2.8-.3 2.8-.8.1-1.9.2-2.6-1.9-.6-1.7-.4-3 .6-3.3.9-.3 1.7.8 2.3 2.4z"/><path d="m531.1 317.3c-1.1-.3-1.4-1.1-.9-2.1.7-1.3 1.5-2.7 3.2-2.6 1 .1 1.8.6 1.1 1.9-.7 1.4-2 2.4-3.4 2.8z"/><path d="m224.4 105.5c1.1.4 2.1 1 2.3 2.7.3 1.9-.5 2.6-2.1 2-1.2-.4-2.3-1.5-2.6-3.1-.6-2.4 1-1.7 2.4-1.6z"/><path d="m284.2 306c1 .7 2 1.4 2.2 3.2.2 1.7-.7 2-1.7 1.4-1-.6-2.1-2.2-2.2-3.8-.2-1.8 1-.9 1.7-.8z"/><path d="m258 252.1c-1.6-.6-2.4-1.5-2.8-3.1-.5-2.4.8-2 1.8-1.8 1 .2 1.6 1.4 1.9 2.8.4 2-.4 2.2-.9 2.1z"/><path d="m121.5 87.1c-.2 1.2.8 3.2-1.1 3.2-1.6.1-2.8-1.4-3.3-2.9-.4-1.6.4-2.7 1.8-2.9 1.5-.3 2 1.2 2.6 2.6z"/><path d="m98.6 140.6c-1.5-.1-3.3.5-4.4-1.7-.6-1.1-.3-2.5.8-2.7 1.6-.3 3.4-.1 4.4 2 .5 1 .3 2-.8 2.4z"/><path d="m55 87.8c.5 1.3.6 2.5-.8 3-1.8.7-3.5.2-4.5-1.5-.6-1.1-.1-2.4 1-3 2-1.1 3.4-.3 4.3 1.5z"/><path d="m316.5 332.2c-1-.7-2-1.3-2.1-3.4 0-1.3.2-2.3 1.3-1.4 1.1.9 2.2 2.4 2.4 4.1.2 1.8-.8 1.2-1.6.7z"/><path d="m514.1 207.9c1.2.6 3 .9 2.5 2.6-.3 1.2-1.5 2-3.1 1.6-1.6-.4-2.6-1.5-2.3-3.1.3-1.5 1.7-1.3 2.9-1.1z"/><path d="m44.6 83.6c.5 1.3.7 2.3-.6 2.9-2.1 1-3.6.1-4.6-1.6-.7-1.2.1-2.7 1.3-3.4 2.2-1.1 3 1 3.9 2.1z"/><path d="m128 304.2c-1.2.4-2.2.2-2.8-1.3-.8-1.7-.8-3.6.1-4.6.9-1 1.9.5 2.5 1.7.7 1.5 1 3 .2 4.2z"/><path d="m18 165.8c1 2 1.1 3.5-.6 5-1.5 1.4-2.7 1.6-3.4-.2-.5-1.5-1.4-3.2.5-5 1.6-1.4 3-1.1 3.5.2z"/><path d="m169.9 257.6c.1 1.3.6 3-.8 3-1.2 0-2.2-1.2-2.5-2.7-.3-1.5-.1-3.2 1.1-3.2 1.1 0 1.7 1.5 2.2 2.9z"/><path d="m144.4 123.8c-1.5-.2-2.9-.9-3.7-2.8-.6-1.5-.1-2.4 1-2.5 1.6-.2 2.8 1 3.4 3 .5 1.1.5 2.1-.7 2.3z"/><path d="m74.8 100.6c-1.6.5-2.6-.1-3.2-1.8-.6-1.6-.5-3.1 1.1-3.7 1.5-.5 2.6.4 3.1 2.1.3 1.4.7 2.8-1 3.4z"/><path d="m288.4 249.4c.2-.9-.1-3.1 1.5-2 .9.6 1.9 2.2 1.9 3.5-.1 1.5-.6 2.5-1.9 1.9-1.1-.5-1.5-1.8-1.5-3.4z"/><path d="m236.4 193.6c-1.3-.9-2.5-2.2-3-4.1-.5-1.8.3-2 1.4-1.6 1.5.5 2.2 2.1 2.6 3.7.3 1.4.1 2.2-1 2z"/><path d="m183.3 71.8c-1.2-.4-2.1-1.2-2.4-2.5-.4-1.9.2-2.8 2-2.5 1.3.3 2.3 1.1 2.6 2.5.4 2.1-1.1 2.2-2.2 2.5z"/><path d="m129 214.6c-1.3.1-2.6-.4-3.3-2.1-.7-1.8 0-2.8 1.2-3.2 1.4-.4 2.2 1 2.7 2.4.5 1.3.6 2.5-.6 2.9z"/><path d="m327.6 244.1c0 1.5-.4 2.3-1.5 1.5-1.3-1-2.2-2.9-2.3-4.5-.1-1.6 1.1-1.1 2.1-.4 1.3.9 1.8 2.2 1.7 3.4z"/><path d="m244.6 252c-.2-1.3 0-2 .8-1.5 1.6.8 2.4 2.9 3 4.8.4 1.4-.4 1.5-1.2 1.2-1.7-.8-1.9-3-2.6-4.5z"/><path d="m124 35.8c.4 1.3.6 2.6-1 2.5-1.8 0-2.7-1.6-3.3-3.1-.7-1.5-.3-2.8 1.1-2.9 2.1-.1 2.4 2 3.2 3.5z"/><path d="m106.4 88.8c0 1.1.9 2.9-.8 3.1-1.6.2-3-1.2-3.8-2.8-.7-1.5.1-2.6 1.4-2.9 1.5-.2 2.5 1 3.2 2.6z"/><path d="m133.4 390.7c.4 1.2 1.5 2.7.3 3.7-.9.7-2.2.6-3.1-1-.8-1.5-.7-3 .2-3.9.9-.9 1.8-.3 2.6 1.2z"/><path d="m41.4 199.1c1-.7 2.3-2.4 3.1-.4.7 1.6.1 3.5-1.2 4.8-1.1 1.1-2.3 1.6-3.1.1-.8-1.5-.3-3 1.2-4.5z"/><path d="m163.3 190c .3 1.3.6 2.8-.7 2.8-1.4 0-2.4-1.5-2.9-3.1-.5-1.5-.3-2.7.9-2.7 1.2 0 2.1 1.3 2.7 3z"/><path d="m292.3 298.1c0-1-.1-2.3.8-1.7 1.5 1.1 2 3.3 2.5 5.2.4 1.4-.4 1.6-1.1 1.1-1.5-.9-1.8-2.8-2.2-4.6z"/><path d="m295 331.9c-.1-1.4 0-2.7 1-2.2.9.5 1.5 2.1 1.7 3.4.2 1.6.1 3.1-.9 2.6-1-.4-1.4-2.3-1.8-3.8z"/><path d="m262.2 61.6c1.6.8 2.8 2 3 3.7.1 1.3-.2 2.4-1.8 1.5-1.6-1-3-2.7-3.3-4.6-.3-1.6 1.1-.9 2.1-.6z"/><path d="m280.9 151.8c0-1.4 1-1.1 1.9-.5 1.6 1 2.9 2.5 3.3 4.7.2 1.4-.5 1.6-1.5.9-1.9-1.3-2.9-3.1-3.7-5.1z"/><path d="m111.4 401.2c-.7-1.5-.9-3 0-4.2.9-1.1 2-1.2 2.8.3.7 1.2 1 2.6 0 3.7-.8 1-1.8 1.4-2.8.2z"/><path d="m355.9 137.7c.4-1 .4-3 2.6-1.7 1.4.8 2 2 1.7 3.1-.4 1.4-.9 3-3 1.8-1.3-.6-1.5-1.9-1.3-3.2z"/><path d="m39.8 129.9c-1.7.8-2.8.1-3.4-1.4-.6-1.6.5-2.9 1.7-3.8 1.1-.8 2.4-1.1 2.9.5.5 1.7.3 3.4-1.2 4.7z"/><path d="m525.8 182.3c-.7 1-1.6 1.9-3.2 1.5-1.6-.5-1.9-2-1.6-3.2.3-1.3 1.6-1.6 3-1.1 1.4.5 2.1 1.4 1.8 2.8z"/><path d="m243.2 240.3c-1.1-.8-1.9-2-2.1-3.4-.2-1.3-.4-2.9.9-2.6.9.2 1.8 1.1 2 2.6.2 1.6.3 3.1-.8 3.4z"/><path d="m141.7 78.3c-.2 1.1.7 3.2-1.2 2.9-1.3-.2-2.7-1.3-3-3-.4-1.8.5-2.8 2-2.7 1.3.1 1.9 1.4 2.2 2.8z"/><path d="m217.2 73.2c-.1-1.3.1-2.4 1.5-1.9 1.4.5 2.4 1.8 2.6 3.3.2 1.5.1 3.2-1.5 2.5-1.3-.5-2.3-2.3-2.6-3.9z"/><path d="m79.3 155.2c.1.6.9 2.1-.7 2.9-1.5.8-2.7.2-3.4-1.5-.6-1.6-.2-3.1 1.2-3.8 1.3-.6 2.3.2 2.9 2.4z"/><path d="m620 288c-.9 1.3-1.4 3-3.3 4-1.2.6-1.3 0-.7-1.2.8-1.7 2.1-3.4 3.8-4.4 1-.6.7.5.2 1.6z"/><path d="m141 245.4c.4 1.6 1 2.9-.2 3.3-1.5.4-2.6-1.1-3.4-2.7-.6-1.2-.3-2.2.6-2.6 1.4-.6 2.3.8 3 2z"/><path d="m218.3 336.5c.4 1.6.8 3.1-.1 2.9-1.2-.2-2.1-2.3-2.8-4-.7-1.6-.3-2.3.5-2.3 1.3.1 1.7 2.2 2.4 3.4z"/><path d="m229.3 63.8c-.1-1.8 1.2-1.6 2.5-1.2 1.8.7 2.8 2.5 3.1 4.3.2 1.2-.4 1.8-1.6 1-1.6-1-3.3-2-4-4.1z"/><path d="m145.4 363.4c-1 .6-1.7 0-2.3-1.4-.7-1.6-1-3.2.3-3.9 1-.6 1.9.3 2.4 1.7.5 1.5.4 2.8-.4 3.6z"/><path d="m421.5 340.9c-1-.7-1.7-1.7-1.5-3 .2-1.1.8-2.2 2-1.8 1.3.5 1.6 1.9 1.6 3.3-.1 1.6-1 1.8-2.1 1.5z"/><path d="m322 248.9c0 1.3-.4 1.8-1.4 1.1-1.7-1.2-2.1-3.1-2.3-4.8-.1-1.3.5-1.5 1.5-.7 1.4 1.1 1.8 2.8 2.2 4.4z"/><path d="m117.7 112.1c1.9-.4 2.9.6 3.6 2.4.5 1.4.1 2.4-1.2 2.4-1.5 0-2.9-.7-3.6-2.6-.7-1.8.5-2 1.2-2.2z"/><path d="m134.1 378c .8 1.9 1.5 3.1.5 3.9-1 .8-2 .9-2.9-.9-.7-1.4-1-2.7.1-3.5.9-.7 1.8-.6 2.3.5z"/><path d="m167.1 26.9c-1.7-.4-2.7-1.7-3-3-.3-1.6-.2-3.3 1.6-3.1 1.4.2 2.1 1.6 2.3 2.9.3 1.4.8 3.1-.9 3.2z"/><path d="m250.8 174.4c-.3-1.3-.2-2.4.9-1.9 1.8.9 2.3 3.1 2.8 4.8.4 1.3-.1 1.6-1 1.3-1.9-.7-2.2-2.5-2.7-4.2z"/><path d="m99 165.1c.5 1.8.6 3.1-1 3.4-1.5.3-2.7-.5-3.3-2.2-.5-1.6.2-2.6 1.5-3 1.6-.5 2.3.5 2.8 1.8z"/><path d="m101.7 125.8c.6 2.1-.3 3.2-1.8 3.7-1.3.5-2.1-.5-2.5-1.8-.6-1.9.1-2.9 1.7-3.4 1.2-.3 2.2-.1 2.6 1.5z"/><path d="m122.4 309.2c.7-.3 1.7-1.3 2.5.3.8 1.8.3 3.2-.8 4.2-.9.7-1.6.6-2.3-.8-.8-1.6-.7-2.9.6-3.7z"/><path d="m140.9 286.4c-1.3.3-2.4-.4-3-2.1-.6-1.6-.2-2.8.9-3.3 1.1-.5 1.7.6 2.1 1.9.3 1.3 1.4 2.9 0 3.5z"/><path d="m292.9 81.7c-.1-1.4.4-2.3 2.1-1.3 1.4.8 2.3 2.4 2.3 3.7 0 1.3-.5 2.5-2 1.7-1.5-.7-2.2-2.4-2.4-4.1z"/><path d="m23.9 243.8c.5 1.1 1.1 2.6-.2 4.2-1.3 1.5-2.8 1.5-3.8.3-1.1-1.3-.2-3.1.7-4.5 1.4-2.3 2.3-1.2 3.3 0z"/><path d="m39.9 159c-.8-1.6-.5-2.8.7-3.8 1.7-1.5 2.8-.5 3.6.9.6 1.1 1 2.5-.5 3.5-1.6 1.3-2.9.7-3.8-.6z"/><path d="m116.5 307.6c.4 1.1 1.1 2.6 0 3.2-1.1.6-2.6.3-3.4-1.5-.7-1.4-.4-2.8.6-3.5 1.3-.9 2.1.3 2.8 1.8z"/><path d="m70.5 182.9c-1.4.6-2.7.3-3.5-1.3-.8-1.5-.1-2.8 1.1-3.6 1.4-.9 2.5-.6 3.2 1.1.4 1.4.7 2.8-.8 3.8z"/><path d="m416.7 176.6c.4-1.1 1.3-1.7 2.5-.9 1.2.7 2.7 2.2 2.3 3.6-.3 1.1-1.3 1.8-2.7 1.1-1.7-.8-1.8-2.4-2.1-3.8z"/><path d="m316.5 135.3c-.1-1.4.7-1.8 1.7-1.2 1.4.8 2.4 2.4 2.5 3.9.1 1.3-.1 2.7-1.8 1.7-1.5-1.1-1.8-2.9-2.4-4.4z"/><path d="m167.7 234.9c-1.2-.1-2-1.1-2.4-2.6-.4-1.5-.4-3 .9-3 1.2 0 1.9 1.4 2.3 2.8.3 1.4.3 2.6-.8 2.8z"/><path d="m106.8 63.3c0 .8 1.1 2.7-.8 2.9-1.5.2-2.8-1.2-3.5-2.7-.8-1.7 0-2.6 1.3-2.8 1.3-.3 2.5.3 3 2.6z"/><path d="m219.6 258.9c-1.5-.7-2.2-2.4-2.8-4.1-.5-1.4-.1-2 .7-1.8 1.4.3 2.2 1.9 2.8 3.7.6 1.5-.1 1.8-.7 2.2z"/><path d="m442.9 261.8c1.1.9 2.6 1.6 2.4 3.2-.1 1.4-1.2 1.7-2.4 1-1.3-.8-2.6-2.2-2.4-3.9.2-1.4 1.7-.2 2.4-.3z"/><path d="m175.5 168.1c-1.3-.5-2.4-1.4-2.8-3.1-.4-1.6.1-2.6 1.4-2.4 1 .1 2 1 2.2 2.5.1 1.3.5 2.9-.8 3z"/><path d="m86.9 20.5c.2 1.3.2 2.7-1.3 2.9-1.7.2-3.4-.5-4.2-2.3-.7-1.4.3-2 1.5-2.2 1.6-.2 3.2-.5 4 1.6z"/><path d="m137.7 255.4c.5 1.6.6 2.9-.6 3.4-.8.3-1.9.5-2.4-1-.5-1.4-.7-3 .4-3.6.8-.6 1.8-.3 2.6 1.2z"/><path d="m200.2 328.7c-1-.2-1.8-.7-2-2-.3-1.6-.8-3.7.5-3.9.7-.1 1.6.9 1.9 2.4.3 1.6.3 3-.4 3.5z"/><path d="m111.7 80.5c.2 1 .8 2.6-.8 2.6-1.5.1-2.8-1-3.4-2.7-.5-1.4-.3-2.4 1.1-2.6 1.7-.2 2.5.8 3.1 2.7z"/><path d="m167.8 109.1c-.9-.3-2.3-.7-2.8-2.7-.3-1.4.2-2.4 1.6-2.1 1.4.4 2.6 1.4 3.1 3.3.4 1.5-.2 1.9-1.9 1.5z"/><path d="m118.8 246.6c-1 .3-2 .3-2.7-1.3-.6-1.6-.4-2.9.7-3.7 1-.8 1.8-.2 2.3 1.3.6 1.4 1 2.8-.3 3.7z"/><path d="m48.7 103.4c-1.6 1-2.7.4-3.3-1.1-.7-1.6.3-2.7 1.5-3.6 1.1-.8 2.3-1.3 2.9.3.5 1.6.6 3.2-1.1 4.4z"/><path d="m147.1 348c .5 1.3 1.4 2.9.2 3.7-.9.6-2 0-2.7-1.6-.7-1.6-.6-2.9.4-3.6.8-.6 1.5.1 2.1 1.5z"/><path d="m102.4 399c-.9-1.5-.9-3.3.1-4.8.7-1.1 1.6-1 2.2.2.7 1.5 1.4 3.3 0 4.9-.7.7-1.4 1.2-2.3-.3z"/><path d="m306.2 224.6c-.8-.6-2-1.3-2-3 0-1.4.4-2.2 1.8-1.4 1.3.8 2.1 1.8 2.1 3.6 0 1.4-.5 1.7-1.9.8z"/><path d="m253.7 106.7c-.1.9 0 2.4-1.5 1.7-1.5-.6-2.3-2.3-2.5-3.8-.2-1.3.1-2.4 1.6-1.7 1.4.7 2.2 1.8 2.4 3.8z"/><path d="m367.2 152.1c-.4 1.2-.9 2.4-2.7 1.4-1.4-.8-1.6-2.3-1.6-3.4 0-1.5.8-2 2.4-1 1.2.7 2.1 1.5 1.9 3z"/><path d="m172.1 126.2c-1.1-.4-2.3-.6-2.5-2.5-.2-1.5.2-2.6 1.7-2.3 1.4.3 2.1 1.5 2.5 3 .4 1.7-.4 2-1.7 1.8z"/><path d="m20.5 45.9c.4 1.4.6 3-1.1 4-1.5.9-3.2 1.5-4-.5-.7-1.7.2-3.1 1.7-4.2 1.6-1.2 2.7-.7 3.4.7z"/><path d="m588.1 379.8c-.8 1.2-1.5 2.8-2.7 3.5-1 .6-1-.1-.4-1.5.7-1.5 1.9-2.8 2.9-3.5 1.1-.8.7.2.2 1.5z"/><path d="m173 248.5c.2 1.3.8 3-.5 3.3-1 .2-1.9-.3-2.4-2-.5-1.5-.4-2.9.6-3.2 1-.4 1.8.5 2.3 1.9z"/><path d="m36.6 232.7c-1.3.8-2.6 1.6-3.3-.2-.7-1.6-.1-3 1-4.3 1.3-1.6 2.3-1.3 2.9.2.6 1.2.6 2.7-.6 4.3z"/><path d="m473.2 160c .3-.8.3-2.5 2-1.7 1.7.7 2.3 2.4 2.2 3.9-.1 1.4-1.3 2-2.9 1.3-1.5-.8-1.6-2.1-1.3-3.5z"/><path d="m259.3 201.5c0-1.6 1-1.4 2.1-1 1 .4 1.9 1.7 2 3 .2 1.6-.6 2-1.8 1.3-1-.6-1.9-1.7-2.3-3.3z"/><path d="m299.4 196.1c-1.3-.8-2-2-2.1-3.3-.2-1.6.6-1.9 1.8-1.2 1 .6 2.3 1.6 2.5 3.2.1 1.9-1.3 1.3-2.2 1.3z"/><path d="m158.1 284.4c1.3-.5 2.2.3 2.7 1.8.6 1.8.3 2.9-.9 3.3-1 .4-1.6-.6-2.1-1.9-.6-1.7-.5-2.9.3-3.2z"/><path d="m218.9 282.3c-.9-.2-1.9-.9-2.3-2.7-.3-1.4-.3-2.6.8-2.3 1 .3 1.9 1.5 2.4 3.1.5 1.4.2 2.2-.9 1.9z"/><path d="m376.3 237.8c-.4 1.3-.7 2.4-2.2 1.3-1.5-1.1-2.4-2.8-2.4-4.4 0-1.7 1.5-.5 2.5.1.9.7 2.1 1.4 2.1 3z"/><path d="m215.7 262c .3 1.7.5 3-.9 2.7-1-.2-1.8-.7-2.3-2.5-.4-1.8.1-2.4 1.1-2.4.9 0 1.8.8 2.1 2.2z"/><path d="m587.4 353c-1.8 1-1.9.3-1.4-.8.6-1.4 1.6-2.7 2.8-3.4 1-.6 1.5-.4.9 1-.6 1.5-1.5 2.8-2.3 3.2z"/><path d="m283.4 241.4c-.8-.5-1.5-1.6-1.6-3.3-.1-1.2 0-2.2 1.2-1.4 1.5 1 2.1 2.6 2.3 4.4.2 1.4-.6 1-1.9.3z"/><path d="m241 333.9c.2 1.1.6 2.7-.5 2.4-1-.3-1.7-1.7-2.1-3.3-.4-1.5-.3-2.5.7-2.3 1 .3 1.4 1.7 1.9 3.2z"/><path d="m214.7 136.7c-1.2-.8-2.6-1.4-2.9-3.2-.3-1.5.7-1.8 1.8-1.5 1.2.3 2.3 1.4 2.6 2.9.4 1.6-.5 1.8-1.5 1.8z"/><path d="m403.8 152.3c.3-.8.6-2.1 2-1.2 1.6 1.1 2.2 2.8 2 4.2-.2 1.1-.8 2.1-2.4 1-1.6-1.2-1.6-2.6-1.6-4z"/><path d="m337.8 205.4c.2-1.3.6-2.5 1.8-1.8 1.2.7 2 2.5 2 4 0 1.4-.6 1.9-1.9 1-1.1-.7-1.8-1.8-1.9-3.2z"/><path d="m243.2 150.7c-1.2-.9-2.3-2-2.6-3.7-.2-1.5.3-2.3 1.5-1.7 1.3.6 2 2.1 2.2 3.5.3 1.3.1 2.2-1.1 1.9z"/><path d="m109.1 171.8c.5 1.1.7 2.5-.4 2.7-1.3.3-2.8-.2-3.6-2.1-.6-1.4-.3-2.4.9-2.8 1.5-.7 2.4.6 3.1 2.2z"/><path d="m44.7 39.8c1.5-1 2.6-.6 3 .9.5 1.5.6 3-1.3 3.8-1.4.6-2.6.8-3.4-.7-1-2.1.6-3.1 1.7-4z"/><path d="m135.9 129.8c-.4-1.7.3-2.4 1.5-2.6 1.2-.1 2.4.3 2.7 2.1.2 1.3.2 2.6-1.1 2.8-1.5.1-2.4-.9-3.1-2.3z"/><path d="m68.3 192.9c.3 1 1.1 2.2-.2 3-1.5.9-2.9.5-3.8-1.1-.6-1.1-.6-2.3.6-3.1 1.4-1 2.6-.6 3.4 1.2z"/><path d="m148.1 47.9c-1.4-.8-2.9-1.6-3.2-3.1-.4-1.6.7-2.4 2-2.3 1.4.1 2.1 1.5 2.3 2.7.2 1.2.3 2.6-1.1 2.7z"/><path d="m95.2 176.1c.2 1.2.9 2.7-.4 3.5-1.2.7-2.5.2-3.2-1.3-.7-1.4-.4-2.7.7-3.5 1.1-.7 2.1-.3 2.9 1.3z"/><path d="m116.4 68.5c.4 1.6.3 2.9-1 3.2-1.2.2-2.7-.3-3.1-1.9-.4-1.5.2-3.1 1.6-3.5 1.3-.3 2 1.2 2.5 2.2z"/><path d="m320.8 265.6c-1.5-1-2.5-2-2.6-3.7-.1-1.3.5-2 1.6-1.4 1.2.7 1.9 2.1 2 3.7.1 1.2-.3 1.9-1 1.4z"/><path d="m114.5 18.8c-.2-1.3-.4-2.7 1.4-2.7 1.3 0 2.8.2 3.3 1.9.5 1.5.1 2.9-1.5 3-1.5 0-2.7-.5-3.2-2.2z"/><path d="m106.7 239.9c-.5-1.3-.7-2.6.4-3.2 1.2-.7 2.4-.3 3.2 1.4.6 1.2.8 2.4-.4 3.1-1.3.7-2.3.2-3.2-1.3z"/><path d="m252.1 268.9c-.2-1.6-.3-3.1 1-2.4.9.5 1.9 1.5 2 3.1.1 1.4.1 2.9-1.2 2.4-1.2-.5-1.5-2-1.8-3.1z"/><path d="m175.5 99.9c.3 1.3.5 2.6-1 2.2-1.4-.4-2.4-1.7-2.8-3.3-.3-1.5 0-2.6 1.3-2.4 1.7.3 1.9 2.1 2.5 3.5z"/><path d="m125.6 134c-1.6-.2-3-.7-3.7-2.6-.5-1.3-.3-2.2.9-2.4 1.6-.2 2.9.5 3.5 2.5.3 1.2.3 2.2-.7 2.5z"/><path d="m184.5 252.1c-1.2-.5-2.2-1.1-2.8-2.8-.5-1.5-.3-2.5.8-2.6 1.1-.1 1.9.9 2.3 2.4.4 1.2.6 2.5-.3 3z"/><path d="m150.4 330c-.9.6-1.7.1-2.4-1.4-.6-1.6-.2-2.6.7-3 .9-.5 1.8.2 2.4 1.6.7 1.6.4 2.6-.7 2.8z"/><path d="m253.5 122.8c-1.1-.8-2.2-1.9-2.3-3.2-.1-1.3.2-2.6 1.7-2 1.3.6 2.1 2.2 2.3 3.6.2 1.5-.3 2.1-1.7 1.6z"/><path d="m387.1 176.6c-1.5-1-2.5-2.2-2.5-3.9 0-1.3.6-1.8 2-.9 1.5 1 2.3 2.3 2.3 3.8-.1 1.2-.7 1.6-1.8 1z"/><path d="m383.4 187.6c.2-1.1.5-2.2 2-1.2 1.1.7 1.9 2 1.7 3.2-.2 1.3-.6 2.5-2.1 1.7-1.3-.8-1.5-2.3-1.6-3.7z"/><path d="m250.6 91.3c-1.5-1-2.3-2.4-2.6-3.7-.3-1.5.2-2.2 1.6-1.6 1.2.5 2.2 1.6 2.4 3.1.2 1.4-.3 2.2-1.4 2.2z"/><path d="m174.2 302.1c-.4-1.6-.4-2.8.7-3 1-.2 1.8.9 2.3 2.3.5 1.4.6 2.6-.5 2.8-1 0-1.8-.7-2.5-2.1z"/><path d="m36.2 184.1c.6 1.2.9 2.4-.4 3.7-1.4 1.4-2.7 1.5-3.7 0-1-1.4-.3-2.4.8-3.6 1.2-1.3 2.4-1.8 3.3-.1z"/><path d="m249.5 213.3c-.1-1.2-.4-2.7.9-2 1.2.7 2 2.2 2.4 3.7.3 1.4-.1 2.1-1.1 1.8-1.3-.5-1.8-2-2.2-3.5z"/><path d="m82.5 146.3c-1.4.5-2.5-.1-3.1-1.8-.5-1.4-.3-2.6.9-3.2 1.3-.7 2.4-.1 2.9 1.4.5 1.3.8 2.7-.7 3.6z"/><path d="m112.8 94.6c1.4-.1 2.7-.1 3.2 1.6.4 1.4.3 2.8-1.2 2.9-1.3.1-2.7-.6-3.3-2.2-.6-1.6.3-2.1 1.3-2.3z"/><path d="m156.1 307.1c.3 1.2.7 2.7-.3 2.9-1 .2-2.2-.6-2.9-2.3-.5-1.3-.3-2.2.5-2.5 1.1-.5 2 .3 2.7 1.9z"/><path d="m277 230c-1-.6-1.9-1.9-2-3.5-.1-1.3.3-2 1.4-1.2 1.1.8 2.1 2 2.3 3.7 0 1.4-.5 1.7-1.7 1z"/><path d="m342.2 324.6c0-1.1.1-2.5 1.3-1.6 1.1.8 1.6 2.4 1.7 3.9.1 1.3-.2 2.1-1.2 1.5-1.3-.8-1.8-2.1-1.8-3.8z"/><path d="m269.1 347.7c-.2-1.7.1-2.5 1.1-2.2.8.2 1.3 1.3 1.5 2.5.4 1.9-.1 2.5-1.1 2.2-.7-.2-1.2-1.2-1.5-2.5z"/><path d="m289 71.4c-.4 1-.2 2.7-2.1 1.6-1.4-.8-2.4-1.8-2.5-3.4-.1-1.4.6-2 2-1.3 1.2.6 2.2 1.6 2.6 3.1z"/><path d="m267.8 255.3c-1.1-.6-1.7-1.7-1.9-3.1-.2-1.5 0-2.5 1-2.1.8.4 1.8 1.4 2 2.9.2 1.5-.1 2.5-1.1 2.3z"/><path d="m176.3 347.8c.3 1.1 1 2.8-.1 2.8-1 0-2.2-1.1-2.9-2.8-.5-1.2-.3-2.2.4-2.4 1-.4 1.9.8 2.6 2.4z"/><path d="m271.7 108.6c-.1-1.5 0-2.6 1.3-2 1.8.8 2.5 2.6 2.7 4.2.2 1.2.1 2.4-1.3 1.8-1.7-.8-2.1-2.7-2.7-4z"/><path d="m139.9 36.9c.2 1.5.3 2.8-1.2 2.5-1.7-.3-2.6-1.9-3.2-3.4-.4-1.2-.1-2.1 1.2-2.1 1.8.1 2.5 1.7 3.2 3z"/><path d="m130.5 150.6c-1.5.1-2.5-1.1-3-2.5-.5-1.4-.4-3 .9-3.4 1.2-.3 2 .9 2.3 2.2.4 1.4 1 2.9-.2 3.7z"/><path d="m641.4 331.9c-.7 1.4-1.4 2.6-2.2 3.6-1 1.3-1.6 1.8-.7-.1.6-1.2 1.6-2.8 2.4-3.8 1.1-1.4 1.3-1.3.5.3z"/><path d="m164.2 265.4c1-.2 1.9.2 2.4 2 .4 1.5.4 2.6-.8 2.6-1.2 0-2-.7-2.6-2.4-.5-1.6.1-2 1-2.2z"/><path d="m125.2 374.4c.7 1.5.7 2.7-.1 3.5-.9.8-1.9 1.1-2.8-.6-.8-1.5-.6-2.6.4-3.5 1-.9 1.8-.4 2.5.6z"/><path d="m108 281.2c-.4-1.6-.4-3.1.7-4 1-.9 2-.1 2.7 1.2.7 1.4.4 2.5-.5 3.1-.9.7-2 1.1-2.9-.3z"/><path d="m104.5 252.3c-.3-1.5-.6-3.1.7-3.9 1.2-.8 2 .3 2.6 1.6.6 1.3.6 2.5-.5 3.1-.9.5-2 .8-2.8-.8z"/><path d="m191.1 363.6c-1.3.4-2-.4-2.6-1.9-.6-1.6-.3-2.5.5-2.7.7-.1 1.5 0 2.1 1.6.5 1.5.5 2.7 0 3z"/><path d="m178.9 116.5c.1 1.2.4 2.7-1.1 2.4-1.2-.2-2.3-.9-2.8-2.6-.5-1.5-.3-2.5 1.2-2.4 1.2.2 2.1.9 2.7 2.6z"/><path d="m224.1 313c-.5-2 0-2.5 1-2.2.8.2 1.5.8 1.9 2.4.4 1.7 0 2.3-.9 2.2-.9-.1-1.7-1.2-2-2.4z"/><path d="m31.5 156.8c-1.1.8-2.3 1.3-3 .1-1-1.7.3-3.4 1.3-4.8.9-1.3 1.9-1.3 2.6-.2 1 1.7.3 3.3-.9 4.9z"/><path d="m103.4 145.5c-.6-1.7-.1-2.9 1.2-3.3 1.1-.4 2.1 0 2.6 1.5.5 1.6.3 2.8-1.2 3.2-1.1.3-2.1.2-2.6-1.4z"/><path d="m129.3 25.8c.3 1.7-.4 2.5-1.9 2.3-1.2-.1-2.6-.2-3-1.7-.4-1.8 1-2.5 2.3-2.8 1.4-.4 2 1.2 2.6 2.2z"/><path d="m230.3 140.4c.1 1.6 0 2.7-1.2 2.5-1.2-.3-2.1-1.7-2.5-3.2-.4-1.6.2-2.3 1.4-2 1 .3 1.8 1.6 2.3 2.7z"/><path d="m319.8 233.7c-1.3-.8-2-2-2.2-3.7-.1-1.4.4-1.9 1.5-1.2 1.2.8 2.1 2.1 2.2 3.7.1 1.4-.3 2.1-1.5 1.2z"/><path d="m307.3 240.1c-1-.9-2-2-2.2-3.5-.1-1.4.4-1.7 1.5-1.2 1.1.6 2 1.7 2.3 3.2.2 1.6-.7 1.7-1.6 1.5z"/><path d="m20.2 80c-1.4.7-2.7.8-3.4-.5-.7-1.3-.2-2.6 1.2-3.6 1.2-.9 2.7-1.8 3.5-.3.8 1.5-.2 3-1.3 4.4z"/><path d="m265.8 184.1c-1.1-1-2.3-2.3-2.4-3.8-.2-1.5 1-1.3 2.1-.7 1 .6 2 1.7 2.1 3.1 0 1.2-.5 2-1.8 1.4z"/><path d="m42.6 309.3c-.7-1-1.3-2.1-.1-3.7 1.2-1.6 2.4-1.5 3.2-.1.6 1 .9 2.1-.1 3.5-1.1 1.4-2.2 2.3-3 .3z"/><path d="m154 156c .4 1.3 0 1.8-.9 1.8-1.4 0-2.6-1-3.2-2.6-.6-1.4.1-1.9 1.1-1.9 1.5-.2 2.4 1 3 2.7z"/><path d="m31.5 49.1c.4 1.6.2 2.9-1.3 3.8-1.5.9-2.7.6-3.4-.8-.6-1.3-.1-2.7 1.3-3.5 1.2-.7 2.6-1 3.4.5z"/><path d="m106 387c-1.1.7-2 .4-2.5-.9-.6-1.4-.4-2.9.5-3.8.8-.8 1.8-.7 2.4.7.8 1.5.2 2.8-.4 4z"/><path d="m41.2 264.2c-1.1 1.3-2.1 1.1-2.9-.2-.8-1.3-.5-2.8.5-4 1-1.2 2.2-2.2 3-.4.7 1.5.8 2.9-.6 4.6z"/><path d="m466.5 295.1c-1.2-.8-1.4-1.9-1.1-3.1.3-1.1.7-2 2-1.3 1 .6 1.9 1.6 1.5 2.9-.3 1.1-1.1 1.8-2.4 1.5z"/><path d="m144.3 223.2c1.1-.3 2.2-.1 2.8 1.5.5 1.3.4 2.5-.7 2.6-1.1.2-2.3-.1-3-1.8-.7-1.5.1-2 .9-2.3z"/><path d="m567.2 311.4c-.9-.2-1.7-.5-1-2 .6-1.2 1.6-2.2 2.8-2.2 1.1 0 1.3.8.8 2.1-.5 1.2-1.4 1.9-2.6 2.1z"/><path d="m483.9 173.1c-.4 1.4-1.7 1.1-2.8.6-1.2-.5-2.6-1.3-2.4-2.8.2-1.2 1.2-1.5 2.5-1 1.4.8 2.5 1.8 2.7 3.2z"/><path d="m166.1 88.9c.2 1.3-.1 2.3-1.4 2-1.3-.3-2.7-1-3.1-2.8-.4-1.5.5-1.7 1.5-1.5 1.1.2 2.4.4 3 2.3z"/><path d="m59.4 279.3c-1.1 1.1-2.3 1.7-3.3.4-.8-1.2-.4-2.6.7-3.7 1-1 2.1-1.9 3-.4.7 1.1.7 2.4-.4 3.7z"/><path d="m220.6 132.1c-1.3-.7-2.3-1.7-2.7-3.2-.4-1.7.3-2.2 1.4-1.9 1 .3 2.1 1.1 2.5 2.6.3 1.5 0 2.6-1.2 2.5z"/><path d="m143.2 237.9c-1 .1-2.1-.1-2.7-1.7-.5-1.3-.3-2.4.7-2.7.9-.3 1.8-.4 2.4 1.2.7 1.5.6 2.6-.4 3.2z"/><path d="m65.1 25.4c-.4-1.6.5-2.2 1.7-2.4 1.5-.4 2.9-.2 3.5 1.7.4 1.4.3 2.6-1.3 2.8-1.8.2-3-.7-3.9-2.1z"/><path d="m392.5 315.5c-1-.9-1.5-1.9-1.3-3.1.2-1.6 1.1-1.5 2.2-.8.7.5 1.5 1.3 1.3 2.3-.3 1.3-.9 2.2-2.2 1.6z"/><path d="m160.8 33.9c-1.9-.6-3.2-2.3-4-4-.6-1.4.6-1.5 1.7-1.4 1.6.2 2.8 1 3.1 2.9.1 1 1 2.7-.8 2.5z"/><path d="m276.4 126.2c.1 1.5.3 2.9-1.3 2.1-1.3-.7-2.1-2-2.2-3.5-.1-1.4 0-2.4 1.6-1.5 1.2.8 1.9 1.8 1.9 2.9z"/><path d="m50.6 57.3c1.2-.3 2.7-1 3.2.9.5 1.5-.4 2.8-1.8 3.3-1.3.5-2.7.6-3.3-1.1-.5-1.7.5-2.6 1.9-3.1z"/><path d="m198.2 361.2c-.4-1.6-.1-2.3.6-2.4.8-.1 1.8.7 2.4 2.4.4 1.2.4 2.3-.3 2.2-1-.1-2-.5-2.7-2.2z"/><path d="m6.8 57.2c.5 1.3.5 2.6-1.1 3.6-1.8 1.2-3.1.7-3.7-1.1-.5-1.5 0-2.8 1.5-3.7 1.7-1.1 2.8-.5 3.3 1.2z"/><path d="m200.3 242.2c0 1.2.4 2.9-.7 2.7-1-.2-2.1-1.4-2.5-3-.4-1.5.3-2.2 1.2-2.2 1-.1 1.5 1.3 2 2.5z"/><path d="m351.6 109.4c1.2.9 2.4 1.9 2.1 3.2-.3 1.2-1.2 1.6-2.8.4-1.3-1-1.9-2.2-1.9-3.5 0-1.6 1.3-.9 2.6-.1z"/><path d="m65.7 148.8c1-.6 2-1.2 2.7.5.6 1.4.7 2.8-.8 3.6-1.3.7-2.7.7-3.4-1-.7-1.6.4-2.4 1.5-3.1z"/><path d="m191.1 23.6c0 1.1-.1 2.3-1.3 1.8-1.5-.6-3.1-1.7-3.4-3.7-.2-1.4.7-1.6 1.8-1.1 1.3.5 2.5 1.4 2.9 3z"/><path d="m618.8 195.3c-1-.2-2.2-.3-1.5-1.7.5-1.2 1.5-2.3 3.1-2.6 1.8-.4 1.7.5 1.1 1.8-.5 1.1-1.1 2.1-2.7 2.5z"/><path d="m246 297.4c0-1.2-.2-2.8 1-2.3 1.1.5 1.5 1.9 1.8 3.3.3 1.4 0 2.2-.9 1.7-.9-.4-1.6-1.2-1.9-2.7z"/><path d="m213.4 318c .2 1.2.5 2.9-.3 2.9-.9 0-1.8-1.6-2.2-3.1-.4-1.4-.3-2.6.7-2.5.9 0 1.4 1.3 1.8 2.7z"/><path d="m175.2 192.7c-.9-.2-2-.2-2.5-1.8-.5-1.5-.1-2.8 1-2.9 1.2-.1 2 1.3 2.5 2.7.3 1.3 0 2-1 2z"/><path d="m239.6 76c-.2-1.6.4-2.2 1.9-1.4 1.5.7 2 2 2.1 3.2.1 1.3-.4 2-1.8 1.2-1.2-.6-2.2-1.6-2.2-3z"/><path d="m543.1 339.1c-.7-.3-1.7-.5-1.1-1.8.6-1.5 1.8-2.2 3.1-2.3 1.1-.1 1.1.7.7 1.7-.5 1.3-1.4 2.3-2.7 2.4z"/><path d="m222.2 356.1c-1-.3-1.8-1.2-2.3-2.8-.5-1.5-.3-2.5.4-2.7.8-.2 1.5 1.1 2 2.5.4 1.4.7 2.7-.1 3z"/><path d="m206.9 255.5c-.7-.1-1.6-.6-2-2.4-.4-1.7.2-2.1 1.2-2 .9.1 1.7.8 2.1 2.3.5 1.7 0 2.3-1.3 2.1z"/><path d="m238.8 116.5c-1.5-.9-2.4-2.4-2.7-3.9-.3-1.5.6-1.6 1.8-1.1 1.2.6 2.4 1.5 2.5 3.2-.1 1.3-.2 2.4-1.6 1.8z"/><path d="m591.1 363.4c-1 .5-1.7.9-1.1-.6.7-1.5 1.7-2.7 3-3.5 1-.7.9.1.5 1.1-.6 1.4-1.5 2.5-2.4 3z"/><path d="m82.4 74.2c1.4-.5 2.6-.7 3.3 1 .5 1.4.5 2.7-1 3.2-1.5.5-2.6.1-3.3-1.6-.7-1.4-.3-2.3 1-2.6z"/><path d="m129.2 202.2c-.6-1.3-.3-2.1.5-2.4 1.3-.4 2.5 0 3.2 1.8.5 1.2.7 2.3-.5 2.6-1.2.2-2.4-.7-3.2-2z"/><path d="m122.8 322.6c.5 1.3.7 2.4-.3 3.2-1 .7-1.9.5-2.7-.9-.8-1.3-.6-2.4.4-3.1.9-.8 1.8-.7 2.6.8z"/><path d="m117.3 362.3c-1.2 1-2.3.4-3.1-1.1-.6-1.1-.2-2.2.6-2.8 1-.8 1.9-1.2 2.7.7.6 1.2.8 2.4-.2 3.2z"/><path d="m149.4 338.2c.6 1.4.8 2.5-.2 3-.9.4-1.9.7-2.7-1-.7-1.6.1-2.4.8-3 .8-.9 1.5-.3 2.1 1z"/><path d="m45 245.3c.8 1.3.6 2.6-.6 3.8-1.1 1.2-2.2 1.8-3 .1-.6-1.4-.7-2.8.6-4.2 1.4-1.3 2.3-1 3 .3z"/><path d="m25.4 186.6c-1.5 1.4-2.6 1.7-3.3.1-.6-1.5-.1-3.1 1.1-4.3 1.2-1.2 2.1-.8 2.7.6.6 1.3.7 2.5-.5 3.6z"/><path d="m495.7 361.4c-1-.3-1.4-1.1-1.1-2.3.3-1.2 1.1-1.9 2-1.6.9.3 2 .7 1.6 2.1-.3 1.4-1.4 1.8-2.5 1.8z"/><path d="m1.9 134.3c1.3-1.3 2.5-2.2 3.4-.7.8 1.4.1 3-1.2 4.3-1.3 1.3-2.6 1.5-3.4.2-.9-1.2 0-2.6 1.2-3.8z"/><path d="m42.4 111.8c1.4-.9 2.5-.8 3.1.8.5 1.2.7 2.5-.7 3.5-1.5 1-2.7.6-3.4-.8-.7-1.4-.3-2.6 1-3.5z"/><path d="m421 301.5c-.7-.5-1.8-1-1.5-2.6.2-1.3 1-1.7 2.1-1 1.2.7 1.5 1.9 1.4 3.2-.1 1.3-.9 1.1-2 .4z"/><path d="m492.9 330c-.9-.4-1.7-1-1.2-2.2.5-1.3 1.5-1.9 2.7-1.5.9.3 1.1 1.2.8 2.3-.4 1.1-1 1.9-2.3 1.4z"/><path d="m143.6 275.7c-1 0-2.1.3-2.8-1.6-.5-1.4-.4-2.4.5-2.9 1-.5 1.9 0 2.5 1.6.5 1.3.8 2.4-.2 2.9z"/><path d="m668.5 255.6c-1.2 1.1-1.5 1-.7-.6.7-1.4 1.8-2.7 2.8-3.8 1-1 1.6-1.4.9 0-.6 1.5-1.6 3-3 4.4z"/><path d="m336.7 344.3c0-1.3.1-2.5 1.2-1.8.8.5 1.6 1.6 1.5 2.9 0 1.4-.5 2.3-1.4 1.9-1-.4-1.2-1.8-1.3-3z"/><path d="m225.9 122.3c1.2.6 2 1.6 2.1 3 .1 1.4-.4 2.1-1.8 1.4-1-.4-2-1.2-2.1-2.5 0-1.4.3-2.4 1.8-1.9z"/><path d="m445.8 252.7c-1.2-.7-1.3-1.9-1.2-3.1.1-1.2.8-1.8 2-1 1.2.7 1.9 1.7 1.6 3.1-.1 1.2-.8 1.7-2.4 1z"/><path d="m177.8 75.1c.1 1.2-.1 2.2-1.5 1.8-1.3-.4-2.8-1.1-3.2-2.9-.4-1.8.9-1.6 2.1-1.4 1.2.3 2.2.9 2.6 2.5z"/><path d="m57.2 293.8c-1.1.9-2.3 1.4-3.1.1-.7-1.1-.5-2.6.5-3.9.9-1.2 1.9-1.8 2.7-.5.8 1.2.9 2.7-.1 4.3z"/><path d="m426.9 273.3c-1.1-.6-1.6-1.5-1.4-2.8.2-1.3.7-1.9 2.1-1.1 1 .6 1.9 1.2 1.7 2.7-.3 1.5-1 2-2.4 1.2z"/><path d="m340.7 193c-1.2-.8-2.1-1.8-2-3.2.1-1.1 0-2.5 1.6-1.6 1.2.7 1.9 1.8 2 3.2-.1 1.2-.3 2.3-1.6 1.6z"/><path d="m242.7 186.3c0 1.1.1 2.5-1.3 1.7-1.1-.6-1.7-1.9-1.8-3.2-.1-1.3-.2-2.6 1.2-2 1.2.6 1.7 2 1.9 3.5z"/><path d="m201 133c-1.5-.7-2.3-1.9-2.7-3.5-.3-1.5.3-2 1.4-1.7 1.1.3 2.1 1.3 2.2 2.7.1 1.1.4 2.6-.9 2.5z"/><path d="m278.1 299.4c-1.2-.8-2-2.2-2.2-3.7-.2-1.6.6-1.3 1.4-.8.8.5 1.6 1.4 1.7 2.9.1 1 .1 2.1-.9 1.6z"/><path d="m197.3 115.7c-1.3-.7-2.4-1.7-2.6-3.2-.3-1.7.7-1.8 1.9-1.4.9.3 2.1.9 2.2 2.3.2 1.4-.1 2.5-1.5 2.3z"/><path d="m266.9 237.1c.1 1.5-.1 2.6-1.2 2-.9-.5-1.6-1.8-1.6-2.9-.1-1.2-.2-2.6 1.1-2 1.1.5 1.6 1.7 1.7 2.9z"/><path d="m237.5 258.9c-.8-.5-1.7-1.1-1.9-2.7-.2-1.3 0-2.2 1-1.9.9.3 1.8.9 2 2.5.2 1.4 0 2.4-1.1 2.1z"/><path d="m111.5 28.5c-1.1-.1-2.6-.1-3.2-1.7-.7-1.6.4-2.1 1.6-2.2 1.3-.2 2.6.1 3.2 1.8.4 1.4-.3 1.9-1.6 2.1z"/><path d="m92.4 10.9c.4 1.4.1 2.4-1.4 2.5-1.2.1-2.5-.2-3-1.7-.5-1.3-.2-2.5 1.2-2.7 1.5-.3 2.6.2 3.2 1.9z"/><path d="m42.5 52.3c.3 1.4.8 2.8-.8 3.5-1.3.6-2.8.6-3.5-.8-.8-1.5 0-2.8 1.4-3.6 1.2-.6 2.3-.2 2.9.9z"/><path d="m378.3 265.8c-1.6-1.1-2.1-2.2-2-3.6.1-1.3.6-1.6 1.8-.8 1.2.8 1.9 1.9 1.7 3.3-.2 1.1-.7 1.6-1.5 1.1z"/><path d="m410.2 140.8c-.5 1-1.5 1.6-2.9 1-1.5-.7-1.6-2.1-1.5-3.2.1-1.3 1-1.5 2.3-.5 1 .6 2.1 1.3 2.1 2.7z"/><path d="m168.7 293.5c.5 1.5.5 2.5-.5 2.7-.8.2-1.7-.1-2.3-1.6-.4-1.2-.6-2.5.4-2.8 1-.5 1.8.2 2.4 1.7z"/><path d="m336.9 266.7c.2-1 .4-2.2 1.7-1.2 1.1.8 1.5 2.1 1.5 3.3 0 1.3-.4 2.2-1.6 1.3-.9-.7-1.5-2-1.6-3.4z"/><path d="m277.9 313.6c-.1-1.5.4-2.1 1.3-1.7.8.4 1.5 1.5 1.7 2.9.2 1.6-.2 2.1-1.2 1.5-.7-.5-1.4-1.4-1.8-2.7z"/><path d="m242.3 130.9c.1 1.2.1 2.5-1.1 2-1.3-.5-2.3-2.1-2.6-3.7-.2-1.3.3-1.7 1.4-1.2 1.2.5 2 1.4 2.3 2.9z"/><path d="m161.2 48.1c-.2-1.4 0-2.4 1.4-2.2 1.2.2 2.4 1.1 2.6 2.5.2 1.3.3 2.8-1.2 2.6-1.3-.2-2.2-1.6-2.8-2.9z"/><path d="m277.7 245.6c-.9-.5-1.7-1.3-2-2.8-.2-1.5.1-2.3 1.3-1.6 1 .5 1.7 1.5 1.9 3 .2 1.2-.1 2-1.2 1.4z"/><path d="m128.4 350.6c.4 1.2 1.1 2.6-.1 3.4-.8.5-1.8.7-2.4-.6-.7-1.4-.4-3.1.4-4 .7-.9 1.5.1 2.1 1.2z"/><path d="m545.5 376.1c-.9.1-1.6-.2-1.1-1.6.5-1.3 1.3-2.3 2.4-2.3 1-.1 1.4.4.8 1.9-.4 1-.9 1.9-2.1 2z"/><path d="m191.2 142.7c-.1 1.2.1 2.5-1.1 2.3-1.2-.2-2.3-1.5-2.6-2.9-.3-1.3.2-2.5 1.4-2.2 1 .3 1.7 1.7 2.3 2.8z"/><path d="m254.9 50.2c1.2.7 2.6 1.3 2.8 2.9.2 1.6-1.3 1.1-2.4.9-1.4-.3-2.3-1.9-2.5-3.1-.3-1.5 1-1.1 2.1-.7z"/><path d="m619.2 350.4c1-.8.8-.1.1 1.1-.6 1.2-1.4 2.6-2.4 3.6-.9.9-1.2.5-.5-.8.6-1.2 1.6-2.7 2.8-3.9z"/><path d="m276.1 144c-1.3-1.1-2.4-2.4-2.7-4-.3-1.3.3-1.7 1.4-1.1 1.2.6 2.3 1.6 2.5 3.3.2 1.3 0 2.2-1.2 1.8z"/><path d="m60.7 104.7c.3 1.2.6 2.5-.8 3.2-1.1.6-2.3.7-3-.7-.6-1.4-.4-2.8.9-3.7 1.3-.9 2.2-.1 2.9 1.2z"/><path d="m47.7 220.1c-.3-1.6-.2-3.3 1-4.6 1.1-1.2 1.8-.3 2.4.8.6 1.2.9 2.5-.5 3.6-1 .8-2.1 1.8-2.9.2z"/><path d="m517.1 389.5c-1-.1-1.5-.7-1-2 .4-1.1 1.1-1.9 2.1-1.8.9.1 1.7.4 1.2 1.9-.5 1.3-1.2 2-2.3 1.9z"/><path d="m55.9 305.5c.9 1.6.6 2.8-.5 4-1.1 1.4-2.2 1.6-2.9.2-.7-1.2-.5-2.7.5-4 1.1-1.2 2.2-1.2 2.9-.2z"/><path d="m501.4 324.7c-1.2-.5-1.4-1.5-1.1-2.7.2-1.1.9-2 2.1-1.7 1 .3 1.8 1.1 1.4 2.5-.4 1.2-1.2 1.9-2.4 1.9z"/><path d="m74.8 169.8c-1.6 1-2.6.5-3.3-.9-.7-1.3-.3-2.6.9-3.3 1.1-.7 2.1-.6 2.7 1 .4 1.2.7 2.5-.3 3.2z"/><path d="m333.4 160.3c.9.7 2 1.5 1.9 2.8-.1 1.3-.5 2.3-2.1 1.3-1.3-.8-2-2.2-2.1-3.6 0-1.7 1.2-1.1 2.3-.5z"/><path d="m158.7 173.1c.1 1.1.7 2.5-.6 2.6-1.1.1-2.1-.8-2.4-2.1-.4-1.5-.4-3.1.9-3.2 1-.1 1.6 1.3 2.1 2.7z"/><path d="m184.7 174.1c0 1.3.1 2.6-1.3 2.1-1.1-.3-2.1-1-2.6-2.6-.5-1.9.6-1.8 1.6-1.7 1 .1 1.9.7 2.3 2.2z"/><path d="m334 240.3c-.2 1-.3 2.1-1.5 1.3-1.3-.9-1.9-2.4-2.1-3.8-.2-1.3.5-1.2 1.4-.7 1 .7 1.9 1.5 2.2 3.2z"/><path d="m296.2 116.8c-1.4-.9-2-2.2-2.1-3.5-.2-1.4.5-1.8 1.7-1.2 1.1.6 2 1.8 2.1 3 .1 1.3-.3 2.2-1.7 1.7z"/><path d="m108 293.2c-1 .8-1.9.5-2.7-.9-.7-1.4-.4-2.4.5-3.1 1-.7 1.9-1 2.7.6.7 1.4.5 2.6-.5 3.4z"/><path d="m197.1 336.8c-.7 0-1.6-.1-2-1.8-.4-1.4-.3-2.5.7-2.6.8-.1 1.5.1 2 1.8.3 1.5.3 2.5-.7 2.6z"/><path d="m254 333.9c-.6-.2-1.1-.9-1.2-1.9-.2-1.6 0-2.7 1-2.5.5.1 1.2.7 1.3 1.8.2 1.6.1 2.9-1.1 2.6z"/><path d="m251.7 315.5c.3 1.5.2 2.7-.7 2.5-.8-.2-1.4-1.6-1.7-2.9-.4-1.4-.3-2.6.6-2.3.9.2 1.5 1.4 1.8 2.7z"/><path d="m254 233c-1-.5-1.6-1.4-1.9-2.9-.2-1.3-.1-2.3 1.1-1.7 1.1.6 1.8 1.9 2 3.3.3 1.3-.2 1.7-1.2 1.3z"/><path d="m50.4 205.4c-.7-1.4-.3-2.6.9-3.6 1.1-1 2-1 2.7.5.6 1.4.5 2.5-.8 3.5-1.2 1-2.1.9-2.8-.4z"/><path d="m302 345.4c-.6-.6-1.5-1.3-1.5-2.7 0-1.3.4-2.2 1.5-1.4 1 .8 1.4 2.3 1.5 3.5.2 1.6-.6 1.3-1.5.6z"/><path d="m322.5 343.6c-.9-.9-1.4-2.1-1.5-3.5-.1-1.2.2-1.9 1-1.3.8.6 1.4 1.7 1.6 3.1.1 1.3-.3 1.9-1.1 1.7z"/><path d="m366.4 310.5c.2-1.3.6-1.9 1.8-.9 1 .9 1.3 2 1.1 3.1-.2 1.2-.7 1.8-1.8.9-1.2-.9-1.3-2-1.1-3.1z"/><path d="m165.6 349.8c.6 1.6.7 2.7-.1 3.1-.8.3-1.6 0-2.2-1.4-.6-1.3-.7-2.5.1-3 .7-.5 1.6.1 2.2 1.3z"/><path d="m108.7 9.5c.3 1.2.3 2.4-1 2.4-1.5 0-3.1-.5-3.8-2.3-.5-1.1.1-1.9 1.2-1.9 1.4-.1 2.8 0 3.6 1.8z"/><path d="m334.8 209c-.3 1-.6 2.4-2 1.7-1.2-.6-1.5-2.1-1.5-3.2 0-1.5.6-2 2-1.1.9.5 1.6 1.3 1.5 2.6z"/><path d="m258.6 172.5c-1.1-1.1-2.3-2.3-2.4-3.9-.1-1.3.5-1.7 1.6-1.2 1.2.6 1.8 1.8 1.9 3.1.2 1.3-.1 2.2-1.1 2z"/><path d="m188 302.6c-1.7.1-2.5-.9-2.9-2.6-.4-1.5.2-1.8 1-1.7 1.2.1 1.9 1.3 2.4 2.8.4 1.6-.4 1.5-.5 1.5z"/><path d="m254.3 207.8c-.2-1.5 0-2.3 1.1-1.8 1.2.5 2 1.7 2.2 3.3.2 1.3.1 2.4-1.1 1.8-1.1-.6-1.9-1.9-2.2-3.3z"/><path d="m108.7 332.7c-.5-1.3-.2-2.3.6-2.9 1-.7 1.9-.3 2.6 1.2.5 1.1.8 2.1-.3 2.8-1.1.7-2.1.1-2.9-1.1z"/><path d="m182.8 274.7c-.4-1.3-.2-2.2.6-2.2 1 .1 2 .7 2.6 2.5.4 1.2.4 2.2-.6 2.2-1.1 0-1.9-1-2.6-2.5z"/><path d="m600.5 343.3c1-.6 1.7-.8 1 .8-.6 1.2-1.5 2.3-2.5 2.9-1.1.6-1.4.3-.9-1 .5-1.3 1.4-2.1 2.4-2.7z"/><path d="m5.4 179.3c.3 1.4.5 2.8-.9 4.2-1.4 1.3-2.6 1.5-3.3.1-.6-1.3-.1-3 1.2-4.2 1.3-1.3 2.3-1.3 3-.1z"/><path d="m10.3 201.4c-1 1-2.1 2.3-2.7.8-.6-1.4-.8-3.3.7-5 1.2-1.4 2.3-1.1 2.9.1.7 1.3.4 2.7-.9 4.1z"/><path d="m269.1 309.8c-.9-.6-1.6-1.5-2-3.1-.4-1.7.2-1.8 1-1.5.8.3 1.6.9 1.8 2.5.2 1.3.3 2.5-.8 2.1z"/><path d="m193.9 40.6c.2 1.5.2 2.5-1.3 2.1-1.7-.6-2.4-1.9-2.7-3.5-.3-1.6.5-1.8 1.8-1.3 1.5.5 2.1 1.6 2.2 2.7z"/><path d="m114.1 319.4c.6 1.3.3 2.2-.5 2.8-.9.8-1.9.9-2.6-.6-.6-1.1-.8-2.3.1-3 1-.6 2.1-.7 3 .8z"/><path d="m105.4 118.5c-1.4.1-2.7.1-3.4-1.6-.6-1.5.3-2.2 1.4-2.5 1.3-.3 2.3.1 2.9 1.7.4 1.3.1 2.1-.9 2.4z"/><path d="m114.1 227.5c.5 1.4.2 2.4-.7 2.8-.9.4-2 .6-2.5-1.1-.4-1.3-.4-2.8.8-3.4 1.2-.6 1.7.8 2.4 1.7z"/><path d="m205.1 260.6c.2 1.5.2 2.8-1 2.7-.9-.1-1.4-1.3-1.7-2.4-.5-1.5-.4-2.6.8-2.4.8 0 1.5.7 1.9 2.1z"/><path d="m178.8 209.4c-1-.4-2-.9-2.4-2.4-.5-1.7.2-2.2 1.3-2.1.9 0 1.7.6 2.1 2 .4 1.6-.1 2.3-1 2.5z"/><path d="m503 191c-1-.6-2.3-1.2-1.6-2.6.4-.8 1.1-1.7 2.4-.9 1.1.8 2.5 1.8 2 3.2-.6 1.2-1.8.6-2.8.3z"/><path d="m230.4 262c-.7-.4-1.6-.9-2-2.4-.3-1.6.3-2.1 1.3-1.8 1 .3 1.6 1.5 1.8 2.8.3 1.4-.1 1.9-1.1 1.4z"/><path d="m600.7 216.8c-.9.1-1.8-.1-1.2-1.5.5-1.1 1.5-1.7 2.6-1.8 1.3-.1 2.5 0 1.9 1.4-.5 1.2-1.8 1.7-3.3 1.9z"/><path d="m108.4 355.8c.7 1.3.7 2.5-.2 3.4-.7.7-1.6 1.1-2.3-.1-.7-1.3-.8-2.7.2-3.7.9-.9 1.7-.9 2.3.4z"/><path d="m193.7 202.3c-.2-1.6.4-2.2 1.3-2.1 1 .1 1.8 1.1 2.2 2.5.3 1.2.1 2.2-.9 1.9-.9-.2-2-.9-2.6-2.3z"/><path d="m615.4 206.4c-.6 1.2-1.4 2.3-2.8 2.5-1.3.2-2.3-.1-1.6-1.5.6-1.3 1.8-2.1 3.2-2.3 1.3-.2 1.6.3 1.2 1.3z"/><path d="m188.1 243.9c-.9-.1-1.8-.5-2.2-1.8-.4-1.4-.4-2.8.7-3 .8-.1 1.4.8 1.7 1.9.5 1.3.9 2.7-.2 2.9z"/><path d="m143.7 54.6c.2.7.1 1.6-1.2 1.5-1.4-.2-2.3-1.2-2.7-2.7-.4-1.4-.2-2.3 1.3-2.2 1.6.2 2.1 1.5 2.6 3.4z"/><path d="m162.9 363c-.2.1-.9.1-1.1-.9-.4-1.6-.5-3.4.4-4.2.6-.5 1.3.2 1.7 1.4.5 1.9.1 2.9-1 3.7z"/><path d="m209.5 118.4c.1-1.3.5-2.5 1.9-2.1.9.2 1.7 1.1 1.9 2.3.3 1.6 0 2.6-1.4 2.2-.9-.3-1.9-1-2.4-2.4z"/><path d="m394.2 201.9c-.3 1.1-1.1 1.1-2.1.5-1.2-.8-2.2-1.9-2.1-3.3.1-1.2.9-1.3 2-.5 1 .8 2.1 1.8 2.2 3.3z"/><path d="m269 161.4c-.2-1.4-.1-2.5 1.2-1.8 1 .5 1.9 1.6 2 2.8.1 1.2.1 2.6-1.3 2-1.3-.6-1.7-1.9-1.9-3z"/><path d="m208 279.3c-1.3-.1-2.1-.4-2.5-1.9-.5-1.7-.2-2.7.8-2.7.8 0 1.5.8 1.9 2.1.3 1.6.3 2.6-.2 2.5z"/><path d="m261.8 49.7c-1.2-.9-2.7-1.8-2.9-3.4-.2-1.6 1.2-1.2 2.5-.5 1.2.7 2.4 1.8 2.6 3.2.2 1.4-.9 1.3-2.2.7z"/><path d="m228.6 195c-.2-1.5.4-1.6 1.3-1.3 1 .3 1.9 1 2.2 2.6.2 1.3 0 2.3-1.1 1.8-1.1-.4-2-1.6-2.4-3.1z"/><path d="m165.3 7.5c0 1.3 0 2.7-1.4 2.6-1.3-.1-2.3-1.4-2.6-2.7-.4-1.5 0-2.5 1.6-2.2 1.1.2 2 1.2 2.4 2.3z"/><path d="m139.8 155.2c.4 1.6.2 2.6-1.1 2.8-1 .1-2-.3-2.5-1.9-.4-1.4-.2-2.3 1-2.5 1.1-.1 2.1 0 2.6 1.6z"/><path d="m447.8 234.4c.3-1.1.9-1.7 2.2-.8 1 .7 2 1.5 1.7 2.8-.3 1.4-1.5 1.2-2.6.7-1.2-.5-1.4-1.6-1.3-2.7z"/><path d="m271.1 247.6c-.2-1.3 0-2.3 1.1-1.7 1 .5 1.6 1.7 1.8 3.1.1 1.3-.1 2.1-1.2 1.4-1.1-.6-1.6-1.5-1.7-2.8z"/><path d="m30.5 263.2c-1.1 1.4-2.2 1.4-2.9.4-.8-1.2-.5-2.7.6-4 1-1.1 2.2-1.9 2.9-.6.7 1.2.4 2.7-.6 4.2z"/><path d="m512.8 188.2c-1.5-.5-1.6-1.3-1.4-2.2.3-1.4 1.2-1.8 2.7-1.4 1 .3 2.2.9 1.7 2.1-.5 1.3-1.9 1.4-3 1.5z"/><path d="m90.2 352.8c.5 1.1.7 2.3-.2 3.3-1 1.2-2 1.4-2.7 0-.6-1.1-.5-2.4.4-3.4.8-1.1 1.7-1.1 2.5.1z"/><path d="m270.6 62.3c-1.2-.9-2.6-2-2.7-3.5-.1-1.4 1.2-1.1 2.3-.5 1.3.6 2.2 1.8 2.3 3.2 0 1.2-.6 1.4-1.9.8z"/><path d="m273.4 78c0 1.1 0 2.4-1.3 1.8-1.4-.6-2.2-2.1-2.4-3.5-.2-1.2.2-1.9 1.4-1.3 1.2.5 2.2 1.5 2.3 3z"/><path d="m338.9 173.7c-.1-1.3.5-1.6 1.6-1 1 .6 1.9 1.6 2 2.9.1 1.3-.6 2.2-1.8 1.6-1.3-.7-1.6-2.2-1.8-3.5z"/><path d="m64.7 310.4c-.4.4-1.3.9-2.1-.4-.8-1.3-.7-2.8.5-4.1 1-1.2 1.9-1.2 2.6.2.6 1.2.7 2.4-1 4.3z"/><path d="m363 356c .2-1 .5-1.9 1.4-1.4 1 .7 1.4 2 1.4 3.3 0 1.2-.5 1.5-1.3.9-.9-.5-1.5-1.4-1.5-2.8z"/><path d="m163.7 315.5c-.9.2-1.8 0-2.4-1.6-.5-1.2-.6-2.2.3-2.5 1-.4 1.8.7 2.4 1.9.6 1 .5 1.9-.3 2.2z"/><path d="m158.7 71.7c-.3-1.4.2-1.8 1.2-1.7 1.2.1 2.4.7 2.7 2.2.2 1.1.6 2.7-.9 2.5-1.5-.1-2.3-1.7-3-3z"/><path d="m163.9 155.8c-.3-1.3-.1-2.3 1-2.3.9 0 1.8.5 2.3 1.9.4 1.3.4 2.5-.8 2.5-1 .1-1.9-.7-2.5-2.1z"/><path d="m245 93.9c0 1.1.2 2.5-1.3 1.8-1.2-.6-2.1-1.7-2.4-3.1-.2-1.3.1-2.2 1.4-1.7 1.3.4 1.9 1.6 2.3 3z"/><path d="m618.4 240.7c-1.2.3-2.1.3-1.6-1.1.4-1.1 1.4-1.8 2.5-2.2 1.3-.4 2.2-.4 1.6 1.1-.5 1-1.3 1.9-2.5 2.2z"/><path d="m304.4 145.7c-1.5-1.1-1.8-2.5-1.9-3.8-.1-1.3.5-1.5 1.6-.8 1.1.7 1.9 1.6 1.8 2.9-.1 1.1-.1 2.3-1.5 1.7z"/><path d="m239.9 209.8c.1 1.1.6 2.6-.5 2.2-1.1-.3-1.7-1.5-2-2.9-.3-1.3-.4-2.6.7-2.3 1.1.4 1.6 1.8 1.8 3z"/><path d="m420.5 202.8c.2-1.1 1-1 1.9-.5 1.2.7 2.7 1.6 2.5 3.3-.1.9-.9 1.5-2 .8-1.3-.8-2-2.2-2.4-3.6z"/><path d="m254.9 65.7c1.2.9 2.6 1.4 2.7 3 .1 1.2-.5 1.9-1.9 1-1.2-.8-2.5-2-2.7-3.5-.3-1.5 1.1-.6 1.9-.5z"/><path d="m118.4 167.8c-.3-1.3.2-2.1 1-2.3 1.2-.3 2.3.2 2.7 1.9.3 1.1.3 2.2-.8 2.2-1 0-2.2-.5-2.9-1.8z"/><path d="m24.2 107.2c.3.9.8 2.2-.4 3.2-1.4 1.2-2.5.4-3.1-.9-.6-1.1-.9-2.5.7-3.6 1.4-1.1 2.1-.1 2.8 1.3z"/><path d="m189.6 266.8c.5 1.5.4 2.3-.5 2.3-.8 0-1.6-.5-1.9-1.9-.3-1.2-.6-2.6.5-2.7 1-.1 1.4 1.4 1.9 2.3z"/><path d="m112.2 189c-.5-1.3-.5-2.3.7-2.6 1-.3 2-.2 2.6 1.4.5 1.3.4 2.6-.7 3-1.2.3-2-.8-2.6-1.8z"/><path d="m245 203.4c.2 1.4 0 2.2-1.3 1.4-1-.6-1.7-1.5-1.7-2.7 0-1.1.1-2.2 1.3-1.6 1.3.5 1.6 1.7 1.7 2.9z"/><path d="m250.9 161.2c-1.3-.8-1.8-1.9-2.1-3.3-.3-1.3 0-2 1.1-1.5 1.2.6 1.9 1.6 2 3 .1 1.1.2 2.2-1 1.8z"/><path d="m287.1 116.8c0-1.2.2-2.1 1.4-1.3 1.1.7 2.2 1.9 2.2 3.3.1 1.1-.4 1.8-1.5 1.2-1.3-.6-1.9-1.9-2.1-3.2z"/><path d="m247.8 58.6c-1.6-1-2.3-2.3-2.7-3.7-.4-1.4.1-1.9 1.4-1.2 1 .5 2.2 1.1 2.4 2.6.3 1.3-.1 2.2-1.1 2.3z"/><path d="m39.1 173.5c-1.5 1.2-2.5.9-3.2-.6-.7-1.6.1-2.6 1.2-3.5 1.2-1 2.2-1.1 2.7.5.6 1.4.4 2.6-.7 3.6z"/><path d="m74.3 72.7c-1.3.3-2.4 0-2.9-1.4-.5-1.4-.3-2.5 1.1-3 1.2-.4 2.2-.1 2.6 1.2.5 1.2.5 2.5-.8 3.2z"/><path d="m440.7 242c-1-.6-1.7-1.4-1.6-2.6.1-1.4 1-1.8 2.2-1.3 1.2.4 1.6 1.5 1.4 2.6-.1 1.1-.7 1.6-2 1.3z"/><path d="m159.1 335.4c-.8.3-1.6.5-2.1-1.2-.5-1.4-.5-2.6.3-3.2.7-.6 1.4 0 1.9 1.3.5 1.3 1 2.6-.1 3.1z"/><path d="m162.3 167.1c-1.3-.4-1.8-1.5-2.1-2.7-.3-1.2-.5-2.5.8-2.5 1.1 0 1.8 1 1.9 2.2.2 1.2.5 2.6-.6 3z"/><path d="m209 143.5c-1-.4-1.9-1.1-2.1-2.5-.2-1.3.1-2.4 1.4-2.1 1.2.3 1.8 1.5 2 2.9.2 1.4-.1 2.2-1.3 1.7z"/><path d="m135.3 138.8c.1.7.8 2.1-.4 2.4-1.2.3-2.2-.8-2.8-2.2-.7-1.4-.1-2 .9-2.2 1-.2 1.8.2 2.3 2z"/><path d="m409.4 293.8c-.9-.7-1.6-1.6-1.5-2.9.1-1.2.8-1.4 1.7-.8.9.6 1.8 1.5 1.6 2.9-.1 1.1-.8 1.4-1.8.8z"/><path d="m144.9 172.9c.2 1.1.8 2.4-.6 2.4-1.3 0-2.2-1.1-2.6-2.5-.4-1.1.1-1.9.9-2 1.1-.2 2 .5 2.3 2.1z"/><path d="m316.2 283.3c0 1.1-.2 1.9-1.2 1.3-1.1-.7-1.4-1.8-1.5-3.1-.1-1.2.2-1.9 1.1-1.3 1 .6 1.5 1.7 1.6 3.1z"/><path d="m303.7 114.4c-1.1-1-2.1-2.1-2.2-3.4-.1-1.2.3-2.1 1.6-1.3 1.3.8 1.8 2.2 2 3.4.1 1.2-.2 1.8-1.4 1.3z"/><path d="m193.8 286.7c-.9-.2-1.6-1-2-2.2-.3-1.2-.3-2.5.6-2.4.9 0 1.4 1.3 1.8 2.4.4 1.2.4 2.1-.4 2.2z"/><path d="m307.9 339.2c.1 1.2.2 2.2-.8 1.7-.8-.5-1.5-1.2-1.7-2.7-.1-1.3 0-2.5 1-1.9 1.1.5 1.5 1.7 1.5 2.9z"/><path d="m98.6 100.5c-.4-1.5-.6-2.7.7-2.9 1.4-.3 2 .8 2.3 2.2.3 1.1.4 2.4-.8 2.6-1.4.2-1.9-1.1-2.2-1.9z"/><path d="m311.2 349.7c0-1 .1-2 .9-1.6.9.5 1.3 1.8 1.5 3.1.1 1.2-.1 2-.9 1.6-.8-.6-1.3-1.7-1.5-3.1z"/><path d="m180.3 318.4c-.5-1.3-.8-2.5.3-2.6.8-.1 1.5.4 1.8 1.8.3 1.3 1 2.9-.1 3.1-.9.2-1.5-1.1-2-2.3z"/><path d="m641.6 248.5c.5-1 1.2-1.9 2.2-2.4 1-.4 2.1-.9 1.3.7-.5.9-1.4 2-2.3 2.6-1.4.8-1.8.5-1.2-.9z"/><path d="m67 295.4c-.6.7-1.5 1.5-2.3 0-.5-1-1-2.1 0-3.3 1-1.2 2-1.6 2.9-.2.6 1.1.6 2.2-.6 3.5z"/><path d="m177.3 11c-.3-1.4.4-1.9 1.5-1.7 1.3.2 2.4 1.3 2.8 2.7.3 1.1.1 2.2-1.2 1.9-1.4-.4-2.4-1.6-3.1-2.9z"/><path d="m69.8 225.2c-1.3.8-2 .1-2.5-1-.5-1.2-.4-2.4.7-3.1.8-.5 2-1.1 2.5.3.5 1.3-.1 2.7-.7 3.8z"/><path d="m16.4 123.5c-.5-1.1-1.1-2.1.4-3.4 1.4-1.2 2.3-.8 2.8.7.4 1.1 1 2.3-.4 3.5-1.3 1.1-2.3.6-2.8-.8z"/><path d="m320.8 122.1c-.3 1-.6 2.2-1.9 1.6-1.2-.5-1.5-2-1.7-3.1-.2-1.3 0-2.1 1.3-1.3 1 .6 2 1.4 2.3 2.8z"/><path d="m347.1 205c-1.3-1.2-1.7-2.5-1.8-3.8-.1-1 .3-1.6 1.3-1 1.1.7 1.9 1.8 1.9 3.1 0 1.2-.5 1.8-1.4 1.7z"/><path d="m203.2 354.7c-.8-.1-1.5-.7-2-2.1-.3-1.1-.4-2.3.4-2.2.8.1 1.6.8 2 2.2.6 1.2.4 2-.4 2.1z"/><path d="m119 333.8c1-.7 1.6.1 2.1 1.2.6 1.3.4 2.2-.4 2.9-.7.5-1.5 1-2.2-.4-.5-1.4-.3-2.7.5-3.7z"/><path d="m96.8 380.8c.9 1.4.7 2.5-.1 3.4-.8 1-1.7 1.3-2.5 0-.7-1.2-.6-2.6.3-3.6.9-1.1 1.8-.7 2.3.2z"/><path d="m632.6 281.8c-.7 1.2-1.5 2.4-2.7 3.3-1 .7-1.5.6-1.1-.5.5-1.3 1.6-2.6 2.8-3.4 1.1-.7 1.3-.3 1 .6z"/><path d="m166.3 183.5c-1.1-.2-2.1-1-2.6-2.5-.4-1.2-.1-1.9.8-1.9 1 0 1.9.8 2.3 2.2.3 1.1.5 2.1-.5 2.2z"/><path d="m425.6 174.3c.1-1.4 1-1.3 2.1-.6 1 .6 2.1 1.3 2 2.6-.2 1.1-.6 2.2-2.2 1.4-1.6-.8-1.7-2.2-1.9-3.4z"/><path d="m53.4 118.5c-.5-1.2-.7-2.4.5-3.2 1.2-.7 2.1 0 2.6 1.1.5 1.1 1.1 2.6-.1 3.6-1.5 1.1-2.2-.5-3-1.5z"/><path d="m24.5 34.9c-1.2.4-2.7 1.1-3.4-.4-.6-1.2.1-2.4 1.4-3.1 1.3-.8 2.5-.9 3.1.6.3 1 .4 2.1-1.1 2.9z"/><path d="m61.8 251.2c-.5-1.2-.2-2.2.8-3.1 1.1-1 2-1 2.6.4.5 1.1.7 2.2-.4 3.2-1.2 1.1-2.1.9-3-.5z"/><path d="m324.7 211.2c0-1.1.3-1.9 1.5-.9 1.1.9 1.4 1.9 1.3 3-.1 1.1-.3 1.9-1.4 1.1-1.3-.9-1.4-2.1-1.4-3.2z"/><path d="m516.4 327.1c-.3.8-.7 1.9-1.8 1.5-1-.3-1.2-1.3-.8-2.4.4-1 1-1.7 2-1.4 1 .2 1 1.2.6 2.3z"/><path d="m226.4 291.8c-1.2-.5-2-1.7-2.4-3.3-.4-1.3.1-1.6.8-1.5 1 .2 1.7.9 2.1 2.6.2 1.3.2 2.2-.5 2.2z"/><path d="m191.2 159.6c-.2-1.3.1-2.1 1.3-1.8 1 .3 1.7 1.1 1.9 2.4.2 1.2.1 2.1-.9 1.9-1.1-.1-1.9-1.1-2.3-2.5z"/><path d="m153 183.4c-.8 0-1.8-.1-2.1-1.6-.3-1.3-.4-2.7.9-2.9 1-.2 1.7.3 2.1 1.8.4 1.4.6 2.7-.9 2.7z"/><path d="m265.4 198.3c-.1-1.3.4-1.9 1.5-1.4 1.1.5 1.7 1.6 1.8 3 .1 1.3-.1 2-1.3 1.3-1.1-.6-1.8-1.6-2-2.9z"/><path d="m129.8 239.5c-.4-1.2-.4-2.2.6-2.6 1.2-.4 2 .3 2.5 1.8.5 1.3.2 2.1-.7 2.4-1.2.5-1.8-.4-2.4-1.6z"/><path d="m63 66c-1.2.3-2.3.2-3-1.2-.5-1.2 0-2.1 1.1-2.4 1.2-.3 2.4-.7 3 1 .3 1.1.1 2.1-1.1 2.6z"/><path d="m648.4 320.5c-.6.6-.8.6.1-1 .8-1.6 1.8-3.1 2.7-4.2 1.4-1.9-.2.9-.8 2-.5.7-.9 1.7-2 3.2z"/><path d="m263.9 222.2c-1.1-.5-1.6-1.5-1.7-2.5-.1-1.1-.1-2.4 1.1-1.8.7.3 1.4 1 1.5 2.1.2 1.2.1 2.3-.9 2.2z"/><path d="m129.7 93.3c1 0 2.1 0 2.5 1.4.4 1.5-.5 2.3-1.6 2.5-1.2.2-2.1-.9-2.4-2.2-.4-1.5.5-1.7 1.5-1.7z"/><path d="m589.3 358.2c-.8.3-1.3.1-.6-1.1.6-1.1 1.5-2.3 2.5-2.9.9-.5.9 0 .4 1.1-.5 1.1-1.1 2.2-2.3 2.9z"/><path d="m179.9 184.4c-1-.2-1.7-.9-2-2.2-.3-1.2-.4-2.2.8-2.1.9.1 1.8.5 2.2 2 .3 1.3 0 2.1-1 2.3z"/><path d="m130 0c .9.4 1.8.4 2.1 2.4.2 1.1.2 2.5-1.4 2.4-1.4-.1-2.7-1.3-3.2-2.7-.6-1.9 1.8-1.8 2.5-2.1z"/><path d="m49.2 278c-1.2 1.4-2.2 1.6-2.9.4-.7-1.1-.4-2.4.6-3.5 1-1.1 2-1.6 2.7-.2.6 1.2.6 2.4-.4 3.3z"/><path d="m161.1 252.9c-.9-.2-1.8-.5-2.4-1.9-.5-1.3-.5-2.5.4-2.8 1-.3 1.7.9 2.2 2.1.5 1.2.6 2.2-.2 2.6z"/><path d="m237.5 340.8c.4 1.6.2 2.3-.6 2.1-.6-.2-1.4-.7-1.7-2-.3-1.4 0-2.3.8-2.3.7 0 1.2 1.1 1.5 2.2z"/><path d="m180.3 160c-1.2-.2-1.8-1.2-2.1-2.4-.4-1.3-.2-2.3 1-2.1.9.2 1.6.9 1.8 2.1.1 1.2.4 2.5-.7 2.4z"/><path d="m477.3 250c .3-1.2 1.1-1.4 2.2-1 1 .3 1.9.9 1.9 2.1-.1 1.2-1 1.4-2 1.2-1.3-.3-2-1.1-2.1-2.3z"/><path d="m77.2 294.3c.6 1.3.7 2.3-.3 3.1-1.1.9-2 .4-2.6-.7-.5-.8-.6-2 .1-2.7 1.1-1.1 2.1-.6 2.8.3z"/><path d="m515.7 258.7c-1-.4-2-.9-1.7-2.2.2-1 1-1.3 2-1.1 1.1.3 2.1.8 1.9 2-.1 1.1-1.2 1.3-2.2 1.3z"/><path d="m198.5 300.7c.4 1.6.5 2.8-.7 2.5-.8-.2-1.3-.9-1.5-2.1-.2-1.4-.4-2.7.7-2.6.9.1 1.3 1.4 1.5 2.2z"/><path d="m200.7 74.2c-.1.9.2 2.3-1.2 1.7-1.2-.5-2.2-1.6-2.5-3-.2-1.3.7-1.5 1.7-1.2 1.2.4 1.7 1.4 2 2.5z"/><path d="m58 20.3c-1.4.4-2.8.4-3.5-1.1-.6-1.1.1-1.9 1.2-2.4 1.3-.5 2.7-.8 3.3 1 .3 1.1.2 2-1 2.5z"/><path d="m413 205.5c.1-.6.8-.6 1.8.1 1 .7 2.3 1.5 2 2.9-.2 1.1-1.2 1-2.2.3-1-.6-1.8-1.5-1.6-3.3z"/><path d="m305.2 308.9c-.9-.7-1.4-1.6-1.4-2.8 0-1 0-2.1.9-1.6 1 .5 1.4 1.8 1.5 3.1.1 1.1-.2 1.7-1 1.3z"/><path d="m211.4 23.9c-.1-.9-.2-2.1 1.5-1.5 1 .4 2 1.2 2.1 2.4.1 1.2.2 2.6-1.4 2.1-1.3-.4-1.9-1.6-2.2-3z"/><path d="m585.2 258.4c-.6 1.1-1.4 1.8-2.5 1.8-.9 0-1.7-.3-1.2-1.5.4-1.1 1.4-1.7 2.5-1.7.9-.1 1.5.3 1.2 1.4z"/><path d="m261.7 135.3c-1.1-.8-2-1.9-2.3-3.2-.3-1.4.5-1.6 1.5-1.2 1.1.5 1.8 1.7 1.8 2.9 0 .9.1 2-1 1.5z"/><path d="m261.5 322c-.7-.4-1.4-1-1.7-2.3-.2-1.1-.1-2.1.6-2 .8.2 1.5 1.5 1.9 2.7.4 1.4-.1 1.7-.8 1.6z"/><path d="m311.9 157.7c-1.1-.9-1.9-2-2.1-3.4-.2-1.2.4-1.4 1.4-.9 1.1.6 2.1 1.6 2.2 3.1.1 1.2-.5 1.5-1.5 1.2z"/><path d="m280.9 353.3c.1 1.1 0 1.8-.7 1.5-.8-.4-1.6-1.1-1.9-2.7-.2-1.2.2-2.1.9-1.8.8.3 1.3 1.7 1.7 3z"/><path d="m341.5 161.2c-1.4-.8-2-2-2.1-3.3 0-1.1.5-1.3 1.6-.7 1.1.7 2.3 1.5 2.4 3 0 1.4-.9 1.4-1.9 1z"/><path d="m306.1 325.4c-.8-.6-1.4-1.5-1.4-2.8-.1-1.1-.1-2.1.9-1.5.9.5 1.3 1.6 1.4 2.8.1 1.2 0 2.1-.9 1.5z"/><path d="m56.6 192c-.8.6-1.6.4-2.1-.7-.5-1.3-.5-2.6.7-3.6 1-.8 1.8-.7 2.2.6.5 1.1.7 2.5-.8 3.7z"/><path d="m222.3 93.5c-1.4-.7-1.7-1.8-1.8-2.9-.2-1.4.2-2.1 1.6-1.4 1 .5 1.8 1.2 1.7 2.4-.1 1.1-.1 2.3-1.5 1.9z"/><path d="m449.9 220c .3-1.3 1.2-1.1 2-.7 1 .5 2.2 1.2 1.9 2.6-.2.8-.8 1.5-1.8 1-1.1-.5-1.7-1.8-2.1-2.9z"/><path d="m338.2 316.2c-.9-.9-1.4-2-1.5-3.3-.1-1.2.2-2 1.1-1.4 1 .6 1.4 1.9 1.4 3.2.1 1.1-.1 2-1 1.5z"/><path d="m85.4 105.6c-1.2.2-2.5.2-3.2-1.2-.5-1-.2-2 .9-2.4 1.2-.5 2.4-.7 3.1 1.1.3.9.2 1.9-.8 2.5z"/><path d="m286.7 56.1c-1.3-.9-2.3-2-2.5-3.4-.2-1.2.5-1.4 1.6-.8 1.2.7 2.4 1.7 2.6 3.2.1 1.2-.5 1.6-1.7 1z"/><path d="m457 385.9c-1.1-.5-1.3-1.5-1.1-2.6.2-1.1.9-1.3 1.6-1 .8.3 1.3 1 1 2.2-.2 1-.6 1.6-1.5 1.4z"/><path d="m510.9 394.3c-.4 1-.9 1.8-1.8 1.6-.7-.1-1.5-.4-1-1.6.5-1.1 1.4-2 2.4-1.9.9.1.7 1 .4 1.9z"/><path d="m6.8 213.4c.6 1.5.6 2.8-.6 4.2-1.3 1.6-2.2 1.1-2.8-.1-.6-1.1-.2-2.3.8-3.5 1-1.2 2-1.6 2.6-.6z"/><path d="m414.8 167.4c-.2 1.2-.8 1.3-1.9.6-1.2-.8-2.4-1.8-2.4-3.3 0-1.1 1-1 1.9-.5 1.3.7 2.3 1.8 2.4 3.2z"/><path d="m151.7 129.5c-.4-1.3-.1-2 1-2 1 .1 1.9.4 2.3 1.8.4 1.4-.1 2.2-1.2 2.3-1 .2-1.7-.9-2.1-2.1z"/><path d="m246.6 38.1c1 .7 2.5 1.2 2.6 2.8.1 1.3-.8 1.5-2.1.9-1.2-.6-2.4-1.6-2.6-3.1-.1-1.4.9-1.1 2.1-.6z"/><path d="m404.9 227.5c-1.2-.7-1.9-1.6-1.8-2.8.1-1.1.7-1.6 1.7-1 1.1.5 1.7 1.5 1.5 2.7 0 1-.3 1.7-1.4 1.1z"/><path d="m312.2 91.8c.9.6 2.2 1.3 2.3 2.7.1 1.4-.9 1.4-2.1.6-1.2-.7-2.3-1.8-2.4-3.2-.1-1.4 1-.7 2.2-.1z"/><path d="m571.6 216.3c-.9-.3-2.1-.5-1.8-1.8.3-1.2 1.3-1.5 2.4-1.5 1.3 0 2 .5 1.5 1.8-.3.9-1 1.5-2.1 1.5z"/><path d="m282.2 276.6c0 .9-.1 2-1 1.4-1-.6-1.7-2-2-3.4-.3-1.3.4-1.3 1.1-.9.8.5 1.7 1.2 1.9 2.9z"/><path d="m537.5 186c .3-.9.8-1.7 2.2-1.3 1.2.3 2.2.9 1.9 2.2-.2 1.1-1.1 1.5-2.3 1.4-1.3-.3-2.1-.9-1.8-2.3z"/><path d="m551.7 332.5c-1-.1-1.3-.6-1-1.5.4-1.3 1.3-1.9 2.4-1.9.7 0 1.5.1 1.2 1.1-.6 1.4-1.8 1.7-2.6 2.3z"/><path d="m196.7 251.1c.2 1.1.7 2.7-.5 2.6-.8-.1-1.5-1.3-1.8-2.4-.2-1.1-.6-2.5.5-2.6 1.1-.1 1.4 1 1.8 2.4z"/><path d="m131.6 112.2c-.2-1.1.1-1.9 1-1.9 1.3-.1 2.3.6 2.8 2.2.3 1 .4 2.2-.8 2-1.1-.2-2.3-.8-3-2.3z"/><path d="m219.6 306c-1-.3-1.5-1.2-1.8-2.4-.3-1.1-.5-2.3.3-2.3.7 0 1.5.9 1.8 2.2.3 1.2.3 2.2-.3 2.5z"/><path d="m75.6 310.8c-.9.8-1.8 1.2-2.4-.1-.6-1.2-.5-2.7.3-3.9.8-1.1 1.8-.9 2.4.2.5 1.2.6 2.5-.3 3.8z"/><path d="m639.2 337.4c-.2.3-1.3 1.7-.3-.1.6-1.1 1.4-2.5 2.1-3.4.7-.9 1.9-2.5.8-.4-.9 1.7-1.5 2.4-2.6 3.9z"/><path d="m88.4 241.3c.4 1.1 1.2 2.4 0 3.4-1.1.9-1.9 0-2.4-1.3-.4-1.1-1.1-2.4.2-3.4 1.1-.8 1.7.2 2.2 1.3z"/><path d="m470.3 303c .2-1 .6-1.8 1.6-1.4 1.2.4 1.6 1.6 1.5 2.8-.1 1-.7 1.5-1.6 1.1-1-.5-1.5-1.4-1.5-2.5z"/><path d="m138.7 297.1c-1 .3-1.6-.6-2.1-1.6-.5-1.1-1-2.5.1-3.1.9-.5 1.5.3 1.9 1.6.5 1.1.9 2.3.1 3.1z"/><path d="m398.4 253c .1-1.1.5-1.5 1.5-.9 1.1.6 1.6 1.6 1.5 2.7-.1.9-.2 2.1-1.3 1.5-1.3-.6-1.5-2.1-1.7-3.3z"/><path d="m579.4 366.4c.7-1.5 1.4-2.1 2.3-2.5.9-.4 1.3-.3.7.9-.5 1.1-1.3 2.3-2.3 2.7-.8.4-1-.2-.7-1.1z"/><path d="m221.2 169.5c.1.9.3 2-.8 1.6-1-.4-1.7-1.5-1.9-2.7-.2-1-.1-2 .8-1.7 1 .4 1.7 1.5 1.9 2.8z"/><path d="m210.5 329.4c-.8-.3-1.5-.8-1.8-2.2-.3-1.3-.1-2.2.7-2.1.8.1 1.3 1.1 1.6 2.3.3 1.2.1 1.9-.5 2z"/><path d="m212.4 160.2c-1.3-.7-1.8-1.9-2.1-3.2-.3-1.2.1-1.6 1.1-1.3 1.1.4 1.7 1.2 1.8 2.5.1 1.1.1 2-.8 2z"/><path d="m205.7 228.4c-.1-1.2-.3-2.5.8-2.2 1.1.3 1.7 1.4 2 2.8.3 1.3 0 2-.9 1.7-.8-.2-1.6-.9-1.9-2.3z"/><path d="m244.6 164.7c-.9-.7-2.1-1.5-2.4-2.9-.3-1.5.9-1.2 1.8-.9.9.3 1.6 1.1 1.8 2.3.1 1.2-.1 2-1.2 1.5z"/><path d="m170.9 84.1c-1.5-.4-2.1-1.5-2.4-2.8-.3-1.1-.1-1.8 1-1.7 1.1.2 2 .8 2.3 2.1.3 1.3.3 2.4-.9 2.4z"/><path d="m382.6 291.6c-.9-.8-1.6-1.8-1.4-3.1.1-.9.6-1.2 1.4-.6.9.7 1.8 1.6 1.6 3-.2 1-.7 1.3-1.6.7z"/><path d="m380.1 249.9c-1.1-.7-1.8-1.7-1.9-3-.1-1.1.4-1.5 1.3-.9 1.1.7 2.1 1.7 2 3.2.1 1.1-.6 1.2-1.4.7z"/><path d="m245.7 180.1c-.1-1 0-2 1.1-1.5.8.3 1.7 1.1 1.7 2.3.1 1.1-.3 2-1.3 1.6-.8-.4-1.3-1.4-1.5-2.4z"/><path d="m399.7 312c-.9-.8-1.2-1.8-1-2.8.1-1 .5-1.7 1.5-.9.9.7 1.3 1.7 1.1 2.8-.2.9-.6 1.4-1.6.9z"/><path d="m275.2 213.2c-1.2-.8-1.6-1.9-1.7-3-.1-1.1.1-1.9 1.2-1.2 1 .6 1.5 1.8 1.6 2.9.1 1.1-.2 1.7-1.1 1.3z"/><path d="m337.2 101.6c-.1 1.1-.7 1.8-2 1.1-1.2-.6-1.8-1.9-1.9-3.1-.1-1.3.3-1.8 1.6-1 1.2.6 2.1 1.6 2.3 3z"/><path d="m228.7 182c-1.3-.5-1.8-1.7-2.1-3-.3-1.2 0-1.8.8-1.6.9.2 1.8 1 2 2.3.3 1.2.3 2.3-.7 2.3z"/><path d="m223.6 185.7c.1.9.2 2-.7 1.7-1.1-.4-2-1.6-2.4-3.1-.4-1.1.1-1.5.8-1.3 1 .4 1.9 1.1 2.3 2.7z"/><path d="m217.2 204.8c.1.9.3 2.1-.7 1.8-1.1-.3-1.9-1.5-2.4-3-.4-1.1 0-1.5.8-1.3.9.2 1.8.9 2.3 2.5z"/><path d="m553.3 395.1c-.9.1-.8-.7-.3-1.7.4-1.1 1.1-1.9 2-2 .8-.1.7.5.3 1.5-.5.9-1 1.8-2 2.2z"/><path d="m365.1 256.1c-.9-.7-1.5-1.7-1.6-2.8 0-1.1.3-1.8 1.4-1.1.9.6 1.7 1.5 1.7 2.7.1 1.2-.5 1.7-1.5 1.2z"/><path d="m395.4 155.5c.2-1.4 1-1.5 2.1-.6 1 .7 2.1 1.7 1.9 2.8-.2 1-1.2 1.3-2.4.5-1.2-.7-1.5-1.8-1.6-2.7z"/><path d="m304.9 206.1c-.1-1.4.5-1.7 1.6-1.1.8.5 1.6 1.4 1.6 2.5-.1 1.2-.7 1.8-1.8 1.2-1-.4-1.2-1.6-1.4-2.6z"/><path d="m415.7 288.1c.2-.9.7-1.5 1.8-.7.8.5 1.4 1.3 1.2 2.3-.2 1.2-.9 1.5-1.9 1-.9-.4-1.3-1.3-1.1-2.6z"/><path d="m401.8 185.1c-1-.8-2-1.9-1.9-3.2.1-1.1 1-1 1.9-.4.9.6 2.1 1.5 2 2.7-.1 1.2-.9 1.3-2 .9z"/><path d="m350.4 338.7c-.1.9-.4 1.6-1.2 1-.9-.7-1.3-1.9-1.3-3.1 0-.9.1-1.9 1-1.1 1 .8 1.5 1.9 1.5 3.2z"/><path d="m134 306.5c-.4-1.1-.7-2.3.1-2.9.8-.7 1.6-.1 2.1 1.1.5 1.1.7 2.3-.2 2.8-.7.4-1.4.2-2-1z"/><path d="m11.5 248.7c-1.1 1.3-2.1 1.7-3 .7-.6-.8-.9-2 0-3.3 1.2-1.8 2.3-1.4 3.1-.4.7.8.8 1.8-.1 3z"/><path d="m285.6 188.4c-1.1-.9-1.4-2-1.5-3.1-.1-1.1.1-2 1.2-1.3 1.1.7 1.5 1.8 1.4 2.9.1 1 0 2-1.1 1.5z"/><path d="m217.5 59.3c-1.3-.6-2.1-1.6-2.4-2.8-.3-1.4.4-1.6 1.6-1.1 1 .4 1.9 1 2.2 2.2.4 1.3-.4 1.7-1.4 1.7z"/><path d="m439.5 294.4c-.2.7-.5 1.5-1.3.9-1.1-.7-1.7-1.9-1.5-3.2.1-1 .9-.7 1.6-.3.9.6 1.5 1.4 1.2 2.6z"/><path d="m150.2 278.1c.9-.1 1.7.4 2.1 1.6.4 1.1.2 2-.5 2.2-.7.3-1.6.1-2.1-1.3-.5-1.1-.3-2.1.5-2.5z"/><path d="m431 297.6c-.1.9-.5 1.6-1.4 1.1-1.1-.6-1.4-1.8-1.3-2.9 0-1 .5-1.6 1.4-1.1 1 .6 1.4 1.7 1.3 2.9z"/><path d="m588.7 245.8c-1 0-1.4-.4-1.1-1.3.4-1.2 1.4-1.7 2.5-1.8.9-.1 1.6.2 1.2 1.3-.5 1-1.5 1.6-2.6 1.8z"/><path d="m258.1 341.6c-.1-1.1 0-1.9.6-1.7.8.3 1.4 1.4 1.7 2.7.2 1.1-.2 1.3-.7 1.1-.6-.2-1.2-.8-1.6-2.1z"/><path d="m499.6 202.4c1 .5 2 .9 1.5 2.2-.4 1.1-1.4 1.2-2.4.7-1.1-.5-2-1.3-1.6-2.6.4-1.1 1.5-.7 2.5-.3z"/><path d="m394.1 114.1c.8.6 2.3.8 2 2.2-.2 1.1-1.4 1.2-2.5.6-1.2-.6-1.9-1.9-2-3-.1-1.9 1.6 0 2.5.2z"/><path d="m439.8 142.5c.3-1.1 1.2-.9 2.2-.3 1.1.6 2.2 1.3 2.1 2.6-.1.9-.5 1.7-1.7 1-1.3-.8-2.3-1.9-2.6-3.3z"/><path d="m146.7 253c-.5-1.3-.2-1.9.6-2.2.9-.3 1.6.3 2 1.6.3 1 .6 2.1-.3 2.4-1 .2-1.7-.6-2.3-1.8z"/><path d="m156.8 343.6c.3 1.2.4 2.3-.5 2.5-.7.2-1.3-.6-1.8-1.5-.5-1.2-.2-1.9.5-2.2.7-.3 1.4 0 1.8 1.2z"/><path d="m57.4 235.4c-1 .9-1.9 1.3-2.5 0-.6-1.1-.7-2.3.4-3.3.9-.9 1.9-1.1 2.5 0 .5 1.1.5 2.3-.4 3.3z"/><path d="m425.1 230.2c.1-1 .5-1.6 1.5-1.1.9.4 1.7 1.2 1.5 2.3-.1.9-.5 1.8-1.6 1.4-1.2-.4-1.3-1.6-1.4-2.6z"/><path d="m617 215.3c-1.1.2-1.4-.4-1.2-1.3.2-1 .9-1.7 2.1-2 1.3-.4 1.8-.1 1.2 1.2-.4.7-.7 1.7-2.1 2.1z"/><path d="m581.5 308.4c-.7-.1-1.3-.4-.7-1.6.5-1 1.4-2 2.3-2.2 1.2-.3.8.7.4 1.7-.5 1-.9 1.8-2 2.1z"/><path d="m134.2 269.1c-.8.2-1.7.1-2.1-1.3-.4-1.2-.2-2.3.7-2.5.9-.2 1.7.4 2.1 1.6.4 1.1.1 1.9-.7 2.2z"/><path d="m147.4 69.5c.2 1.1.2 2-1 1.9-1.1-.1-2.1-.5-2.6-1.8-.4-1.2-.2-2.2 1-2.1 1.2.1 2.2.7 2.6 2z"/><path d="m519.2 172c .8.4 2.2.3 1.9 1.6-.3 1-1.1 1.7-2.3 1.3-1.3-.5-2.3-1.6-2-2.8.3-1.3 1.6-.2 2.4-.1z"/><path d="m296.9 264.7c-1.1-.6-1.4-1.8-1.6-2.9-.2-1.1 0-1.8.9-1.4.7.3 1.5 1 1.6 2.2.1 1.2 0 2.3-.9 2.1z"/><path d="m183 283.4c.2.8.6 2-.3 2-.9 0-1.5-1.1-1.9-2.2-.3-1-.6-2.1.3-2.1.9 0 1.5 1 1.9 2.3z"/><path d="m385.2 262.4c-1.1-.8-1.4-1.8-1.3-2.9.1-.9.3-1.7 1.3-1.1 1 .6 1.5 1.7 1.4 2.8 0 1-.3 1.8-1.4 1.2z"/><path d="m344.7 232.7c.1-1 .3-1.8 1.4-1.1.9.6 1.6 1.7 1.6 2.9 0 1.3-.5 1.9-1.6 1.1-1-.7-1.4-1.8-1.4-2.9z"/><path d="m98.9 343.9c-.4-1.3-.2-2.5.6-3.1.9-.7 1.7-.3 2.2.9.5 1 .7 2.1-.2 2.7-.9.5-1.8.5-2.6-.5z"/><path d="m170.1 221.2c1.1.3 1.7 1.5 2 2.7.3 1.1.1 1.9-.8 1.8-1-.1-1.6-.9-1.8-2.2-.3-1.1-.4-2.2.6-2.3z"/><path d="m90.5 231.9c-.6.4-1.5.7-2-.5-.4-1-.7-2.3.2-3.2 1-1 1.7-.2 2.3.9.5 1 .7 2-.5 2.8z"/><path d="m98.2 45.2c-.3-1.3.1-2 1.2-2.1 1.2-.1 2.1.4 2.4 1.8.2 1.1 0 2-1.1 2.1-1.3.1-2-.7-2.5-1.8z"/><path d="m454.4 288.3c-1.1-.7-1.6-1.7-1.6-2.9 0-.9.7-1.1 1.5-.8 1 .4 1.6 1.2 1.5 2.4-.1 1-.4 1.6-1.4 1.3z"/><path d="m168.9 130.8c0 1-.1 2.2-1.1 2.1-1.1-.1-1.8-1.2-2.1-2.4-.3-1.2.1-1.7 1.1-1.6 1 .2 1.8.6 2.1 1.9z"/><path d="m277.4 87.8c0-1.1.8-1.1 1.7-.5 1.1.6 2 1.5 2 2.8 0 1-.5 1.4-1.6.7-1-.7-1.7-1.8-2.1-3z"/><path d="m311.9 173.5c-1.1-1-1.7-2.2-1.9-3.4-.1-1.2.6-1.1 1.5-.5.9.6 1.6 1.5 1.6 2.6.1.9-.1 1.8-1.2 1.3z"/><path d="m326.4 229.3c-.9-.9-1.5-1.9-1.5-3.1 0-1 .5-1 1.3-.4.8.6 1.5 1.4 1.5 2.6.1 1.1-.5 1.3-1.3.9z"/><path d="m327 88.9c-1.1-.7-1.8-1.6-1.8-2.7 0-1.3.9-1.2 2-.5.9.6 2.3 1.6 2.2 2.9 0 1.3-1.3.7-2.4.3z"/><path d="m240.1 169.6c.2 1.1.1 1.9-.9 1.4-1-.4-1.7-1.3-1.9-2.7-.2-1.2-.1-2.1 1.1-1.5 1.1.5 1.6 1.6 1.7 2.8z"/><path d="m314.2 252.5c-.9-.7-1.4-1.7-1.5-2.9-.1-1 0-1.8 1-1.1.9.7 1.5 1.6 1.5 2.8.1.9 0 1.8-1 1.2z"/><path d="m215.5 43c-1.2-.6-1.9-1.7-2.2-2.9-.3-1.1.1-1.7 1.2-1.4 1.1.4 2.2 1.2 2.3 2.5.2 1.2-.2 1.8-1.3 1.8z"/><path d="m250.6 363.4c-.5-.2-1-.7-1.3-1.8-.2-1.1-.4-2.3.3-2.1.5.1 1 1 1.2 2 .3.9.5 1.9-.2 1.9z"/><path d="m473.3 325.7c.8.4 1.4.9 1.1 2-.2.8-.6 1.7-1.6 1.3-.9-.4-1.3-1.4-1.2-2.4.1-1.1.8-1.2 1.7-.9z"/><path d="m587.3 321.1c-1.1.3-.8-.7-.5-1.6.3-.9 1.1-1.7 2-2 .9-.3.9.2.5 1.1-.5.9-.8 2-2 2.5z"/><path d="m310.7 186.1c0-.8.2-1.7 1.3-1 .9.6 1.5 1.5 1.5 2.6 0 1.2-.3 2.1-1.5 1.4-.8-.5-1.2-1.7-1.3-3z"/><path d="m326.5 260.8c-1-.8-1.3-1.8-1.4-2.8 0-1.1.3-1.6 1.2-.9.7.5 1.5 1.3 1.5 2.5-.1 1-.7 1.2-1.3 1.2z"/><path d="m80.3 353.8c-.8.8-1.5.8-2.1-.2-.5-1-1-2.2 0-3.3.8-.9 1.5-.3 2.1.5.6.9.8 1.9 0 3z"/><path d="m339.8 299.4c-.2.9-.5 1.6-1.4.9-.8-.6-1.1-1.7-1.1-2.7 0-1.1.4-1.5 1.2-.8.8.6 1.3 1.4 1.3 2.6z"/><path d="m548.5 407.6c-.5.9-.9 1.9-1.7 2.2-.8.3-.7-.5-.4-1.4.3-.9.9-1.8 1.7-2.1.8-.4.7.4.4 1.3z"/><path d="m338.3 220.4c-.1-1.3.5-1.5 1.5-.8.7.5 1.5 1.1 1.4 2.1-.1 1.1-.7 1.7-1.7 1.3-.9-.4-1.1-1.6-1.2-2.6z"/><path d="m133.6 43.8c.2 1.1.3 2.2-1 2.2-1 0-1.8-.8-2.2-1.9-.4-1.2-.4-2.2.9-2.2 1.1 0 1.9.7 2.3 1.9z"/><path d="m160.4 138.9c-.3-1.1-.5-2.2.8-2.1.9.1 1.6.6 1.9 1.8.3 1.1.6 2.2-.6 2.3-1 .1-1.8-.6-2.1-2z"/><path d="m116.8 374.5c-.6.5-1.2.7-1.8-.2-.6-1.1-1.1-2.3-.3-3.4.5-.8 1.2-.3 1.7.6.5.9 1.1 1.9.4 3z"/><path d="m456.4 271.6c.2-1 .9-1 1.7-.7.9.4 1.5 1.1 1.2 2.1-.2.7-.6 1.5-1.5 1.1-1-.4-1.4-1.5-1.4-2.5z"/><path d="m166.2 305.5c-.7.2-1.4-.1-1.7-1.3-.3-1-.7-2.3.2-2.7.9-.4 1.4.9 1.9 1.9.4 1.1.3 1.8-.4 2.1z"/><path d="m253.7 356.7c-.6-.3-1.2-1-1.4-2.2-.2-1.1-.3-2.3.4-2.1.7.2 1.3 1.4 1.5 2.6.2 1.1.2 1.8-.5 1.7z"/><path d="m285.8 256.3c-.1.9-.1 1.8-1.1 1.2-1-.7-1.3-1.8-1.4-2.9-.1-.9 0-1.9.9-1.2 1 .6 1.3 1.8 1.6 2.9z"/><path d="m107 210.2c.3 1.1.4 2.1-.5 2.5-.8.3-1.7.1-2.2-1-.5-1.1-.3-2.1.5-2.5.8-.4 1.7-.1 2.2 1z"/><path d="m148.3 217c-.3-1.2-.2-2.2.8-2.3.8-.1 1.5.6 1.8 1.8.4 1.2.3 2.2-.7 2.3-.8 0-1.5-.7-1.9-1.8z"/><path d="m269.8 271.4c-1-.7-1.3-1.8-1.4-2.9-.1-.9 0-1.6.8-1.1.9.5 1.4 1.5 1.5 2.7 0 1-.1 1.7-.9 1.3z"/><path d="m76 13.5c-.1.9.2 2.1-1 2.4-1.3.3-2.1-.6-2.5-1.7-.4-1.1 0-2 1.2-2.2 1-.2 1.9.2 2.3 1.5z"/><path d="m272 45.3c.1 1.4-.7 1.4-1.7 1-1.2-.6-2.7-1.3-3.2-3.1-.3-1.1.7-.7 1.4-.2 1.2.7 2.5.6 3.5 2.3z"/><path d="m81.3 183.2c.2.9 1 2-.2 2.7-1.1.7-2.1-.2-2.8-1.2-.6-.9-.4-1.8.5-2.3 1.1-.6 2-.7 2.5.8z"/><path d="m268.5 330.8c.1 1 .2 1.9-.6 1.6-.7-.3-1.2-1.1-1.4-2.3-.2-1-.3-2.1.4-1.9.7.2 1.2 1.4 1.6 2.6z"/><path d="m142.6 323.7c-.9.4-1.4-.2-1.8-1.3-.3-1-.8-2.1 0-2.6.8-.5 1.3.5 1.8 1.4.4 1 .7 1.9 0 2.5z"/><path d="m303.6 276.5c-.8-.6-1.4-1.4-1.5-2.6-.1-1 0-2 .8-1.5.9.4 1.5 1.5 1.6 2.8.1 1.1-.1 1.7-.9 1.3z"/><path d="m532 368.4c-.9-.1-1-.8-.7-1.7.3-.9.8-1.7 1.7-1.8.8-.2.9.5.6 1.3-.2.9-.6 1.8-1.6 2.2z"/><path d="m419 235.5c-1-.7-1.8-1.5-1.7-2.7.1-.9.8-1 1.6-.5.9.6 1.9 1.3 1.8 2.5-.1 1-.8 1.1-1.7.7z"/><path d="m632 228.6c-.4.8-.9 1.8-2.1 2.3-1.2.5-1.5 0-1.1-1 .3-.9.9-1.8 2.1-2.3 1.1-.5 1.5-.2 1.1 1z"/><path d="m58.5 220.5c-.5-1-.6-2 .2-2.7 1-.9 1.9-.6 2.4.6.4.8.7 1.9-.2 2.7-.9.9-1.8.2-2.4-.6z"/><path d="m609.3 299.3c-.5.8-1 1.9-1.9 2.4-1.1.5-1-.5-.7-1.4.2-.8 1-1.6 1.8-1.9.9-.6 1.4-.4.8.9z"/><path d="m498.2 292.1c-.9-.4-1.5-1.1-1.3-2.2.2-1 .9-1.4 1.8-1.3 1 .2 1.4.9 1.1 1.9-.2.9-.4 1.7-1.6 1.6z"/><path d="m19 199.9c-.4-1-.3-2.1.6-3 1.1-1.1 2-.9 2.6.3.4.9.5 2.1-.5 2.9-1 .8-2 .8-2.7-.2z"/><path d="m258.8 186.2c-.2-1.3.2-1.7 1.1-1.2.9.4 1.6 1.1 1.7 2.3.2 1.1 0 2-1.1 1.6-1-.4-1.3-1.6-1.7-2.7z"/><path d="m173.8 358.8c-.7.3-1.3-.3-1.7-1.4-.4-1-.7-2.1 0-2.5.7-.4 1.2.5 1.7 1.5.4 1 .6 1.9 0 2.4z"/><path d="m200.2 269.8c-.8-.3-1.4-1.1-1.6-2.2-.2-1-.4-2.1.5-2 .8.1 1.3 1.2 1.6 2.2.2 1 .2 1.9-.5 2z"/><path d="m203.9 109.4c-1.2-.5-1.7-1.4-1.9-2.5-.2-1.1-.1-1.9 1-1.5.7.3 1.6.9 1.8 2 .1 1-.2 1.8-.9 2z"/><path d="m124.7 390c-1 .5-1.7-.2-2.2-1.3-.4-.9-.8-2.1.1-2.7.8-.5 1.4.4 1.9 1.2.5 1 .7 2 .2 2.8z"/><path d="m646.8 315.4c.5-1 1.2-2.2 2.1-3.2.8-1 1.1-1.1.3.3-.6 1.1-1.5 2.5-2.3 3.4-.8 1-.8.8-.1-.5z"/><path d="m123.4 196.7c-1 .3-1.6-.5-2.1-1.5-.5-1-.5-2 .4-2.3.8-.3 1.4.3 1.7 1.3.4.9.8 1.9 0 2.5z"/><path d="m141.8 146.4c-.2-1-.3-1.9.6-2 1.2-.1 1.9.8 2.3 2.2.3.9.4 1.9-.5 1.9-1.2.1-1.9-.9-2.4-2.1z"/><path d="m279.9 75.3c-1.2-.8-2-1.7-2.1-2.9-.2-1.2.5-1.3 1.6-.6 1.1.7 2.2 1.4 2.1 2.8 0 1.2-.9.9-1.6.7z"/><path d="m163.6 115.5c-1.1-.4-1.9-1-2.2-2.2-.3-1.2.1-1.9 1.1-1.6.9.2 1.7 1.1 1.8 2.3.2.9 0 1.5-.7 1.5z"/><path d="m173.6 20c-1.2-.5-1.8-1.4-2-2.5-.3-1.2.1-1.8 1.3-1.4 1.1.3 2 1.1 2 2.3.1.9-.2 1.7-1.3 1.6z"/><path d="m354.5 201.5c-.9-.8-1.4-1.7-1.4-2.7.1-1 .5-1.4 1.5-.7 1 .7 1.7 1.7 1.6 2.9-.1 1-.8.9-1.7.5z"/><path d="m83.4 322.6c.4.9.9 2 .1 3-.6.8-1.4.6-1.9-.3-.5-1-1-2.2 0-3.3.7-.8 1.3-.1 1.8.6z"/><path d="m629.8 352.1c.6-1.2 1.2-2.3 2-3.2.8-1 .8-.8 0 .6-.6 1.1-1.3 2.4-2.1 3.4-.8 1-.2-.2.1-.8z"/><path d="m505 356.2c-.8-.5-1.1-1.3-.8-2.3.2-.9.8-1.2 1.6-1 .9.3 1.2.9.7 2-.3.7-.7 1.4-1.5 1.3z"/><path d="m351.4 307.6c-.1.9-.5 1.2-1.2.8-.7-.4-1.2-1.2-1.2-2.2 0-1 .4-1.5 1.2-.8.7.5 1.2 1.3 1.2 2.2z"/><path d="m118.1 284.2c-.4-1.1-.3-2.1.5-2.6.8-.5 1.5.2 1.9 1.3.4 1 .7 2.1-.2 2.6-.9.5-1.6-.2-2.2-1.3z"/><path d="m231.7 159.2c-.9-.5-1.6-1.3-1.8-2.4-.2-1.1-.1-1.9 1-1.4.8.4 1.6 1.1 1.9 2.4.1 1.1-.2 1.6-1.1 1.4z"/><path d="m279.5 104.4c0-1.1.5-1.3 1.6-.6 1 .6 1.8 1.5 1.8 2.7.1 1.1-.6 1.2-1.6.6-1.1-.6-1.7-1.5-1.8-2.7z"/><path d="m458.3 168.5c-.4.8-1.2 1-2.2.3-.9-.5-1.5-1.3-1.4-2.2.2-1.1 1.2-.8 2.2-.3.9.6 1.6 1.2 1.4 2.2z"/><path d="m149.5 289c .4 1.1.8 2.3-.1 2.6-.9.3-1.5-.7-1.9-1.9-.4-1.1-.6-2 .3-2.2.9-.3 1.4.6 1.7 1.5z"/><path d="m123.5 261c-.4-1-.6-2 .3-2.4.8-.4 1.5.2 1.9 1.3.4 1 1 2.3 0 2.8-.8.3-1.5-.7-2.2-1.7z"/><path d="m380.6 162.8c-1-.7-2-1.4-1.9-2.8.1-.9.2-1.8 1.5-1 1.1.8 2 2 2 3.3.1 1.1-.7 1-1.6.5z"/><path d="m168.6 65c .1 1.1-.2 1.7-1.2 1.5-1-.2-1.8-.8-2.1-2.1-.2-1.1 0-1.9 1.2-1.5 1.1.3 1.8 1.2 2.1 2.1z"/><path d="m567.5 403.6c-.7.2-.6-.5-.2-1.5.4-.9 1-1.8 1.8-2.2.9-.4.7.3.2 1.4-.4.9-.9 1.7-1.8 2.3z"/><path d="m223.5 250.7c-.9-.3-1.3-1.3-1.6-2.3-.3-.9-.3-1.8.4-1.6.7.1 1.2.8 1.5 1.8.3 1 .4 1.9-.3 2.1z"/><path d="m243.7 329c-.8-.4-1.2-1.2-1.4-2.3-.1-.8-.3-1.9.3-1.7.8.2 1.3 1.4 1.5 2.6.3.9.2 1.5-.4 1.4z"/><path d="m114.2 43.6c-.2-1.1.3-1.8 1.4-1.7 1 .1 2 .4 2.2 1.7.2 1.1-.3 1.9-1.3 1.8-1-.1-1.9-.5-2.3-1.8z"/><path d="m213.6 174c-.1-.9-.1-1.8.7-1.5.9.3 1.6 1.1 1.8 2.3.2 1 .1 2-.9 1.6-.8-.2-1.4-1.2-1.6-2.4z"/><path d="m441.8 279.6c-.5.6-.9 1.5-1.9.9-.8-.5-.8-1.4-.7-2.2.2-.9.7-1.5 1.6-.9.7.5 1.2 1.2 1 2.2z"/><path d="m527.2 388.2c.5-.9 1-1.8 1.8-1.7.7.1.9.7.4 1.7-.4.8-1 1.7-1.8 1.7-.7 0-.5-.9-.4-1.7z"/><path d="m363.5 286.5c-.8-.7-1.1-1.5-1.1-2.4 0-1 .3-1.6 1.3-.9.7.5 1.2 1.3 1.1 2.3-.1.9-.4 1.5-1.3 1z"/><path d="m153.3 316.2c.2 1 .6 2.1-.2 2.5-.8.4-1.4-.5-1.7-1.6-.3-1-.6-2.2.3-2.4.6-.2 1.2.5 1.6 1.5z"/><path d="m198.9 89.4c-.1-.9.1-1.6 1.1-1.2 1 .4 1.8 1.2 1.9 2.4.1 1 0 1.9-1.2 1.4-1.1-.5-1.5-1.6-1.8-2.6z"/><path d="m547.5 241.5c-.4.9-1 1.4-1.9 1.2-.9-.2-1.9-.7-1.6-1.8.3-1 1.3-1.2 2.2-1 1 .1 1.5.6 1.3 1.6z"/><path d="m297.1 247.1c0 .8-.3 1.2-.9.8-.9-.6-1.5-1.6-1.6-2.8 0-.8.3-1.1 1-.6.8.6 1.3 1.5 1.5 2.6z"/><path d="m189.1 64.3c-.9-.3-1.7-.8-2-1.9-.3-1.1-.4-2 .8-1.9 1 .2 1.9.8 2.2 2.1.4 1.1 0 1.7-1 1.7z"/><path d="m652 287.7c-.7.6-1 .6-.4-.7.5-1 1.3-2 2-2.8.8-.8 1.2-.9.5.3-.4 1.1-1.1 2.2-2.1 3.2z"/><path d="m558.9 317.9c-.8-.1-1.1-.6-.7-1.6.3-.9.9-1.7 1.9-1.6.9 0 1 .6.6 1.6-.5.7-.9 1.5-1.8 1.6z"/><path d="m412.4 126.1c-.2.7-.7 1.2-1.7.5-1-.6-1.9-1.6-1.8-2.7.1-1 1-.8 1.9-.1.8.6 1.6 1.2 1.6 2.3z"/><path d="m389.2 232.3c-.8-.7-1.7-1.5-1.7-2.7 0-.8.5-1 1.2-.6 1 .6 1.8 1.4 1.7 2.7 0 .6-.4 1-1.2.6z"/><path d="m370.6 297.6c-.1.8-.4 1.4-1.1.9-.8-.5-1.3-1.4-1.4-2.5-.1-1 .4-1.3 1.1-.8.7.5 1.3 1.2 1.4 2.4z"/><path d="m369 107.8c-1-.6-2-1.3-1.9-2.5 0-1 .8-.8 1.8-.2.9.6 2 1.2 2.1 2.5 0 1.1-1 .8-2 .2z"/><path d="m225.9 164.9c-1-.6-1.4-1.5-1.6-2.6-.2-1 0-1.6.9-1.2.8.3 1.4 1.1 1.6 2.1.2 1 0 1.8-.9 1.7z"/><path d="m36.9 277.1c-.4-1-.4-2 .4-3 .9-1.1 1.6-1.1 2.2.1.4 1 .8 2.1-.3 3.1-.8.8-1.7.7-2.3-.2z"/><path d="m34.2 67.8c-.5-1.1-.1-1.9.8-2.5 1-.7 2.1-1.1 2.7.3.4 1 .4 2.2-.7 2.8-1.2.8-2.1.3-2.8-.6z"/><path d="m5.9 42.9c.8-.3 1.8-2.1 2.4-.3.3 1.1 0 2.3-1.2 3-1.1.7-2.4 1-3-.2-.5-1.5 1.2-1.6 1.8-2.5z"/><path d="m608.1 361.3c-.4.8-1 1.9-1.8 2.6-.8.7-.6 0-.1-1 .5-.9 1-2 1.9-2.7.6-.5.5.1 0 1.1z"/><path d="m28.9 277.8c-1.2 1.1-2 .8-2.5-.3-.5-1-.5-2.2.5-3.3 1-1 1.7-.5 2.2.4.4 1 .6 2-.2 3.2z"/><path d="m594.1 251.9c-.8 0-1.4-.2-1.1-1.2.3-.8 1-1.6 1.9-1.8 1.1-.3 1.5.2 1.1 1.2-.4.7-.8 1.5-1.9 1.8z"/><path d="m265.4 352.6c-.1-.9-.3-2 .5-1.5.7.4 1.1 1.4 1.3 2.5.2 1 .1 1.6-.5 1.4-.7-.4-1.1-1.2-1.3-2.4z"/><path d="m375.6 223.2c-.8-.8-1.6-1.7-1.4-2.7.1-.9.9-.7 1.7-.1.8.6 1.3 1.4 1.2 2.4-.1.9-.7 1-1.5.4z"/><path d="m372.4 322.6c0-.8.5-1.1 1.1-.8.7.3 1.2 1.1 1.2 2.1.1 1.1-.4 1.5-1.2 1-.6-.5-1.1-1.2-1.1-2.3z"/><path d="m581.1 231.5c-.9-.2-1.5-.7-1.1-1.8.3-.8 1.1-1.3 2-1.2 1 .1 1.4.6 1 1.5-.3.8-.9 1.4-1.9 1.5z"/><path d="m228.5 307.2c-.2-1.1-.2-1.9.4-2 .6-.1 1.1.8 1.3 1.8.3 1 .4 2.1-.3 2-.5-.1-1-.8-1.4-1.8z"/><path d="m183.4 309.9c-.2-.9-.5-2.1.2-2.3.7-.2 1.3.7 1.7 1.7.4 1.1.5 2-.3 2.1-.7.1-1.2-.4-1.6-1.5z"/><path d="m557.3 372.5c.4-.8.8-1.6 1.6-1.8 1-.3.9.4.5 1.3-.3.7-.8 1.6-1.6 1.9-.9.3-.8-.5-.5-1.4z"/><path d="m211.6 247.2c-.8-.3-1.4-1.1-1.6-2.2-.2-.9-.4-1.8.5-1.7.8.2 1.4 1.1 1.6 2.2.2 1 .2 1.7-.5 1.7z"/><path d="m546 317.6c-.7-.3-1.1-.9-.8-1.8.2-.9.9-1.3 1.7-1.3.8 0 1.1.5.7 1.4-.3.8-.7 1.5-1.6 1.7z"/><path d="m371.6 269.3c-.7-.5-1.6-1-1.6-2.2 0-1 .4-1.6 1.3-.8.8.6 1.7 1.5 1.7 2.7 0 1.1-.8.6-1.4.3z"/><path d="m319.3 154c-.9-.6-1.5-1.3-1.5-2.4-.1-1 .2-1.5 1.2-.7.9.6 1.8 1.4 1.8 2.6.1 1-.6.9-1.5.5z"/><path d="m256.2 287.7c-.8-.5-1.2-1.4-1.4-2.5-.1-.9-.1-1.8.6-1.5.8.4 1.2 1.5 1.4 2.5.2 1 .1 1.7-.6 1.5z"/><path d="m201.6 292.9c.3 1 .5 1.9-.2 2-.8.1-1.3-.9-1.6-2-.3-.9-.5-1.9.2-2 .8-.1 1.2 1.1 1.6 2z"/><path d="m565.1 331.6c-.7-.1-.7-.7-.3-1.7.4-.9 1.1-1.5 1.8-1.5.8 0 .7.7.3 1.5-.4.8-.8 1.7-1.8 1.7z"/><path d="m458.9 231.2c.8.4 1.4 1.1 1.2 2-.2.8-.8 1.1-1.6.8-.8-.3-1.4-1.1-1.3-1.9-.1-1.2.7-1.3 1.7-.9z"/><path d="m256.9 349.9c-.7-.4-1.2-1.1-1.3-2.3-.2-1-.3-2 .5-1.6.7.4 1.1 1.4 1.3 2.5.2 1.1.1 1.5-.5 1.4z"/><path d="m230.6 103.8c-.9-.5-1.5-1.3-1.7-2.2-.2-1 .1-1.6 1-1.2.9.4 1.7 1.1 1.8 2.4.1.8-.2 1.3-1.1 1z"/><path d="m85 49.6c-1 .1-1.9.1-2.4-1.1-.5-1.1-.3-2 .9-2.3 1-.3 1.9.1 2.3 1.2.2 1 .2 1.8-.8 2.2z"/><path d="m26.1 170c-.4-.9-.3-1.9.5-2.8.9-1 1.8-1.2 2.4-.2.5.8.6 1.8-.4 2.7-.9.9-1.8 1.2-2.5.3z"/><path d="m104.5 314.8c.3.9 1 1.9.1 2.7-.8.7-1.5-.1-2-1-.5-.8-.7-1.8 0-2.5.7-.9 1.3-.3 1.9.8z"/><path d="m487.2 389.9c-.7-.5-.6-1.3-.3-2.1.3-.8.8-1.3 1.5-.9.7.4.5 1.1.2 1.9-.2.7-.6 1.4-1.4 1.1z"/><path d="m95.3 314.4c-.7.6-1.4.5-1.9-.3-.5-.8-1.1-1.8-.3-2.8.6-.8 1.3-.6 1.9.3.5.7.9 1.7.3 2.8z"/><path d="m211.1 352.7c-.2-1-.4-2.1.1-2.3.6-.2 1.2 1 1.5 2 .3.9.5 1.8-.2 1.8-.6.1-1.1-.3-1.4-1.5z"/><path d="m301.6 79c .1-.9.4-1.3 1.5-.6.9.6 1.5 1.6 1.5 2.5 0 .8-.3 1.5-1.4.7-1-.7-1.5-1.6-1.6-2.6z"/><path d="m501.6 300.4c-.8-.3-1.3-.9-1.1-1.9.1-.9.7-1.3 1.5-1.1.9.2 1.4.8 1.1 1.8-.2.8-.6 1.4-1.5 1.2z"/><path d="m95.2 370.9c-.5-.9-.9-1.9-.2-3 .6-.9 1.3-.6 1.8.3.5.9.9 2 .2 3-.6.9-1.3.4-1.8-.3z"/><path d="m637.7 295.2c-.6.2-1 .3-.3-1 .6-1.1 1.4-1.9 2-2.3.7-.4.8-.2.2.9-.5.9-1.2 1.8-1.9 2.4z"/><path d="m621.1 321.4c-.5.9-1 2-1.9 2.7-.8.6-.7-.2-.2-1.1.4-.8 1.1-1.8 1.8-2.4.8-.6.8-.1.3.8z"/><path d="m519.1 220.8c-1.1-.5-1.1-1.4-.8-2.2.2-.7.6-1.2 1.5-.9 1.1.3 1.5 1 1.1 2-.3.7-.8 1.3-1.8 1.1z"/><path d="m689.8 221.5c-.8.9-1.2 1-.7 0 .4-.8 1.1-2 2.1-3 .9-1 1.3-1.2.8-.3-.4.8-1.1 2-2.2 3.3z"/><path d="m641.3 302.2c-.8.7-.5-.1-.2-1 .4-.9 1.1-1.9 1.9-2.6.9-.8.7-.1.1.9-.4.9-.9 1.8-1.8 2.7z"/><path d="m371.3 355c-.7-.5-1.2-1.3-1.2-2.4 0-.9.4-1.3 1.1-.8.6.4 1 1.3 1.1 2.2 0 .9-.4 1.3-1 1z"/><path d="m414.6 305.1c-.8-.6-1.1-1.6-1.1-2.5 0-1.1.6-1.1 1.3-.6.9.6 1.2 1.5 1 2.4-.1.8-.4 1.2-1.2.7z"/><path d="m118.5 350.4c-.7.6-1.3.4-1.7-.6-.3-.8-.7-1.8.1-2.4.6-.5 1.3-.1 1.8.7.4.9.3 1.7-.2 2.3z"/><path d="m505.7 385.3c.3-.9.8-1.3 1.4-1.2.8 0 1 .8.8 1.7-.2.8-.6 1.5-1.4 1.3-.7-.3-.9-1-.8-1.8z"/><path d="m604.4 296.2c-.6.2-1 0-.7-.9.4-.9 1-1.8 2-2.2.8-.3.9.2.5 1-.3.9-.8 1.7-1.8 2.1z"/><path d="m241.1 360.1c-.7-.3-1.1-1.2-1.4-2.3-.2-.9-.2-1.7.4-1.6.7.2 1.1 1.2 1.4 2.3.1.9.3 1.8-.4 1.6z"/><path d="m90.3 339.3c.6 1.1.7 2.1.1 2.8-.7.9-1.5.6-2-.4-.4-.9-.9-2-.1-2.9.7-.7 1.5-.1 2 .5z"/><path d="m18.2 215c-.8.9-1.7 1.3-2.2.2-.4-.8-.5-1.9.3-3 .9-1.1 1.8-1.3 2.4-.3.4.9.5 1.9-.5 3.1z"/><path d="m530.9 335.2c.7.2.9.8.6 1.6-.3.8-.8 1.5-1.6 1.4-.8 0-.8-.8-.5-1.6.3-.7.6-1.4 1.5-1.4z"/><path d="m356.8 319.5c0 .8-.2 1.5-.9 1.1-.8-.5-1.1-1.4-1.2-2.5-.1-1 .2-1.5.9-1.1.7.5 1.2 1.4 1.2 2.5z"/><path d="m130.6 404.5c-.5-1-.7-1.9-.1-2.5.7-.7 1.4 0 1.8 1 .4.9.7 1.9.1 2.4-.7.7-1.3-.1-1.8-.9z"/><path d="m465.5 205.7c-.8-.4-1.6-1.1-1.6-2.2 0-.9.7-.9 1.5-.6.9.4 1.9.9 1.7 2.1-.1.8-.6 1.1-1.6.7z"/><path d="m364.5 271.2c-.8-.6-1.1-1.4-1.1-2.3 0-1 .5-1.1 1.3-.7.7.4 1.4 1.1 1.3 2.1-.1 1-.8 1.1-1.5.9z"/><path d="m309.9 288c-.8-.6-1.3-1.6-1.4-2.6-.1-.9.2-1.2.9-.8.8.5 1.3 1.3 1.4 2.5-.1.8-.3 1.2-.9.9z"/><path d="m179.8 294.5c-.7 0-1.2-.6-1.5-1.6-.3-.9-.6-1.9 0-2.2.6-.3 1.2.4 1.6 1.4.3 1 .6 2-.1 2.4z"/><path d="m208 164.3c0 .9.2 2-.7 1.8-.9-.2-1.4-1.3-1.7-2.4-.2-1 0-1.6.8-1.4.7.2 1.3.9 1.6 2z"/><path d="m204.2 148.8c-1-.5-1.7-1.2-1.9-2.4-.2-1-.1-1.7.8-1.4.9.3 1.6 1.1 1.9 2.3.1.9-.1 1.5-.8 1.5z"/><path d="m302.8 359.4c0-.9.2-1.5.8-1 .6.5 1 1.3 1.1 2.3.1 1-.3 1.3-.8.9-.7-.4-1-1.3-1.1-2.2z"/><path d="m241.9 60.6c0 1.1-.6 1.4-1.7.8-1-.5-1.5-1.3-1.6-2.3-.1-.9.1-1.6 1.2-1 1 .6 1.8 1.4 2.1 2.5z"/><path d="m157.9 298.4c-.7.1-1.2-.4-1.6-1.4-.3-.9-.9-2-.1-2.5.7-.5 1.3.5 1.8 1.4.4 1 .6 2-.1 2.5z"/><path d="m584.3 377.7c-.7.4-.7 0-.4-.9.4-.9.9-1.8 1.8-2.4.7-.5.8 0 .4.8-.3.9-.8 1.8-1.8 2.5z"/><path d="m222.5 37.4c-1-.5-1.6-1.3-1.8-2.2-.2-1 .2-1.5 1.2-1 1 .5 1.9 1.4 2 2.5.2.9-.5 1-1.4.7z"/><path d="m272.3 325c .1 1 .1 1.8-.5 1.6-.7-.2-1-1.2-1.2-2.1-.2-1-.3-2.1.5-1.7.6.3 1 1.3 1.2 2.2z"/><path d="m197.4 33.6c-.2-1.1.1-1.6 1.1-1.2.9.3 1.9.8 2.2 2.1.2 1.1-.1 1.8-1.2 1.5-1.1-.4-1.7-1.4-2.1-2.4z"/><path d="m196.9 19.2c-.9-.5-1.8-1.1-1.9-2.3-.1-.9.2-1.5 1.2-1.1 1.2.5 2.1 1.4 2.2 2.7.1.8-.4 1.1-1.5.7z"/><path d="m213.4 80.9c-1-.5-1.7-1.4-1.8-2.5-.1-1 .1-1.6 1.1-1.2 1 .4 1.7 1.3 1.9 2.5 0 .9-.3 1.4-1.2 1.2z"/><path d="m164.2 243.2c-1-.1-1.4-1-1.6-2.1-.2-.9-.3-1.9.5-1.8.8.1 1.4 1 1.7 2.1.2.9.2 1.7-.6 1.8z"/><path d="m393.1 370.7c-.6-.5-1-1.2-.9-2.1.1-.8.5-1.2 1.2-.8.5.4.9 1.1.8 1.9-.1.9-.4 1.3-1.1 1z"/><path d="m270.6 177.5c0-.9.1-1.7 1-1.4.7.3 1.1 1.1 1.2 1.9.1.9.1 2-.8 1.7-.8-.2-1.2-1.2-1.4-2.2z"/><path d="m454.1 262.1c-.3.7-.7 1.1-1.4.6-.8-.6-1.4-1.4-1.2-2.4.2-.8.9-.6 1.6-.2.8.4 1.1 1.1 1 2z"/><path d="m345.9 250.3c-.8-.7-1.4-1.5-1.3-2.6 0-.8.5-1 1.1-.5.7.5 1.3 1.3 1.4 2.3.1.9-.3 1.4-1.2.8z"/><path d="m432.4 322.5c-.2.6-.4 1.6-1.2 1.2-1-.5-.8-1.5-.7-2.4.1-.8.3-1.6 1.2-1 .8.5.9 1.4.7 2.2z"/><path d="m281.8 332.2c-.8-.8-.9-1.8-1-2.7-.1-.9.1-1.5.8-.8.7.6.8 1.5.9 2.4.1.8.1 1.6-.7 1.1z"/><path d="m336 147.7c0 1-.6 1.1-1.4.6-.9-.5-1.8-1.4-1.9-2.5-.1-1 .4-1.3 1.3-.7.9.5 1.7 1.4 2 2.6z"/><path d="m545 265.2c-.9-.2-1.1-.9-.8-1.8.3-.8.9-1.4 1.8-1.2.9.2 1.3.8.9 1.8-.3.8-.9 1.4-1.9 1.2z"/><path d="m586.9 193.8c.5-.9 1.3-1.2 2.2-1.2 1.1 0 1.6.4 1 1.5-.4.8-1.1 1.1-1.8 1-.9 0-1.8-.2-1.4-1.3z"/><path d="m591.2 404.9c-.6.4-.4-.2.1-1.1.5-1 1.2-2.1 1.9-2.7.5-.5.4.1-.1.9-.5 1-1 2-1.9 2.9z"/><path d="m393.6 259.2c-.7-.9-1.5-1.7-1.5-2.9 0-.7.5-.7 1.1-.3.8.5 1.6 1.1 1.5 2.3-.1.6-.2 1.3-1.1.9z"/><path d="m486.9 183c .2-.9.8-1.1 1.6-.9 1.1.4 1.8 1.1 1.5 2.1-.2.7-.7 1.2-1.5.9-1.1-.4-1.4-1.3-1.6-2.1z"/><path d="m205.2 189.2c-1-.6-1.2-1.6-1.4-2.6-.1-.8 0-1.5.8-1.1.9.5 1.5 1.4 1.6 2.5.1 1-.2 1.5-1 1.2z"/><path d="m171 200.2c-.9 0-1.4-.7-1.7-1.7-.3-1-.6-2.1.4-2.2.7-.1 1.2.7 1.4 1.5.3 1 .8 2.1-.1 2.4z"/><path d="m238.1 271.9c-.8-.3-1.2-1.1-1.5-2-.2-1-.4-2.1.4-1.9.7.2 1.1 1.2 1.3 2.1.2.9.4 1.8-.2 1.8z"/><path d="m102.5 156.6c-1 0-1.3-.9-1.7-1.6-.4-.8-.4-1.6.4-1.9.9-.4 1.5.2 1.8 1.2.2.9.3 1.8-.5 2.3z"/><path d="m611.4 339.6c-.7.4-.8 0-.4-.9.3-.8.9-1.5 1.6-2 .7-.5 1.1-.6.6.4-.5.8-1 1.7-1.8 2.5z"/><path d="m665.4 277.5c-.7.8-.6.4-.1-.6.5-.9 1.1-1.9 1.9-3 .8-1 1.1-1.2.5 0-.6 1-1.3 2.3-2.3 3.6z"/><path d="m404.2 282.3c-.7-.8-1.1-1.6-1-2.5.1-.8.6-.9 1.3-.4.8.6 1.1 1.4.9 2.3-.2.7-.7.7-1.2.6z"/><path d="m194.4 226c-.1-.9-.5-2 .3-1.9.9.1 1.4 1 1.7 2.1.2.9.3 1.9-.5 1.7-.8-.1-1.2-1-1.5-1.9z"/><path d="m317.9 105c .1-1.1.9-1 1.9-.3.9.6 1.6 1.5 1.4 2.4-.2.8-.9 1-1.9.3-.9-.7-1.3-1.6-1.4-2.4z"/><path d="m352.2 127.1c-.1.8-.6.9-1.4.5-.9-.6-1.5-1.4-1.6-2.4 0-.8.4-1.1 1.3-.5.9.6 1.6 1.4 1.7 2.4z"/><path d="m295.3 215c-.1.8-.4 1.2-1.2.7-.8-.5-1.3-1.3-1.4-2.3-.1-1.1.4-1.2 1.2-.7.7.5 1.2 1.2 1.4 2.3z"/><path d="m426.1 349.1c.7.6.9 1.3.7 2.1-.2.7-.3 1.6-1.1 1.2-.7-.4-.8-1.3-.7-2.1.1-.8.3-1.4 1.1-1.2z"/><path d="m124.4 223.7c-.7.2-1.4-.1-1.8-1.1-.3-.7-.2-1.4.3-1.6.7-.2 1.4.1 1.8 1.1.4.7.3 1.3-.3 1.6z"/><path d="m349.9 142.5c-.8-.5-1.6-1.1-1.7-2.2-.1-1 .5-1.2 1.4-.5.8.5 1.6 1.2 1.7 2.3.2 1-.5.9-1.4.4z"/><path d="m353.8 216.2c-.8-.6-1.3-1.4-1.3-2.3 0-1 .5-1.1 1.3-.6.8.5 1.4 1.2 1.3 2.2 0 .9-.5 1.1-1.3.7z"/><path d="m291.5 321.1c.1.9 0 1.7-.7 1.3-.7-.4-1-1.4-1.1-2.3-.1-.9 0-1.7.7-1.2.7.3.9 1.2 1.1 2.2z"/><path d="m4.2 229.5c.2.8.5 1.8-.4 2.7-.8.8-1.7 1-2.2.2-.5-.7-.3-1.8.5-2.7.9-1.1 1.5-1 2.1-.2z"/><path d="m649.9 226.9c-.4.8-1 1.5-1.8 2-.9.5-1.3.4-.9-.5.4-.9 1.2-1.7 2.1-2.1.8-.4.9-.2.6.6z"/><path d="m196.7 277.6c-.7-.3-1.2-1-1.4-2-.2-.9-.3-1.8.5-1.7.7.1 1.2 1 1.4 2 .3 1 .2 1.7-.5 1.7z"/><path d="m333.6 351.2c-.6-.5-1-1.2-1-2.2 0-.8.2-1.3.7-1 .6.4 1 1.2 1.1 2.2-.1.8-.2 1.3-.8 1z"/><path d="m131.1 176.6c-.9 0-1.4-.5-1.8-1.5-.3-.9-.5-1.9.3-2.2.8-.2 1.4.6 1.7 1.5.5 1 .6 1.8-.2 2.2z"/><path d="m123.3 274.5c-.7.3-1.4.5-1.9-.5-.5-1-.5-2.1.3-2.6.6-.3 1.3-.1 1.8.9.5 1 .5 1.8-.2 2.2z"/><path d="m184.1 224.5c.2.8.3 1.7-.4 1.6-.8-.1-1.3-.9-1.5-1.9-.2-.8-.5-2 .4-1.8.9.2 1.1 1.3 1.5 2.1z"/><path d="m275.6 320.5c-.7-.5-1-1.4-1.1-2.3-.1-.7-.2-1.5.5-1.3.7.3 1 1.1 1.1 2.1.1.9.1 1.6-.5 1.5z"/><path d="m322.3 327.6c-.7-.4-1.1-1.2-1.2-2.2-.1-.8.1-1.5.7-1.1.6.4 1.1 1.3 1.2 2.3.1.9-.1 1.3-.7 1z"/><path d="m388.5 286.4c0-1 .4-1.3 1.1-.9.6.4 1.2.9 1.2 1.8 0 .9-.5 1.2-1.2.9-.8-.4-1-1.2-1.1-1.8z"/><path d="m283 139.1c-.9-.6-1.5-1.3-1.7-2.3-.2-1 0-1.6 1-1.1.8.4 1.5 1.3 1.6 2.3.2.9-.1 1.4-.9 1.1z"/><path d="m110.3 201.4c-1 0-1.8-.7-2.2-1.9-.3-1-.2-1.8.7-2 1-.2 1.6.5 1.9 1.6.3.8.4 1.7-.4 2.3z"/><path d="m154.2 233.8c-.2-.9-.5-1.9.3-2.1.8-.2 1.2.8 1.6 1.7.4.9.6 1.9-.2 2-.7.1-1.4-.6-1.7-1.6z"/><path d="m397.2 140.7c.2-.8.5-1.4 1.5-.7.9.6 1.4 1.5 1.3 2.4-.1.8-.2 1.6-1.3 1-1.1-.7-1.4-1.8-1.5-2.7z"/><path d="m240.1 311.6c-.8-.5-1.3-1.5-1.7-2.6-.3-.8 0-1.1.5-1 .7.2 1.2.9 1.5 2.1.2.8.3 1.5-.3 1.5z"/><path d="m365.7 343c-.6-.8-.7-1.6-.6-2.4.1-.7.5-.9 1.1-.3.7.7.9 1.5.6 2.2-.3.6-.5 1-1.1.5z"/><path d="m77.7 239.6c-.7.5-1.3.5-1.7-.4-.4-1-.7-2 .3-2.8.7-.5 1.3-.2 1.6.6.4 1 .6 1.9-.2 2.6z"/><path d="m482.6 323.4c-.3.6-.6 1.5-1.4 1.1-.7-.4-.8-1.2-.6-2 .2-.7.6-1.1 1.3-.9.8.2.9 1 .7 1.8z"/><path d="m369 210.4c-.7-.5-1.5-1.1-1.6-2.2-.1-.9.4-1.1 1.1-.7.8.5 1.7 1.1 1.7 2.3.1.9-.5 1-1.2.6z"/><path d="m287.8 289.3c-.6-.3-1-1-1.1-1.8-.1-.9 0-1.6.7-1.2.6.3.9 1.1 1 2 .2.9 0 1.2-.6 1z"/><path d="m311.3 303.1c0 1-.3 1.3-1 .8-.6-.4-.9-1.2-1-2 0-.9.2-1.5.9-1.1.7.5 1 1.4 1.1 2.3z"/><path d="m109.4 54.7c-.1-.9-.2-1.8.9-1.9.9 0 1.7.6 2 1.5.4 1 .2 1.7-.9 1.8-.9.1-1.6-.5-2-1.4z"/><path d="m676.1 261.3c-.5.6-.2-.1.3-1.1.6-1.2 1.4-2.3 2-3 .6-.7.2.1-.5 1.3-.5 1-1.1 2-1.8 2.8z"/><path d="m131.6 278.6c-.8.2-1.3-.5-1.7-1.3-.3-.6-.4-1.4.1-1.7.7-.4 1.3 0 1.7 1 .3.8.5 1.6-.1 2z"/><path d="m637.1 240.1c-.7.2-1.1.1-.6-.9.5-.9 1.2-1.6 2-2 .7-.3 1-.1.6.8-.5.8-1.1 1.6-2 2.1z"/><path d="m468.6 318.8c-.7-.5-1-1.2-.7-2 .2-.7.7-1 1.4-.6.7.4 1 1.1.7 2-.2.6-.7.9-1.4.6z"/><path d="m459.3 154.4c-.8-.5-1.9-1.1-1.6-2.2.2-.9 1.2-.6 2-.1.8.5 1.7 1.2 1.6 2.1-.1 1-.9.8-2 .2z"/><path d="m361.6 228.2c-.1.8-.5 1-1.3.4-.7-.6-1.3-1.4-1.3-2.4 0-.8.3-1.2 1.1-.7.9.7 1.4 1.6 1.5 2.7z"/><path d="m673.9 232.9c-.8.7-.9.4-.5-.4.4-.8 1-1.8 1.9-2.6.9-.8 1.1-.7.6.3-.5.8-1.1 1.7-2 2.7z"/><path d="m64.3 205.2c.3.9.5 1.8-.2 2.3-.9.5-1.7 0-2.2-.9-.4-.7-.3-1.4.3-1.9.8-.7 1.6-.4 2.1.5z"/><path d="m498.1 336.2c-.3.7-.7 1.2-1.4 1-.8-.2-1.1-.8-.8-1.7.2-.8.8-1 1.4-.8.6.3 1 .7.8 1.5z"/><path d="m130.2 341.6c-.6.5-1.3.3-1.7-.6-.5-.8-.6-1.7 0-2.3.5-.5 1.1-.1 1.5.6.5.7.7 1.5.2 2.3z"/><path d="m582.5 208.4c-.4.8-.9 1.5-1.9 1.5-.9 0-.9-.6-.7-1.3.2-.8.7-1.5 1.8-1.4.7 0 1 .4.8 1.2z"/><path d="m695.2 225.3c-.7.9-.7.6-.2-.4.5-.9 1.2-2.1 2-3.2.7-1 .6-.5.1.3-.3.9-.8 1.9-1.9 3.3z"/><path d="m190.3 328.8c-.8-.1-1.2-.9-1.5-1.8-.3-.8-.5-1.7.1-1.8.8-.1 1.2.8 1.6 1.9.2.8.2 1.5-.2 1.7z"/><path d="m572.4 265.9c.3-.8.9-1.3 1.7-1.4.9-.1 1.4.2 1.2 1-.2.9-1.1 1.3-1.9 1.4-.7.1-1.2-.2-1-1z"/><path d="m299 162.9c0 .7 0 1.5-.8 1.1-.8-.4-1.4-1.2-1.5-2.2-.1-.8 0-1.4.8-1.1.8.4 1.3 1.2 1.5 2.2z"/><path d="m501.1 401.4c-.5-.2-.8-.6-.6-1.3.2-.7.7-1.2 1.3-1.1.5.1.7.6.5 1.4-.2.6-.6 1-1.2 1z"/><path d="m157.9 96.6c-.3-.9-.3-1.8.6-1.8.9 0 1.5.7 1.7 1.7.2.9.4 1.9-.5 1.8-.9.1-1.4-.8-1.8-1.7z"/><path d="m635.6 216.1c-.7.1-1-.1-.7-.8.3-.7.9-1.4 1.7-1.7.9-.3 1.5-.3.9.7-.5.8-1.1 1.4-1.9 1.8z"/><path d="m80.2 282.6c-.7.6-1.3.3-1.7-.4-.4-.8-.8-1.7 0-2.5.6-.6 1.2 0 1.6.6.4.8.6 1.5.1 2.3z"/><path d="m297.8 280.6c-.6-.6-.9-1.3-.9-2.1 0-.8 0-1.7.8-1.1.6.4.9 1.3 1 2.1-.1.8-.2 1.4-.9 1.1z"/><path d="m248.8 237.4c-.9-.5-1.3-1.4-1.4-2.3-.2-.8-.1-1.5.6-1.3.7.2 1.1.9 1.2 1.8.1.8.2 1.7-.4 1.8z"/><path d="m614.5 315c .4-.8.8-1.6 1.6-2.2.8-.6.8-.2.5.6-.3.8-.8 1.7-1.7 2.3-.7.4-.6-.1-.4-.7z"/><path d="m289.9 234.3c0 .7-.1 1.3-.8 1.1-.7-.2-1.1-1.1-1.2-1.9-.2-.9 0-1.4.7-1.1.6.3 1.1.9 1.3 1.9z"/><path d="m501.1 166.1c.7.3 1.8.4 1.7 1.3-.1.9-1.1.9-2 .6-.9-.3-1.8-1.1-1.6-1.9.2-.9 1.2-.2 1.9 0z"/><path d="m180 234.5c-.6 0-1.2-.5-1.4-1.4-.3-1-.7-2.1.2-2.3.6-.1 1.1.8 1.3 1.6.3.9.6 1.8-.1 2.1z"/><path d="m331.6 301.7c.1-.7.2-1.3.9-.8.7.5 1 1.5.9 2.3 0 .7-.2 1.2-.9.6-.7-.6-.9-1.3-.9-2.1z"/><path d="m445.3 379.7c-.6-.3-.8-.9-.7-1.6.1-.8.4-1.5 1.1-1.4.7.2.7 1.2.7 1.9-.2.8-.5 1.2-1.1 1.1z"/><path d="m451 388.6c-.2.7-.4 1.3-1.1 1-.6-.3-.9-1.1-.7-1.9.2-.8.6-1 1.2-.7.7.2.8.8.6 1.6z"/><path d="m372.6 252.9c-.6-.4-1-1-1-1.7 0-.8.3-1.2 1.1-.8.6.3 1 1 1 1.7 0 .8-.4 1.1-1.1.8z"/><path d="m332.8 319.3c-.7-.6-1-1.4-1-2.3 0-.8.2-1.3.8-.8.6.5 1.1 1.3 1.1 2.2.1 1-.2 1.4-.9.9z"/><path d="m174.4 310.5c.2.8.3 1.6-.3 1.6-.6 0-1-.7-1.3-1.5-.3-.8-.4-1.6.3-1.6.6 0 1 .7 1.3 1.5z"/><path d="m579.7 327.3c-.4.8-.9 1.5-1.6 1.7-.7.2-1.1-.1-.9-.9.3-.9 1-1.4 1.8-1.6.6-.2.9.1.7.8z"/><path d="m343.3 99.4c-1-.8-1.4-1.6-1.3-2.5.1-.7.4-1.1 1.3-.5 1 .7 1.4 1.6 1.3 2.5-.1.7-.4 1.1-1.3.5z"/><path d="m631 184.9c-.8 0-1.3-.3-1-1.1.2-.7.9-1.3 1.8-1.5 1-.3 1.4 0 1 .9-.3.7-.8 1.4-1.8 1.7z"/><path d="m521.3 365.8c-.3.6-.7 1.1-1.2 1.1-.7-.1-.8-.6-.4-1.4.3-.6.7-1.1 1.2-1.1.6.1.6.7.4 1.4z"/><path d="m280.4 259.4c.1.9 0 1.7-.8 1.3-.7-.3-1.1-1.3-1.3-2.2-.1-.8 0-1.4.6-1.1.7.4 1.3 1.1 1.5 2z"/><path d="m321.1 295.7c-.6-.4-1-1-1-1.9 0-.7.1-1.4.7-1 .6.3 1 1.1 1.1 2 0 .9-.2 1.2-.8.9z"/><path d="m409.2 198.8c-.7-.6-1.4-1.3-1.2-2.2.2-.7.8-.8 1.5-.4.9.5 1.3 1.4 1.2 2.3-.2.8-.7.8-1.5.3z"/><path d="m434.5 267.4c.1-.7.6-1.1 1.3-.7.6.3 1 .8.9 1.5 0 .8-.4 1.2-1.1.9-.8-.2-1-.9-1.1-1.7z"/><path d="m359.4 258.4c-.1.7-.3 1.2-1.1.7-.6-.4-.8-1.1-.9-1.8 0-.8.3-1.2 1-.7.7.5.9 1.2 1 1.8z"/><path d="m348.4 321.5c0-.7 0-1.7.6-1.3.9.5 1 1.6 1 2.5 0 .7 0 1.5-.7 1-.7-.4-.8-1.4-.9-2.2z"/><path d="m257.6 86c-.8-.5-1.3-1.1-1.5-2-.2-.9.1-1.4.9-1.1.9.3 1.6 1.2 1.7 2.2.1.8-.3 1.1-1.1.9z"/><path d="m82.5 267c .4.9.9 1.8-.1 2.5-.7.5-1.2 0-1.6-.7-.4-.8-.7-1.8.1-2.5.7-.5 1.2.2 1.6.7z"/><path d="m609.8 248.1c-.3.6-.7 1.2-1.4 1.4-.9.2-1.1-.3-.8-1.1.3-.7 1-1.4 1.8-1.5.6 0 .6.5.4 1.2z"/><path d="m407.6 308.2c-.7-.5-1.1-1.1-1-1.9 0-.6.4-1 .9-.7.7.3 1 1 .9 1.8 0 .7-.3 1-.8.8z"/><path d="m415.1 344.7c-.7-.4-1-.9-.9-1.5.1-.8.5-1.1 1-.9.6.2 1 .9.9 1.7-.1.7-.6.8-1 .7z"/><path d="m411.8 357.3c.2-.8.6-.8 1.2-.5.4.3.9.8.8 1.5 0 .8-.5 1-1.1.7-.5-.2-.9-.8-.9-1.7z"/><path d="m496 384c-.3.8-.8 1-1.3.9-.5-.1-1.1-.3-1-1 .1-.8.6-1.1 1.2-1 .6 0 1.1.2 1.1 1.1z"/><path d="m471.9 400.2c-.6-.4-.7-1.1-.5-1.9.2-.7.6-1.2 1.2-.9.6.3.6 1 .4 1.6-.2.7-.4 1.3-1.1 1.2z"/><path d="m261.5 258.3c-.1-.9 0-1.5.6-1.4.5.2.9.8 1 1.6.2.8.1 1.5-.5 1.3-.5-.1-.9-.8-1.1-1.5z"/><path d="m659 300.4c-.2.2-.9 1.2-.2-.1.4-.7.9-1.4 1.3-2 .7-1 .7-.9.2.2-.5.7-.9 1.4-1.3 1.9z"/><path d="m71.9 336c .5.8.6 1.6 0 2.4-.4.6-1 .7-1.5.1-.4-.7-.7-1.5-.2-2.4.6-.9 1.2-.6 1.7-.1z"/><path d="m601.1 395c .5-.9 1-1.9 1.7-2.6.6-.6.3.1-.1.9-.5.9-1 1.9-1.7 2.6-.6.5-.3-.2.1-.9z"/><path d="m233.9 119.1c.1.9-.4 1-1.1.7-.7-.3-1.4-.9-1.5-1.8-.1-.9.3-1.1 1.1-.7.6.2 1.3.8 1.5 1.8z"/><path d="m571.8 316.4c-.5-.1-1.1-.2-.7-1.2.4-.8 1-1.1 1.7-1.2.7-.1 1 .2.6 1-.3.7-.9 1.2-1.6 1.4z"/><path d="m269.1 217.1c-.7-.5-1-1.2-1-2-.1-.9 0-1.7.9-1.1.7.5.9 1.4.9 2.1 0 .7 0 1.4-.8 1z"/><path d="m590.4 271.8c.4-.8 1-1.3 1.7-1.4.7-.1.9.3.5 1.1-.3.7-.9 1.4-1.6 1.4-.7.1-.8-.4-.6-1.1z"/><path d="m403.9 170.1c-.6-.3-1.1-1.1-1.1-2 0-.6.3-1 1-.7.9.5 1.4 1.4 1.5 2.3 0 .6-.3 1-1.4.4z"/><path d="m79.5 116.3c-.7.2-1.2 0-1.4-.8-.3-.9.1-1.6.9-1.8.6-.2 1.3-.1 1.5.8.1.8-.2 1.5-1 1.8z"/><path d="m463.7 307.8c-.5-.2-1-.6-1-1.3 0-.7.4-1 1-.8.6.2 1.2.6 1.1 1.4 0 .7-.5.9-1.1.7z"/><path d="m451.6 300.6c-.3.7-.8 1-1.4.7-.6-.3-.9-.9-.8-1.5.1-.8.6-1 1.3-.6.6.3.9.7.9 1.4z"/><path d="m326.3 321.4c.1-.7 0-1.5.7-1 .6.5.8 1.3.8 2.1.1.7-.1 1.2-.6.8-.6-.3-.9-1-.9-1.9z"/><path d="m292.3 183.7c-.8-.4-1.1-1-1.2-1.8-.2-.9-.1-1.5.7-1.1.6.3 1.1.9 1.2 1.7 0 .7-.2 1.2-.7 1.2z"/><path d="m273.5 264.3c0-.7 0-1.5.7-1 .6.4.9 1.3 1 2.1.1.9 0 1.4-.7.9-.7-.4-.9-1.2-1-2z"/><path d="m13.6 232.3c-.7.7-1.2.9-1.6.2-.4-.6-.4-1.5.2-2.3.5-.8 1.2-1.1 1.7-.5.5.6.2 1.6-.3 2.6z"/><path d="m218.8 362.2c-.4-.1-.8-.5-1.1-1.2-.2-.7-.1-1.3.3-1.2.4 0 .8.5 1.1 1.2.3.8.1 1.1-.3 1.2z"/><path d="m105.4 305.7c-.8.3-1.3 0-1.6-.9-.3-.7-.3-1.5.3-1.8.6-.3 1.2.1 1.6.9.2.8.1 1.4-.3 1.8z"/><path d="m434.1 226.7c.4-1 1.3-.5 1.9-.3.8.2 1.1.9 1 1.7-.1.8-.6 1.2-1.2.9-.9-.4-1.3-1.4-1.7-2.3z"/><path d="m129.3 290.4c-.5.3-1 .1-1.3-.6-.3-.8-.4-1.7.1-2.1.5-.5.9.1 1.2.8.4.6.6 1.3 0 1.9z"/><path d="m391.8 272c-.1.5-.2 1.1-.9.7-.7-.5-.9-1.2-.8-2 .1-.6.4-.9 1-.5.5.5.7 1.2.7 1.8z"/><path d="m93.5 260.5c-.5.2-.9.2-1.1-.4-.3-.9-.1-1.6.5-2.1.4-.3.8-.2 1.1.5.2.8.1 1.5-.5 2z"/><path d="m354.8 365.9c0 .6-.2.8-.6.6-.5-.3-.9-.9-.9-1.7 0-.5.3-.7.7-.4.4.3.7.8.8 1.5z"/></svg>