<svg xmlns="http://www.w3.org/2000/svg" viewBox="0 0 637.69 173.09"><title>aas-logo</title><path d="M5.19,166.48c5.31,0,8-3.47,8-7.74,0-3.47-1.84-5.3-5.64-5.3H4.71l-2.37,13ZM2.94,151.76H7.72c4.74,0,7.61,2.46,7.61,6.87,0,5.28-3.32,9.54-10.45,9.54H0Z" style="fill:#fff"/><path d="M18.9,156h1.6l-.19,2.46a5.17,5.17,0,0,1,4.28-2.77,3.88,3.88,0,0,1,1.55.28l-.65,1.71a3.82,3.82,0,0,0-1.36-.24c-1.48,0-2.82,1.27-4.09,3.35l-1.34,7.36h-2Z" style="fill:#fff"/><path d="M29.44,150.75h2L31,153H29Zm-1,5.32h2l-2.15,12.09h-2Z" style="fill:#fff"/><polygon points="32.84 156 34.68 156 36.35 166.01 36.4 166.01 41.59 156 43.65 156 37.17 168.17 34.99 168.17 32.84 156" style="fill:#fff"/><path d="M47.12,150.75h2L48.7,153h-2Zm-1,5.32h2L46,168.17H44Z" style="fill:#fff"/><path d="M59.15,160.34a9.64,9.64,0,0,0,.17-1.45c0-.94-.45-1.62-1.72-1.62-1.6,0-3.11,1.19-4.57,3.26l-1.39,7.64h-2L51.83,156h1.65l-.22,2.46a6.28,6.28,0,0,1,4.83-2.72,2.88,2.88,0,0,1,3.2,3,12.83,12.83,0,0,1-.22,1.9l-1.39,7.57h-2Z" style="fill:#fff"/><path d="M73.4,158.65a4.19,4.19,0,0,0-3.16-1.38c-2.51,0-4.49,2.63-4.49,6,0,2.41,1.08,3.54,2.68,3.54s2.75-1,4-2.88ZM72.09,166a5.31,5.31,0,0,1-4.26,2.32c-2.27,0-4.09-1.64-4.09-5,0-4.38,2.77-7.6,6.36-7.6a4.86,4.86,0,0,1,3.63,1.57L74.1,156h1.74l-2.18,12.12c-.57,3.14-2.15,5-5.88,5a7.2,7.2,0,0,1-4.59-1.71l1.08-1.31A5.78,5.78,0,0,0,68,171.52c2.11,0,3.3-1,3.8-3.7Z" style="fill:#fff"/><path d="M84.34,165.1a8.17,8.17,0,0,0,4.81,1.57c2.89,0,4.38-1.45,4.38-3.14,0-1.85-1.63-2.23-3.8-2.84s-4.59-1.45-4.59-4.19,2.44-5,6.46-5a10.9,10.9,0,0,1,5.26,1.38l-1,1.52a9,9,0,0,0-4.45-1.13c-2.46,0-4.11,1.36-4.11,3.07S88.9,158.49,91,159s4.66,1.43,4.66,4.34-2.2,5.06-6.74,5.06a9.67,9.67,0,0,1-5.74-1.87Z" style="fill:#fff"/><path d="M105.19,155.72a5.38,5.38,0,0,1,3.75,1.38l-1.12,1.19a4.27,4.27,0,0,0-2.82-1c-2.58,0-4.81,2.34-4.81,5.63,0,2.44,1.22,3.87,3.18,3.87a5,5,0,0,0,3.2-1.2l1,1.31a6.79,6.79,0,0,1-4.47,1.5c-2.75,0-5-2-5-5.3a7.09,7.09,0,0,1,7-7.43" style="fill:#fff"/><path d="M113.28,150.75h2l-.38,2.23h-2Zm-1,5.32h2l-2.15,12.09h-2Z" style="fill:#fff"/><path d="M118.54,160.88h1.65c3.9,0,5.48-.82,5.48-2.09,0-.84-.81-1.57-2.27-1.57a5.26,5.26,0,0,0-4.86,3.66m5-5.16c2.49,0,4.06,1.43,4.06,3.09,0,2.28-2.75,3.49-7.58,3.49h-1.84a5,5,0,0,0,0,.84c0,2.37,1.08,3.7,3.32,3.7a6.88,6.88,0,0,0,3.66-1.15L126,167a8.39,8.39,0,0,1-4.71,1.41c-3.08,0-5.09-2-5.09-5.23a7.3,7.3,0,0,1,7.44-7.5" style="fill:#fff"/><path d="M138.56,160.34a9.64,9.64,0,0,0,.17-1.45c0-.94-.45-1.62-1.72-1.62-1.6,0-3.11,1.19-4.57,3.26L131,168.17h-2L131.24,156h1.65l-.22,2.46a6.27,6.27,0,0,1,4.83-2.72,2.88,2.88,0,0,1,3.2,3,12.48,12.48,0,0,1-.22,1.9l-1.39,7.57h-2Z" style="fill:#fff"/><path d="M145.62,157.5h-2.18l.26-1.5h2.15l.65-3.56h2l-.65,3.56h3.52l-.24,1.5h-3.54l-1.25,6.94a7.47,7.47,0,0,0-.12,1.17c0,.8.33,1.24,1.27,1.24a4.28,4.28,0,0,0,1.94-.63l.67,1.36a6.2,6.2,0,0,1-3,.87,2.54,2.54,0,0,1-2.85-2.55,9.09,9.09,0,0,1,.22-1.69Z" style="fill:#fff"/><path d="M155.25,150.75h2l-.38,2.23h-2Zm-1,5.32h2l-2.15,12.09h-2Z" style="fill:#fff"/><path d="M168.45,156.07h2l-2.18,12.09h-2Zm-7.89,1.5h-2.15l.26-1.45h2.15L161,155a5.29,5.29,0,0,1,5.67-4.69,8.09,8.09,0,0,1,4.59,1.45l-1,1.22a6.73,6.73,0,0,0-3.68-1.15c-2,0-3.28,1.1-3.68,3.37l-.15.89h3.4l-.29,1.45h-3.37l-1.89,10.59h-2Z" style="fill:#fff"/><path d="M179.32,155.72a5.38,5.38,0,0,1,3.75,1.38l-1.12,1.19a4.26,4.26,0,0,0-2.82-1c-2.58,0-4.81,2.34-4.81,5.63,0,2.44,1.22,3.87,3.18,3.87a5,5,0,0,0,3.2-1.2l1,1.31a6.78,6.78,0,0,1-4.47,1.5c-2.75,0-5-2-5-5.3a7.09,7.09,0,0,1,7-7.43" style="fill:#fff"/><path d="M200.17,158.65a4.28,4.28,0,0,0-3.16-1.38c-2.56,0-4.49,2.6-4.49,6.07,0,2.34,1,3.56,2.65,3.56,1.48,0,2.77-1,4-2.91Zm-9.66,4.83c0-4.45,2.75-7.76,6.36-7.76a4.74,4.74,0,0,1,3.63,1.64l.36-1.36h1.75L201,165.19a4.69,4.69,0,0,0-.1.73c0,.61.33.87,1,.87l-.24,1.4c-1.65,0-2.6-.56-2.63-2a5.37,5.37,0,0,1-4.26,2.28c-2.48,0-4.26-1.83-4.26-5" style="fill:#fff"/><path d="M213.73,160.34a9.64,9.64,0,0,0,.17-1.45c0-.94-.45-1.62-1.72-1.62-1.6,0-3.11,1.19-4.57,3.26l-1.39,7.64h-2L206.41,156h1.65l-.22,2.46a6.28,6.28,0,0,1,4.83-2.72,2.88,2.88,0,0,1,3.2,3,12.83,12.83,0,0,1-.22,1.9l-1.39,7.57h-2Z" style="fill:#fff"/><path d="M227.06,164l1-5.34a4.18,4.18,0,0,0-3.13-1.38c-2.58,0-4.52,2.63-4.52,6,0,2.49,1,3.63,2.7,3.63,1.46,0,2.84-1.08,4-2.91m-8.71-.58c0-4.34,2.73-7.66,6.36-7.66a4.86,4.86,0,0,1,3.56,1.5l1.22-6.77h2l-3.18,17.69H226.7l.17-2.09a5.38,5.38,0,0,1-4.31,2.34c-2.37,0-4.21-1.78-4.21-5" style="fill:#fff"/><polygon points="245.4 153.54 239.44 153.54 239.75 151.76 253.7 151.76 253.39 153.54 247.46 153.54 244.85 168.17 242.77 168.17 245.4 153.54" style="fill:#fff"/><path d="M254.18,160.88h1.65c3.9,0,5.47-.82,5.47-2.09,0-.84-.81-1.57-2.27-1.57a5.26,5.26,0,0,0-4.86,3.66m5-5.16c2.49,0,4.06,1.43,4.06,3.09,0,2.28-2.75,3.49-7.58,3.49h-1.84a5,5,0,0,0,0,.84c0,2.37,1.08,3.7,3.32,3.7a6.88,6.88,0,0,0,3.66-1.15l.79,1.34a8.39,8.39,0,0,1-4.71,1.41c-3.08,0-5.09-2-5.09-5.23a7.3,7.3,0,0,1,7.44-7.5" style="fill:#fff"/><path d="M271.85,155.72a5.38,5.38,0,0,1,3.75,1.38l-1.12,1.19a4.26,4.26,0,0,0-2.82-1c-2.58,0-4.81,2.34-4.81,5.63,0,2.44,1.22,3.87,3.18,3.87a5,5,0,0,0,3.2-1.2l1,1.31a6.78,6.78,0,0,1-4.47,1.5c-2.75,0-5-2-5-5.3a7.09,7.09,0,0,1,7-7.43" style="fill:#fff"/><path d="M280,150.47h2l-1.43,7.92a6.13,6.13,0,0,1,4.67-2.65c2.1,0,3.25,1.24,3.25,3a12.21,12.21,0,0,1-.22,1.87l-1.39,7.57h-2l1.42-7.81a10.74,10.74,0,0,0,.16-1.48c0-.94-.45-1.62-1.74-1.62-1.56,0-3.09,1.19-4.54,3.26l-1.39,7.64h-2Z" style="fill:#fff"/><path d="M300,160.34a9.64,9.64,0,0,0,.17-1.45c0-.94-.45-1.62-1.72-1.62-1.6,0-3.11,1.19-4.57,3.26l-1.39,7.64h-2L292.69,156h1.65l-.22,2.46a6.28,6.28,0,0,1,4.83-2.72,2.88,2.88,0,0,1,3.2,3,12.83,12.83,0,0,1-.22,1.9l-1.39,7.57h-2Z" style="fill:#fff"/><path d="M314.74,161.09c0-2.48-1.19-3.82-3.25-3.82-2.63,0-4.88,2.6-4.88,5.81,0,2.48,1.2,3.82,3.28,3.82,2.63,0,4.85-2.6,4.85-5.81m-10.12,2a7.06,7.06,0,0,1,7-7.38c3,0,5.09,2,5.09,5.34a7.06,7.06,0,0,1-7.05,7.38c-3,0-5.07-2-5.07-5.34" style="fill:#fff"/><polygon points="321.75 150.47 323.73 150.47 320.55 168.17 318.57 168.17 321.75 150.47" style="fill:#fff"/><path d="M334.74,161.09c0-2.48-1.2-3.82-3.25-3.82-2.63,0-4.88,2.6-4.88,5.81,0,2.48,1.2,3.82,3.28,3.82,2.63,0,4.85-2.6,4.85-5.81m-10.12,2a7.06,7.06,0,0,1,7-7.38c3,0,5.09,2,5.09,5.34a7.06,7.06,0,0,1-7.05,7.38c-3,0-5.07-2-5.07-5.34" style="fill:#fff"/><path d="M348.49,158.65a4.19,4.19,0,0,0-3.15-1.38c-2.51,0-4.5,2.63-4.5,6,0,2.41,1.08,3.54,2.68,3.54s2.75-1,4-2.88ZM347.18,166a5.31,5.31,0,0,1-4.26,2.32c-2.27,0-4.09-1.64-4.09-5,0-4.38,2.77-7.6,6.36-7.6a4.86,4.86,0,0,1,3.63,1.57l.36-1.31h1.74l-2.18,12.12c-.57,3.14-2.15,5-5.88,5a7.2,7.2,0,0,1-4.59-1.71l1.08-1.31a5.79,5.79,0,0,0,3.68,1.45c2.1,0,3.3-1,3.8-3.7Z" style="fill:#fff"/><path d="M355.69,150.75h2l-.38,2.23h-2Zm-1,5.32h2l-2.15,12.09h-2Z" style="fill:#fff"/><path d="M365.59,155.72a5.38,5.38,0,0,1,3.75,1.38l-1.12,1.19a4.26,4.26,0,0,0-2.82-1c-2.58,0-4.81,2.34-4.81,5.63,0,2.44,1.22,3.87,3.18,3.87a5,5,0,0,0,3.2-1.2l1,1.31a6.78,6.78,0,0,1-4.47,1.5c-2.75,0-5-2-5-5.3a7.09,7.09,0,0,1,7-7.43" style="fill:#fff"/><path d="M380.14,158.65a4.28,4.28,0,0,0-3.16-1.38c-2.56,0-4.49,2.6-4.49,6.07,0,2.34,1,3.56,2.65,3.56,1.48,0,2.77-1,4-2.91Zm-9.66,4.83c0-4.45,2.75-7.76,6.36-7.76a4.74,4.74,0,0,1,3.63,1.64l.36-1.36h1.75l-1.65,9.19a4.7,4.7,0,0,0-.1.73c0,.61.33.87,1,.87l-.24,1.4c-1.65,0-2.61-.56-2.63-2a5.37,5.37,0,0,1-4.26,2.28c-2.48,0-4.26-1.83-4.26-5" style="fill:#fff"/><polygon points="387.48 150.47 389.46 150.47 386.29 168.17 384.3 168.17 387.48 150.47" style="fill:#fff"/><path d="M401.28,166.48c5.31,0,8-3.47,8-7.74,0-3.47-1.84-5.3-5.64-5.3H400.8l-2.37,13ZM399,151.76h4.78c4.74,0,7.61,2.46,7.61,6.87,0,5.28-3.32,9.54-10.45,9.54h-4.88Z" style="fill:#fff"/><path d="M415.54,160.88h1.65c3.9,0,5.48-.82,5.48-2.09,0-.84-.81-1.57-2.27-1.57a5.25,5.25,0,0,0-4.85,3.66m5-5.16c2.49,0,4.06,1.43,4.06,3.09,0,2.28-2.75,3.49-7.58,3.49h-1.84a4.73,4.73,0,0,0-.05.84c0,2.37,1.08,3.7,3.33,3.7a6.89,6.89,0,0,0,3.66-1.15L423,167a8.39,8.39,0,0,1-4.71,1.41c-3.08,0-5.09-2-5.09-5.23a7.3,7.3,0,0,1,7.44-7.5" style="fill:#fff"/><polygon points="426.68 156 428.52 156 430.2 166.01 430.25 166.01 435.44 156 437.49 156 431.01 168.17 428.83 168.17 426.68 156" style="fill:#fff"/><path d="M440.34,160.88H442c3.9,0,5.48-.82,5.48-2.09,0-.84-.81-1.57-2.27-1.57a5.25,5.25,0,0,0-4.85,3.66m5-5.16c2.49,0,4.06,1.43,4.06,3.09,0,2.28-2.75,3.49-7.58,3.49H440a4.73,4.73,0,0,0-.05.84c0,2.37,1.08,3.7,3.32,3.7a6.89,6.89,0,0,0,3.66-1.15l.79,1.34a8.39,8.39,0,0,1-4.71,1.41c-3.08,0-5.09-2-5.09-5.23a7.3,7.3,0,0,1,7.44-7.5" style="fill:#fff"/><polygon points="454.12 150.47 456.11 150.47 452.93 168.17 450.94 168.17 454.12 150.47" style="fill:#fff"/><path d="M467.1,161.09c0-2.48-1.19-3.82-3.25-3.82-2.63,0-4.88,2.6-4.88,5.81,0,2.48,1.19,3.82,3.28,3.82,2.63,0,4.85-2.6,4.85-5.81m-10.12,2a7.06,7.06,0,0,1,7-7.38c3,0,5.09,2,5.09,5.34a7.06,7.06,0,0,1-7.05,7.38c-3,0-5.07-2-5.07-5.34" style="fill:#fff"/><path d="M476.53,166.9c2.85,0,4.52-3,4.52-6.16,0-2.34-1-3.45-2.65-3.45-1.46,0-2.89,1.1-4,2.79l-1,5.3a3.81,3.81,0,0,0,3.13,1.52m-4.49,6h-2l3-16.85h1.7l-.17,2.06a5.66,5.66,0,0,1,4.3-2.32c2.46,0,4.14,1.78,4.14,5,0,4.31-2.56,7.69-6.32,7.69a4.58,4.58,0,0,1-3.59-1.66Z" style="fill:#fff"/><path d="M486.79,168.17h-1.94L487,156h1.62l-.19,2.46a6,6,0,0,1,4.71-2.72,2.7,2.7,0,0,1,3,2.6,6.31,6.31,0,0,1,4.76-2.6,2.73,2.73,0,0,1,3,2.84,13.79,13.79,0,0,1-.22,2l-1.41,7.62h-1.91l1.41-7.85a9.68,9.68,0,0,0,.17-1.48,1.39,1.39,0,0,0-1.6-1.57c-1.48,0-3,1.13-4.4,3,0,.07,0,.14,0,.19l-1.41,7.66h-1.94l1.43-7.87a8.76,8.76,0,0,0,.17-1.41,1.41,1.41,0,0,0-1.6-1.62c-1.58,0-3,1.19-4.43,3.23Z" style="fill:#fff"/><path d="M508.72,160.88h1.65c3.9,0,5.48-.82,5.48-2.09,0-.84-.81-1.57-2.27-1.57a5.25,5.25,0,0,0-4.85,3.66m5-5.16c2.49,0,4.06,1.43,4.06,3.09,0,2.28-2.75,3.49-7.58,3.49h-1.84a5,5,0,0,0,0,.84c0,2.37,1.08,3.7,3.33,3.7a6.89,6.89,0,0,0,3.66-1.15l.79,1.34a8.39,8.39,0,0,1-4.71,1.41c-3.08,0-5.09-2-5.09-5.23a7.3,7.3,0,0,1,7.44-7.5" style="fill:#fff"/><path d="M528.74,160.34a9.64,9.64,0,0,0,.17-1.45c0-.94-.45-1.62-1.72-1.62-1.6,0-3.11,1.19-4.57,3.26l-1.39,7.64h-2L521.42,156h1.65l-.22,2.46a6.28,6.28,0,0,1,4.83-2.72,2.88,2.88,0,0,1,3.2,3,12.83,12.83,0,0,1-.22,1.9l-1.39,7.57h-2Z" style="fill:#fff"/><path d="M535.79,157.5h-2.18l.26-1.5H536l.65-3.56h2L538,156h3.52l-.24,1.5h-3.54l-1.25,6.94a7.48,7.48,0,0,0-.12,1.17c0,.8.33,1.24,1.27,1.24a4.28,4.28,0,0,0,1.94-.63l.67,1.36a6.2,6.2,0,0,1-3,.87,2.53,2.53,0,0,1-2.85-2.55,9.09,9.09,0,0,1,.22-1.69Z" style="fill:#fff"/><path d="M551.39,150.75h2L553,153h-2Zm-1,5.32h2l-2.15,12.09h-2Z" style="fill:#fff"/><path d="M563.42,160.34a9.65,9.65,0,0,0,.17-1.45c0-.94-.45-1.62-1.72-1.62-1.6,0-3.11,1.19-4.57,3.26l-1.39,7.64h-2L556.11,156h1.65l-.22,2.46a6.28,6.28,0,0,1,4.83-2.72,2.88,2.88,0,0,1,3.2,3,12.82,12.82,0,0,1-.21,1.9L564,168.17h-2Z" style="fill:#fff"/><path d="M577.84,162.52h6.38l-1.6-8.72h0Zm3.8-10.76h2.49l3.2,16.4h-2.08l-.74-4H577l-2.18,4h-2.3Z" style="fill:#fff"/><path d="M591.94,157.57h-2.15l.27-1.45h2.15l.22-1.15c.57-3.26,2.54-4.64,5.26-4.64a6.43,6.43,0,0,1,2.27.42l-.77,1.34a4.44,4.44,0,0,0-1.48-.23c-1.72,0-2.89.87-3.35,3.28l-.17,1h3.4l-.29,1.45h-3.37L592,168.17h-2Z" style="fill:#fff"/><path d="M600.26,156h1.6l-.19,2.46A5.17,5.17,0,0,1,606,155.7a3.88,3.88,0,0,1,1.55.28l-.65,1.71a3.82,3.82,0,0,0-1.36-.24c-1.48,0-2.82,1.27-4.09,3.35l-1.34,7.36h-2Z" style="fill:#fff"/><path d="M610.8,150.75h2l-.38,2.23h-2Zm-1,5.32h2l-2.15,12.09h-2Z" style="fill:#fff"/><path d="M620.7,155.72a5.38,5.38,0,0,1,3.75,1.38l-1.12,1.19a4.26,4.26,0,0,0-2.82-1c-2.58,0-4.81,2.34-4.81,5.63,0,2.44,1.22,3.87,3.18,3.87a5,5,0,0,0,3.2-1.2l1,1.31a6.78,6.78,0,0,1-4.47,1.5c-2.75,0-5-2-5-5.3a7.08,7.08,0,0,1,7-7.43" style="fill:#fff"/><path d="M635.25,158.65a4.28,4.28,0,0,0-3.16-1.38c-2.56,0-4.49,2.6-4.49,6.07,0,2.34,1,3.56,2.65,3.56,1.48,0,2.77-1,4-2.91Zm-9.66,4.83c0-4.45,2.75-7.76,6.36-7.76a4.74,4.74,0,0,1,3.63,1.64l.36-1.36h1.75L636,165.19a4.7,4.7,0,0,0-.1.73c0,.61.33.87,1,.87l-.24,1.4c-1.65,0-2.6-.56-2.63-2a5.36,5.36,0,0,1-4.26,2.28c-2.48,0-4.26-1.83-4.26-5" style="fill:#fff"/><path d="M255.36,0H161.43c-12.09,0-9.92,10.94-9.92,10.94L163,29.47V59.55L150,79.9,117.41,29.47l-13.64,21L72.46,3.34l-66.34,110H41.46l6.2-13.07H76.49L55.72,139.15H87.34l8.37-14.89h49l6.82,14.89h34.1l-7.13-14.28h62c12.09,0,7.13-10.94,7.13-10.94s-46.19-76.86-52.08-87.5c-4-6.68,0-9.12,0-9.12H241.1ZM83.93,79.3H60.06L70.91,60.16ZM129.5,93.57,109,93.88l10.85-16.1ZM181,62.28,207.31,106H165.77l-12.4-19.44,15.5-24.31L167.94,21h13Z" style="fill:#fff"/><path d="M267.47,44.1h-8V38h23V44.1h-8v19h-7Z" style="fill:#fff"/><path d="M285.1,36H292V45.6a8.2,8.2,0,0,1,5.71-2.55c4.54,0,6.26,2.55,6.26,7.14V63.1H297.1V50c0-1.29-.55-2.15-1.94-2.15A4.08,4.08,0,0,0,292,49.65V63.1H285.1Z" style="fill:#fff"/><path d="M317,43c5.78,0,9.44,3.48,9.44,8.93a16.72,16.72,0,0,1-.26,2.87H313.7c.37,2.44,1.61,3.51,3.91,3.51A10.72,10.72,0,0,0,323,56.79l2.78,4.05A14.73,14.73,0,0,1,317,63.56c-5.71,0-10.24-3.76-10.24-10.33S311.47,43,317,43Zm-3.22,8.32H320c0-2.08-.81-3.66-2.82-3.66C315.61,47.68,314.22,48.79,313.78,51.34Z" style="fill:#fff"/><path d="M345.23,38h7.86L362,63.1h-7.57l-1.17-3.73H345l-1.13,3.73h-7.61Zm1.35,16.24h5.12L349.18,46h-.07Z" style="fill:#fff"/><path d="M364.8,48.29h-2.89V43.88h2.89v-.75c0-5.63,3.66-7.49,8.52-7.49a15.51,15.51,0,0,1,5.3,1l-1.57,4.41a9.14,9.14,0,0,0-3.18-.57c-1.61,0-2.23,1-2.23,2.47v.9h4.68v4.41h-4.68V63.1H364.8Z" style="fill:#fff"/><path d="M379.06,43.49h6.44l.4,2.76a5.83,5.83,0,0,1,5.56-3.37,8.77,8.77,0,0,1,2.19.29l-.81,6.13A9.21,9.21,0,0,0,390,48.9c-1.87,0-3.11,1-4.1,2.94V63.1h-6.88Z" style="fill:#fff"/><path d="M396.07,36.1H403v5.2h-6.91Zm0,7.78H403V63.1h-6.91Z" style="fill:#fff"/><path d="M416.37,43a11.86,11.86,0,0,1,7.32,2.54l-3.37,4.19a5.74,5.74,0,0,0-3.69-1.4c-2,0-3.88,1.54-3.88,4.88s1.87,5,3.88,5a5.4,5.4,0,0,0,3.55-1.33l3.62,3.73a10.73,10.73,0,0,1-7.43,2.94c-5.89,0-10.57-3.84-10.57-10.33S410.37,43,416.37,43Z" style="fill:#fff"/><path d="M436.78,51.09V50c0-1.22-.77-1.79-2.16-1.79-1.79,0-3.62.64-6.48,2l-2.3-4.73A21.18,21.18,0,0,1,435,43c6.22,0,8.6,2.9,8.6,7.24v7.35c0,.79.51,1.18,1.35,1.18V63.2c-4.32,0-6.07-.43-7.46-2.51a7.58,7.58,0,0,1-6.25,2.87c-3.37,0-5.82-2.08-5.82-5.2C425.4,54.67,428.22,51.84,436.78,51.09ZM434,59a3.62,3.62,0,0,0,2.78-1.33V54.46c-2.67.18-4.57,1.08-4.57,2.9A1.64,1.64,0,0,0,434,59Z" style="fill:#fff"/><path d="M447.64,43.49h6.55l.29,2.12A8.4,8.4,0,0,1,460.26,43c4.54,0,6.26,2.58,6.26,7.17V63.1h-6.88V50c0-1.29-.55-2.15-1.94-2.15a4.2,4.2,0,0,0-3.18,1.79V63.1h-6.88Z" style="fill:#fff"/><path d="M267.95,81h7.86l8.93,25.1h-7.57L276,102.39h-8.27l-1.13,3.73H259Zm1.35,16.24h5.12L271.9,89h-.07Z" style="fill:#fff"/><path d="M296.59,86a11.87,11.87,0,0,1,7.32,2.55l-3.37,4.19a5.74,5.74,0,0,0-3.69-1.4c-2,0-3.88,1.54-3.88,4.88s1.87,5,3.88,5a5.4,5.4,0,0,0,3.55-1.33l3.62,3.73a10.73,10.73,0,0,1-7.43,2.94c-5.89,0-10.57-3.84-10.57-10.33S290.59,86,296.59,86Z" style="fill:#fff"/><path d="M316.34,94.1V93c0-1.22-.77-1.79-2.16-1.79-1.79,0-3.62.64-6.48,2l-2.3-4.73A21.19,21.19,0,0,1,314.55,86c6.22,0,8.6,2.91,8.6,7.24v7.35c0,.79.51,1.18,1.35,1.18v4.41c-4.32,0-6.07-.43-7.46-2.51a7.58,7.58,0,0,1-6.25,2.87c-3.37,0-5.82-2.08-5.82-5.2C305,97.69,307.78,94.86,316.34,94.1ZM313.56,102a3.62,3.62,0,0,0,2.78-1.33V97.47c-2.67.18-4.57,1.08-4.57,2.9A1.64,1.64,0,0,0,313.56,102Z" style="fill:#fff"/><path d="M326.36,96.15c0-6.81,3-10.08,7.5-10.08a7,7,0,0,1,5.34,2.47V79h6.88v27.07h-6l-.4-2.19a8,8,0,0,1-6,2.58C329.54,106.51,326.36,103,326.36,96.15Zm12.84,4.05V92.49a4.15,4.15,0,0,0-3.07-1.44c-2,0-3,1.86-3,5.09s.91,5.41,3,5.41A4,4,0,0,0,339.2,100.2Z" style="fill:#fff"/><path d="M359.24,86c5.78,0,9.44,3.48,9.44,8.93a16.72,16.72,0,0,1-.26,2.87H355.95c.37,2.44,1.61,3.51,3.91,3.51a10.71,10.71,0,0,0,5.38-1.54l2.78,4.05a14.73,14.73,0,0,1-8.82,2.72c-5.71,0-10.24-3.76-10.24-10.33S353.72,86,359.24,86ZM356,94.35h6.25c0-2.08-.81-3.66-2.82-3.66C357.85,90.7,356.46,91.81,356,94.35Z" style="fill:#fff"/><path d="M371.49,86.5h6.58l.26,1.9A9.14,9.14,0,0,1,383.89,86c2.63,0,4.21,1,5,2.65A9.15,9.15,0,0,1,395.23,86c4.13,0,6.07,2.65,6.07,7v13.05h-6.88V92.88c0-1.33-.59-2-1.65-2a4.29,4.29,0,0,0-3,1.58c0,.39,0,.82,0,1.25v12.4H383V92.88c0-1.36-.55-2-1.65-2a3.92,3.92,0,0,0-3,1.72v13.52h-6.88Z" style="fill:#fff"/><path d="M407.77,108.41a2.19,2.19,0,0,0,2.49-1.86l.33-.79L403.35,86.5h6.8l3.69,11.44h.07l3.69-11.44h6.55l-6.8,19.07c-2.42,6.49-4.87,8.07-9,8.07a17.53,17.53,0,0,1-5-.75L405,107.8A8.62,8.62,0,0,0,407.77,108.41Z" style="fill:#fff"/><path d="M444,86c5.85,0,10.28,4.09,10.28,10.11,0,6.45-4.17,10.43-10.28,10.43s-10.32-4-10.32-10.43C433.71,90.12,438.13,86,444,86Zm0,15.67c2.23,0,3.37-2.15,3.37-5.52,0-3.19-1.28-5.27-3.37-5.27s-3.4,2.08-3.4,5.27C440.62,99.55,441.75,101.7,444,101.7Z" style="fill:#fff"/><path d="M458.69,91.31H455.8V86.9h2.89v-.75c0-5.63,3.66-7.49,8.52-7.49a15.51,15.51,0,0,1,5.3,1l-1.57,4.41a9.14,9.14,0,0,0-3.18-.57c-1.61,0-2.23,1-2.23,2.47v.9h4.68v4.41h-4.68v14.81h-6.84Z" style="fill:#fff"/><path d="M484,98.33a16.13,16.13,0,0,0,7.32,2.22c1.87,0,3-.68,3-1.76,0-3.37-13.06-1-13.06-10.43,0-4.27,3.59-7.82,9.77-7.82a22.93,22.93,0,0,1,9.62,2.29l-2.56,5.34a15,15,0,0,0-6.69-1.65c-1.79,0-2.82.75-2.82,1.76,0,3.3,13.06.82,13.06,10.4,0,4.41-3.44,7.89-10.28,7.89a22.18,22.18,0,0,1-10.68-2.91Z" style="fill:#fff"/><path d="M514.5,86a11.87,11.87,0,0,1,7.32,2.55l-3.37,4.19a5.74,5.74,0,0,0-3.69-1.4c-2,0-3.88,1.54-3.88,4.88s1.87,5,3.88,5a5.4,5.4,0,0,0,3.55-1.33l3.62,3.73a10.73,10.73,0,0,1-7.43,2.94c-5.89,0-10.57-3.84-10.57-10.33S508.5,86,514.5,86Z" style="fill:#fff"/><path d="M524.19,79.12h6.91v5.2h-6.91Zm0,7.78h6.91v19.22h-6.91Z" style="fill:#fff"/><path d="M544.27,86c5.78,0,9.44,3.48,9.44,8.93a16.72,16.72,0,0,1-.26,2.87H541c.37,2.44,1.61,3.51,3.91,3.51a10.71,10.71,0,0,0,5.38-1.54l2.78,4.05a14.73,14.73,0,0,1-8.82,2.72c-5.71,0-10.24-3.76-10.24-10.33S538.75,86,544.27,86Zm-3.22,8.32h6.25c0-2.08-.81-3.66-2.82-3.66C542.88,90.7,541.49,91.81,541.05,94.35Z" style="fill:#fff"/><path d="M556.56,86.5h6.55l.29,2.12A8.41,8.41,0,0,1,569.18,86c4.54,0,6.26,2.58,6.26,7.17v12.91h-6.88V93c0-1.29-.55-2.15-1.94-2.15a4.2,4.2,0,0,0-3.18,1.79v13.44h-6.88Z" style="fill:#fff"/><path d="M588.67,86A11.87,11.87,0,0,1,596,88.58l-3.37,4.19a5.74,5.74,0,0,0-3.69-1.4c-2,0-3.88,1.54-3.88,4.88s1.87,5,3.88,5a5.4,5.4,0,0,0,3.55-1.33l3.62,3.73a10.73,10.73,0,0,1-7.43,2.94c-5.89,0-10.57-3.84-10.57-10.33S582.67,86,588.67,86Z" style="fill:#fff"/><path d="M607.22,86c5.78,0,9.44,3.48,9.44,8.93a16.72,16.72,0,0,1-.26,2.87H603.93c.37,2.44,1.61,3.51,3.91,3.51a10.71,10.71,0,0,0,5.38-1.54l2.78,4.05a14.73,14.73,0,0,1-8.82,2.72c-5.71,0-10.24-3.76-10.24-10.33S601.7,86,607.22,86ZM604,94.35h6.25c0-2.08-.81-3.66-2.82-3.66C605.83,90.7,604.44,91.81,604,94.35Z" style="fill:#fff"/><path d="M621,99.95a14.39,14.39,0,0,0,6.07,1.69c1.57,0,2.19-.43,2.19-1.18,0-2.51-10.24-.72-10.24-8.07,0-4.23,4-6.35,8.41-6.35a18.06,18.06,0,0,1,7.76,1.79l-2.34,4.41a14.38,14.38,0,0,0-5.27-1.29c-1.39,0-2,.43-2,1.18,0,2.47,10.17.54,10.17,7.85,0,4.27-3.62,6.6-8.56,6.6a19.13,19.13,0,0,1-8.63-2.08Z" style="fill:#fff"/></svg>