<svg xmlns="http://www.w3.org/2000/svg" viewBox="0 0 598.95 75.34"><title>aesa-logo</title><path d="M589.39,57.86h2.95V51.23l6.61-10H595.6l-4.71,7.37-4.66-7.37h-3.45l6.61,10.08Zm-14,.29a8.59,8.59,0,0,0,6.75-2.95l-1.88-1.9a6.52,6.52,0,0,1-4.78,2.16,5.63,5.63,0,0,1-5.49-5.92v0a5.59,5.59,0,0,1,5.49-5.87,6.62,6.62,0,0,1,4.66,2.07L582,43.53a8.68,8.68,0,0,0-6.51-2.59,8.42,8.42,0,0,0-8.58,8.61v0a8.37,8.37,0,0,0,8.46,8.56m-25.72-.29h2.88V46l9.18,11.84h2.45V41.22h-2.88V52.73l-8.91-11.51h-2.71Zm-15.62,0h12.46V55.25h-9.53V50.78h8.34V48.17h-8.34V43.84h9.41V41.22H534Zm-10.44.29a10.61,10.61,0,0,0,6.94-2.59v-7h-7.08v2.54h4.26v3.11a6.79,6.79,0,0,1-4,1.26c-3.4,0-5.66-2.52-5.66-5.94v0a5.63,5.63,0,0,1,5.4-5.87,6.52,6.52,0,0,1,4.66,1.78l1.86-2.21a9,9,0,0,0-6.4-2.26,8.48,8.48,0,0,0-8.58,8.61v0a8.26,8.26,0,0,0,8.63,8.56m-20.75-6.89,2.85-6.66,2.88,6.66ZM497,57.86h3l1.71-4h7.87l1.69,4h3.09L507.07,41.1h-2.71ZM478.61,55.2V43.89h3.28a5.46,5.46,0,0,1,5.78,5.66v0a5.42,5.42,0,0,1-5.78,5.61Zm-2.92,2.66h6.2c5.23,0,8.84-3.64,8.84-8.32v0c0-4.68-3.61-8.27-8.84-8.27h-6.2Zm-13.41-6.61,2.85-6.66L468,51.26Zm-5.78,6.61h3l1.71-4h7.87l1.69,4h3.09L466.54,41.1h-2.71Zm-9.1-8v-6h3.4c2.19,0,3.59,1,3.59,3v0c0,1.73-1.38,3-3.59,3Zm-2.92,8h2.92V52.52h3.3c3.66,0,6.66-1.95,6.66-5.68v0c0-3.35-2.45-5.56-6.32-5.56h-6.56Zm-16,0H441V55.25h-9.53V50.78h8.34V48.17h-8.34V43.84h9.41V41.22H428.5Zm-18.71,0h2.88V46l9.18,11.84h2.45V41.22h-2.88V52.73L412.5,41.22h-2.71Zm-17.47-2.19a2.53,2.53,0,0,1-2.78-2.43v0a3.08,3.08,0,0,1,2.21-2.76l3.71,3.78a4.59,4.59,0,0,1-3.14,1.45m.43-7.92a3.53,3.53,0,0,1-1.26-2.47v0a1.89,1.89,0,0,1,2-2,1.8,1.8,0,0,1,1.9,1.88v0c0,1.19-.9,2-2.62,2.59m6.59,10.44,2.16-1.54L398.88,54a26.19,26.19,0,0,0,2.26-3.8L398.93,49a24.22,24.22,0,0,1-1.78,3.21l-2.85-2.9C396.5,48.5,398,47.19,398,45v0a4.11,4.11,0,0,0-4.42-4c-3,0-4.78,1.95-4.78,4.18v0a5.4,5.4,0,0,0,1.38,3.47c-2.28,1-3.54,2.52-3.54,4.66v0c0,2.88,2.33,4.76,5.42,4.76a7.32,7.32,0,0,0,5.11-2.16Zm-26.6-.1c3.5,0,5.94-1.85,5.94-5v0c0-2.76-1.83-4-5.35-4.87-3.19-.76-3.95-1.33-3.95-2.62v0c0-1.09,1-2,2.71-2a7.56,7.56,0,0,1,4.52,1.71l1.57-2.21a9.22,9.22,0,0,0-6-2.09c-3.3,0-5.68,2-5.68,4.83v0c0,3.07,2,4.11,5.54,5,3.09.71,3.76,1.36,3.76,2.54v0c0,1.26-1.14,2.09-2.95,2.09a7.66,7.66,0,0,1-5.25-2.16l-1.76,2.09a10.25,10.25,0,0,0,6.94,2.66m-19.57-6.85L356,44.6l2.88,6.66Zm-5.78,6.61h3l1.71-4H360l1.69,4h3.09L357.42,41.1h-2.71ZM336,51.26l2.85-6.66,2.88,6.66Zm-5.78,6.61h3l1.71-4h7.87l1.69,4h3.09L340.23,41.1h-2.71Z" style="fill:#afafaf"/><path d="M528.2,29.34h2.92V22.56h8.39V19.9h-8.39V15.36h9.46V12.7H528.2Zm-11.43-2.4A5.7,5.7,0,0,1,511.1,21v0a5.62,5.62,0,0,1,5.61-5.87A5.7,5.7,0,0,1,522.37,21v0a5.62,5.62,0,0,1-5.61,5.87m0,2.69a8.53,8.53,0,0,0,8.72-8.6v0A8.7,8.7,0,0,0,508,21v0a8.45,8.45,0,0,0,8.68,8.56m-30-.29h12.46V26.72h-9.53V22.25H498V19.64h-8.34V15.31H499V12.7H486.69Zm-11.91.12h2.57l6.92-16.76H481.1l-5,12.79-5-12.79h-3.23Zm-12.67-.12H465V12.7h-2.92Zm-11.05,0H454V15.41h5.28V12.7h-13.5v2.71h5.28Zm-15.71-6.61,2.85-6.66,2.88,6.66Zm-5.78,6.61h3l1.71-4h7.87l1.69,4h3.09L439.6,12.58h-2.71Zm-5.28,0h2.92V12.7h-2.92Zm-11.17,0h2.95V15.41h5.28V12.7h-13.5v2.71h5.28Zm-11.15,0h2.92V12.7H402Zm-18.76,0h2.88V17.5l9.18,11.84h2.45V12.7h-2.88V24.2L385.92,12.7h-2.71Zm-7.18,0H379V12.7H376Zm-26.17,0h2.88V17.5l9.18,11.84h2.45V12.7h-2.88V24.2L352.57,12.7h-2.71ZM336,22.73l2.85-6.66,2.88,6.66Zm-5.78,6.61h3l1.71-4h7.87l1.69,4h3.09l-7.32-16.76h-2.71Z" style="fill:#afafaf"/><path d="M272.39,43.64l9.73-23.75,9.73,23.75ZM243.51,74.29h16.43l6.7-16.43h31l6.7,16.43h16.85L289.76.52H274.9Zm-26.79,1c15.8,0,26.89-8.16,26.89-22.71v-.21c0-12.77-8.37-18.1-23.23-22-12.66-3.24-15.8-4.81-15.8-9.63v-.21c0-3.56,3.24-6.38,9.42-6.38s12.56,2.72,19,7.22l8.37-12.14A42.4,42.4,0,0,0,214.21,0c-15,0-25.64,8.79-25.64,22.08v.21c0,14.54,9.52,18.63,24.28,22.39,12.24,3.14,14.76,5.23,14.76,9.31v.21c0,4.29-4,6.91-10.57,6.91-8.37,0-15.28-3.45-21.87-8.89l-9.52,11.41a46.61,46.61,0,0,0,31.08,11.72m-93-1h55.77V60H139.71V44.58h34.53V30.24H139.71V15.38h39.24V1H123.7ZM69.39,43.64l9.73-23.75,9.73,23.75ZM40.51,74.29H56.94l6.7-16.43h31l6.7,16.43h16.85L86.76.52H71.9Z" style="fill:#fff"/><polygon points="40.51 74.3 71.9 0.52 58.4 0.52 27 74.3 40.51 74.3" style="fill:#efefef;opacity:0.8"/><polygon points="27 74.3 58.4 0.52 44.89 0.52 13.5 74.3 27 74.3" style="fill:#f4f4f4;opacity:0.5"/><polygon points="13.5 74.3 44.89 0.52 31.39 0.52 0 74.3 13.5 74.3" style="fill:#f9f9f9;opacity:0.2"/></svg>