<svg xmlns="http://www.w3.org/2000/svg" viewBox="0 0 327.31 111.32"><defs><style>.cls-1{fill:#fff;}</style></defs><title>ghtc</title><g id="Layer_2" data-name="Layer 2"><g id="Layer_1-2" data-name="Layer 1"><path class="cls-1" d="M289,13a21.64,21.64,0,0,1,9.6,4.7h0A5.7,5.7,0,1,0,289,13Z"/><circle class="cls-1" cx="267.54" cy="16.23" r="16.23"/><circle class="cls-1" cx="259.04" cy="75.14" r="7.42"/><path class="cls-1" d="M263.35,66.69l13.26-18.88s.34-.55.75-.27,0,.77,0,.77L264.87,68a10.31,10.31,0,0,0-1.64-1.08Z"/><path class="cls-1" d="M303.1,23.08A18.19,18.19,0,0,0,302,21.39l9-6.17s.43-.35.72,0a.48.48,0,0,1-.15.69Z"/><path class="cls-1" d="M310.68,18.52a9.87,9.87,0,1,0-2.28-3.19l.18.43,1.67-1.14s1.31-1.07,2.18.12a1.44,1.44,0,0,1-.45,2.07l-1.62,1.36Z"/><path class="cls-1" d="M305.08,55.14l-5.82-5.6a1,1,0,0,1-.11-.12c.2-.19.45-.43.66-.66l.6-.67.06.06,5.9,5.72h0a12.68,12.68,0,1,1-1.34,1.29Z"/><path class="cls-1" d="M299.09,48.15c-.4.42-.94.92-.94.92a20.12,20.12,0,0,1-21.66,3.65l-.37-.16,2.1-3.3s1.22-1.76-.12-2.66-2.56.94-2.56.94l-2.35,3.35-.42-.3A20.17,20.17,0,0,1,265.94,42l-2.57.73a6.45,6.45,0,1,1-.41-1.44l2.46-.72a20.09,20.09,0,0,1-1-6.25c0-.12,0-.25,0-.37V33.8a17.9,17.9,0,0,0,20.84-19.6s.14,0,.14,0a20.12,20.12,0,0,1,18.76,24.35l0,.1,3.42.63s.07-.23.09-.28l.09-.18a4,4,0,1,1-.42,1.79v-.19l-3.5-.61,0,.12A20.05,20.05,0,0,1,300,47.11S299.48,47.73,299.09,48.15Z"/><path class="cls-1" d="M58,77.35a48.64,48.64,0,0,1-22.25,5.32C14.74,82.67,0,68.76,0,49.88S14.92,16.56,35.81,16.56a42.54,42.54,0,0,1,20.08,4.87V35.61a36.46,36.46,0,0,0-19.81-6.38c-13.2,0-21.71,9.13-21.71,20.56C14.38,61,22.52,70.35,36,70.35a22.08,22.08,0,0,0,8-1.42V59.27H32.65V47.58H58Z"/><path class="cls-1" d="M62.13,16.92H76.51V42.24h28.31V16.92h14.38V82.4H104.81V54.81H76.51V82.4H62.13Z"/><path class="cls-1" d="M144.42,29.49H123.26V16.92H180V29.49H158.8V82.4H144.42Z"/><path class="cls-1" d="M234.85,78.42c-5.61,2.92-12.66,4.25-19.17,4.25-21.07,0-35.63-14.27-35.63-33s14.56-33.14,35.63-33.14a42.69,42.69,0,0,1,18.18,4V34.81a33.74,33.74,0,0,0-18.09-5.58c-12.66,0-21.34,8.69-21.34,20.29C194.43,61,202.84,70,216.31,70a33.34,33.34,0,0,0,18.54-5.94Z"/><path class="cls-1" d="M10.7,106a5.31,5.31,0,0,1-5.33,5.3A5.84,5.84,0,0,1,3,110.79a.6.6,0,0,1-.23-.74.51.51,0,0,1,.74-.25,4.09,4.09,0,0,0,1.84.42A4.19,4.19,0,0,0,9.59,106v-1.38a5.12,5.12,0,0,1-4.22,2.21,5.62,5.62,0,0,1,0-11.23,5.18,5.18,0,0,1,4.22,2.21V96.18a.57.57,0,0,1,.58-.55.56.56,0,0,1,.53.55Zm-1.11-4.8a4.35,4.35,0,0,0-4.22-4.5,4.53,4.53,0,0,0,0,9A4.37,4.37,0,0,0,9.59,101.23Z"/><path class="cls-1" d="M13.91,91.34a.57.57,0,0,1,1.13,0v15a.57.57,0,0,1-1.13,0Z"/><path class="cls-1" d="M22,95.62a5.66,5.66,0,0,1,0,11.3,5.66,5.66,0,0,1,0-11.3Zm0,10.19a4.57,4.57,0,0,0,0-9.11,4.57,4.57,0,0,0,0,9.11Z"/><path class="cls-1" d="M29.29,101.53V91.34a.57.57,0,0,1,1.13,0v6.5a5.39,5.39,0,0,1,4.33-2.21,5.65,5.65,0,0,1,0,11.3,5.37,5.37,0,0,1-4.33-2.19v1.64a.57.57,0,0,1-1.13,0Zm1.13-.23a4.45,4.45,0,1,0,0-.18Z"/><path class="cls-1" d="M51.68,96.18v10.19a.55.55,0,1,1-1.11,0v-1.68a5.27,5.27,0,0,1-4.24,2.24,5.66,5.66,0,0,1,0-11.3,5.25,5.25,0,0,1,4.24,2.21V96.18a.55.55,0,1,1,1.11,0Zm-1.11,5.1a4.25,4.25,0,1,0-4.24,4.54A4.41,4.41,0,0,0,50.57,101.27Z"/><path class="cls-1" d="M54.65,91.34a.57.57,0,0,1,1.13,0v15a.57.57,0,0,1-1.13,0Z"/><path class="cls-1" d="M73.15,100.07a3.6,3.6,0,0,0-7.17,0v6.36s0,.07,0,.09,0,.07,0,.09a.52.52,0,0,1-.35.28.08.08,0,0,1,0,0H65.4a.63.63,0,0,1-.44-.18.69.69,0,0,1-.09-.18.5.5,0,0,1,0-.18v-15a.57.57,0,0,1,1.13,0v5.95a4.67,4.67,0,0,1,3.57-1.66,4.5,4.5,0,0,1,4.73,4.45v6.29a.57.57,0,0,1-1.13,0Z"/><path class="cls-1" d="M75.87,101.3a5.47,5.47,0,0,1,10.93-.42V101a.52.52,0,0,1-.55.51H77a4.44,4.44,0,0,0,4.38,4.33A4.25,4.25,0,0,0,85,103.76a.54.54,0,0,1,.74-.18.59.59,0,0,1,.18.78,5.38,5.38,0,0,1-4.56,2.56A5.56,5.56,0,0,1,75.87,101.3Zm1.18-.9H85.6a4.36,4.36,0,0,0-4.24-3.67A4.41,4.41,0,0,0,77,100.4Z"/><path class="cls-1" d="M97.89,96.18v10.19a.55.55,0,1,1-1.11,0v-1.68a5.27,5.27,0,0,1-4.24,2.24,5.66,5.66,0,0,1,0-11.3,5.25,5.25,0,0,1,4.24,2.21V96.18a.55.55,0,1,1,1.11,0Zm-1.11,5.1a4.25,4.25,0,1,0-4.24,4.54A4.41,4.41,0,0,0,96.78,101.27Z"/><path class="cls-1" d="M100.87,91.34a.57.57,0,0,1,1.13,0v15a.57.57,0,0,1-1.13,0Z"/><path class="cls-1" d="M108.08,96.18a.6.6,0,0,1-.55.55h-1.45V105a.88.88,0,0,0,.83.83.64.64,0,0,1,.58.58.62.62,0,0,1-.58.55,1.92,1.92,0,0,1-2-2V96.73h-1.41c-.55,0-.55-.28-.55-.55s0-.55.55-.55h1.41v-4.2a.59.59,0,0,1,.55-.55.62.62,0,0,1,.6.55v4.2h1.45A.6.6,0,0,1,108.08,96.18Z"/><path class="cls-1" d="M118.9,100.07a3.6,3.6,0,0,0-7.17,0v6.36s0,.07,0,.09,0,.07,0,.09a.52.52,0,0,1-.35.28.08.08,0,0,1,0,0h-.12a.63.63,0,0,1-.44-.18.69.69,0,0,1-.09-.18.5.5,0,0,1,0-.18v-15a.57.57,0,0,1,1.13,0v5.95a4.67,4.67,0,0,1,3.57-1.66,4.5,4.5,0,0,1,4.73,4.45v6.29a.57.57,0,0,1-1.13,0Z"/><path class="cls-1" d="M134.53,96.66a1.3,1.3,0,0,1-1.29,1.27h-.58v6.43a1.27,1.27,0,0,1,1.27,1.29,1.25,1.25,0,0,1-1.27,1.27,2.57,2.57,0,0,1-2.56-2.56V97.93h-.67a1.26,1.26,0,0,1-1.27-1.27,1.25,1.25,0,0,1,1.27-1.27h.67V92.05a1.27,1.27,0,0,1,1.29-1.27,1.25,1.25,0,0,1,1.27,1.27v3.34h.58A1.28,1.28,0,0,1,134.53,96.66Z"/><path class="cls-1" d="M134.54,101.16a5.71,5.71,0,0,1,5.63-5.76,5.51,5.51,0,0,1,5.56,5.35v.12a.64.64,0,0,1,0,.21,1.11,1.11,0,0,1-1.2.92h-7.33a3,3,0,0,0,.78,1.52,3.57,3.57,0,0,0,2.21,1,3.76,3.76,0,0,0,2.4-.58,1.3,1.3,0,0,1,1.73-.07,1.05,1.05,0,0,1,0,1.5,5.83,5.83,0,0,1-4.13,1.52A5.72,5.72,0,0,1,134.54,101.16ZM137,100h6.52a3.77,3.77,0,0,0-3.41-2.44A3.22,3.22,0,0,0,137,100Z"/><path class="cls-1" d="M146.27,101.18a5.87,5.87,0,0,1,5.86-5.79,6.08,6.08,0,0,1,3.67,1.27,1.27,1.27,0,0,1,.25,1.71,1.23,1.23,0,0,1-1.73.23,3.68,3.68,0,0,0-2.19-.74,3.31,3.31,0,1,0,0,6.62,3.74,3.74,0,0,0,2.19-.74A1.26,1.26,0,0,1,156,104a1.27,1.27,0,0,1-.25,1.71,6.35,6.35,0,0,1-3.67,1.22A5.84,5.84,0,0,1,146.27,101.18Z"/><path class="cls-1" d="M160.5,105.65a1.27,1.27,0,0,1-1.29,1.27A1.31,1.31,0,0,1,158,106a1.36,1.36,0,0,1,0-.32V92.05a1.28,1.28,0,0,1,2.56,0v4a5.26,5.26,0,0,1,2.47-.67,5,5,0,0,1,5,5v5.21a1.27,1.27,0,1,1-2.54,0v-5.21a2.48,2.48,0,1,0-5,0Z"/><path class="cls-1" d="M179.39,100.19v5.51a1.21,1.21,0,0,1-1.2,1.22A1.25,1.25,0,0,1,177,105.7v-5.51a2.37,2.37,0,0,0-2.4-2.33,2.3,2.3,0,0,0-2.31,2.33v5.51a.46.46,0,0,1,0,.23,1.26,1.26,0,0,1-1.22,1,1.22,1.22,0,0,1-1.22-1.22V96.62A1.22,1.22,0,0,1,171,95.39a1.25,1.25,0,0,1,1.13.71,4.61,4.61,0,0,1,2.44-.71A4.83,4.83,0,0,1,179.39,100.19Z"/><path class="cls-1" d="M181.51,105.24a5.75,5.75,0,0,1-1.59-4.06,5.94,5.94,0,0,1,1.59-4,5.38,5.38,0,0,1,4-1.75,5.1,5.1,0,0,1,3.85,1.75,5.76,5.76,0,0,1,1.61,4,5.58,5.58,0,0,1-1.61,4.06,5.1,5.1,0,0,1-3.85,1.75A5.38,5.38,0,0,1,181.51,105.24Zm.92-4.06a3.73,3.73,0,0,0,.83,2.44,3.12,3.12,0,0,0,2.21.85,3,3,0,0,0,2.12-.85,3.54,3.54,0,0,0,.9-2.44,3.47,3.47,0,0,0-.9-2.4,3.26,3.26,0,0,0-2.12-.88,3.35,3.35,0,0,0-2.21.88A3.64,3.64,0,0,0,182.43,101.18Z"/><path class="cls-1" d="M193.29,90.78a1.29,1.29,0,0,1,1.29,1.27v13.6a1.28,1.28,0,0,1-2.56,0V92.05A1.28,1.28,0,0,1,193.29,90.78Z"/><path class="cls-1" d="M197.74,105.24a5.75,5.75,0,0,1-1.59-4.06,5.94,5.94,0,0,1,1.59-4,5.38,5.38,0,0,1,4-1.75,5.1,5.1,0,0,1,3.85,1.75,5.76,5.76,0,0,1,1.61,4,5.58,5.58,0,0,1-1.61,4.06,5.1,5.1,0,0,1-3.85,1.75A5.38,5.38,0,0,1,197.74,105.24Zm.92-4.06a3.73,3.73,0,0,0,.83,2.44,3.12,3.12,0,0,0,2.21.85,3,3,0,0,0,2.12-.85,3.54,3.54,0,0,0,.9-2.44,3.47,3.47,0,0,0-.9-2.4,3.26,3.26,0,0,0-2.12-.88,3.35,3.35,0,0,0-2.21.88A3.64,3.64,0,0,0,198.67,101.18Z"/><path class="cls-1" d="M219.09,101.23v4.29a5.55,5.55,0,0,1-5.53,5.53,5.35,5.35,0,0,1-2.42-.58,1.22,1.22,0,0,1-.55-1.66,1.25,1.25,0,0,1,1.66-.58,2.78,2.78,0,0,0,1.31.32,3.09,3.09,0,0,0,3-2.47,5.32,5.32,0,0,1-6.94-.83A5.77,5.77,0,0,1,208,101.2a6.06,6.06,0,0,1,1.61-4.1,5.46,5.46,0,0,1,3.92-1.71,5.24,5.24,0,0,1,3.09,1,1.24,1.24,0,0,1,1.22-1,1.22,1.22,0,0,1,1.22,1.22v4.61Zm-2.47,0a3.58,3.58,0,0,0-.88-2.35,2.88,2.88,0,0,0-2.19-1,2.77,2.77,0,0,0-2.12,1,3.39,3.39,0,0,0-.92,2.35,3.32,3.32,0,0,0,.92,2.38,2.8,2.8,0,0,0,2.12.95,2.91,2.91,0,0,0,2.19-.95A3.51,3.51,0,0,0,216.63,101.2Z"/><path class="cls-1" d="M223.82,92.51a1.25,1.25,0,0,1-1.25,1.27,1.26,1.26,0,0,1-1.25-1.27V92a1.24,1.24,0,0,1,1.25-1.25A1.23,1.23,0,0,1,223.82,92Zm0,4.17v9a1.23,1.23,0,0,1-1.25,1.25,1.24,1.24,0,0,1-1.25-1.25v-9a1.23,1.23,0,0,1,1.25-1.27A1.22,1.22,0,0,1,223.82,96.68Z"/><path class="cls-1" d="M224.68,101.16a5.71,5.71,0,0,1,5.63-5.76,5.51,5.51,0,0,1,5.56,5.35v.12a.63.63,0,0,1,0,.21,1.11,1.11,0,0,1-1.2.92h-7.33a3,3,0,0,0,.78,1.52,3.57,3.57,0,0,0,2.21,1,3.76,3.76,0,0,0,2.4-.58,1.31,1.31,0,0,1,1.73-.07,1.05,1.05,0,0,1,0,1.5,5.83,5.83,0,0,1-4.13,1.52A5.72,5.72,0,0,1,224.68,101.16Zm2.51-1.13h6.52a3.77,3.77,0,0,0-3.41-2.44A3.22,3.22,0,0,0,227.19,100Z"/><path class="cls-1" d="M236.67,103.62a1.2,1.2,0,0,1,1.73-.18,4.24,4.24,0,0,0,2.54,1,3.08,3.08,0,0,0,1.57-.44.94.94,0,0,0,.42-.69.34.34,0,0,0-.07-.23c0-.07-.12-.16-.3-.28a5.33,5.33,0,0,0-1.84-.65h0a8.83,8.83,0,0,1-2-.6,3.85,3.85,0,0,1-1.59-1.34,2.79,2.79,0,0,1-.39-1.45,3.24,3.24,0,0,1,1.36-2.54,5,5,0,0,1,2.84-.85,5.92,5.92,0,0,1,3.46,1.27,1.27,1.27,0,0,1,.37,1.71,1.22,1.22,0,0,1-1.71.32,4,4,0,0,0-2.12-.85,2.35,2.35,0,0,0-1.38.42.7.7,0,0,0-.37.53.25.25,0,0,0,0,.18.63.63,0,0,0,.25.23,4.7,4.7,0,0,0,1.68.55l0,0h0a8.3,8.3,0,0,1,2.14.67,3.59,3.59,0,0,1,1.64,1.36,3,3,0,0,1,.44,1.52,3.33,3.33,0,0,1-1.45,2.67,5.25,5.25,0,0,1-3,.92,6.7,6.7,0,0,1-4.1-1.59A1.23,1.23,0,0,1,236.67,103.62Z"/><path class="cls-1" d="M252.37,101.25a5.69,5.69,0,0,1,5.81-5.63,5.82,5.82,0,0,1,3.6,1.25.52.52,0,0,1,.07.76.57.57,0,0,1-.76.09,4.6,4.6,0,1,0-2.91,8.09,4.76,4.76,0,0,0,2.91-1,.57.57,0,0,1,.76.09.55.55,0,0,1-.12.81,5.83,5.83,0,0,1-3.55,1.2A5.7,5.7,0,0,1,252.37,101.25Z"/><path class="cls-1" d="M268.51,95.62a5.66,5.66,0,1,1-5.35,5.65A5.53,5.53,0,0,1,268.51,95.62Zm0,10.19a4.57,4.57,0,1,0-4.24-4.54A4.42,4.42,0,0,0,268.51,105.81Z"/><path class="cls-1" d="M285.28,96.18v10.19a.55.55,0,1,1-1.11,0v-1.68a5.28,5.28,0,0,1-4.24,2.24,5.66,5.66,0,0,1,0-11.3,5.25,5.25,0,0,1,4.24,2.21V96.18a.55.55,0,1,1,1.11,0Zm-1.11,5.1a4.25,4.25,0,1,0-4.24,4.54A4.41,4.41,0,0,0,284.17,101.27Z"/><path class="cls-1" d="M288.25,91.34a.57.57,0,0,1,1.13,0v15a.57.57,0,0,1-1.13,0Z"/><path class="cls-1" d="M291.55,92.49a.57.57,0,0,1,1.13,0V93a.57.57,0,1,1-1.13,0Zm0,3.69a.55.55,0,0,1,.55-.55.55.55,0,0,1,.58.55v10.19a.57.57,0,0,1-1.13,0Z"/><path class="cls-1" d="M299.65,96.18a.6.6,0,0,1-.55.55h-1.45V105a.88.88,0,0,0,.83.83.64.64,0,0,1,.58.58.62.62,0,0,1-.58.55,1.92,1.92,0,0,1-2-2V96.73h-1.41c-.55,0-.55-.28-.55-.55s0-.55.55-.55h1.41v-4.2a.6.6,0,0,1,.55-.55.62.62,0,0,1,.6.55v4.2h1.45A.6.6,0,0,1,299.65,96.18Z"/><path class="cls-1" d="M301.86,92.49a.57.57,0,0,1,1.13,0V93a.57.57,0,1,1-1.13,0Zm0,3.69a.55.55,0,0,1,.55-.55.55.55,0,0,1,.58.55v10.19a.57.57,0,0,1-1.13,0Z"/><path class="cls-1" d="M310.83,95.62a5.66,5.66,0,1,1-5.35,5.65A5.53,5.53,0,0,1,310.83,95.62Zm0,10.19a4.57,4.57,0,1,0-4.24-4.54A4.42,4.42,0,0,0,310.83,105.81Z"/><path class="cls-1" d="M326.19,100.23a3.48,3.48,0,0,0-3.48-3.48,3.54,3.54,0,0,0-3.5,3.48v6.23a.51.51,0,0,1-.12.25.49.49,0,0,1-.42.21h-.14a.6.6,0,0,1-.37-.3.08.08,0,0,1,0-.07.08.08,0,0,0,0,0V96.2a.54.54,0,1,1,1.08,0v1.08a4.58,4.58,0,0,1,8.09,3v6.13a.55.55,0,1,1-1.11,0Z"/></g></g></svg>