<svg xmlns="http://www.w3.org/2000/svg" viewBox="0 0 829.11 155.66" width="829.11" height="155.66"><g><g><path fill="#95c230" d="M0 120h7.54a54.26 54.26 0 0 1 6.64.31 10.42 10.42 0 0 1 6.77 3.41 10 10 0 0 1 2.26 6.64q0 6.92-6.66 9.61l8.61 15h-6.4l-8-14.1H5.41V155H0zm5.41 16.23h2.43a21.31 21.31 0 0 0 6.36-.64 4.8 4.8 0 0 0 2.64-2.15 6.14 6.14 0 0 0 .77-3.13 4.86 4.86 0 0 0-2.74-4.79 9.65 9.65 0 0 0-3.79-.82q-.95 0-3.51-.05H5.41zM35.68 134.56h14v4.67h-14v11.13h15.77V155H30.27v-35H51v4.64H35.68zM79.13 129.72h-5.22a6.27 6.27 0 0 0-1.33-3.61 6.06 6.06 0 0 0-4.9-2 6.51 6.51 0 0 0-3.84 1.1 4 4 0 0 0-1.84 3.41 3.58 3.58 0 0 0 1.95 3.13 57.6 57.6 0 0 0 5.95 2.74 55 55 0 0 1 5.56 2.59 9 9 0 0 1 4.69 8.18 9.53 9.53 0 0 1-3.9 8.08 13.13 13.13 0 0 1-8.1 2.33q-7.33 0-10.66-4.77a13.42 13.42 0 0 1-2.08-7.2h5.25a8.36 8.36 0 0 0 1.79 5 7.34 7.34 0 0 0 5.79 2.28 7.46 7.46 0 0 0 4.59-1.36 4.09 4.09 0 0 0 1.74-3.43 4.55 4.55 0 0 0-2.28-3.82 41.67 41.67 0 0 0-5.74-2.77q-5.36-2.31-7.2-4a8.5 8.5 0 0 1-2.79-6.46 8.62 8.62 0 0 1 3.87-7.54 12.68 12.68 0 0 1 7.43-2.18q6.36 0 9.46 4.33a11.09 11.09 0 0 1 1.81 5.97zM92.23 134.56h14v4.67h-14v11.13H108V155H86.83v-35h20.71v4.64H92.23zM122.51 119.93h5.25l12 35.09h-5.61l-2.59-8.2h-12.77l-2.64 8.2h-5.56zm7.59 22.22l-4.95-15.74-4.95 15.74zM144.86 120h7.54a54.26 54.26 0 0 1 6.64.31 10.42 10.42 0 0 1 6.77 3.41 10 10 0 0 1 2.26 6.64q0 6.92-6.66 9.61L170 155h-6.38l-8-14.1h-5.38V155h-5.41zm5.41 16.23h2.44a21.31 21.31 0 0 0 6.36-.64 4.8 4.8 0 0 0 2.64-2.15 6.14 6.14 0 0 0 .77-3.13 4.86 4.86 0 0 0-2.74-4.79 9.65 9.65 0 0 0-3.79-.82q-.95 0-3.51-.05h-2.15zM200 130.62h-4.79q-1.26-6.51-7.2-6.51a7.71 7.71 0 0 0-6.61 3.41q-2.64 3.77-2.64 10t2.74 10.1a7.67 7.67 0 0 0 6.56 3.28q6.74 0 7.54-8.41h4.92a17.15 17.15 0 0 1-2 7.69q-3.18 5.44-10.23 5.43a13.86 13.86 0 0 1-10.41-4.2q-4.79-4.92-4.79-13.84 0-9.66 5.36-14.59a13.73 13.73 0 0 1 9.61-3.64 13 13 0 0 1 6.36 1.54q4.94 2.74 5.58 9.74zM212.08 134.51h15.1V120h5.41v35h-5.41v-16h-15.1v16h-5.41v-35h5.41zM259.81 134.56h14v4.67h-14V155h-5.41v-35h20.71v4.64h-15.3zM293.85 119.39a13.67 13.67 0 0 1 10.38 4.41q4.69 4.95 4.69 13.71t-4.69 13.74a14.46 14.46 0 0 1-20.79 0q-4.69-5-4.69-14a24.73 24.73 0 0 1 1.26-7.72 14.52 14.52 0 0 1 6.25-8 14.09 14.09 0 0 1 7.59-2.14zm0 4.67a7.72 7.72 0 0 0-6.69 3.38 16.76 16.76 0 0 0-2.72 9.9q0 6.41 2.72 10.28a8.28 8.28 0 0 0 13.36 0q2.72-3.87 2.72-10.1t-2.72-10.07a7.77 7.77 0 0 0-6.67-3.4zM315.51 120H323a54.26 54.26 0 0 1 6.64.31 10.42 10.42 0 0 1 6.77 3.41 10 10 0 0 1 2.26 6.64q0 6.92-6.66 9.61l8.61 15h-6.38l-8-14.1h-5.38V155h-5.41zm5.41 16.23h2.44a21.31 21.31 0 0 0 6.36-.64 4.8 4.8 0 0 0 2.64-2.15 6.14 6.14 0 0 0 .77-3.13 4.86 4.86 0 0 0-2.74-4.79 9.65 9.65 0 0 0-3.79-.82q-.95 0-3.51-.05h-2.15zM373.06 137.28h11.69v14.48a20.85 20.85 0 0 1-12.28 3.9 14.46 14.46 0 0 1-10.95-4.31 14.78 14.78 0 0 1-3.46-5.87 25.68 25.68 0 0 1-1.23-8q0-9 4.72-13.87a14.82 14.82 0 0 1 17.08-2.61q5 2.69 5.64 9.56h-4.79q-1.18-6.43-7.41-6.43a7.86 7.86 0 0 0-6.59 3q-2.95 3.74-2.95 10.41t3 10.43a8.39 8.39 0 0 0 6.95 3 14.08 14.08 0 0 0 7.64-2.28v-7.13h-7.08zM392.11 120h7.54a54.26 54.26 0 0 1 6.64.31 10.42 10.42 0 0 1 6.77 3.41 10 10 0 0 1 2.26 6.64q0 6.92-6.66 9.61l8.61 15h-6.38l-8-14.1h-5.38V155h-5.41zm5.41 16.23H400a21.31 21.31 0 0 0 6.36-.64 4.8 4.8 0 0 0 2.64-2.15 6.14 6.14 0 0 0 .77-3.13 4.86 4.86 0 0 0-2.74-4.79 9.65 9.65 0 0 0-3.79-.82q-.95 0-3.51-.05h-2.15zM430.74 119.93H436L448 155h-5.61l-2.59-8.2H427l-2.64 8.2h-5.56zm7.59 22.22l-4.95-15.74-4.95 15.74zM453.09 120h5.82l15.43 26.74V120h5.13v35h-5.59l-15.64-26.69V155h-5.15zM488.16 120h7.1a48.31 48.31 0 0 1 7 .41 13.58 13.58 0 0 1 9 5.25 20.68 20.68 0 0 1-.08 23.84 13.45 13.45 0 0 1-9.43 5.18 62.27 62.27 0 0 1-7.2.31h-6.36zm5.41 30.33h2.82a32.51 32.51 0 0 0 4.9-.28 8.32 8.32 0 0 0 6-4 16.39 16.39 0 0 0 2.13-8.64 15.14 15.14 0 0 0-2.36-8.72 8.57 8.57 0 0 0-6-3.77 39 39 0 0 0-5.9-.31h-1.51zM559.58 130.62h-4.79q-1.26-6.51-7.2-6.51a7.71 7.71 0 0 0-6.61 3.41q-2.64 3.77-2.64 10t2.74 10.1a7.67 7.67 0 0 0 6.56 3.28q6.74 0 7.54-8.41h4.92a17.15 17.15 0 0 1-2 7.69q-3.18 5.44-10.23 5.43a13.86 13.86 0 0 1-10.41-4.2q-4.79-4.92-4.79-13.84 0-9.66 5.36-14.59a13.73 13.73 0 0 1 9.61-3.64 13 13 0 0 1 6.36 1.54q4.94 2.74 5.58 9.74zM571.66 134.51h15.1V120h5.41v35h-5.41v-16h-15.1v16h-5.41v-35h5.41zM609.21 119.93h5.25l12 35.09h-5.61l-2.59-8.2h-12.77l-2.64 8.2h-5.56zm7.59 22.22l-4.95-15.74-4.95 15.74zM631.56 120h5.56v30.33h15.1V155h-20.66zM657.61 120h5.56v30.33h15.1V155h-20.66zM689.06 134.56h14v4.67h-14v11.13h15.77V155h-21.18v-35h20.71v4.64h-15.3zM711 120h5.82l15.43 26.74V120h5.13v35h-5.59l-15.64-26.69V155H711zM760.2 137.28h11.69v14.48a20.85 20.85 0 0 1-12.28 3.9 14.46 14.46 0 0 1-10.95-4.31 14.78 14.78 0 0 1-3.46-5.87 25.68 25.68 0 0 1-1.23-8q0-9 4.72-13.87a14.82 14.82 0 0 1 17.07-2.61q5 2.69 5.64 9.56h-4.79q-1.18-6.43-7.41-6.43a7.86 7.86 0 0 0-6.59 3q-2.95 3.74-2.95 10.41t3 10.43a8.39 8.39 0 0 0 6.95 3 14.08 14.08 0 0 0 7.64-2.28v-7.13h-7.05zM784.66 134.56h14v4.67h-14v11.13h15.77V155h-21.18v-35H800v4.64h-15.3zM828.11 129.72h-5.23a6.27 6.27 0 0 0-1.33-3.61 6.06 6.06 0 0 0-4.9-2 6.51 6.51 0 0 0-3.84 1.1 4 4 0 0 0-1.85 3.41 3.58 3.58 0 0 0 1.95 3.13 57.6 57.6 0 0 0 5.95 2.74 55 55 0 0 1 5.56 2.59 9 9 0 0 1 4.69 8.18 9.53 9.53 0 0 1-3.9 8.08 13.13 13.13 0 0 1-8.1 2.33q-7.33 0-10.66-4.77a13.42 13.42 0 0 1-2.08-7.2h5.25a8.36 8.36 0 0 0 1.79 5 7.34 7.34 0 0 0 5.79 2.28 7.46 7.46 0 0 0 4.59-1.36 4.09 4.09 0 0 0 1.74-3.43 4.55 4.55 0 0 0-2.28-3.82 41.67 41.67 0 0 0-5.74-2.77q-5.36-2.31-7.2-4a8.5 8.5 0 0 1-2.79-6.46 8.62 8.62 0 0 1 3.87-7.54 12.68 12.68 0 0 1 7.43-2.18q6.36 0 9.46 4.33a11.09 11.09 0 0 1 1.83 5.97z"/><path fill="#fff" d="M45.45 34.42V0h16.32v85H45.45V50.74H16.31V85H0V0h16.31v34.42zM133.67 0v16.31H96.36v18.11h32.39v16.32H96.36v18h37.31V85H88.09a2.4 2.4 0 0 1-1.92-.84l-5.27-5.27A2.4 2.4 0 0 1 80 77V8a2.4 2.4 0 0 1 .84-1.91L86.16.84A2.8 2.8 0 0 1 88.09 0zM158.9 85a2.4 2.4 0 0 1-1.9-.8l-5.27-5.27a2.37 2.37 0 0 1-.84-1.92V0h16.31v68.73h35.5V85zM290.26 0v85h-16.31V38l-13.31 27.85a2.76 2.76 0 0 1-2.4 1.56h-9.59a2.8 2.8 0 0 1-2.52-1.56L232.81 38v47H216.5V0h16.31l20.63 43.18L273.95 0zM352.92 34.42V0h16.32v85h-16.32V50.74h-29.14V85h-16.31V0h16.31v34.42zM434.78 4.07l8.52 8.4a13.61 13.61 0 0 1 4 9.59V63a13.62 13.62 0 0 1-4 9.6l-8.52 8.52a13.62 13.62 0 0 1-9.6 4h-19.07a13.4 13.4 0 0 1-9.72-4L388 72.57a13.62 13.62 0 0 1-4-9.6V22.06a13.61 13.61 0 0 1 4-9.59l8.4-8.4A13.72 13.72 0 0 1 406.11 0h19.06a14 14 0 0 1 9.61 4.07zm-3.84 56.74V24.35a2.84 2.84 0 0 0-.84-1.92l-5.16-5.27a3.42 3.42 0 0 0-2-.84h-14.67a3.11 3.11 0 0 0-1.92.84l-5.16 5.27a2.4 2.4 0 0 0-.84 1.92v36.46a2.58 2.58 0 0 0 .84 1.92l5.16 5.16a2.58 2.58 0 0 0 1.92.84h14.63a2.83 2.83 0 0 0 2-.84l5.16-5.16a3.11 3.11 0 0 0 .88-1.92zM469.72 85a2.4 2.4 0 0 1-1.92-.84l-5.27-5.27a2.37 2.37 0 0 1-.84-1.92V0H478v68.73h35.5V85zM512.33 16.31V0h61.41v16.31h-22.55V85h-16.31V16.31zM636.88.84l5.27 5.27A2.84 2.84 0 0 1 643 8v4.2l-35.75 56.5h35.27V85h-48.7a2.4 2.4 0 0 1-1.92-.84l-5.27-5.27a2.84 2.84 0 0 1-.84-1.92v-4.88l35.27-55.78H585.3V0H635a2.8 2.8 0 0 1 1.88.84z"/></g></g></svg>
