<svg xmlns="http://www.w3.org/2000/svg" viewBox="0 0 640.19 147.1"><title>india-alliance_1</title><rect x="2" y="1.58" width="636.19" height="93.46" rx="17.01" ry="17.01" style="fill:#fff"/><path d="M436.11,82.62c0,6.63,5.88,12,13.14,12H625.06c7.25,0,13.14-5.37,13.14-12v-69c0-6.63-5.88-12-13.14-12H449.25c-7.26,0-13.14,5.37-13.14,12Z" style="fill:#e74117;stroke:#e74117;stroke-miterlimit:10;stroke-width:2px"/><polygon points="34.58 37.83 46.91 37.83 51.58 54.49 54.91 37.83 66.25 37.83 70.58 54.49 74.58 37.83 86.91 37.83 77.25 65.16 65.58 65.16 60.75 49.16 55.58 65.16 43.25 65.16 34.58 37.83" style="fill:#1e3e90"/><path d="M103.36,57.16h11s-4.33,8.33-11,9.33H94s-9.78-.36-12-9.33c0,0-2-19.33,12-20.67h8.33s14.33,2,12,17.33h-22S95.36,63.49,103.36,57.16Z" style="fill:#1e3e90"/><path d="M93.19,48.3h10s2.33-3.67-5-6C98.19,42.3,91.86,44,93.19,48.3Z" style="fill:#fff;stroke:#1d1d1b;stroke-miterlimit:10;stroke-width:0.2px"/><rect x="114.62" y="26.47" width="11.67" height="39.67" style="fill:#1e3e90"/><rect x="128.58" y="26.47" width="11.67" height="39.67" style="fill:#1e3e90"/><path d="M203,37.56v29h11.33V49.23s5.33-9.67,8,0V66.56h12v-18s4-7.33,8,0v18H254v-20s-4.33-19-21-5c0,0-7.33-9.67-18.67-.67L214,36.42Z" style="fill:#1e3e90"/><path d="M275.46,57.16h11s-4.33,8.33-11,9.33h-9.33s-9.45-1.33-12-9.33c0,0-2-17.33,12-20.67h8.33s14.33,2,12,17.33h-22S267.46,63.49,275.46,57.16Z" style="fill:#1e3e90"/><path d="M265.28,48.3h10s2.33-3.67-5-6C270.28,42.3,264,44,265.28,48.3Z" style="fill:#fff"/><path d="M171.3,48.09A10.16,10.16,0,0,0,165,37.76s-12.91-2.37-18.24,1c0,0-6.08,3.57-6.76,9.37,0,0-3.72,13.6,11,18,0,0,13.5,3.13,18.37-5.25,0,0,2.43-4.75,2-6.75L161.26,54s-1.25,4.88-3.75,4.38c0,0-5.86,1.88-6.86-4.49,0,0-1-8.4,2.39-9.15a5.75,5.75,0,0,1,7.22,1,9,9,0,0,1,.87,2.75Z" style="fill:#1e3e90"/><path d="M182.69,36.71s-12.43,1.57-12.14,15.71c0,0-2.43,10.57,13,14.43,0,0,12.14,1.43,16.29-5.29,0,0,9.43-13.29-2.14-22.29C197.69,39.28,195.54,36.28,182.69,36.71Z" style="fill:#1e3e90;stroke:#1d1d1b;stroke-miterlimit:10;stroke-width:0.2px"/><path d="M184.11,44.71s-5.43,4.71,0,14.14c0,0,4.57.43,5.43-.71s4-5.39,0-13.43Z" style="fill:#fff;stroke:#1d1d1b;stroke-miterlimit:10;stroke-width:0.2px"/><path d="M300.5,51.65l.6,3.32a16.8,16.8,0,0,1-3.12.34,7.65,7.65,0,0,1-3.49-.65,3.78,3.78,0,0,1-1.74-1.7,12.29,12.29,0,0,1-.51-4.44V35.76h-3V32.83h3V27.34l4.11-2.26v7.75h4.15v2.92h-4.15v13a6,6,0,0,0,.22,2.07,1.61,1.61,0,0,0,.71.73,3,3,0,0,0,1.41.27A14.86,14.86,0,0,0,300.5,51.65Z" style="fill:#1c3f8e"/><path d="M304.49,55V32.83h3.72V36.2a9.39,9.39,0,0,1,2.63-3.11,4.92,4.92,0,0,1,2.65-.75,8.64,8.64,0,0,1,4.24,1.21L316.31,37a6.35,6.35,0,0,0-3-.81,4.19,4.19,0,0,0-2.43.74A4,4,0,0,0,309.31,39a13.42,13.42,0,0,0-.69,4.39V55Z" style="fill:#1c3f8e"/><path d="M336.16,55V51.75a9.18,9.18,0,0,1-7.73,3.76,10.72,10.72,0,0,1-4-.75,6.63,6.63,0,0,1-2.78-1.89,6.76,6.76,0,0,1-1.27-2.79,17.45,17.45,0,0,1-.25-3.51V32.83h4.13v12.3a20,20,0,0,0,.25,4,3.91,3.91,0,0,0,1.65,2.33,5.48,5.48,0,0,0,3.12.85,7.32,7.32,0,0,0,3.49-.87A5,5,0,0,0,335,49a10.87,10.87,0,0,0,.68-4.33V32.83h4.13V55Z" style="fill:#1c3f8e"/><path d="M341.68,48.39l4.09-.58a5.05,5.05,0,0,0,1.92,3.42,7.13,7.13,0,0,0,4.39,1.19,6.92,6.92,0,0,0,4.22-1.05,3.07,3.07,0,0,0,1.38-2.47,2.25,2.25,0,0,0-1.22-2,19.18,19.18,0,0,0-4.22-1.27,41.1,41.1,0,0,1-6.3-1.81,6,6,0,0,1-2.66-2.11,5.21,5.21,0,0,1-.91-3,5.32,5.32,0,0,1,.74-2.75,6.32,6.32,0,0,1,2-2.1,8.94,8.94,0,0,1,2.63-1.1,13.65,13.65,0,0,1,3.57-.45,15.37,15.37,0,0,1,5,.75,6.87,6.87,0,0,1,3.2,2A7.55,7.55,0,0,1,361,38.56l-4,.5a3.94,3.94,0,0,0-1.6-2.67,6.25,6.25,0,0,0-3.73-1,7.29,7.29,0,0,0-4.06.86,2.44,2.44,0,0,0-1.22,2,2,2,0,0,0,.51,1.32,3.67,3.67,0,0,0,1.58,1q.62.21,3.65,1a54.63,54.63,0,0,1,6.12,1.74,6.14,6.14,0,0,1,2.72,2,5.15,5.15,0,0,1,1,3.22A5.92,5.92,0,0,1,360.71,52a7.69,7.69,0,0,1-3.48,2.57,13.76,13.76,0,0,1-5.14.91q-4.75,0-7.24-1.8A8.19,8.19,0,0,1,341.68,48.39Z" style="fill:#1c3f8e"/><path d="M373.85,51.65l.6,3.32a16.79,16.79,0,0,1-3.12.34,7.65,7.65,0,0,1-3.49-.65,3.78,3.78,0,0,1-1.74-1.7,12.34,12.34,0,0,1-.5-4.44V35.76h-3V32.83h3V27.34l4.11-2.26v7.75h4.15v2.92h-4.15v13a6,6,0,0,0,.22,2.07,1.6,1.6,0,0,0,.71.73,3,3,0,0,0,1.41.27A14.86,14.86,0,0,0,373.85,51.65Z" style="fill:#1c3f8e"/><path d="M590.3,132.63l8.56.14c-1.31,4.11-3.5,9.35-6.55,11.34s-6.93,3-11.62,3q-8.71,0-14.32-5.12t-5.61-14q0-9.39,5.64-14.59t14.83-5.2q8,0,13,4.08c2,1.61,3.28,5.83,4.27,8.84l-8.62.81c-.52-2-1.52-4.42-3.16-5.55a10.29,10.29,0,0,0-6-1.69,10.72,10.72,0,0,0-7.89,3q-3,3-3,9.73,0,7.14,3,10.16a10.41,10.41,0,0,0,7.76,3,9.73,9.73,0,0,0,6.06-1.92A10.79,10.79,0,0,0,590.3,132.63Z" style="fill:#327732"/><path d="M190.42,147.07V109.55h9.3v37.52Z" style="fill:#327732"/><path d="M206.92,146.54V109.42h8.54l17.8,24.79V109.42h8.16v37.13h-8.81l-17.53-24.21v24.21Z" style="fill:#327732"/><path d="M249,109.42h15.76a35.27,35.27,0,0,1,8.13.71,14.79,14.79,0,0,1,6.44,3.42,16,16,0,0,1,4.08,6,24.14,24.14,0,0,1,1.4,8.78,21.5,21.5,0,0,1-1.31,7.91,16.2,16.2,0,0,1-4.57,6.56,15.88,15.88,0,0,1-6.06,3,29.8,29.8,0,0,1-7.63.79H249Zm8.62,6.29v24.61H264a27,27,0,0,0,5.21-.35,8.45,8.45,0,0,0,3.48-1.55,7.66,7.66,0,0,0,2.26-3.59,21.23,21.23,0,0,0,.87-6.8,19.46,19.46,0,0,0-.87-6.61,8.37,8.37,0,0,0-2.45-3.6,8.71,8.71,0,0,0-4-1.75,45,45,0,0,0-7.08-.35Z" style="fill:#327732"/><path d="M290.76,147.07V109.55h9.3v37.52Z" style="fill:#327732"/><path d="M343.09,146.82h-8.92l-3.55-8.5H314.39l-3.35,8.5h-8.7l15.81-37.4h8.67ZM328,132l-5.59-13.88L316.91,132Z" style="fill:#327732"/><path d="M397.1,147h-8.92l-3.54-8.5H368.4l-3.35,8.5h-8.7l15.81-37.4h8.67ZM382,132.22l-5.59-13.88-5.48,13.88Z" style="fill:#327732"/><path d="M399.13,146.82V109.61h9.3v30.15l19.63-.17v7.22Z" style="fill:#327732"/><path d="M432.79,146.82V109.61h9.3v30.15l19.63-.17v7.22Z" style="fill:#327732"/><path d="M466.59,146.88V109.36h9.3v37.52Z" style="fill:#327732"/><path d="M518.76,147h-8.92l-3.54-8.49H490.07L486.72,147H478l15.81-37.4h8.67Zm-15.09-14.8-5.59-13.88-5.48,13.88Z" style="fill:#327732"/><path d="M520.92,146.68V109.56h8.54l17.06,23.76-.1-23.7,9-.06v37.13h-8.81l-16.83-23.24,0,23.38Z" style="fill:#327732"/><path d="M604,146.82V109.36l31.39-.59v7.83l-21.94,0,.3,7.38h19.31v6.31H613.92v10.2H635.4v6.31Z" style="fill:#327732"/><path d="M423.45,2S422,14.12,434.79,20.69c0,0-22.21-1.13-25.31,11.09,0,0-7.69,20.33,8.3,29.16,0,0-27.54-3.7-29.16,22.39,0,0-1.21,4.93,5.67,11.71h76.54s1.62-11.09-13.77-20.33c0,0,20.18,4.26,27.68-12,0,0,4.54-10.27-1.81-19.37,0,0-6.62-7.09-8.66-8.11,0,0,19.3-.58,24.7-9.86,0,0,8.71-12.73,0-22.59Z" style="fill:#fff;stroke:#e74117;stroke-miterlimit:10;stroke-width:3px"/><polygon points="421.03 73.6 454.53 87.35 437.78 74.35 421.03 73.6" style="fill:#e74117"/><polygon points="410.53 73.6 457.78 93.35 448.03 93.35 401.03 76.35 410.53 73.6" style="fill:#e74117"/><polygon points="398.53 80.47 404.53 87.35 422.53 93.35 437.78 93.35 398.53 80.47" style="fill:#e74117"/><polygon points="423.78 49.1 441.53 62.35 456.53 62.35 423.78 49.1" style="fill:#e74117"/><path d="M415.28,37.85l4.25,5.25L467,62.35s11.5-.75,10.25-2.5S415.28,37.85,415.28,37.85Z" style="fill:#e74117"/><path d="M416.53,34.6l63.25,21.13A28,28,0,0,0,474,47.3l-53-15A3.64,3.64,0,0,0,416.53,34.6Z" style="fill:#e74117"/><polygon points="430.53 31.1 466.28 41.6 454.53 32.2 430.53 31.1" style="fill:#e74117"/><polygon points="445.7 13.85 457.78 23.35 479.78 24.35 445.7 13.85" style="fill:#e74117"/><polygon points="434.28 3.6 437.78 8.1 489.78 22.6 494.78 21.1 444.78 3.6 434.28 3.6" style="fill:#e74117"/><polygon points="457.78 3.6 496.03 17.1 492.28 13.1 470.28 3.6 457.78 3.6" style="fill:#e74117"/><polygon points="479.78 3.6 487.53 7.1 485.53 3.6 479.78 3.6" style="fill:#e74117"/><path d="M638.19,83.43a11.81,11.81,0,0,1-12,11.61H14A11.81,11.81,0,0,1,2,83.43V13.61A11.81,11.81,0,0,1,14,2H626.19a11.81,11.81,0,0,1,12,11.61Z" style="fill:none;stroke:#e74117;stroke-miterlimit:10;stroke-width:4px"/><path d="M551,36.88h12.3a38.09,38.09,0,0,1,5.45.28A8.35,8.35,0,0,1,572,38.35a7.58,7.58,0,0,1,2.36,2.39,6.14,6.14,0,0,1,.95,3.35,6.34,6.34,0,0,1-1.17,3.69A7.11,7.11,0,0,1,571,50.3a8.17,8.17,0,0,1,4.33,2.6,6.58,6.58,0,0,1,1.51,4.32,8,8,0,0,1-1,3.8A7.83,7.83,0,0,1,573.15,64,9.26,9.26,0,0,1,569,65.32q-1.55.16-7.5.2H551Zm6.21,4.77v6.62h4.07q3.63,0,4.51-.1a4.26,4.26,0,0,0,2.51-1,2.91,2.91,0,0,0,.91-2.24,3,3,0,0,0-.79-2.16,3.68,3.68,0,0,0-2.34-1q-.92-.1-5.31-.1Zm0,11.39v7.66H563a30.2,30.2,0,0,0,4.26-.18,3.94,3.94,0,0,0,2.26-1.14,3.36,3.36,0,0,0,.87-2.43,3.55,3.55,0,0,0-.67-2.19,3.79,3.79,0,0,0-1.94-1.31,22.65,22.65,0,0,0-5.51-.41Z" style="fill:#fff"/><path d="M588.32,65.52v-24H579V36.68h25v4.88h-9.3v24Z" style="fill:#fff"/><path d="M518.66,36.88H530.8a27.06,27.06,0,0,1,6.26.55,11.37,11.37,0,0,1,5,2.64,12.28,12.28,0,0,1,3.14,4.64,18.61,18.61,0,0,1,1.08,6.77,16.59,16.59,0,0,1-1,6.09,12.48,12.48,0,0,1-3.52,5.06A12.21,12.21,0,0,1,537,64.91a23,23,0,0,1-5.88.61h-12.5Zm6.64,4.84v19h5a20.78,20.78,0,0,0,4-.27A6.52,6.52,0,0,0,537,59.23a5.93,5.93,0,0,0,1.74-2.76,16.38,16.38,0,0,0,.67-5.24,15,15,0,0,0-.67-5.1,6.45,6.45,0,0,0-1.88-2.77A6.71,6.71,0,0,0,533.74,42a34.53,34.53,0,0,0-5.46-.27Z" style="fill:#fff"/></svg>