<svg xmlns="http://www.w3.org/2000/svg" viewBox="0 0 179.19 82.36"><title>la-caixa_1</title><path d="M116.32.59c-.25,4.35-3.83,7.28-5.71,11-.8,2.19-2.71,3.49-4.07,5.46a35.55,35.55,0,0,0-3.46,4.08c.19,1,1.26,1.29,1.88,2,1.39.83,1.54,2.41,2.75,3.36.71,0,.71,1.05,1.48.93a52.11,52.11,0,0,1,4.32,5.49,3.91,3.91,0,0,0,1.14,1.85c1.08,1.57,2,3.24,3.09,4.84.15,1.79,1.67,3,2.13,4.66.68.89,1,1.94,1.58,2.84,1,2.1,1.61,4.29,2.75,6.3a1.26,1.26,0,0,1-.31,1.26c-.43.34-.77-.28-1.26-.18a42.4,42.4,0,0,1-7.29-3.67c-2.41-1.94-5.06-3.33-7.44-5.37-.93-.25-1.3-1.33-2.16-1.76-2.28-1.42-4.11-3.46-6.42-4.78-1-.8-2.1-1.57-3.15-2.41-.8-.09-1.08-1-1.85-1.3-1.73-1.05-3.3-2.5-5.06-3.49-.15.25,0,.62-.15.86-1.17,1.14-.86,2.9-1.7,4.17,0,1.82-1.3,3.15-1.82,4.76-1.45,2.59-2.71,5.25-4.23,7.81-2,2.66-3.09,5.87-5.93,8A7.67,7.67,0,0,1,73.32,59c-.34-.09-.83,0-.93-.46-.34-.65.09-1.63-.37-2.22.4-.9.16-1.91.34-2.9l-.15-.43c0-1.36.71-2.5.43-3.89a9.23,9.23,0,0,0,.62-2.78,15.16,15.16,0,0,0,.93-3.71A4.55,4.55,0,0,0,74.65,40c.31-.8.37-1.76,1.2-2.35.12-.53,0-1,.09-1.61.83-2.53,1.85-5,2.5-7.56,0-.18-.18-.25-.31-.28-1.82-.09-3.52.28-5.22-.19a42.94,42.94,0,0,1-8.24-1c-1.08-.22-2.38-.09-3.36-.71a3.71,3.71,0,0,1-2-.19c-1.27-.62-2.81-.53-4.08-1.2-1,.12-1.63-.49-2.5-.59-.83.06-1.3-.65-1.88-1.11V23c1.54-2.1,4-2.69,6.24-3.49s4.63-.74,6.91-1.2c1.45-.25,3,.15,4.48-.09,2.63.06,5.16.49,7.75.55a14.66,14.66,0,0,0,2.53.5l0-.37-2.44-3.33c-.93-2.16-2.62-4-3.21-6.27-.55-.68,0-1.7-.46-2.44,0-.34.24-.59.4-.87.52-.22,1.11.16,1.64-.18,1.57.37,3,.92,4.6,1.23A20.14,20.14,0,0,1,84,9.42c1.82,1.3,4,2.13,5.43,4.13a1.61,1.61,0,0,0,1.45.28c.43-.06.53-.59.93-.74,1.91-1.2,4.07-1.88,6-3.21.77-.77,2-.86,2.47-1.91a9.74,9.74,0,0,1,1.73-.8,29.81,29.81,0,0,1,3.33-2.22,3.45,3.45,0,0,0,1.61-.74c1.92-1,3.92-1.91,5.74-3.12C113,0,114.25.25,115.12,0,115.55.09,116.14,0,116.32.59Z" style="fill:#fff"/><path d="M70.54,30.44c.62.43.59,1.3,1.14,1.73L72,34.08l-1.39,2c-1.76.93-4.38,1.33-6-.15a3.31,3.31,0,0,1-.93-3.24L64.27,31c.37-.25.86-.31,1.11-.74.86-.56,2-.43,3-.65C69.09,29.82,70.2,29.42,70.54,30.44Z" style="fill:#fff"/><path d="M66,41.71c.56,0,1,.4,1.48.31.74.28.65,1.17,1.42,1.39a17.61,17.61,0,0,1,1.27,3.71c-.22.74.4,1.17.19,1.85l.22.12a5.32,5.32,0,0,1-.34,2.19,6.43,6.43,0,0,1-1.08,3.49c-.4.25-.58,1-1.14.83-1,.31-1.08,1.79-2.28,1.61-.77.59-1.82.24-2.75.28-.53-.28-1.27-.22-1.64-.68a9.69,9.69,0,0,1-2.56-1.73c-.31-.68-1-1-1.11-1.76.28-.93-.31-1.76-.06-2.69l-.19-1.54L58,46.43c1-.53.71-1.73,1.69-2.1.62-1.42,2.1-1.73,3.24-2.44.43-.09,1,.16,1.3-.25C64.83,41.55,65.41,42.2,66,41.71Z" style="fill:#fff"/><rect x="0.65" y="63.49" width="178.54" height="0.33" style="fill:#fff"/><rect x="0.65" y="63.82" width="178.54" height="0.33" style="fill:#fff"/><path d="M5.28,68.22c.54,1.77-.85,3.1-1.3,4.69-.12.23-.46.11-.66.08l-.06-.14c.18-1.23,1.14-2.35.57-3.66C3.69,68.66,2.75,68.66,3,68c.15-.19.15-.55.48-.52.69-.08,1.63-.11,1.81.7" style="fill:#fff"/><path d="M6.35,68.76a6.92,6.92,0,0,0,3-1.26h.43c0,1.12-.08,3.14-.08,5v8c0,.7.17,1.07.83,1.17v.41c-.64,0-1.27-.06-1.92-.06s-1.21.06-1.83.06v-.41a.85.85,0,0,0,.85-.94V74.08c0-1.2-.1-2.74-.17-3.52S7,69.22,6.35,69.22v-.47" style="fill:#fff"/><path d="M16.34,77.7a5.76,5.76,0,0,0-1-.11,1.79,1.79,0,0,0-2,1.81A1.66,1.66,0,0,0,15,81.07a2.67,2.67,0,0,0,1.43-.35l-.07-3m-4.16-2v-2a10.07,10.07,0,0,1,2.76-.37c1.89,0,3.51.49,3.51,2.55,0,.74-.06,1.81-.08,3v.72c0,1,.17,1.22.64,1.22a1.94,1.94,0,0,0,.44-.08l.32.31-1.59,1.24a2.14,2.14,0,0,1-1.7-1,4,4,0,0,1-2.35,1,2.61,2.61,0,0,1-2.87-2.39c0-2.17,2.15-3,4.09-3,.35,0,.7.07,1,.07,0-1.12-.08-2.35-1.53-2.35a2.24,2.24,0,0,0-2.11,1.09Z" style="fill:#fff"/><path d="M36.92,70.79H36c-.68-2-2.82-2.76-4.69-2.76-3.8,0-5.37,3-5.37,6.49,0,5.94,4.44,7,6.26,7a5,5,0,0,0,4.32-2.21l.67.27-.67,2.34a21.84,21.84,0,0,1-4.25.49c-6.51,0-9.37-3.88-9.37-7.68,0-4.34,3.47-7.55,8.36-7.55a17.73,17.73,0,0,1,5.48.85l.17,2.8" style="fill:#fff"/><path d="M43.54,77.7a5.66,5.66,0,0,0-1-.11,1.8,1.8,0,0,0-2,1.81,1.66,1.66,0,0,0,1.66,1.67,2.62,2.62,0,0,0,1.42-.35l-.06-3m-4.15-2v-2a10.07,10.07,0,0,1,2.75-.37c1.9,0,3.52.49,3.52,2.55,0,.74-.07,1.81-.09,3v.72c0,1,.17,1.22.64,1.22a2,2,0,0,0,.44-.08l.32.31-1.6,1.24a2.17,2.17,0,0,1-1.71-1,4,4,0,0,1-2.34,1,2.62,2.62,0,0,1-2.88-2.39c0-2.17,2.15-3,4.09-3,.34,0,.7.07,1,.07,0-1.12-.08-2.35-1.53-2.35a2.24,2.24,0,0,0-2.11,1.09Z" style="fill:#fff"/><path d="M49.4,69.9a1.06,1.06,0,1,1-1.18,1,1.11,1.11,0,0,1,1.18-1m1,3.48c0,.87.08,2.68.08,4.37v3c0,.71.34.81.83.94v.41c-.64,0-1.28-.06-1.92-.06s-1.15,0-1.73.06v-.41c.51-.13.75-.23.75-.94V78.2a8.39,8.39,0,0,0-.3-2.74.94.94,0,0,0-.9-.63v-.42a9.46,9.46,0,0,0,2.75-1Z" style="fill:#fff"/><path d="M52.42,81.68a2.38,2.38,0,0,0,1.41-1l2.06-2.56-2.45-3.2A2.36,2.36,0,0,0,52.28,74v-.41c.64,0,1.3.07,1.95.07s1.27,0,1.91-.07V74c-.26.12-.45.17-.45.48a1.18,1.18,0,0,0,.26.66l1.17,1.54,1-1.33a1.43,1.43,0,0,0,.32-.68c0-.39-.26-.55-.6-.66v-.41c.58,0,1.12.07,1.7.07s1.13,0,1.68-.07V74a3.08,3.08,0,0,0-1.75,1.26L57.72,77.5,60,80.58a3.22,3.22,0,0,0,1.34,1.09v.41c-.64,0-1.26-.06-1.89-.06s-1.26,0-1.9.06v-.41a.5.5,0,0,0,.43-.45,2.14,2.14,0,0,0-.34-.7L56.5,78.94l-1.15,1.5a1.86,1.86,0,0,0-.3.76c0,.33.17.43.45.48v.41c-.55,0-1.13-.06-1.69-.06s-.91,0-1.38.06v-.41" style="fill:#fff"/><path d="M67,77.7a5.62,5.62,0,0,0-1-.11,1.79,1.79,0,0,0-2,1.81,1.66,1.66,0,0,0,1.66,1.67,2.65,2.65,0,0,0,1.43-.35l-.07-3m-4.15-2v-2a10,10,0,0,1,2.75-.37c1.9,0,3.52.49,3.52,2.55,0,.74-.06,1.81-.09,3v.72c0,1,.17,1.22.64,1.22a2.07,2.07,0,0,0,.45-.08l.32.31-1.59,1.24a2.16,2.16,0,0,1-1.71-1,4,4,0,0,1-2.33,1,2.61,2.61,0,0,1-2.88-2.39c0-2.17,2.15-3,4.08-3,.35,0,.71.07,1,.07,0-1.12-.08-2.35-1.53-2.35a2.23,2.23,0,0,0-2.11,1.09Z" style="fill:#fff"/><path d="M83.42,67.83H91.9a4.05,4.05,0,0,0,1.45-.34c0,.6,0,1.05,0,1.5s0,.83,0,1.24h-.81a2,2,0,0,0-2.19-1.42h-3c0,1.69,0,3.53-.07,5.48h3c.81,0,1.57-.23,1.71-1.12h.68c0,.6,0,1.17,0,1.77s0,1,0,1.56h-.68a1.51,1.51,0,0,0-1.71-1.23h-3c0,1.64,0,3.43,0,5.2a1.18,1.18,0,0,0,1.32,1.17v.45c-.81,0-1.6-.08-2.41-.08s-1.58.08-2.39.08v-.45c.86-.14,1.19-.47,1.19-1.33V76.18c0-2.47-.29-5.51-.29-6.76,0-.7-.51-1-1.24-1.14v-.45" style="fill:#fff"/><path d="M105,73.61a16.16,16.16,0,0,0,1.84.07,14.9,14.9,0,0,0,1.77-.07V74c-.68.15-.89.39-.89,1s.06,1.35.06,2.17v1.63a2,2,0,0,0,2.26,2.28,2.94,2.94,0,0,0,1.6-.45V75c0-.49-.13-.78-.74-1v-.41a13.62,13.62,0,0,0,1.9.07,11.58,11.58,0,0,0,1.56-.07V74a.86.86,0,0,0-.64,1v5.12c0,.82.21,1.09.64,1.09a1.24,1.24,0,0,0,.53-.15l.17.39a16.26,16.26,0,0,1-2,.87,4.27,4.27,0,0,1-1.38-1.07,5.63,5.63,0,0,1-2.77,1.07A3,3,0,0,1,105.73,79V77.09c0-.83-.06-1.61-.06-2.1,0-.68-.13-.95-.64-1v-.41" style="fill:#fff"/><path d="M115.79,74.37a7.64,7.64,0,0,0,2.84-1h.43c0,.35,0,.68,0,1a5.3,5.3,0,0,1,2.6-1,2.64,2.64,0,0,1,2.94,3v4.37c0,.66.17.8.76,1v.41c-.52,0-1-.06-1.57-.06s-1.34.06-2,.06v-.41c.59-.13.76-.28.76-1V77.15c0-1.11-.23-2.63-1.74-2.63-.43,0-1.79.21-1.79,1s0,1.93,0,3.54v1.69c0,.74.22.9.78,1v.41c-.61,0-1.21-.06-1.83-.06s-1.21.06-1.81.06v-.41c.53-.19.79-.28.79-1v-2c0-1.19-.11-2.3-.11-3a.84.84,0,0,0-.94-.95v-.41" style="fill:#fff"/><path d="M133.41,77c0-2-.59-2.78-2.28-2.78s-2.36,1.74-2.36,3.15c0,1.71,1.06,3.72,2.92,3.72a2.41,2.41,0,0,0,1.73-.72V77m2.15-9.5c0,1.61-.08,3.91-.08,6.87V79.5c0,.74.17,1.15.66,1.15a1.1,1.1,0,0,0,.59-.16l.32.3a9.05,9.05,0,0,0-1.94,1.53,3,3,0,0,1-1.62-1.36L132.26,82a2.8,2.8,0,0,1-1.49.31,4.2,4.2,0,0,1-4.31-4.42c0-2.86,2-4.51,4.73-4.51a5.18,5.18,0,0,1,2.17.52v-3c0-1.15-.53-1.43-1.08-1.52v-.41a6.73,6.73,0,0,0,2.85-1.42Z" style="fill:#fff"/><path d="M142.36,77.7a5.76,5.76,0,0,0-1-.11,1.79,1.79,0,0,0-2,1.81A1.66,1.66,0,0,0,141,81.07a2.61,2.61,0,0,0,1.43-.35l-.06-3m-4.15-2v-2a10,10,0,0,1,2.74-.37c1.9,0,3.52.49,3.52,2.55,0,.74-.06,1.81-.08,3v.72c0,1,.17,1.22.64,1.22a2,2,0,0,0,.45-.08l.32.31-1.6,1.24a2.15,2.15,0,0,1-1.71-1,4,4,0,0,1-2.34,1,2.62,2.62,0,0,1-2.88-2.39c0-2.17,2.15-3,4.09-3,.34,0,.7.07,1,.07,0-1.12-.08-2.35-1.53-2.35a2.24,2.24,0,0,0-2.11,1.09Z" style="fill:#fff"/><path d="M155.62,69.9a1.06,1.06,0,1,1-1.17,1,1.11,1.11,0,0,1,1.17-1m1,3.48c0,.87.08,2.68.08,4.37v3c0,.71.35.81.84.94v.41c-.64,0-1.28-.06-1.92-.06s-1.15,0-1.72.06v-.41c.51-.13.73-.23.73-.94V78.2a8.19,8.19,0,0,0-.29-2.74c-.16-.41-.38-.56-.89-.63v-.42a9.54,9.54,0,0,0,2.75-1Z" style="fill:#fff"/><path d="M163.59,73.38a4.49,4.49,0,1,1-4.9,4.47,4.55,4.55,0,0,1,4.9-4.47m0,8.11c1.94,0,2.6-1.75,2.6-3.64s-.66-3.64-2.6-3.64S161,76,161,77.85,161.65,81.49,163.59,81.49Z" style="fill:#fff"/><path d="M99.2,73.38a4.49,4.49,0,1,1-4.9,4.47,4.55,4.55,0,0,1,4.9-4.47m0,8.11c1.94,0,2.6-1.75,2.6-3.64s-.66-3.64-2.6-3.64S96.6,76,96.6,77.85,97.26,81.49,99.2,81.49Z" style="fill:#fff"/><path d="M169.67,74.37a7.62,7.62,0,0,0,2.83-1h.43c0,.35,0,.68,0,1a5.31,5.31,0,0,1,2.59-1,2.64,2.64,0,0,1,2.95,3v4.37c0,.66.17.8.77,1v.41c-.53,0-1-.06-1.58-.06-.69,0-1.35.06-2,.06v-.41c.59-.13.77-.28.77-1V77.15c0-1.11-.24-2.63-1.75-2.63-.42,0-1.79.21-1.79,1s0,1.93,0,3.54v1.69c0,.74.2.9.79,1v.41c-.62,0-1.21-.06-1.84-.06s-1.21.06-1.81.06v-.41c.54-.19.79-.28.79-1v-2c0-1.19-.11-2.3-.11-3a.84.84,0,0,0-.94-.95v-.41" style="fill:#fff"/><path d="M2.33,68.22c.54,1.77-.84,3.1-1.3,4.69-.12.23-.45.11-.66.08l-.06-.14c.18-1.23,1.14-2.35.57-3.66C.73,68.66-.2,68.66,0,68c.14-.19.14-.55.48-.52.7-.08,1.62-.11,1.81.7" style="fill:#fff"/><path d="M75.53,68.22c.55,1.77-.84,3.1-1.29,4.69-.12.23-.46.11-.67.08l-.05-.14c.18-1.23,1.14-2.35.57-3.66-.15-.52-1.08-.52-.84-1.14.15-.19.15-.55.49-.52.69-.08,1.62-.11,1.8.7" style="fill:#fff"/><path d="M72.58,68.22c.54,1.77-.85,3.1-1.3,4.69-.12.23-.45.11-.66.08l-.06-.14c.18-1.23,1.14-2.35.58-3.66C71,68.66,70,68.66,70.29,68c.15-.19.15-.55.48-.52.69-.08,1.63-.11,1.81.7" style="fill:#fff"/><path d="M146.13,74.66v-.43a5.45,5.45,0,0,0,2.69-3.42h.52v2.86h2.36v1h-2.57v4.05c0,1.33.41,1.81,1.32,1.81a1.6,1.6,0,0,0,1.13-.5l.31.35a12,12,0,0,1-2.12,1.93,2.78,2.78,0,0,1-2.63-2.53V74.66Z" style="fill:#fff"/></svg>