<svg xmlns="http://www.w3.org/2000/svg" viewBox="0 0 578.62 417.76"><title>nnf-logo</title><path d="M377.62,161.07h20.06v95.62H377.62ZM12.94,335.26v80.25H33V335.26ZM117.75,319.5l-4.9,15.45c9.33,4.48,15.58,16.43,15.58,32.94q0,1.52-.08,3l20,2.07q.18-2.64.18-5.44C148.5,341.35,135.92,324.81,117.75,319.5ZM256.5,97.87,290.62,2.25H270.75l-24.37,73.5Zm274.31,112.5,25.31,46.31h22.5l-33.94-60.37ZM61.31,0C48.94,0,37.5,7.88,32.06,12.94L33,25.5c4.88-4.12,14.06-9.56,21.56-9.56a15.09,15.09,0,0,1,7.15,1.64L69.39.91A34.38,34.38,0,0,0,61.31,0Zm0,158.82c-12.37,0-23.81,7.88-29.25,12.94L33,184.32c4.88-4.12,14.06-9.56,21.56-9.56a15.09,15.09,0,0,1,7.15,1.64l7.68-16.67A34.39,34.39,0,0,0,61.31,158.82ZM508.5,317.63c-12.37,0-23.81,7.88-29.25,12.94l.94,12.56c4.87-4.12,14.06-9.56,21.56-9.56a15.09,15.09,0,0,1,7.15,1.64l7.68-16.67A34.39,34.39,0,0,0,508.5,317.63Zm-294.18,0c-12.37,0-23.81,7.88-29.25,12.94l.94,12.56c4.87-4.12,14.06-9.56,21.56-9.56a15.09,15.09,0,0,1,7.15,1.64l7.68-16.67A34.39,34.39,0,0,0,214.31,317.63ZM163.5,1.87l-4.9,15.45c9.33,4.48,15.58,16.43,15.58,32.94q0,1.52-.08,3l20,2.07q.18-2.64.18-5.44C194.25,23.71,181.67,7.18,163.5,1.87Zm0,158.82-4.9,15.45c9.33,4.48,15.58,16.43,15.58,32.94q0,1.52-.08,3l20,2.07q.18-2.64.18-5.44C194.25,182.53,181.67,166,163.5,160.68ZM354.19,1.87l-4.9,15.45c9.33,4.48,15.58,16.43,15.58,32.94q0,1.52-.08,3l20,2.07q.18-2.64.18-5.44C384.94,23.71,372.35,7.18,354.19,1.87ZM212.62,256.69h20.06V189.94H212.62Zm103.31-82.5a40.14,40.14,0,0,1,18,4.88V164.25a44.45,44.45,0,0,0-21.37-5.44c-17.53,0-33.1,10.12-40,29.06l18.91,6C295.7,181.78,304.66,174.19,315.94,174.19ZM306.37,333a40.14,40.14,0,0,1,18,4.88V323.07A44.45,44.45,0,0,0,303,317.63c-17.53,0-33.1,10.12-40,29.06l18.91,6C286.14,340.59,295.1,333,306.37,333ZM454.12,174.19c7.12,0,13.69,3.19,18.56,6h6.94V164.44c-5.06-2.81-16.12-5.62-26.06-5.62-16.7,0-33.58,9.7-34.29,26.81h19.67c0-.06,0-.12,0-.19C438.93,177.94,445.87,174.19,454.12,174.19ZM407.25,417.76a92.81,92.81,0,0,0,32.25-6.37V395.63h-7.12c-5.62,3.19-13.87,6.75-22.12,6.75-16.5,0-27.19-11.44-27.19-29.44v-1.12h-20C364.39,401.52,379.32,417.76,407.25,417.76Z" style="fill:#fff;opacity:0.45"/><path d="M256.5,97.87H235.31L201.19,2.25h20.44l24.56,73.5h.19Zm131.06,50.44a12.38,12.38,0,0,0,0-24.75,12.38,12.38,0,1,0,0,24.75Zm143.25,62.06-10.5,11.81v34.5H500.24V127.32h20.06v73.5l34.12-39.75H576l-31.31,35.25ZM12.94,335.26H0V319.88H12.94v-9c0-22.31,14.63-27.37,29.06-27.37,4.5,0,9.37.56,12.37,1.69v15a36.73,36.73,0,0,0-9.75-1.5c-5.81,0-11.62,1.88-11.62,12.94v8.25H50.44v15.38H12.94ZM32.06,12.94,30.19,2.25H12.94V97.87H33V25.5ZM69.39.91,61.71,17.58c3.91,2.09,6.54,6.26,6.54,13V97.87H88.31V29.81C88.31,12.19,80.31,3.55,69.39.91Zm0,158.82-7.68,16.67c3.91,2.09,6.54,6.26,6.54,13v67.31H88.31V188.63C88.31,171,80.31,162.36,69.39,159.72ZM516.57,318.54l-7.68,16.67c3.91,2.09,6.54,6.26,6.54,13v67.31h20.06V347.44C535.49,329.82,527.49,321.18,516.57,318.54Zm-294.18,0-7.68,16.67c3.91,2.09,6.54,6.26,6.54,13v67.31h20.06V347.44C241.31,329.82,233.31,321.18,222.39,318.54ZM150,84.75c-15.37,0-24.19-14.81-24.19-34.87,0-21,10.31-34.5,24.19-34.5a19.72,19.72,0,0,1,8.6,1.94l4.9-15.45A48,48,0,0,0,150,0c-25.31,0-44.25,17.63-44.25,50.06,0,33.19,19.31,50.06,44.25,50.06,23.37,0,42.05-15,44.07-44.81l-20-2.07C173.18,71.58,163.7,84.75,150,84.75Zm0,158.82c-15.37,0-24.19-14.81-24.19-34.87,0-21,10.31-34.5,24.19-34.5a19.72,19.72,0,0,1,8.6,1.94l4.9-15.45a48,48,0,0,0-13.5-1.87c-25.31,0-44.25,17.62-44.25,50.06,0,33.19,19.31,50.06,44.25,50.06,23.37,0,42.05-15,44.07-44.81l-20-2.07C173.18,230.39,163.7,243.57,150,243.57ZM340.69,84.75c-15.37,0-24.19-14.81-24.19-34.87,0-21,10.31-34.5,24.19-34.5a19.72,19.72,0,0,1,8.6,1.94l4.9-15.45A48,48,0,0,0,340.69,0c-25.31,0-44.25,17.63-44.25,50.06,0,33.19,19.31,50.06,44.25,50.06,23.37,0,42.05-15,44.07-44.81l-20-2.07C363.87,71.58,354.39,84.75,340.69,84.75ZM231.75,176.63l-1.69-15.56H212.62v28.87h20.06c3.38-3.75,11.06-10.5,21.94-10.5a30.4,30.4,0,0,1,6.56.56V159C247.69,159,236.06,168.94,231.75,176.63Zm102.19-49.31V236.07c-2.81,2.25-9.94,7.5-19.12,7.5-12.19,0-25.87-8.06-25.87-33.37a49.93,49.93,0,0,1,2.57-16.33l-18.91-6a66.94,66.94,0,0,0-3.72,22.88c0,34.88,19.12,48.19,39.19,48.19a38.48,38.48,0,0,0,26.44-10.31l1.87,8.06H354V127.32Zm-9.56,158.82V394.88c-2.81,2.25-9.94,7.5-19.12,7.5-12.19,0-25.87-8.06-25.87-33.37a49.93,49.93,0,0,1,2.57-16.33l-18.91-6a66.94,66.94,0,0,0-3.72,22.88c0,34.88,19.12,48.19,39.19,48.19a38.48,38.48,0,0,0,26.44-10.31l1.88,8.06h17.62V286.13Zm94.87-99.38c0,27.94,43.5,28.69,43.5,44.81,0,8.44-7.5,12-15.75,12-7.12,0-15.37-3.56-21.19-6.75h-6.94v15.75c4.69,3.19,18.56,6.37,28.12,6.37,17.62,0,35.25-10.12,35.25-28.87,0-28.2-43-28.13-43.31-44.44H419.27C419.26,186,419.25,186.37,419.25,186.75Zm21.94,185.07V360.94c0-27-14.81-43.31-37.12-43.31-22.12,0-41.06,15.75-41.06,49.88q0,2.2.09,4.31h78.09Zm-58.12-15c0-14.06,9.56-23.81,20.44-23.81,10.5,0,18.94,8.63,18.94,22.5v2.44H383.06Zm-351-185.07-1.88-10.69H12.94v95.62H33V184.32ZM479.25,330.57l-1.87-10.69H460.12v95.62h20.06V343.13Zm-294.18,0-1.87-10.69H165.94v95.62H186V343.13Zm-80.81,71.81c-15.37,0-24.19-14.81-24.19-34.87,0-21,10.31-34.5,24.19-34.5a19.72,19.72,0,0,1,8.6,1.94l4.9-15.45a48,48,0,0,0-13.5-1.87C78.94,317.63,60,335.26,60,367.69c0,33.19,19.31,50.06,44.25,50.06,23.37,0,42.05-15,44.07-44.81l-20-2.07C127.43,389.21,118,402.38,104.25,402.38Z" style="fill:#fff"/></svg>