<svg xmlns="http://www.w3.org/2000/svg" viewBox="0 0 107.26 55.46" width="107.26" height="55.46"><g><g><path fill="#fff" d="M56.23 46.41v-5.66c0-2 1.13-2.13 1.86-2.13v-.42h-6.54v.42c.74 0 1.86.15 1.86 2.13v11.78c0 2-1.12 2.13-1.86 2.13v.42h6.54v-.42c-.74 0-1.86-.15-1.86-2.13v-6.12zM80.65 38.19h-5.42v3.29h.42c.31-.86.41-2.1 2.84-2.1h2.25v13.15c0 2-1.13 2.13-1.86 2.13v.42h6.54v-.42c-.74 0-1.86-.15-1.86-2.13V39.39h2.25c2.43 0 2.54 1.24 2.84 2.1h.42v-3.3h-8.42zM30.6 46.66a8.43 8.43 0 0 0-8.8-8.8 8.43 8.43 0 0 0-8.8 8.8 8.43 8.43 0 0 0 8.81 8.8 8.43 8.43 0 0 0 8.8-8.8m-8.44 7.6c-3.53.18-5.84-3.1-6-7.29s1.79-7.71 5.32-7.9 5.84 3.1 6 7.29-1.79 7.71-5.32 7.9M42 39a5.53 5.53 0 0 1 5.64 3.9H48V39a19.88 19.88 0 0 0-5.78-1.12c-3.35 0-5.3.9-6.91 2.38a9.14 9.14 0 0 0 0 12.82c1.62 1.48 3.57 2.38 6.91 2.38A19.93 19.93 0 0 0 48 54.31v-3.88h-.4a5.53 5.53 0 0 1-5.6 3.9c-2.56 0-6.1-1.51-6.1-7.69S39.4 39 42 39M11 50.25c0-2.67-2.09-3.9-4.22-5.15-1.58-.93-4.09-1.83-4.09-3.64s1.45-2.59 3.09-2.59a3.7 3.7 0 0 1 3.86 3.36h.57v-3.4a9.31 9.31 0 0 0-4.22-1c-2.79 0-5.43 1.68-5.51 4.51 0 2.49 1.45 3.4 4.34 5 1.91 1.06 3.9 2.45 3.9 4 0 1.75-1.56 2.88-3.56 2.88a4.14 4.14 0 0 1-4.4-4.12H.22V54A8.67 8.67 0 0 0 5 55.43c3.73 0 6-2.29 6-5.19M61.15 38.19v.42c.73 0 1.86.15 1.86 2.13v11.79c0 2-1.13 2.13-1.86 2.13v.42h12.1v-3.35h-.43c-.25 1.16-.6 2.16-2.13 2.16h-4.86v-7.46h2.89a1.59 1.59 0 0 1 1.82 1.86H71l.52-3.05.08-.5h-.4c-.36.45-.71.5-1.53.5h-3.84v-5.85h4.09A2 2 0 0 1 72 41.25h.42v-3.06H61.15zM102.88 38.19v.42c.33.1 1.08.51.41 1.79l-3.38 6-3.61-6.31c-.5-.88-.2-1.45.37-1.45v-.42h-5.52v.42c1.15 0 1.86 1 2.69 2.33L98 47.86v4.67c0 2-1.12 2.13-1.86 2.13v.42h6.54v-.42c-.74 0-1.86-.15-1.86-2.13v-5l4.36-7.29a3.16 3.16 0 0 1 2.09-1.67v-.42zM6.54 31.65c-.74 0-1.86-.15-1.86-2.13v-4.37H7L9.87 29c1.52 2.1 4.09 4.53 7.53 3.07l-.07-.39c-1 .22-2.45-.61-3.95-2.3l-4.22-5.17a6 6 0 0 0 2.94-5c0-2.73-1.86-4.06-5.56-4.06H0v.42c.74 0 1.86.15 1.86 2.14v11.81c0 2-1.12 2.14-1.86 2.14v.42h6.54zm-1.86-8.26v-7.18H6c2.28 0 3.41 1.69 3.41 3.88S8.3 24 6 24H4.68v-.58zM25.12 32.44a8.43 8.43 0 0 0 8.81-8.8 8.43 8.43 0 0 0-8.81-8.8 8.43 8.43 0 0 0-8.8 8.8 8.43 8.43 0 0 0 8.8 8.8M24.76 16c3.53-.18 5.84 3.1 6 7.29S29 31 25.48 31.23s-5.84-3.1-6-7.3 1.79-7.71 5.32-7.89M36.57 17.93l4.15 6.91v4.67c0 2-1.12 2.14-1.86 2.14v.42h6.54v-.42c-.74 0-1.86-.15-1.86-2.14v-5l4.36-7.29a4 4 0 0 1 2.74-1.67v-.42h-5.19v.42c.4 0 1.5 0 .56 1.79l-3.34 6L39 17c-.5-.88-.2-1.45.37-1.45v-.42H33.5v.42c1.15 0 2.23 1 3.06 2.33M48.67 31.65v.42h5.11v-.42c-1.17 0-1.33-.63-1.08-1.49l1.09-3h6l1.15 3c.4 1.08.26 1.44-.55 1.44v.42h5.92v-.42c-1.15 0-1.89-.37-2.75-2.33l-5.72-14.08H57l-5.83 14.36c-.83 2-1.62 2.1-2.5 2.1m10.72-5.59h-5.18l2.55-6.95zM73.34 32.07h7.53v-3.35h-.42c-.26 1.16-.6 2.16-2.13 2.16h-5V17.73c0-2 1.12-2.13 1.86-2.13v-.42h-6.52v.42c.74 0 1.86.15 1.86 2.14v11.78c0 2-1.12 2.14-1.86 2.14v.42h4.68zM12.47 8.73c-.39 0-1-.08-1-1.13v-3h4.57v3c0 1.05-.59 1.13-1 1.13V9h3.46v-.27c-.39 0-1-.08-1-1.13V1.35c0-1.05.6-1.13 1-1.13V0h-3.43v.22c.39 0 1 .08 1 1.13v2.52h-4.58V1.35c0-1.05.6-1.13 1-1.13V0H9v.22c.39 0 1 .08 1 1.13V7.6c0 1.05-.6 1.13-1 1.13V9h3.47zM1.95.63h1.19v7c0 1.05-.6 1.13-1 1.13V9h3.48v-.27c-.39 0-1-.08-1-1.13v-7h1.2c1.29 0 1.34.66 1.51 1.11h.22V0H.22v1.75h.22C.6 1.29.66.63 1.95.63M21.1 1.35V7.6c0 1.05-.6 1.13-1 1.13V9h6.44V7.18h-.23c-.14.62-.32 1.15-1.13 1.15h-2.6v-4h1.56a.84.84 0 0 1 1 1h.23l.27-1.62v-.27h-.21c-.19.24-.37.27-.81.27h-2V.63h2.19a1.06 1.06 0 0 1 1.13 1h.22V0h-6v.22c.39 0 1 .08 1 1.13"/></g></g></svg>
