<svg xmlns="http://www.w3.org/2000/svg" viewBox="0 0 145.15 83.55"><title>wallenberg-logo</title><path d="M129,4.94a8.78,8.78,0,0,0-2.85,3.22c-.23.44-.43.86-.62,1.28q-2.05,4.45-3.23,7.4l-.32.73q-.56,1.47-.69,2c-.17.68-.06,1.14.34,1.36a1.55,1.55,0,0,0,1.57-.08,4.19,4.19,0,0,0,1-.76,19,19,0,0,0,.89-1.85c.45-1.07.71-1.71.77-1.94a.73.73,0,0,0-.24-.66l-.1-.08c0-.17.44-.3,1.33-.39.45,0,.74,0,.86.14s0,.26-.09.59l-1.43,3.52q-.68,1.38-.34,1.9a.55.55,0,0,0,.51.39,3.67,3.67,0,0,0,2.88-1.18l.05-.07v-.1a4.78,4.78,0,0,1,.18-.89,5,5,0,0,1,.89-1.77l.39-.44a7.24,7.24,0,0,1,.54-.52,5.57,5.57,0,0,1,3.3-1.72.39.39,0,0,1,.17-.05,1.81,1.81,0,0,1,1.5.44c.34.29.45.55.34.77s-.36.39-.77.39c-.12,0-.24-.09-.34-.27a.85.85,0,0,0-.89-.79h-.05q-1.45-.15-2.92,2.14a3.06,3.06,0,0,0-.34.81,3.6,3.6,0,0,0-.15.62,3.09,3.09,0,0,0,.1,1.67.15.15,0,0,0,.05.1,1.44,1.44,0,0,0,1.06.76,3.44,3.44,0,0,0,2.24-.37,11.39,11.39,0,0,0,.94-.71l-.05-.27a1.37,1.37,0,0,1,.05-.61,7.09,7.09,0,0,1,1.18-2A6.54,6.54,0,0,1,139,15.89a5.37,5.37,0,0,1,2.39-.64,1.5,1.5,0,0,1,1.18.44,1.11,1.11,0,0,1,.2.88q-.25,1.18-2.39,2.41a3.62,3.62,0,0,1-2.34.49c-.36,0-.57.06-.64.19a2.24,2.24,0,0,0,0,1.1,1.93,1.93,0,0,0,.67.62l.34.2a3.29,3.29,0,0,0,2.65-.2,5.26,5.26,0,0,0,1-.52,9.76,9.76,0,0,0,2.36-1.72,1,1,0,0,1,.69-.39h.05q0,.24-.61.77a10.8,10.8,0,0,1-2.63,1.8.14.14,0,0,1-.1.05,7.78,7.78,0,0,1-4.11,1,2.7,2.7,0,0,1-1.47-.51c-.32-.26-.49-.44-.49-.54l-.08-.14-.25,0-.24.1a12.42,12.42,0,0,1-3.72.94h-.19a4.14,4.14,0,0,0-.54-.07,3.19,3.19,0,0,1-.71-.34c-.42-.26-.62-.42-.62-.49l-.13-.15-.15.1a8.61,8.61,0,0,1-2.95.89,1.89,1.89,0,0,1-1.3-.5q-.76-.78-1.1-.52a5.09,5.09,0,0,1-2.86,1,1.84,1.84,0,0,1-.64-.12,1.57,1.57,0,0,1-.5-.49,1.18,1.18,0,0,1-.29-.62l-.1-.34-.29.2A11.34,11.34,0,0,1,116.52,22a11.22,11.22,0,0,1-3.79.56q-1.67,0-2-.46t.79-1.3a20.54,20.54,0,0,0,2.61-4.33l.05-.12a.57.57,0,0,0,0-.49q-.12-.22-1.08-.32h-.39a8.67,8.67,0,0,0-1.62.1l-.94.15-.05,0-1.78,2.34a15.08,15.08,0,0,1-4.11,3.62,7.66,7.66,0,0,1-4.3.84,2.77,2.77,0,0,1-2.34-1.13l-.1-.25c.19-.19.37-.25.54-.19a2.86,2.86,0,0,0,2.29.91,7.62,7.62,0,0,0,5.63-2.53,62.92,62.92,0,0,0,4.23-5.63l.35-.59a114,114,0,0,1,7.83-9.59l.49-.44h-.05a14.18,14.18,0,0,1-4.21.05q-.5,0-2.68-.44a21.35,21.35,0,0,0-5.05-.42,7,7,0,0,0-4,1.7A9.87,9.87,0,0,0,100,7.43a3.73,3.73,0,0,0-.56,1.72,2.36,2.36,0,0,0,.17,1.36,3.49,3.49,0,0,0,2.73,1.6,8.81,8.81,0,0,0,4.58-.72,13.66,13.66,0,0,0,4.16-2.54,3.21,3.21,0,0,1,.62-.37l.05.08a.75.75,0,0,1-.1.49,13.26,13.26,0,0,1-4.24,2.85,9.55,9.55,0,0,1-4.29,1,5.48,5.48,0,0,1-3.51-1.23,3,3,0,0,1-.65-1,3.55,3.55,0,0,1-.29-1.28,5.56,5.56,0,0,1,.94-2.78,12.85,12.85,0,0,1,2.83-3.17q4-3.23,10.88-1.41a27.48,27.48,0,0,0,4.3.73,8.32,8.32,0,0,0,2.81-.05,1.37,1.37,0,0,1,1-.05.53.53,0,0,1,.49.34.64.64,0,0,1-.1.73l-.15.12c-.69.84-1.16,1.44-1.42,1.79s-1.44,3.28-3.55,8.62v.05q-1.72,4.45-1.85,4.68a6.35,6.35,0,0,1-1.28,1.72l-.3.34a.3.3,0,0,0,0,.44q.34.41,2.76-.1a8.51,8.51,0,0,0,3.55-1.57l.05-.05.84-2.24q.29-.78,2-4.45,1-2.16,1.79-3.67.56-1.21,1-2a8.87,8.87,0,0,1,4.19-3.72,10.32,10.32,0,0,1,4.4-1.21,4.75,4.75,0,0,1,1.62.3,3.69,3.69,0,0,1,1.55.91,3.07,3.07,0,0,1,.89,2.06,6,6,0,0,1-.62,2.71,7.07,7.07,0,0,1-2.06,2.14,8.93,8.93,0,0,1-3.91,1.87l-.44,0a.91.91,0,0,1-.56-.08c-.2-.07-.3-.12-.3-.15l0-.1.13-.07h.44a5.52,5.52,0,0,0,.76-.27c.28-.08.64-.19,1.06-.34a7.92,7.92,0,0,0,3.81-2.32,4.94,4.94,0,0,0,1-2.81q.15-2.95-3.47-3.15A7.18,7.18,0,0,0,129,4.94Zm0,7.22a.88.88,0,0,1-.05.35,1.42,1.42,0,0,1-.72.59q-1,.34-1.16-.25l-.05-.14.05-.23a1.19,1.19,0,0,1,.73-.54C128.35,11.7,128.76,11.77,128.94,12.16Zm9.74,4.67a3.84,3.84,0,0,0-.93,1.4v.07l.15.27a.81.81,0,0,0,.57.12,4.08,4.08,0,0,0,2.16-.79q1-.93.84-1.6c-.11-.27-.41-.4-.9-.4A2.4,2.4,0,0,0,138.67,16.83Zm-60.1,5V22s-.05,0-.05-.1ZM91,16.61a.77.77,0,0,0-.17-.32Q90.33,15.63,89,16a5.35,5.35,0,0,0-2.34,1,3.57,3.57,0,0,0-1.43,2.14,1.94,1.94,0,0,0,0,.44v0a2.22,2.22,0,0,0,0,1.23V21a.26.26,0,0,0,.15.24v.07a2.32,2.32,0,0,0,1.31.67h.07a3.68,3.68,0,0,0,2.28-1l.15-.29a0,0,0,0,1,0-.05h.08v0Q89.52,20,91,16.61Zm7-10q.24.52-.88,1.31a2.23,2.23,0,0,1-.3.39,10.67,10.67,0,0,0-2.17,3.22h0q-.2.35-.4.74h.05L94,12.8l-.44,1.1-.67,1.55Q92,17.2,91,19.54l-.27.64a1.55,1.55,0,0,0-.08,1.41.56.56,0,0,0,.54.27,3.91,3.91,0,0,0,2.88-1,1.42,1.42,0,0,1,.54-.15h.29l.22.15a.14.14,0,0,0,.07.1l-.22.19v0a6.25,6.25,0,0,1-3.86,1.57,3.46,3.46,0,0,1-1.62-.52h-.07a5.14,5.14,0,0,0-.29-.5v-.08a3.4,3.4,0,0,1-.69.52V22.1a5.81,5.81,0,0,1-2.71.67,2,2,0,0,1-.74-.14h0a2.48,2.48,0,0,1-1.11-.84,1.42,1.42,0,0,1-.15-.28,5,5,0,0,1-2.39,1.26h-.07q-1.7,0-2.14-.79V22a1.42,1.42,0,0,1-.24-1.4v-.05q.44-1.26,1.28-3.18l.19-.39v.05a.82.82,0,0,0-.14-.74q-.17-.29-.86,0a5.25,5.25,0,0,0-2.05.69,26.51,26.51,0,0,0-1.75,4h-.05l-.39.69a2.22,2.22,0,0,1-.42.74,1.21,1.21,0,0,1-.84.24c-.16,0-.24-.06-.25-.17s-.13-.42,0-.83V21.6a5.19,5.19,0,0,1-2.39.88A2,2,0,0,1,69.82,22l-.3-.39v-.08l0-.14-.05,0v0a1.51,1.51,0,0,1-.81.71L68.7,22a5.4,5.4,0,0,1-2.64.6,2.19,2.19,0,0,1-1.75-1,1.92,1.92,0,0,1-.39-.94h-.1v.07a22.92,22.92,0,0,1-4,1.3c-.47,0-.69-.07-.66-.22v-.05a.65.65,0,0,1,.34-.3h0a23.13,23.13,0,0,0,4-1.33,4,4,0,0,0,.51-.73,7.31,7.31,0,0,1,1.77-2.11,5.23,5.23,0,0,1,3.79-1.82,2.88,2.88,0,0,1,1.69.4h0a.84.84,0,0,1,.29.08l.56-.17a2.87,2.87,0,0,1,1-.17,2.14,2.14,0,0,1,.94.17l.08.08V16c-.06,0-.08,0-.08,0a3.6,3.6,0,0,1-.79.44h-.05q-.47,0-1.06,1.43-1,2.44-1.15,3a.54.54,0,0,0,.15.4v0a.5.5,0,0,0,.39.12,4.22,4.22,0,0,0,2.22-.71.73.73,0,0,1,.24-.42,1.25,1.25,0,0,0,.25-.32l0-.07q.2-.46.64-1.38.74-1.52.88-1.7v.05c.07-.37,0-.6-.08-.71s-.05,0-.05-.08V16l0-.08c0-.18.1-.28.39-.32a1.11,1.11,0,0,1,.89,0,.62.62,0,0,1,.34.05h.08v.05l.07.12a.77.77,0,0,0,.37.32l.32-.15h0a3.84,3.84,0,0,1,2.36-.52,1.24,1.24,0,0,1,1.21.67h-.05a1.27,1.27,0,0,1,.2,1.08L80.5,20.87a1.07,1.07,0,0,0,.07.88,1,1,0,0,0,.67.29,6.77,6.77,0,0,0,1.82-.91l.47-.29a.26.26,0,0,1,0-.12v0a2.24,2.24,0,0,1,.15-1.38A8.37,8.37,0,0,1,85,17.64l0-.05.47-.47h.05a5.56,5.56,0,0,1,4.06-1.9,3.72,3.72,0,0,1,1.82.37l.08-.24q.29-.72.64-1.5.24-.6.57-1.33a.28.28,0,0,1,.1-.19,8,8,0,0,1,.86-1.48s0,0,0,0a13.18,13.18,0,0,1,2-2.71v0a5.76,5.76,0,0,1,1.85-1.41.34.34,0,0,1,.24-.15H98Zm17,31.89A12.07,12.07,0,0,1,110.52,40a6.87,6.87,0,0,1-1.31.13c-.37,0-.57-.08-.61-.13l-.05-.1q.2-.29,1.14-.39s1.1-.24,3.17-.71q3.35-1.11,4.38-3.17t.15-3.47q-1.06-1.57-3.62-1.28a10.12,10.12,0,0,0-4.61,1.62A13.6,13.6,0,0,0,104,39.17l-2,4.92.67-.42.72-.27a4.59,4.59,0,0,1,2-.22,3.83,3.83,0,0,1,2.61,1.24,3.21,3.21,0,0,1,.72,2.39q-.15,1.58-2.39,3.77a7.89,7.89,0,0,1-5.48,2.54A2.7,2.7,0,0,1,98.63,52l-.39-.71a2.68,2.68,0,0,0-.24-.44l-.1-.34-.29.2a1.28,1.28,0,0,0-.34.24,10.77,10.77,0,0,1-4.77,2,4.48,4.48,0,0,1-2.39-.44A1.94,1.94,0,0,1,89.6,52a2,2,0,0,1-.2-1.77q.3-.84.72-1.9l.94-2.39.25-.61a1,1,0,0,0-.1-1.06,1.08,1.08,0,0,0-1.1-.24.92.92,0,0,0-.29.05,12.42,12.42,0,0,0-1.57.42,3.4,3.4,0,0,0-1.4.66q-.27.34-2.49,5.46l-.46,1a2.32,2.32,0,0,1-.59.86,1.33,1.33,0,0,1-1,.25.31.31,0,0,1-.27-.15c-.12-.16-.12-.49,0-1l.2-.61-.59.34-.37.22a12.34,12.34,0,0,1-6,1.6A3.14,3.14,0,0,1,73,52.07a1.82,1.82,0,0,1-.62-1l-.15-.34,0,0-.27.19A7.86,7.86,0,0,1,66.83,53a3.74,3.74,0,0,1-2.21-.62,4.52,4.52,0,0,1-.39-.66l0-.39-.34.17A8.92,8.92,0,0,1,58.55,53,2.19,2.19,0,0,1,56.65,52a8.22,8.22,0,0,0-.39-1v-.47l-.39.29Q52.69,53,51.12,53a3.26,3.26,0,0,1-2.06-.62,3.84,3.84,0,0,1-.39-.61l-.1-.54-.34.37a3.71,3.71,0,0,1-1.18.91,7.17,7.17,0,0,1-3.67.83,2.7,2.7,0,0,1-1-.17A3.24,3.24,0,0,1,40.95,52a2.8,2.8,0,0,1-.62-1.38l-.1-.24-.24.08-2.93,1.1a14.62,14.62,0,0,1-2.95.91c-.57,0-.86,0-.86-.13a1.54,1.54,0,0,1,.47-.34q2-.56,3.34-1A13.47,13.47,0,0,0,39.74,50a2.67,2.67,0,0,0,.88-1.15,8.24,8.24,0,0,1,1.8-2.34l.71-.72q2.88-2.7,5.56-2.68a4.35,4.35,0,0,1,2.44.59l.35.14.88-.19a9,9,0,0,1,1.52-.32,1.87,1.87,0,0,1,1.21.27,1.56,1.56,0,0,1-1.11.57q-.71,0-1.67,2.26a34.78,34.78,0,0,0-1.67,4.35l-.05.08a1,1,0,0,0,.29.76.79.79,0,0,0,.61.28,6.59,6.59,0,0,0,4.5-2l.1-.1a4.7,4.7,0,0,0,.67-.67,5.63,5.63,0,0,0,.39-.94l0-.08,4.23-9.69A14.79,14.79,0,0,1,63.83,35a12.24,12.24,0,0,1,4.3-3.32,13,13,0,0,1,3.52-1,2.46,2.46,0,0,1,1.25.1c.19.19.25.34.19.44l-.19.05h-.1a9.1,9.1,0,0,0-5.54,1.47,13.84,13.84,0,0,0-2.48,2.73A14,14,0,0,0,63,38.22L58.37,49.58a2,2,0,0,0,0,1.73,1.16,1.16,0,0,0,1,.56,7,7,0,0,0,2-.24,7.94,7.94,0,0,0,1.87-.71,6.29,6.29,0,0,0,1.08-.57v0l.05-.05q0-.1,4.88-11.2a20.2,20.2,0,0,1,3.57-5.37,11.42,11.42,0,0,1,5.41-3.47q5.44-1.45,7.19,1.43a3.29,3.29,0,0,1-.14,3.47,7.38,7.38,0,0,1-1.48,2.06,10.28,10.28,0,0,1-3.3,2.34,9.84,9.84,0,0,1-3.79,1.06q-1.31.1-1.45-.24l.05-.15a3.47,3.47,0,0,1,1.42-.29,9.93,9.93,0,0,0,3.82-1,7.84,7.84,0,0,0,3-2.12A7.09,7.09,0,0,0,84.92,34a3.79,3.79,0,0,0-.27-2q-.49-1.08-2.59-1.47-4.35-.77-8.49,3.72-1.21,1.33-7.07,14.42l-.38.84a2.15,2.15,0,0,0-.1,2.1,1.12,1.12,0,0,0,.91.52A5.8,5.8,0,0,0,71,50.79a1.08,1.08,0,0,1,.62-.25h.27l.32.2-.1-.44a2,2,0,0,1-.05-.88,4.63,4.63,0,0,1,.61-2.07,8.48,8.48,0,0,1,2.54-2.73,6.6,6.6,0,0,1,4-1.45,2.43,2.43,0,0,1,2.11.88.51.51,0,0,1,.08.13,1.84,1.84,0,0,1,.05,2l-.14.25a8,8,0,0,1-3.82,2.53,5,5,0,0,1-2.78.51h-.12l-.17.05c-.11.1-.17.36-.17.78a3.26,3.26,0,0,0,.07,1.06,1.31,1.31,0,0,0,1.06.94A8.24,8.24,0,0,0,80,51.36c.48-.22.92-.45,1.31-.67s1-.55,1.36-.78l.1-.1Q83,49.43,84,47.42a25.65,25.65,0,0,0,1.08-2.36V45c.19-.48.17-.82-.07-1l-.12-.15c0-.12.16-.24.47-.34a3.27,3.27,0,0,1,1.11-.05c.31.07.49.14.54.2l.07.13c.22.29.45.42.67.39l.44-.13a.15.15,0,0,0,.1-.05,7.78,7.78,0,0,1,1.85-.56,3.69,3.69,0,0,1,1.25-.1,1.8,1.8,0,0,1,1.47.79A1.66,1.66,0,0,1,93,45.47l-1.94,5a1.6,1.6,0,0,0,.2,1.35,1.18,1.18,0,0,0,1,.4,8.87,8.87,0,0,0,2.29-.62,9,9,0,0,0,2.16-1l1.23-.83.05,0c.1-.26.2-.52.29-.77a88.88,88.88,0,0,1,4.21-9.7,20.81,20.81,0,0,1,4-5.59,11.09,11.09,0,0,1,7.28-3.29q3.47-.08,4.4,1.77a3.54,3.54,0,0,1,.32,2.06,3.62,3.62,0,0,1-.61,1.62A10.87,10.87,0,0,1,115.06,38.46Zm-.37-29q-.84,1.13-2.24,3.18-1.28,1.82-1.28,1.89l-.15.22v.05a9.4,9.4,0,0,0,1.77.08,11.08,11.08,0,0,0,1.9-.08h.05a.89.89,0,0,0,.47-.59l3.54-8.31c.29-.7.39-1,.29-.94l-.77.62A25.5,25.5,0,0,0,114.69,9.49ZM140.56,43.8a.58.58,0,0,1-.05.39l-.05.15q-2.58,6-4.08,9.3T134.6,57.5a15.35,15.35,0,0,1-3.3,3.94,10,10,0,0,1-6.65,2.39,5.16,5.16,0,0,1-3.39-1,10.68,10.68,0,0,1-.57-1,.32.32,0,0,1,.24-.35c.14,0,.29.11.49.34l.29.28a4.06,4.06,0,0,0,1,.94,5.3,5.3,0,0,0,1.9.34q5.66.15,8.79-6.45l1.82-4.35-.15-.14q-.13-.15-.39,0a4.32,4.32,0,0,1-2.61.62,3.46,3.46,0,0,1-2.19-.88l-.88-.89-.13-.23-.2.13a6.86,6.86,0,0,1-2.68,1.1,6.48,6.48,0,0,1-1.89.19,1.24,1.24,0,0,1,.22-.29q.49-.09,2-.51a8,8,0,0,0,2.05-.67l.44-.29h.05l.05-.15v-.05l-.1-.62a5.72,5.72,0,0,1,1.72-3.52,9.77,9.77,0,0,1,4-2.49,8.39,8.39,0,0,1,2.18-.51,3,3,0,0,1,1.16.12c.26.1.4.2.44.29a.43.43,0,0,0,.4.2.5.5,0,0,0,.39-.25c0-.06.2-.12.49-.19a1.08,1.08,0,0,1,.57-.1Zm-2.68.34a1.77,1.77,0,0,0-1.5-.29A9.36,9.36,0,0,0,133.43,45a4.77,4.77,0,0,0-2.8,4.23,3.52,3.52,0,0,0,.61,2.39,1.9,1.9,0,0,0,1.41.78,5,5,0,0,0,3.22-1.43l.05,0v-.05l.05,0a45,45,0,0,0,2.39-5.27A1.72,1.72,0,0,0,137.88,44.14Zm-6.35.1a6.67,6.67,0,0,1-3.07.84,4.75,4.75,0,0,1-1.52-.32,2.24,2.24,0,0,0-1.43-.08,2.08,2.08,0,0,1-.67.14h-.22c-.15,0-.31.27-.49.71s-.79,2.11-1.69,4.58l-.66,2a1,1,0,0,1-.87.76h-.14a.77.77,0,0,1-.67-.34.44.44,0,0,1-.1-.34c.15-.42.15-.68,0-.79s-.12-.15-.27-.15a.36.36,0,0,0-.24.1,1.07,1.07,0,0,0-.29.15A12.53,12.53,0,0,1,114.09,53a3.59,3.59,0,0,1-2.44-1.16l-.84-1.08-.15-.25-.24.15a11.46,11.46,0,0,1-2.66,1.23,6.17,6.17,0,0,1-1.89.44c0-.1.1-.21.29-.34q3.77-1.43,4.11-1.67l.54-.54v-.19a5.52,5.52,0,0,1,.84-2.81,8.14,8.14,0,0,1,4.92-3.42,2.36,2.36,0,0,1,2.93.66.18.18,0,0,1,.07.13,2.37,2.37,0,0,1,.32,1.43,1.89,1.89,0,0,1-.39,1,2.59,2.59,0,0,1-.25.29,8.58,8.58,0,0,1-2.43,1.57,7.83,7.83,0,0,1-2.88.83l-.89-.12-.29-.12-.05.34s0,.27-.05.79a2.2,2.2,0,0,0,.44,1.33,1.33,1.33,0,0,0,.94.54,7.57,7.57,0,0,0,4.84-1.19l.62-.34a10,10,0,0,0,1.42-1,.85.85,0,0,0,.2-.17h.05v-.1q1.33-3.55,1.45-4.18a1.06,1.06,0,0,0,0-.56.64.64,0,0,0-.39-.19.58.58,0,0,1-.54-.25s0-.08,0-.13.34-.25.93-.25h.46a3,3,0,0,1,1.33.1v0l.05.1a.69.69,0,0,0,.82.39l.47-.24a3.07,3.07,0,0,1,2.23-.49l1.26.39a2.32,2.32,0,0,0,1.72.1q.57-.2.76,0ZM42.21,72.32l0,0q3.37,1.55,3.54.09h0a1.46,1.46,0,0,0-.24-.26l-.46-.49.73-.32q2.59-.76,2.41,0t-1.51,3.72q-1.43,3.32-1.15,4a1.18,1.18,0,0,0,.89.78,2.79,2.79,0,0,0,1.72-.42l.39-.14a9.36,9.36,0,0,0,1.38-.77A5.53,5.53,0,0,0,51,77l2-4.9a1.82,1.82,0,0,1,1.06-.74,1,1,0,0,1,1,.12c.2.24.13.52-.2.86l-1.7,3.57a24.61,24.61,0,0,0-1.3,3,1.13,1.13,0,0,0,.3,1.08,2.87,2.87,0,0,0,2.46,0q.82-.38,1.47-.73l.67-1.61,1-2.12q1.11-2.14,1.21-2.44c.19-.56.16-.94-.1-1.13l-.1-.08c0-.19.16-.32.49-.37a1.71,1.71,0,0,1,1.11,0l.56.09.1.22a.83.83,0,0,0,.66.44l.46-.19a6.55,6.55,0,0,1,3.28-.74,1.57,1.57,0,0,1,1.48.86,1.88,1.88,0,0,1,.22,1.36l-2,5.17a1.64,1.64,0,0,0,.19,1.3,1.15,1.15,0,0,0,.94.47,6.78,6.78,0,0,0,1.67-.2,8.26,8.26,0,0,0,1.64-.66,2.53,2.53,0,0,1-.4-1.11l-.05-.18a3,3,0,0,1,.44-1.92,8.24,8.24,0,0,1,1.74-2.22,8.58,8.58,0,0,0,.77-.69q3-2.81,5.76-2.73H78a5.29,5.29,0,0,1,1.53.25,1.66,1.66,0,0,1,.42.17,1.48,1.48,0,0,0,.14-.32L81,68.74q.35-.94.79-1.92a.21.21,0,0,1,.14-.2,15.88,15.88,0,0,1,1.21-2.24l0,0a19,19,0,0,1,2.88-3.91,10.79,10.79,0,0,1,2.69-1.94,7.24,7.24,0,0,1,.76-.39,10.6,10.6,0,0,1,3.84-.79h1a4.34,4.34,0,0,1,1.79.27q.52.47.32.78c-.07.13-.25.16-.54.08a5,5,0,0,0-2.65-.54,9.55,9.55,0,0,0-3.5.88,4.48,4.48,0,0,0-1,.61,9.56,9.56,0,0,0-1.35,1,16,16,0,0,0-3.13,4.72l-.56,1.1-.34.86-.62,1.47q-.49,1.11-1,2.22-1.25,2.56-2.78,5.91l-.37.84a2.42,2.42,0,0,0-.1,2.21,1.18,1.18,0,0,0,.94.47,6.21,6.21,0,0,0,4-1.13,1.58,1.58,0,0,1-.18-.64l0-.07a2.9,2.9,0,0,1,.35-1.85,10.64,10.64,0,0,1,2.26-3q2.61-2.75,5-2.68a3.68,3.68,0,0,1,2.17.56,2,2,0,0,1,.34.15l.81-.22A7.57,7.57,0,0,1,95.58,71a1.49,1.49,0,0,1,1.11.34,1.61,1.61,0,0,1-1.06.52Q95,72,94.19,74.18a42.24,42.24,0,0,0-1.53,4.43v.07c-.1.74-.07,1.18.08,1.3s.65.12,1.47,0,2.13-1.07,4.21-2.86l1.85-4.68.08-.07-.08-.14c0-.11-.08-.19-.25-.22-.34-.12-.48-.3-.44-.54s.34-.57.91-.62l.94-.22v-.15l.94-1.85a17,17,0,0,1,4.23-4.19c.69-.42,1-.55,1.08-.4l-.05.4h-.15a11.07,11.07,0,0,0-3.66,4.26l-.64,1.43-.08.35v.08c.06.25.3.37.72.37a1.14,1.14,0,0,1,.78.2l.07.22c0,.28-.25.44-.62.47l-1.75.23-2.44,6.1-.14.79a1,1,0,0,0,.22.79,1.25,1.25,0,0,0,1.16.56,7.57,7.57,0,0,0,3.57-1A4.56,4.56,0,0,0,106.46,78a1.83,1.83,0,0,1,.09-.37l.12-.27q.27-.54,1-2.11a1.44,1.44,0,0,1,.08-.2h0q1-2.27,1.08-2.75a1.26,1.26,0,0,0-.07-.67.94.94,0,0,0-.28-.34l-.12-.15c0-.22.65-.4,2-.54a1.84,1.84,0,0,1,.81.05,1.49,1.49,0,0,0,.19.19c.07.06,0,.34-.27.86l-1.62,3.74-.52,1.15a4.87,4.87,0,0,0-.51,1.92,2.25,2.25,0,0,0,.27,1.31c.06.19.36.33.91.4h0a5,5,0,0,0,3.37-1,.12.12,0,0,1,.07-.05,5.42,5.42,0,0,0,.44-.32,5.62,5.62,0,0,1,0-1.09c0-.23.05-.44.08-.64a1.79,1.79,0,0,1,.14-.56l.12-.22c0-.12.1-.24.15-.35l.1-.27.1-.2a14,14,0,0,1,.81-1.43,2.9,2.9,0,0,1,.29-.46c.08-.12.16-.24.24-.34q2.06-2.83,4.46-2.83a3.66,3.66,0,0,1,2.39.84,1.63,1.63,0,0,1,.56.78l.17.2q2.06,1.36,3.17,1a.9.9,0,0,0,.74-1.06l.27.22a.73.73,0,0,0-.17-.74l-.1-.17c0-.15.15-.27.44-.37a2.66,2.66,0,0,1,1.19,0,1.61,1.61,0,0,1,.57.15l.05.15c.27.34.52.48.76.44l.44-.13a7,7,0,0,1,3.37-.79,2,2,0,0,1,1.58.84,1.81,1.81,0,0,1,.13,1.5l-2,5.24a1.78,1.78,0,0,0,.2,1.4,1.28,1.28,0,0,0,1,.42,7.88,7.88,0,0,0,2.38-.59,11.21,11.21,0,0,0,2.27-1.08l1.3-.89q.61.07,0,.81l-.29.17A12.32,12.32,0,0,1,135,81.23q-2.34.05-3.07-1a2,2,0,0,1-.22-1.84q.66-1.9,1.77-4.62l.29-.66a1.18,1.18,0,0,0-.17-1.1c-.25-.34-.73-.39-1.45-.15q-2.63.59-3.07,1.11a43.66,43.66,0,0,0-2.63,5.78l-.5,1.08a2.7,2.7,0,0,1-.61,1,1.49,1.49,0,0,1-1.08.22.33.33,0,0,1-.3-.14q-.24-.25,0-1l.71-1.89L126,75.39c.48-1,.81-1.65,1-2.06a4,4,0,0,1-1,.46,2.6,2.6,0,0,1-2.36-.32c-.14-.09-.31,0-.54.2a1.48,1.48,0,0,0-.46.69l-.07.22q-1.3,5.9-5.59,6.64l-.24,0a2.1,2.1,0,0,1-1-.05,3,3,0,0,1-.69-.34l-.05,0-.27-.2a6,6,0,0,1-.64-.56l-.25-.34a4.18,4.18,0,0,1-.27-.4q-.62.44-1.57,1a4.93,4.93,0,0,1-2.63.76,4,4,0,0,1-1.16-.25,5.94,5.94,0,0,1-.54-.32,1.42,1.42,0,0,1-.24-.22,4.17,4.17,0,0,1-.86-1.48,1.37,1.37,0,0,1-.1-.36A9.76,9.76,0,0,1,101.77,81q-2.29.3-3-.22A1.81,1.81,0,0,1,98,79.68a5,5,0,0,1,0-1.16l.12-.66.06-.14q-3.82,3.23-5,3.38a1.73,1.73,0,0,1-1.94-.91,3,3,0,0,1-.3-.64l-.14-.44-.27.34a3.19,3.19,0,0,1-1.08.88,5.61,5.61,0,0,1-3.3.81,2.47,2.47,0,0,1-2.19-1.3,5.11,5.11,0,0,1-.29-.5,7.07,7.07,0,0,1-4.2,1.88,4.45,4.45,0,0,1-2.29-.66,3.77,3.77,0,0,1-.39-.64l-.74.42a7.75,7.75,0,0,1-3.72.88A3.06,3.06,0,0,1,71.24,81a3.67,3.67,0,0,1-1.53-1.13l-.17-.29a5.83,5.83,0,0,1-3,1.57q-2.26.09-2.91-1a1.87,1.87,0,0,1-.27-1.8q.64-1.77,1.75-4.46l.29-.56a1.09,1.09,0,0,0-.17-1.15q-.39-.44-1.42-.07a8.33,8.33,0,0,0-3,1,40.18,40.18,0,0,0-2.53,5.59l-.55,1a2.91,2.91,0,0,1-.56.94,1.5,1.5,0,0,1-1,.27.31.31,0,0,1-.27-.15c-.13-.15-.13-.5,0-1.06l0,0q-2,1.41-3,1.26A2.54,2.54,0,0,1,51,80.34a2.64,2.64,0,0,1-.42-1l-.35.22A8.37,8.37,0,0,1,46,81.11a2.66,2.66,0,0,1-1.63-.84l-.27-.37A2.7,2.7,0,0,1,44.07,78q.37-.81,1.78-4.37a2.26,2.26,0,0,1-2.28.19q-1.5-.51-1.75.62l-.12.19q-1.47,6-6.2,6.53a1.86,1.86,0,0,1-1.62-.34A3.9,3.9,0,0,1,33,79.45,6.22,6.22,0,0,1,32.73,77,6,6,0,0,1,34,73.62,10.13,10.13,0,0,1,35,72.53a29.76,29.76,0,0,1-6.88.56q-5.14,8.46-12,10a9,9,0,0,1-2.58.4,5.44,5.44,0,0,1-1.5-.12,5.23,5.23,0,0,1-2.38-1.1,1.57,1.57,0,0,1-.56-.64,2.82,2.82,0,0,1-.61-1.82,4.17,4.17,0,0,1,1.77-3.32,7.79,7.79,0,0,1,4.36-2.22q2.85-.32,4,1.73a2.11,2.11,0,0,1-.34,2q-.44.79-.91.54a7,7,0,0,0,.61-1.2,2.85,2.85,0,0,0-.27-1.78q-.59-.79-2.41-.52A7.27,7.27,0,0,0,12,76.18,6,6,0,0,0,9.8,77.83,2.93,2.93,0,0,0,9,79.56a2.7,2.7,0,0,0,.15,1.1.31.31,0,0,1,0,.17,2.23,2.23,0,0,0,1.33,1.35,10.75,10.75,0,0,0,2.32.44,19.09,19.09,0,0,0,1.94,0,10.56,10.56,0,0,0,2.75-.87,10.35,10.35,0,0,0,3.28-2.36,16.84,16.84,0,0,0,3-3.65q.91-1.25,1.89-2.81-3.66-.86-.14-1.82a8.81,8.81,0,0,0,1,.29,6.8,6.8,0,0,1,.34-.62l.59-1L29.4,67a35.77,35.77,0,0,1,2.1-3,31.48,31.48,0,0,1,3.64-3.79l-.44-.05c-.2-.06-.43-.11-.69-.15l-2-.39q-1.69-.39-3-.56a21.76,21.76,0,0,0-3.6-.35,8.73,8.73,0,0,0-1.77.12,10.74,10.74,0,0,0-2.49.46A9.8,9.8,0,0,0,17.67,61a10.5,10.5,0,0,0-2.48,2.24,5.71,5.71,0,0,0-.86,2.81,2.83,2.83,0,0,0,.93,2.46,4.18,4.18,0,0,0,2.9,1.1,8.87,8.87,0,0,0,2.93-.44,8.42,8.42,0,0,0,2.81-1.35,9,9,0,0,0,1.45-.94c.4-.38.82-.8,1.25-1.25a17,17,0,0,0,2.38-3q.34-.79.67,0A18.83,18.83,0,0,1,27.53,66l-.74.91a10.93,10.93,0,0,1-1.89,1.45,9,9,0,0,1-3.17,1.55,10.67,10.67,0,0,1-3.5.49,5.24,5.24,0,0,1-3.5-1.2A4,4,0,0,1,13.51,66a6.42,6.42,0,0,1,1.1-3.23,10.9,10.9,0,0,1,2.69-2.7,17.39,17.39,0,0,1,4.35-2q.93-.24,2-.42a19,19,0,0,1,3.69-.17q1.77.07,3.6.25t3.08.52l.34.07,2.71.54.35.05q1.62.22,3.15.32h.07q1.51.15,5,.19a25.49,25.49,0,0,0,7.23-1,11.38,11.38,0,0,0,1.31-.56c2.47-1,1,.34.63.51L53,59.23a21.5,21.5,0,0,1-7.29,1.38,63.9,63.9,0,0,1-6.86,0l-1.16,0h-.44l-.5-.07s-.51-.07-.49-.07l-.26,0a21.9,21.9,0,0,0-2.54,3,24.16,24.16,0,0,0-2,3.4q-.57,1-1.06,2.07-.66,1.31-1.5,2.73a11.89,11.89,0,0,0,6.08.24l.88-.14A5,5,0,0,1,39,70.57a3.75,3.75,0,0,1,2.51.77,9.92,9.92,0,0,1,.61.79m75.8-28q-.84-.57-3,.83a5.22,5.22,0,0,0-2.09,3.52l-.05.15.08.1q.39.39,2.31-.2a6.18,6.18,0,0,0,2-1.13,2.78,2.78,0,0,0,1.13-1.78C118.47,44.84,118.35,44.35,118,44.09ZM105.32,44a3.61,3.61,0,0,0-2.29.34q-1.5.57-1.62,1a31.65,31.65,0,0,0-1.68,4.46v0a.89.89,0,0,0-.1.54,2,2,0,0,0,.29,1q1,1.91,4.24.22A5.43,5.43,0,0,0,107,47.41Q107.59,44.73,105.32,44Zm6.48,23.62q-1.4.49-1.68-.39l-.07-.19.07-.37a1.66,1.66,0,0,1,1.08-.79q1.36-.52,1.73.32a1.07,1.07,0,0,1-.07.56A2,2,0,0,1,111.8,67.62Zm4,7.46a3.15,3.15,0,0,0-.14.47,7.61,7.61,0,0,0-.22,1.82,4.92,4.92,0,0,0,.25,1.68,1.45,1.45,0,0,0,.17.35,1.69,1.69,0,0,0,1.06.71h0q2.42.27,4.18-3.72a5.54,5.54,0,0,0,.51-2.11,4.4,4.4,0,0,0-.44-2.17,1.48,1.48,0,0,0-1.26-.71,3.36,3.36,0,0,0-2.53,1.2,7.13,7.13,0,0,0-.64.72A6.14,6.14,0,0,0,115.81,75.09Zm-23-1.47a1.56,1.56,0,0,0-.3-1.48q-.69-.93-2.39-.45a7.78,7.78,0,0,0-3,1.65A5.34,5.34,0,0,0,85.22,77a3.57,3.57,0,0,0,.32,2.39,2.56,2.56,0,0,0,1.72.93q1.48.18,3.66-2.07l.05-.05V78.1l1.8-4.51ZM51.06.69a3.34,3.34,0,0,1,1.47.72.25.25,0,0,1,.07.34.4.4,0,0,1-.29.12l-.49-.17a9.15,9.15,0,0,0-2-.62Q43,.15,38.93,3.54q-1,.88-2.78,2.73L34.26,8.32l-.87.86A29.16,29.16,0,0,1,29,13l-.86.44a1.56,1.56,0,0,0-.56.34c0,.11.06.35.28.71q.94,1.63.51,2.39a16.84,16.84,0,0,0-.89,2.39q-.57,1.75-.34,2.14a1.45,1.45,0,0,0,.89.73,2.47,2.47,0,0,0,1.78-.29,5.75,5.75,0,0,0,2.56-3.07q.72-1.82.25-2.16a.5.5,0,0,1-.2-.34c0-.11.07-.18.2-.22a3,3,0,0,1,.86-.39,2.26,2.26,0,0,1,.66.15l.49.17a.83.83,0,0,0,.76.07l.2-.07a11.34,11.34,0,0,1,1.85-.5h.1a1.09,1.09,0,0,1,1,.5,1.11,1.11,0,0,1,.19,1,20.06,20.06,0,0,1-1.13,3.12l-.15.44a1.12,1.12,0,0,0,0,.89,1.09,1.09,0,0,0,.2.24,1,1,0,0,0,1.06.05,5,5,0,0,0,2-1.35,23.09,23.09,0,0,0,1.4-3l.12-.39a.82.82,0,0,0-.34-.62L41.56,16l.51-.22c1.29-.38,2-.42,2.12-.1s0,1-.47,1.92l-.44.89q-1.16,2.14-1,2.58t.46.62q.39.2,1.21-.24l.29-.1a7.29,7.29,0,0,0,1-.57,3.67,3.67,0,0,0,.78-1.1l1.62-3.35A1.28,1.28,0,0,1,49,15.89c.13,0,.14.2.05.56l-1,2.34a10,10,0,0,0-.77,1.9,1.05,1.05,0,0,0,.28.77,1.18,1.18,0,0,0,.93.1,6.53,6.53,0,0,0,2.9-1.38,9.54,9.54,0,0,0,.72-1.3,4.12,4.12,0,0,0,.19-.44l.2-.49q.51-1.23.29-1.52a.87.87,0,0,1-.34-.56l0-.1A8.14,8.14,0,0,1,53.64,15l.1-.1a9.2,9.2,0,0,1,.72-1.47A6.76,6.76,0,0,1,55.8,11.5a7.05,7.05,0,0,1,2.86-1.18.85.85,0,0,1,.49.05l.07.19c0,.13-.19.25-.56.34l-.91.34a3.37,3.37,0,0,0-1.19.71q-1,2.27-1.1,2.44l-.1.19.19.15c.39.23.6.43.62.62s.07.48,0,.56,0,.12-.13.12l-1.38.15-1.57,3.34q-.39,1.18,0,1.67a.59.59,0,0,0,.56.29A7,7,0,0,0,55.2,21a5.68,5.68,0,0,0,1.28-.57l.32-.1.12.17c.07.11,0,.26-.22.45a7.6,7.6,0,0,1-3.12,1.38A2.61,2.61,0,0,1,52.36,22,2.19,2.19,0,0,1,52,21.8a1.26,1.26,0,0,1-.39-.49l-.1-.29-.24.15a14.68,14.68,0,0,1-3.72,1.3A2,2,0,0,1,46.06,22l-.2-.39-.08-.34-.3.2a6.08,6.08,0,0,1-3.08,1.13,2.16,2.16,0,0,1-1.26-.56l-.39-.52-.08-.25-.25.15a7.3,7.3,0,0,1-2.85,1.13h-.1a1.77,1.77,0,0,1-1-.34,1.33,1.33,0,0,1-.61-1.18,10.08,10.08,0,0,1,1.28-3.62l0-.1q.28-.62,0-.91c-.19-.18-.45-.18-.77,0l-1.85.77-.15,0-1.62,4.26q-.39,1-.77,1.08a.94.94,0,0,1-.74,0L31,22.23l0-.34-.3.14a8.78,8.78,0,0,1-3.47.86,1.47,1.47,0,0,1-1.11-.66,2.58,2.58,0,0,1-.51-1.89,26.18,26.18,0,0,1,.94-3,7.65,7.65,0,0,0,.62-1.9,1.93,1.93,0,0,0-.29-1.67v-.1l.14-.23.39-.2a10.42,10.42,0,0,0,2.66-2q1.06-1,3.4-3.39l.83-.83c.5-.52,1.1-1.15,1.79-1.9a19.6,19.6,0,0,1,2.27-2.11A15.64,15.64,0,0,1,42.89.54,13.78,13.78,0,0,1,47.57,0,10.48,10.48,0,0,1,51.06.69ZM23.28,4l-.39-.15a24.1,24.1,0,0,0-3.27-.74,9.35,9.35,0,0,0-4.41.57,19.82,19.82,0,0,0-4.33,2.17q-2.8,2-3.18,4.23a3.29,3.29,0,0,0,2.06,4.06,8.68,8.68,0,0,0,4.48.74,7.12,7.12,0,0,0,3.59-1.13,24,24,0,0,0,2.43-1.94q.1-.12,2.26-2.36a4.37,4.37,0,0,1,.79-.73c.23.23.15.56-.22,1a24.65,24.65,0,0,1-5.31,4.78,7.64,7.64,0,0,1-4.16,1.23,8.77,8.77,0,0,1-3.81-.73,5.08,5.08,0,0,1-2.54-2.29c-.26-.89-.39-1.35-.39-1.38v-.05Q6.8,8.81,9.41,6.17A13.64,13.64,0,0,1,15.16,2.8a11.94,11.94,0,0,1,4-.54,24,24,0,0,1,5,1.06,21.57,21.57,0,0,0,4.73,1,3.25,3.25,0,0,0,2-.51q.72-.44.89-.27a.45.45,0,0,1-.22.34l-.39.39q-1.52,1.4-2.19,2.11A15.12,15.12,0,0,0,27,9.43l-.62,1.38q-1.47,3.35-2.34,5a17.46,17.46,0,0,1-3.24,4.61,11.48,11.48,0,0,1-4.06,2.68,8.75,8.75,0,0,1-4.4.15q-2.24-.39-2.58-1v-.1c.07-.1.35-.06.86.12a6.57,6.57,0,0,0,1.77.49A8.46,8.46,0,0,0,16,22.52a11.65,11.65,0,0,0,4.3-3.6q2.26-2.41,5.07-9A11.66,11.66,0,0,1,27.58,6.5a8.79,8.79,0,0,1,1.13-1l.67-.4L28.62,5A24.88,24.88,0,0,1,23.28,4ZM37.4,36l-2.24,5.24Q34,44.09,32.6,46.68a7.05,7.05,0,0,0-.39.67,12.44,12.44,0,0,0-.83,1.72l-.14.4c-.17.23-.15.39.05.49s.28,0,.47-.29a7.8,7.8,0,0,0,.83-.81q1.67-1.8,4.46-5.41.67-.79,1.4-1.75,2.06-2.59,4-4.6,1-1.09,2.06-2a2,2,0,0,0,.44-.39l.56-.46a22.23,22.23,0,0,1,9-4.78,11.41,11.41,0,0,1,4.77-.1c.07,0,.79.27,2.16.73q.71.39.71.56-.1.34-.89.15l-.05,0A11.27,11.27,0,0,0,55,30.16l-1.16.34a22.39,22.39,0,0,0-7.34,4.23l-.42.39q-1.77,1.5-3.64,3.4-2.29,2.34-4.72,5.34l-.34.44-.3.39q-3,3.76-4.46,5.42-.62.72-1,1A8,8,0,0,1,28.75,53a2.26,2.26,0,0,1-.79.15l-.2,0-.05-.15a2.35,2.35,0,0,1,.15-.52l5-10.51a13.57,13.57,0,0,1,.72-1.72l-1.15,1.43q-6.25,8.31-8.74,10.14l-.29.17q-2.06,1.3-2.39.88L21,52.7l-.05-.05a5.64,5.64,0,0,1,.93-1.77,34.85,34.85,0,0,0,1.85-3.47q.88-1.78,2-4.23,1.77-3.79,2-4.23Q30.1,34,31.87,33l.39-.28-.05-.12-.24.05h-.2a7.78,7.78,0,0,1-3.23,0,27.14,27.14,0,0,1-3.5-.83c-.48-.16-.93-.29-1.33-.39s-1-.34-1.4-.44a21.85,21.85,0,0,0-3-.69,18.72,18.72,0,0,0-7,.57A20.12,20.12,0,0,0,5.71,34Q1.07,37.35.79,41.22A4.06,4.06,0,0,0,2,44.58q2.68,2.49,7.75,1.67a19.68,19.68,0,0,0,8.47-3.52,13.37,13.37,0,0,0,3.89-4.16l.1-.1.17.15c.07.11,0,.26-.1.46A5.4,5.4,0,0,1,21.07,41a14.42,14.42,0,0,1-2.83,2.66A18.31,18.31,0,0,1,9.5,47q-5.19.66-7.87-1.84A5.1,5.1,0,0,1,0,40.9a7.78,7.78,0,0,1,1.52-4,16,16,0,0,1,3.69-3.69A22.5,22.5,0,0,1,12,30a19.75,19.75,0,0,1,7.26-.83,11.75,11.75,0,0,1,4.4,1.3.38.38,0,0,1,.15.05A13.11,13.11,0,0,0,28,31.87a16.09,16.09,0,0,0,5,0,7.39,7.39,0,0,0,2.17-.67c.35-.1.56-.12.63-.05l-.72.57a26.11,26.11,0,0,0-3.86,3.59,36,36,0,0,0-3.44,7.31l-.29.72a58.09,58.09,0,0,1-2.63,5.39l-.1.28a.26.26,0,0,0,.1.24q.29.17.81-.34t2.49-3.2l4.45-5.65A10.13,10.13,0,0,1,33.44,39a27.29,27.29,0,0,1,3.62-3.51h0c.22-.12.37-.17.44-.15S37.56,35.63,37.4,36ZM71,17.42a.83.83,0,0,0-.25-.81,1.5,1.5,0,0,0-1.72-.32,5.11,5.11,0,0,0-2.19,1.06,3.27,3.27,0,0,0-1.38,2.39,1.83,1.83,0,0,0,.22,1.53,1.51,1.51,0,0,0,1.21.54h0Q68,22,69.66,20.57ZM36.79,72.32a3.61,3.61,0,0,0-.39.34A5.89,5.89,0,0,0,34.72,75a6.62,6.62,0,0,0-.45,2.29,3.13,3.13,0,0,0,.39,1.94q.51.76,1.06.76,2.56.19,4.45-3.64a7,7,0,0,0,.54-2.09,4.74,4.74,0,0,0-.32-2,1.09,1.09,0,0,0-.08-.17v0A1.46,1.46,0,0,0,39,71.53,3,3,0,0,0,36.79,72.32ZM79.63,44.09a1.73,1.73,0,0,0-1.58,0,6,6,0,0,0-1.74.93,4.37,4.37,0,0,0-1.52,2.06,3.83,3.83,0,0,0-.34,1.28l-.05.24.24,0,1,.1,1.72-.49a4.48,4.48,0,0,0,2.39-2.49Q80.2,44.53,79.63,44.09ZM78,71.46a3.27,3.27,0,0,0-1.18.2,7.42,7.42,0,0,0-3.4,1.5,5.72,5.72,0,0,0-2.14,3.17,2.88,2.88,0,0,0,.47,3.08,3,3,0,0,0,1.75.83,4.08,4.08,0,0,0,2.32-1A3.74,3.74,0,0,0,77,77.75q.49-1.21,2.07-4.82,0-.12.39-.81A1.53,1.53,0,0,0,78,71.46ZM47.76,43.9a9,9,0,0,0-3.37,1.57,5.67,5.67,0,0,0-2,3.07,4.71,4.71,0,0,0-.13.6A3.23,3.23,0,0,0,42.42,51a1.62,1.62,0,0,0,.3.46,2.55,2.55,0,0,0,1.9,1q1.67.19,4.16-2.06l0-.05v0l2-4.45a1.24,1.24,0,0,0-.34-1.47Q49.68,43.4,47.76,43.9Z" style="fill:#fff"/></svg>